<?xml version="1.0" encoding="UTF-8"?>
<!DOCTYPE svg PUBLIC "-//W3C//DTD SVG 1.1//EN" "http://www.w3.org/Graphics/SVG/1.1/DTD/svg11.dtd">
<!-- Creator: CorelDRAW -->
<svg xmlns="http://www.w3.org/2000/svg" xml:space="preserve" width="210mm" height="297mm" version="1.1" style="shape-rendering:geometricPrecision; text-rendering:geometricPrecision; image-rendering:optimizeQuality; fill-rule:evenodd; clip-rule:evenodd"
viewBox="0 0 21000 29700"
 xmlns:xlink="http://www.w3.org/1999/xlink">
 <defs>
  <style type="text/css">
   <![CDATA[
    .fil5 {fill:#233754}
    .fil2 {fill:#332F2F}
    .fil0 {fill:#602B30}
    .fil1 {fill:#C6262A}
    .fil4 {fill:#DEC19D}
    .fil3 {fill:#E4BA62}
    .fil6 {fill:#FBE70A}
    .fil7 {fill:#FCFCFC}
   ]]>
  </style>
 </defs>
 <g id="图层_x0020_1">
  <metadata id="CorelCorpID_0Corel-Layer"/>
  <g id="_1996955886592">
   <polygon class="fil0" points="27382.82,30158.32 35758.89,30158.15 35758.89,12697.97 35723.61,12680.42 27383,12680.42 "/>
   <path class="fil1" d="M1962.78 1074.03l-564.45 0c-1364.72,0 -2071.74,-711.75 -3727.68,117.59 -232.12,116.25 -401.04,207.09 -622.62,329.88 -164.78,91.31 -440.22,324.31 -588.58,363.92l494.2 387.74c172.99,133.77 307.11,290.98 467.15,450.08 668.59,664.69 933.16,1554.98 1117.1,2481.22 415.96,2094.58 1064.06,2038.97 2402.34,2995.08 803.5,574.04 371.42,965.93 834.11,1848.09 65.84,125.53 281.72,436.85 400.1,516.12l361.59 -380.32c142.56,-144.98 236.81,-236.86 369.85,-369.9 251.66,-251.65 484.25,-496.46 764.75,-716.92 1190.86,-935.94 2518.52,-1601.4 4033.2,-1893.46 409.81,-79.02 823.76,-137.06 1229.45,-252.22 983.45,-279.18 2148.54,-911.33 2881.08,-1563.92 243.41,-216.84 774.39,-641.93 956.89,-875.01l559.24 -572.13c140.68,-139.15 217.05,-253.22 353.09,-387.97 128.66,-127.43 232.52,-234.95 369.96,-370.95l1111.26 -1110.91c81.29,-80.24 111.21,-92.28 193.28,-161.22l583.55 -543.7c113.44,-106.09 346.28,-233.3 414.47,-326.37 -438.48,-36.48 -765.79,-287.06 -1456.7,236.63 -963.41,730.24 -1208.37,250.36 -2060.66,-388.15 -1397.66,-1047.1 -2706.98,-345.02 -4274.62,155.93 -512.5,163.78 -629.15,207.26 -1203.85,207.26 -295.24,0 -599.72,-181.27 -599.72,-564.44 0,-178.82 145.69,-461 226.67,-584.72 123.47,-188.65 270.67,-285.46 373.05,-438.34 -544.91,-126.95 -828.24,-267.96 -1537.56,-126.44 -554.17,110.56 -849.53,316.4 -1273.19,525.97 -727.81,360.03 -1525.69,1011.58 -2586.75,1011.58z"/>
   <path class="fil1" d="M15050.83 20688.47c0,220.15 100.95,388.06 317.5,388.06l8784.17 0c411.45,0 334.73,-521.15 334.58,-740.85l0.03 -6173.6c0.79,-377.98 25.44,-687.35 -369.89,-687.35l-8713.61 0c-208.43,0 -352.78,152.49 -352.78,334.58l0 6879.16z"/>
   <path class="fil1" d="M14027.78 21076.53c198.18,0 352.78,-154.6 352.78,-352.78l0 -6949.72c0,-175.99 -159.67,-334.57 -370.42,-334.57l-8590.14 0c-220.25,0 -388.06,139.89 -388.06,334.57l0 6985c0,216.55 167.91,317.5 388.06,317.5l8607.78 0z"/>
   <path class="fil2" d="M24293.61 30248.69c81.21,0 105.78,-24.57 105.78,-105.78l0.05 -1164.11 -42862.44 0 0 1269.89 -35.33 0 42791.94 0z"/>
   <path class="fil1" d="M-16522.78 12010.14l0 1446.39c0,345.49 193.82,546.24 564.45,546.24l17533.05 0c214.8,0 364.33,-9.43 490.16,-91.37 106.81,-69.56 215.4,-180 215.4,-349.04l0 -1658.05c0,-211.74 -227.36,-440.41 -529.17,-440.41l-17744.72 0c-338.39,0 -529.17,220.94 -529.17,546.24z"/>
   <path class="fil1" d="M-16576.26 12010.14c0,-334.91 232.05,-599.72 582.65,-599.72l17780 0c318.83,0 564.44,245.61 564.44,564.44l0 1516.95c0,303.47 -217.56,517.52 -465.99,557.06l-13010.12 7.38c-1623.33,0 -899.55,-72.62 -1587.5,388.06 0,-332.31 85.41,-394.76 -243.84,-391.16l-1802.27 3.1c-854.76,0 -1817.37,199.39 -1817.37,-599.72l0 -1446.39zm-264.02 -70.56l0 1587.5c0,426.49 383.06,793.19 846.67,793.19 770.85,0 2351.76,32.57 3033.57,-20.62 0.32,238.18 -34.96,308.92 -34.96,532.71 98.55,22.96 98.39,98.06 342.1,-113.69 557.88,-484.72 406.31,-398.4 1174.85,-398.4l12735.27 0c420.55,0 664.44,39.61 952.24,-123.21 206.48,-116.81 405.39,-363.32 405.39,-705.25l0 -1516.95c0,-405.9 -270.9,-669.57 -548.76,-772.96 -311.55,-115.93 -3437.62,-55.5 -3913.31,-55.5l-13123.33 0c-366.43,0 -969.67,-50.73 -1284.06,37.64 -296.79,83.43 -585.67,396.38 -585.67,755.54z"/>
   <path class="fil3" d="M-14193.86 4073.22c-105.85,-69.4 -107.93,-119.24 -228.84,-154.45l-690.17 -379.38c-78.38,-96.96 -8.78,-46.3 -69.93,-278.72 18.71,12.27 79.07,58.71 79.47,58.92 133.72,69.46 -19.89,-28.34 129.66,18.41 166.17,51.94 171.45,166.92 284.61,175.65 131.59,10.15 57.13,62.07 150.31,97.3 132.09,49.94 -41.87,-20.25 41.82,1.46 88.72,23.03 153.45,216.76 161.96,318.54l17.51 -47.35c36.11,-208.83 5.81,169.79 6.13,-50.96 0.04,-28.69 -11.1,-53.79 -24.8,-113.36 106.64,76.61 142.27,170.07 142.27,353.94zm-1076.78 -1603.56c79.55,113.83 -70.75,91.1 124.28,50.18 0,219.58 -31.8,241.76 -212.83,283.38 -72.86,-108.87 -105.83,-112.15 -105.83,-282.8 0,-95.45 16.87,-97.74 35.27,-176.97 129.19,33.99 84.66,19.67 159.11,126.21zm4593.77 -1183.77c-16.15,190.94 -36.78,74.35 -59.77,246.17l105.83 -141.11c38.27,181.49 43.82,24.8 -45.62,201.61 -76.42,151.07 -16.74,75.75 -49.91,172.78 -118.71,347.28 -80.86,-57.42 -80.86,437 59.76,-28 87.88,-19.93 88.72,-20.23 92.21,-32.26 60.1,-56.55 158.23,-120.88 -12.77,155 -13.52,62.34 -34.39,143.2 -46.78,181.2 7.99,95.7 -89.77,260.43l-228.81 337.78 34.98 69.98c198.08,142.58 -159.01,171.83 -292.58,118.18 -167.27,-67.19 -166.86,-236.12 -60.11,-470.2 118.44,10.63 102.55,77.58 105.07,105.07 3.41,-151.98 -7.68,-121.22 70.56,-211.66 -74.24,-225.68 6.78,125.68 -70.56,-105.84l218.27 -381.29c58.63,-110.9 99.23,-339.09 83.94,-504.54l-54.1 180.86 -150.96 68.33c-2.15,2.31 -11.32,23.56 -12.91,18.03 -1.71,-5.97 -8.45,13.52 -13.01,20.05 0.26,245.25 -183.04,862.08 -317.4,1104.55 -219.38,0 -51.3,9.33 -111.79,-47.17 -30.97,40.97 -89.29,128.92 -124.26,186.09l-363.87 555.11c-56.7,-21.05 -128.07,-34.79 -161.72,-50.44 -61.26,-28.48 -306.27,-244.53 -332.17,40.53l-317.12 9.54c-6.8,-301.37 -179.12,-212.61 -494.27,-211.3 -12.86,114.5 -18.05,131.6 -111.92,169.02 -459.97,183.37 -401.67,-40.79 -442.59,-143.65 -389.64,0 -242.12,62.48 -468.54,105.83l-524.72 -842.02c-230.54,-596.99 -276.74,-1031.35 -276.74,-1713.41 83.61,-43.13 163.97,-64.12 243.91,-108.94l332.04 -304.17c81.53,-103.5 100.76,-172.22 119.69,-302.36 152.84,1.44 195.56,-26.59 318.59,-66.55l250.71 -109.85 27.08 -98.32c-177.36,46.07 -270.93,89.8 -441.86,147.1 -585.48,196.25 -57.17,279.87 -732.87,661.38 -78.43,44.28 39.2,-12.01 -48.1,23.73 -103.4,42.35 -54.93,14.87 -184.76,42.41l0 599.72c-205.84,-54.7 -356.27,-275.66 -451.31,362.36 -26.19,175.8 -2.49,146.36 18.03,178.2 156.79,243.3 -50.67,-190.26 45.23,59.16 -225.73,24.57 -31.78,-16.94 -133.77,113.15 -4.58,5.84 -9.79,15.09 -14.59,20.7l-98.59 77.82c0,466.47 123.91,616.41 282.22,917.22 -69.51,33.31 -162.98,50.98 -246.94,70.56 0,292.29 92.98,371.32 363.33,588.77 119.56,96.18 444.19,329.6 589.17,363.35 -119.24,163.75 -286.28,2.11 -599.72,212.04 4.97,222.9 168.3,289.67 453.56,392.64 101.38,36.59 209.72,75.05 326.92,96.37 350.27,63.71 681.91,184.41 1043.09,223.18 357.43,38.37 390.33,90.05 715.78,62.74l1548.79 -353.35c184.07,-50.31 883.88,-231.54 605.58,-494.27 -146.54,-138.33 -364.47,-75.93 -496.05,-138.97 64.34,-96.74 157.62,-129.13 257.27,-201.75 309.8,-225.75 659.96,-397.84 659.96,-821.31 -82.55,-43.71 -91.76,-60.59 -211.67,-70.55 12.57,-151.57 128.09,-350.57 170.74,-500.04 23.48,-82.28 58.57,-202.2 36.12,-304.24 -29.24,-132.94 -72.31,-112.69 -171.58,-172.17 74.56,-293.95 -16.15,-583.51 -151.13,-752.16z"/>
   <path class="fil4" d="M37487.5 -160.69c0,133.55 82.29,105.83 282.22,105.83l0 246.95 -246.94 0c-59.65,256 0,895.11 0,1305.27 0,116.32 -21.57,165.37 -25.4,249.34 -51.61,1132.85 -9.88,3212.4 -9.88,4372.05l-0.01 4198.06c-0.36,490.13 -79.29,529.16 246.95,529.16l0 246.95c-295.03,0 -246.94,-50.98 -246.94,458.61 0,176.6 300.63,105.83 776.11,105.83l0 -564.44 -246.95 0 0 -246.95 246.95 0 0 -10653.88c-270.34,0 -246.95,23.39 -246.95,-246.95l246.95 0 0 -458.61c0,-147.89 -27.89,-70.87 -59.97,-87.11 -138.36,-69.99 -507.7,17.95 -680.86,-18.72 0,206.61 -35.28,242.39 -35.28,458.61z"/>
   <path class="fil4" d="M18366.94 -54.86l246.95 0 0 246.95 -246.95 0 0 10689.16c103.8,24.18 107.67,35.28 246.95,35.28 0,270.34 23.39,246.94 -246.95,246.94l0 564.45 705.56 0 0 -564.45 -246.95 0 0 -246.94c171.64,0 246.95,23.88 246.95,-105.83l0 -10583.33c-270.34,0 -246.95,23.39 -246.95,-246.95 155.04,-3.45 109.89,-23.87 246.95,-35.28l0 -511.61c-83.62,-41.6 -577.84,-17.55 -705.56,-17.55l0 529.16z"/>
   <path class="fil4" d="M21400.83 10916.53c0,551.01 -38.01,437.26 243.73,424.24 576.1,-26.63 925.89,84.49 1703.15,3.27 98.26,-10.27 138.05,1.74 223.38,8.61l307.6 3.33c562.74,20.79 1015.86,-28.87 1724.02,5.75l810.45 -11.17c240.53,7.56 575.99,-39.65 900.86,5.6l765.76 0.88c256.24,22.5 624.28,-17.18 799.94,-17.18 346.76,0 307.81,67.72 852.33,4.74 124.23,-14.37 215.56,2.35 323.4,9.52 169.18,11.24 323.79,-24.59 589.06,-15.63 414.82,14.02 253.09,70.87 886.04,16.47l146.17 -11.08c377.19,-43.9 718.56,59.67 1229.78,1.18 111.31,-12.74 234.62,-5.2 347.66,-5.2 0,-364.49 50.91,-529.16 -105.83,-529.16l-11641.66 0c-81.29,0 -105.84,24.54 -105.84,105.83z"/>
   <path class="fil1" d="M12722.33 6965.25c693.79,0 1129.22,539.24 1129.22,1199.61 0,254.03 -93.76,395.82 -176.39,564.28 51.68,34.6 65.63,44.41 118.2,93.57 121.61,113.73 46.1,-2.43 93.47,118.26 -45.24,67.77 -181.69,232.21 -247.11,280.75 -85.27,-54.37 -148.16,-116.53 -246.94,-174.75 -171.1,45.77 -478.5,364.15 -1099.18,182.01 -146.74,-43.07 -233.88,-116.95 -347.05,-146.73l-24.77 213.29c-153.41,30.66 -130.88,77.92 -325.06,-40.17 -6.74,-196.91 12.53,-241.73 176.39,-279.28 -46.74,-153.3 -62.4,-64.55 -109.11,-211.51 50.64,-75.64 69.97,-120.35 141.28,-176.55 403.57,221.89 670.17,493.95 1269.83,176.39 -61.58,-91.41 -669.65,-633.83 -775.94,-705.23l-240.07 218.94c-118.33,-112.53 -241.51,-197.28 -322.91,-324.93 132.08,-197.7 362.1,-359.46 495.53,-596.62 328.28,-11.23 183.87,26.86 384.95,-107.47l184.72 166.72c-66.92,193.03 -172.27,147.88 -219.84,325.7 22.24,30.66 687.44,637.58 811.06,670.11 83.43,-357.79 161.45,-631.69 -184.39,-1050.43 -187.53,-227.05 -309.12,-241.88 -485.89,-395.96zm-1639.68 1164.34c0,1645.04 1891.4,2198.14 2848.78,1279.24 781.83,-750.41 715.18,-2175.06 -455.6,-2738.13 -656.93,-315.95 -1412.81,-131.43 -1874.57,302.37 -262.1,246.23 -518.61,739.26 -518.61,1156.52z"/>
   <path class="fil4" d="M21400.83 -19.58l0 423.33 11818.06 0c54.63,-656.49 235.66,-529.16 -1058.34,-529.16l-7831.68 -0.02c-104.73,-0.1 -215.09,-3.25 -319.18,1.34l-1934.56 24.78c-276.74,20.2 -674.3,-128.37 -674.3,79.73z"/>
   <path class="fil5" d="M-12090.71 2424.51c62.27,111.03 83.11,277.33 83.49,413.41 -166.73,84.77 -318.1,182.01 -471.86,254.05l-71.61 -142.1 -84.42 0.13c-56.74,119.61 -96.43,134.4 -356.6,135.95 -162.84,0.96 -337.26,3.17 -503.65,0.73l-38.22 -67.41 -157.56 15.31 21.2 50.28c-292.77,-5.36 -291.5,-56.55 -416.46,-142.77 -6.45,-4.46 -15.27,-10.26 -21.91,-14.44l-124.31 -60.28 33.22 -250.53c-12.68,-293.38 -50.28,-245.02 -153.63,-430.63 -290.19,-521.13 -298.16,-1009.1 41.94,-1511.97 9.19,-13.58 52.52,-77.33 57.53,-83.78 47.03,-60.47 86.53,-92.7 136.98,-143.89 21.96,-22.29 50.17,-54.01 69.26,-70.66 334.96,-292.18 891.56,-408.23 1352.51,-270.97 207.12,61.67 273.66,98.41 445.24,224.83 5.97,4.41 14.45,10.47 20.27,15.02l38.51 31.97c5.39,4.8 12.81,12.16 18.04,17.1l255.8 271.02c522.7,639.2 87.14,1617.3 -173.76,1759.63zm-1684.79 -2483.73c-21.64,50.44 53.42,39.64 -61.3,39.64l-250.71 109.85c-123.03,39.96 -165.75,67.99 -318.59,66.55 -18.93,130.14 -38.16,198.86 -119.69,302.36l-332.04 304.17c-79.94,44.82 -160.3,65.81 -243.91,108.94 0,682.06 46.2,1116.42 276.74,1713.41l524.72 842.02c226.42,-43.35 78.9,-105.83 468.54,-105.83 40.92,102.86 -17.38,327.02 442.59,143.65 93.87,-37.42 99.06,-54.52 111.92,-169.02 315.15,-1.31 487.47,-90.07 494.27,211.3l317.12 -9.54c25.9,-285.06 270.91,-69.01 332.17,-40.53 33.65,15.65 105.02,29.39 161.72,50.44l363.87 -555.11c34.97,-57.17 93.29,-145.12 124.26,-186.09 18.9,-123.84 75.91,-225.77 116.28,-347.73 212.59,-642.3 138.58,-424.23 219.43,-1021.2 10.87,-80.26 -3.07,-31.63 22.83,-77.08l0 -458.62c-121.91,-85.71 -138.32,-32.42 -343.21,-187.21 -101.99,-77.05 -181.89,-148.94 -241.8,-253.91 -134.1,-235.01 28.95,-185 -323.53,-310.82l-256.91 -94.34c-8.31,-3.13 -17.53,-6.73 -25.77,-9.96l-151.2 -58.53c-628.05,-184.55 -515.79,-304.17 -1111.02,-59.85 -194.26,79.73 47.96,66.03 -196.78,53.04z"/>
   <path class="fil4" d="M-12439.33 16451.62l3925.06 31.95c0.23,3.82 0.34,16.14 0.75,21.13 0.48,5.67 0.5,17.31 1.28,24.01 11,94.57 2.1,75.11 32.8,145.14l-3421.98 -0.02c-159.19,-0.27 -293.16,-19.37 -428.97,22.7 -5.03,1.56 -15.69,5.43 -22.56,9.94 1049.39,54.93 2243.51,4.34 3309.06,4.39l8219.72 -8.78c1006.72,0.01 430.27,32.84 1164.17,-458.61 0,189.68 -22.36,317.74 0,423.34 416.4,97 1486.36,35.27 2010.83,35.27 100.21,430.13 35.28,1347.8 35.28,1869.72 -192.47,128.89 -163.57,12.44 -207.83,153.92 -42.23,134.99 39.61,179.6 161.07,161.06 454.3,-69.32 290.69,-1212.14 294.18,-1761.84 4.18,-659.59 -170.82,-708.23 -670.51,-705.32 -458.42,2.68 -917.58,0.24 -1376.07,0.24 0,-265.87 86.67,-815.06 -239.14,-523.81 -93.93,83.96 -158.3,127.62 -246.11,214.95 -334.02,332.19 -337.7,312.88 -571.29,310.66l-8433.19 -10.59c-142.81,0.1 -3390.29,-53.66 -3536.55,40.55z"/>
   <path class="fil3" d="M-13347.85 2485.07c-176.54,-41.2 -397.16,-173.57 -493.81,-317.35l1481.59 0c-130.72,113.27 -261.04,276.88 -493.74,282.07 -8.99,-81.98 33.69,-129.56 -226.21,-149.28l-88.59 1.57c-72.34,7.19 -55.45,-127.46 -73.33,77.15l-105.91 0 0 105.84zm-811.24 -1128.82c0,-267.99 182.36,-521.06 325.14,-662.55 765.38,-758.44 2121.61,81.43 1720.55,1051.09 -72.82,176.06 -57.96,34.92 -126.68,262.98l-14.01 53.96c-10.26,-126.44 15.75,-43.61 -35.53,-140.86 -79.99,3.5 -91.68,35.03 -352.52,35.03 0,-350.38 -49.76,-147.27 -105.84,-388.06 -93.08,46.07 28.73,35.28 -110.32,35.28 -153.87,0 -471.99,33.9 -595.39,-35.28 -23.9,287.44 -105.83,-25.33 -105.83,388.06 -364.82,0 -303.51,-33.48 -458.46,70.56 -71.5,-306.82 -141.11,-77.11 -141.11,-670.21zm-40.31 1260.59c58.28,-68.07 19.81,-0.21 52.67,-95.08 48.78,-140.83 -3.96,-154.03 58.2,-283.49 147.83,99.27 382.7,337 694.27,363.05 169.35,14.15 51.19,-47.89 267.04,-64.44 218.36,-16.75 182.36,168.52 533.98,-2.51 179.72,-87.43 297.78,-197.44 444.91,-296.1l57.62 186.24c260.9,-142.33 696.46,-1120.43 173.76,-1759.63l-255.8 -271.02c-5.23,-4.94 -12.65,-12.3 -18.04,-17.1l-38.51 -31.97c-5.82,-4.55 -14.3,-10.61 -20.27,-15.02 -171.58,-126.42 -238.12,-163.16 -445.24,-224.83 -460.95,-137.26 -1017.55,-21.21 -1352.51,270.97 -19.09,16.65 -47.3,48.37 -69.26,70.66 -50.45,51.19 -89.95,83.42 -136.98,143.89 -5.01,6.45 -48.34,70.2 -57.53,83.78 -340.1,502.87 -332.13,990.84 -41.94,1511.97 103.35,185.61 140.95,137.25 153.63,430.63z"/>
   <path class="fil6" d="M12722.33 6965.25c176.77,154.08 298.36,168.91 485.89,395.96 345.84,418.74 267.82,692.64 184.39,1050.43 -123.62,-32.53 -788.82,-639.45 -811.06,-670.11 47.57,-177.82 152.92,-132.67 219.84,-325.7l-184.72 -166.72c-201.08,134.33 -56.67,96.24 -384.95,107.47 -133.43,237.16 -363.45,398.92 -495.53,596.62 81.4,127.65 204.58,212.4 322.91,324.93l240.07 -218.94c106.29,71.4 714.36,613.82 775.94,705.23 -599.66,317.56 -866.26,45.5 -1269.83,-176.39 -71.31,56.2 -90.64,100.91 -141.28,176.55 46.71,146.96 62.37,58.21 109.11,211.51 -163.86,37.55 -183.13,82.37 -176.39,279.28 194.18,118.09 171.65,70.83 325.06,40.17l24.77 -213.29c113.17,29.78 200.31,103.66 347.05,146.73 620.68,182.14 928.08,-136.24 1099.18,-182.01 98.78,58.22 161.67,120.38 246.94,174.75 65.42,-48.54 201.87,-212.98 247.11,-280.75 -47.37,-120.69 28.14,-4.53 -93.47,-118.26 -52.57,-49.16 -66.52,-58.97 -118.2,-93.57 82.63,-168.46 176.39,-310.25 176.39,-564.28 0,-660.37 -435.43,-1199.61 -1129.22,-1199.61z"/>
   <path class="fil1" d="M-13437.62 1231.13c56.84,-39.5 83.36,-62 160.4,-86.54 4.38,6.57 9.11,17.6 10.62,21.19l79.23 139.21c-165.39,30.06 -44.65,-54.25 -132.19,114.76 -101.36,-209.07 -70.5,-68.37 -118.06,-188.62zm971.86 -227.58c-125.59,-26.56 -78.7,-30.06 -176.54,35.28 28.17,-105.71 70.56,-117.07 70.56,-282.37l35.35 105.83 105.91 0c-35.68,74.51 -25.97,32.03 -35.28,141.26zm-776.26 0c15.19,-182.71 141.11,-302.65 141.11,-458.76l35.43 0c0,130.53 -5.48,91.5 35.28,176.39 93.61,-45 37.73,-32.19 176.39,-35.28 -71.8,107.52 -147.44,121.85 -70.56,282.37 -183.81,-48.99 -30.16,-33.69 -176.39,-141.11 -30.97,115.97 -51.22,116.27 -141.26,176.39zm-917.07 352.7c0,593.1 69.61,363.39 141.11,670.21 154.95,-104.04 93.64,-70.56 458.46,-70.56 0,-413.39 81.93,-100.62 105.83,-388.06 123.4,69.18 441.52,35.28 595.39,35.28 139.05,0 17.24,10.79 110.32,-35.28 56.08,240.79 105.84,37.68 105.84,388.06 260.84,0 272.53,-31.53 352.52,-35.03 51.28,97.25 25.27,14.42 35.53,140.86l14.01 -53.96c68.72,-228.06 53.86,-86.92 126.68,-262.98 401.06,-969.66 -955.17,-1809.53 -1720.55,-1051.09 -142.78,141.49 -325.14,394.56 -325.14,662.55z"/>
   <path class="fil7" d="M-16522.78 12010.14c0,-325.3 190.78,-546.24 529.17,-546.24l17744.72 0c301.81,0 529.17,228.67 529.17,440.41l0 1658.05c0,169.04 -108.59,279.48 -215.4,349.04 -125.83,81.94 -275.36,91.37 -490.16,91.37l-17533.05 0c-370.63,0 -564.45,-200.75 -564.45,-546.24l0 -1446.39zm-53.48 0l0 1446.39c0,799.11 962.61,599.72 1817.37,599.72l1802.27 -3.1c329.25,-3.6 243.84,58.85 243.84,391.16 687.95,-460.68 -35.83,-388.06 1587.5,-388.06l13010.12 -7.38c248.43,-39.54 465.99,-253.59 465.99,-557.06l0 -1516.95c0,-318.83 -245.61,-564.44 -564.44,-564.44l-17780 0c-350.6,0 -582.65,264.81 -582.65,599.72z"/>
   <path class="fil1" d="M-12352.95 16706.47c6.87,-4.51 17.53,-8.38 22.56,-9.94 135.81,-42.07 269.78,-22.97 428.97,-22.7l3421.98 0.02c-30.7,-70.03 -21.8,-50.57 -32.8,-145.14 -0.78,-6.7 -0.8,-18.34 -1.28,-24.01 -0.41,-4.99 -0.52,-17.31 -0.75,-21.13l-3925.06 -31.95 -520.39 426.85c0,-253.98 52.89,-196.29 0,-423.33 -449.07,-77.41 -1562.67,-17.07 -2081.39,-17.07 -249.21,0 -1956.29,-53.69 -2047.82,52.72 -56.23,65.39 -24.09,139.06 43.87,173.29 104.8,52.78 3705.96,19.8 3856.6,19.8 48.52,228.58 -29.63,379.31 -15.88,480.09 51.12,374.64 527.69,-288.69 851.39,-457.5z"/>
   <path class="fil4" d="M-13775.5 -59.22c244.74,12.99 2.52,26.69 196.78,-53.04 595.23,-244.32 482.97,-124.7 1111.02,59.85l151.2 58.53c8.24,3.23 17.46,6.83 25.77,9.96l256.91 94.34c352.48,125.82 189.43,75.81 323.53,310.82 59.91,104.97 139.81,176.86 241.8,253.91 204.89,154.79 221.3,101.5 343.21,187.21l0 458.62 49.15 91.93c38.08,103.23 21.37,171.46 21.5,296.7 4.56,-6.53 11.3,-26.02 13.01,-20.05 1.59,5.53 10.76,-15.72 12.91,-18.03l150.96 -68.33 54.1 -180.86c15.29,165.45 -25.31,393.64 -83.94,504.54l-218.27 381.29c77.34,231.52 -3.68,-119.84 70.56,105.84 -78.24,90.44 -67.15,59.68 -70.56,211.66 -2.52,-27.49 13.37,-94.44 -105.07,-105.07 -106.75,234.08 -107.16,403.01 60.11,470.2 133.57,53.65 490.66,24.4 292.58,-118.18 -61.76,92.98 -17.56,73.4 -141.2,106.41 -109.81,-80.45 -98.32,-80.6 -70.56,-211.67 135.56,3.02 85.07,-8.45 176.78,35.28l228.81 -337.78c97.76,-164.73 42.99,-79.23 89.77,-260.43 20.87,-80.86 21.62,11.8 34.39,-143.2 -98.13,64.33 -66.02,88.62 -158.23,120.88 -0.84,0.3 -28.96,-7.77 -88.72,20.23 0,-494.42 -37.85,-89.72 80.86,-437 33.17,-97.03 -26.51,-21.71 49.91,-172.78 89.44,-176.81 83.89,-20.12 45.62,-201.61l-105.83 141.11c22.99,-171.82 43.62,-55.23 59.77,-246.17 -62.4,-72.35 -33.59,-73.09 -149.43,-57.28 -85.14,11.61 -44.77,44.74 -193.14,57.09l-70.56 -105.84c0,-198.32 41.21,-200.86 85.59,-473.64 -228.99,37.25 -0.63,3.26 -150.96,-5.76 -29.71,-1.78 -72.08,-13.98 -95.98,41.03 -24.93,-166.71 -5.59,-65.71 -147.93,-172.18l-212.13 -243.77c-3.75,-5.03 -11.02,-13.09 -14.42,-18l-70.91 -199.86c-28.6,-83.17 -205.09,-104.18 -290.35,-121.78 -185.81,-38.37 -71.98,75.36 -186.05,-41.85 -104.87,-107.77 -364.64,-160 -510.68,-211.79 -204.2,-72.4 -115.79,-78.55 -321.85,-104.96 -416.03,-53.32 -180.48,65.85 -774.22,203.23l4.39 110.25z"/>
   <path class="fil1" d="M-14199.4 2616.84l-33.22 250.53 124.31 60.28c6.64,4.18 15.46,9.98 21.91,14.44 124.96,86.22 123.69,137.41 416.46,142.77l-21.2 -50.28 -11.55 -267.23c100.22,-0.06 227.57,7.49 321.6,1.9 243.38,-14.47 81.53,-61.83 281.69,-74.28 243.94,-15.18 56.44,89.34 449.49,62.43l119.15 9.96c0,87.5 -9.82,15.23 55.51,44.7 -40.63,241.87 -4.98,65.32 -75.44,137.81l71.61 142.1c153.76,-72.04 305.13,-169.28 471.86,-254.05 -0.38,-136.08 -21.22,-302.38 -83.49,-413.41l-57.62 -186.24c-147.13,98.66 -265.19,208.67 -444.91,296.1 -351.62,171.03 -315.62,-14.24 -533.98,2.51 -215.85,16.55 -97.69,78.59 -267.04,64.44 -311.57,-26.05 -546.44,-263.78 -694.27,-363.05 -62.16,129.46 -9.42,142.66 -58.2,283.49 -32.86,94.87 5.61,27.01 -52.67,95.08z"/>
   <path class="fil1" d="M-13347.85 2485.07l0 -105.84 105.91 0c17.88,-204.61 0.99,-69.96 73.33,-77.15l88.59 -1.57c259.9,19.72 217.22,67.3 226.21,149.28 232.7,-5.19 363.02,-168.8 493.74,-282.07l-1481.59 0c96.65,143.78 317.27,276.15 493.81,317.35z"/>
   <path class="fil4" d="M-14193.86 4073.22c0,-183.87 -35.63,-277.33 -142.27,-353.94 13.7,59.57 24.84,84.67 24.8,113.36 -0.32,220.75 29.98,-157.87 -6.13,50.96l-17.51 47.35c-8.51,-101.78 -73.24,-295.51 -161.96,-318.54 -83.69,-21.71 90.27,48.48 -41.82,-1.46 -93.18,-35.23 -18.72,-87.15 -150.31,-97.3 -113.16,-8.73 -118.44,-123.71 -284.61,-175.65 -149.55,-46.75 4.06,51.05 -129.66,-18.41 -0.4,-0.21 -60.76,-46.65 -79.47,-58.92 61.15,232.42 -8.45,181.76 69.93,278.72l690.17 379.38c120.91,35.21 122.99,85.05 228.84,154.45z"/>
   <path class="fil3" d="M-13691.14 3034.58l157.56 -15.31 -29.36 -109.83c155.26,-13.52 67.13,4.16 179.89,-71.44 331.41,222.21 377.39,101.76 529.16,0l145.08 68.66c7.67,4.04 17.71,9.85 24.63,13.64 7.02,3.84 18.8,11.46 24.49,14.68 5.74,3.25 16.77,9.43 24.58,15.02l84.42 -0.13c70.46,-72.49 34.81,104.06 75.44,-137.81 -65.33,-29.47 -55.51,42.8 -55.51,-44.7l-119.15 -9.96c-393.05,26.91 -205.55,-77.61 -449.49,-62.43 -200.16,12.45 -38.31,59.81 -281.69,74.28 -94.03,5.59 -221.38,-1.96 -321.6,-1.9l11.55 267.23z"/>
   <path class="fil7" d="M-11483.82 2766.99c60.49,56.5 -107.59,47.17 111.79,47.17 134.36,-242.47 317.66,-859.3 317.4,-1104.55 -0.13,-125.24 16.58,-193.47 -21.5,-296.7l-49.15 -91.93c-25.9,45.45 -11.96,-3.18 -22.83,77.08 -80.85,596.97 -6.84,378.9 -219.43,1021.2 -40.37,121.96 -97.38,223.89 -116.28,347.73z"/>
   <path class="fil1" d="M-13533.58 3019.27l38.22 67.41c166.39,2.44 340.81,0.23 503.65,-0.73 260.17,-1.55 299.86,-16.34 356.6,-135.95 -7.81,-5.59 -18.84,-11.77 -24.58,-15.02 -5.69,-3.22 -17.47,-10.84 -24.49,-14.68 -6.92,-3.79 -16.96,-9.6 -24.63,-13.64l-145.08 -68.66c-151.77,101.76 -197.75,222.21 -529.16,0 -112.76,75.6 -24.63,57.92 -179.89,71.44l29.36 109.83z"/>
   <path class="fil4" d="M-15465.02 2520.42c0,170.65 32.97,173.93 105.83,282.8 181.03,-41.62 212.83,-63.8 212.83,-283.38 -195.03,40.92 -44.73,63.65 -124.28,-50.18 -74.45,-106.54 -29.92,-92.22 -159.11,-126.21 -18.4,79.23 -35.27,81.52 -35.27,176.97z"/>
   <path class="fil3" d="M-13242.02 1003.55c90.04,-60.12 110.29,-60.42 141.26,-176.39 146.23,107.42 -7.42,92.12 176.39,141.11 -76.88,-160.52 -1.24,-174.85 70.56,-282.37 -138.66,3.09 -82.78,-9.72 -176.39,35.28 -40.76,-84.89 -35.28,-45.86 -35.28,-176.39l-35.43 0c0,156.11 -125.92,276.05 -141.11,458.76z"/>
   <path class="fil7" d="M-10878.24 2872.62l-34.98 -69.98c-91.71,-43.73 -41.22,-32.26 -176.78,-35.28 -27.76,131.07 -39.25,131.22 70.56,211.67 123.64,-33.01 79.44,-13.43 141.2,-106.41z"/>
   <path class="fil4" d="M-13437.62 1231.13c47.56,120.25 16.7,-20.45 118.06,188.62 87.54,-169.01 -33.2,-84.7 132.19,-114.76l-79.23 -139.21c-1.51,-3.59 -6.24,-14.62 -10.62,-21.19 -77.04,24.54 -103.56,47.04 -160.4,86.54z"/>
   <path class="fil3" d="M-12642.3 1038.83c97.84,-65.34 50.95,-61.84 176.54,-35.28 9.31,-109.23 -0.4,-66.75 35.28,-141.26l-105.91 0 -35.35 -105.83c0,165.3 -42.39,176.66 -70.56,282.37z"/>
  </g>
 </g>
</svg>
