<?xml version="1.0" encoding="UTF-8"?>
<!DOCTYPE svg PUBLIC "-//W3C//DTD SVG 1.1//EN" "http://www.w3.org/Graphics/SVG/1.1/DTD/svg11.dtd">
<!-- Creator: CorelDRAW -->
<svg xmlns="http://www.w3.org/2000/svg" xml:space="preserve" width="210mm" height="297mm" version="1.1" style="shape-rendering:geometricPrecision; text-rendering:geometricPrecision; image-rendering:optimizeQuality; fill-rule:evenodd; clip-rule:evenodd"
viewBox="0 0 21000 29700"
 xmlns:xlink="http://www.w3.org/1999/xlink">
 <defs>
  <style type="text/css">
   <![CDATA[
    .fil4 {fill:#008ECA}
    .fil9 {fill:#349C46}
    .fil0 {fill:#5AA78A}
    .fil8 {fill:#907D69}
    .fil7 {fill:#B79962}
    .fil1 {fill:#B89977}
    .fil6 {fill:#C9CCCE}
    .fil2 {fill:#E1B30C}
    .fil3 {fill:#EFC91E}
    .fil5 {fill:#FBFDFD}
   ]]>
  </style>
 </defs>
 <g id="图层_x0020_1">
  <metadata id="CorelCorpID_0Corel-Layer"/>
  <g id="_1996955806048">
   <path class="fil0" d="M25634.17 19242.08l3704.16 0c0,496.23 158.77,1503.62 -493.89,1503.62l-2681.11 0c-676.37,0 -529.16,-836.34 -529.16,-1503.62zm1904.86 -152.83l-211.66 -16 -211.54 14.22 -917.14 -2.86 -564.52 -18.91 0 -211.67 3704.16 0 0.03 218.05 -1481.62 15.39 -317.71 1.78zm-1904.86 -12723.56l3704.16 0 0 12347.23 -3704.16 0 0 -12347.23zm0 -3668.89c0,-274.56 190.35,-564.44 458.61,-564.44l2822.22 0c244.57,0 423.33,314.14 423.33,564.44l0 3527.78 -3704.16 0 0 -3527.78zm4268.61 22154.45c420.01,0 670.28,-250.26 670.28,-670.28l0 -24376.94c0,-353.38 -281.63,-635 -635,-635l-4621.39 0c-358.69,0 -613.05,282.28 -613.05,670.27l0 24376.95c0,359.38 274.55,635 613.05,635l4586.11 0z"/>
   <path class="fil1" d="M17343.89 20147.73c423.75,0 701.5,-200.5 701.5,-588.15l0 -19685c0,-316.44 -276.23,-525.11 -595.67,-525.11l-2751.66 0c-291.44,0 -501.85,255.13 -501.85,560.39l0 19685c0,354.3 255.27,552.87 607.68,552.87l2540 0z"/>
   <path class="fil1" d="M12228.61 19532.26c198.62,0 349.57,-41.44 459.13,-147.93 77.73,-75.55 171.82,-245.21 171.82,-389.19l0 -19120.56c0,-551.24 -592.7,-525.59 -877.84,-525.14 -470.26,0.75 -944.46,-11.98 -1411.16,-11.98 -807.4,0 -1560.18,-126.79 -1560.18,607.68l0 19014.72c0,339.03 233.37,572.4 570.19,572.4l2648.04 0z"/>
   <path class="fil1" d="M22635.56 19532.26c201.07,0 336.94,-61.75 434.57,-173.49 74.64,-85.44 153.57,-278.99 153.57,-434.19l0 -18979.44c0,-353.17 -211.79,-595.67 -588.14,-595.67l-2681.12 0c-464.74,0 -604.97,314.24 -590.38,772.27l17.98 1587.29c42.91,1000.61 -43.57,2229.97 0,3245.55 42.52,991.08 -42.95,2203.72 0,3210.28l-17.98 7373.27c48.05,650.97 2.24,2444.25 2.24,3245.34 0,340.31 109.45,748.79 482.31,748.79l2786.95 0z"/>
   <path class="fil2" d="M33112.26 19452.95c691.39,-45.18 2873.41,-9.29 3714.88,-8.88 -0.14,531.82 84.66,1127.36 -166.44,1404.46 -176.84,195.17 -257.22,134.62 -654.87,134.62 -655.79,0 -1457.99,-1.68 -2188.42,-0.42 -239,0.41 -313.69,49.14 -454.25,-50.26 -105.3,-74.45 -206.46,-179.71 -236.45,-327.07 -45.66,-224.4 -14.45,-879.71 -14.45,-1152.45zm11.62 -352.7c536.29,-53.57 1329.13,-11.74 1894.18,-11.74 666.43,0.01 1202.42,2.78 1808.84,2.78l0 231.03 -3713.84 1.25 10.82 -223.32zm7.37 -13280.81l3695.65 -1.16 -0.14 13142.38 -3713.71 0.49c-3.05,-418.89 -45.2,-12554.83 18.2,-13141.71zm-18.19 -88.75l-0.8 -3598.33c0,-252.76 18.05,-325.22 134.61,-465.92 141.7,-171.03 189.05,-142.72 395.35,-142.72l2644.73 0c225.44,0 199.47,-44.77 374,129.86 130.35,130.43 161.89,189.16 166.47,442.04l-0.52 3609.47c-316.11,-2.78 -3641.22,-67.69 -3713.84,25.6zm-899.96 -5926.66l0 24341.67c0,423.89 215.12,696.64 653.01,696.64 561.64,0 3767.31,32.54 4161.15,-2.06 471.68,-41.44 521.12,-501.51 521.12,-870.97l0 -23918.34c0,-191.81 -17.67,-442.74 -83.98,-576.65 -49,-98.96 -247.08,-296.38 -364.96,-296.38l-4128.17 0.38c-247.17,-1.65 -399.89,11.6 -535.2,125.15 -86.97,72.98 -222.97,352.52 -222.97,500.56z"/>
   <path class="fil3" d="M26516.11 30282.23c182.45,0 341.51,29.31 564.45,29.31l1164.16 -19.5c87,0 123.32,19.5 246.95,19.5 1106.58,0 2415.96,-28.65 3490.95,0.26l6210.44 -0.26 382.81 -185.07c62.7,-38.24 148.49,-136.09 165.46,-232.9 8.35,-47.69 17.08,-78.25 39.8,-155.82 12.59,-42.97 4.56,11.31 24.94,-92.25l8.85 -2853.97c0,-230.97 24.74,32.02 -86.41,-218.45 -261.41,-589.04 -680.03,-473.97 -1346.84,-473.97 -4316.64,0 -8712.65,29.56 -13017.73,-0.79 -93.72,-0.66 -189.77,-5.94 -278.8,13.81 -33.58,7.45 -69.32,23.76 -99.84,35.54 -121.86,47.02 -261.97,108.43 -329.21,230.59 -13.33,24.22 -20.45,67.16 -57.16,139.85 -40.79,80.77 -82.52,94.68 -82.52,167.59l0 2998.61c0,286.46 265.99,542.45 530.26,564.44l2469.44 33.48z"/>
   <path class="fil4" d="M7818.89 29578.47c0,386.67 231.68,722.91 635,722.91l13335 0c169.07,0 376.03,-112.89 449.42,-201.21 69.73,-83.93 159.48,-301.18 159.48,-451.14l0 -2892.78c0,-179.33 -117.83,-377.03 -209.76,-469.69 -102.28,-103.08 -257.76,-182.66 -469.7,-182.66l-13193.89 0c-434.99,0 -705.55,291.51 -705.55,652.35l0 2822.22z"/>
   <path class="fil5" d="M33131.25 5819.44c-63.4,586.88 -21.25,12722.82 -18.2,13141.71l3713.71 -0.49 0.14 -13142.38 -3695.65 1.16z"/>
   <polygon class="fil5" points="25634.17,18712.92 29338.33,18712.92 29338.33,6365.69 25634.17,6365.69 "/>
   <path class="fil6" d="M-18531.42 21960.66c0,187.37 0.66,374.86 -0.05,562.21 -2.11,549.37 -46.14,427.96 95.58,484.15l31863.36 7.6 0.41 -1055.97c-5338.65,0 -10677.29,0 -16015.94,0l-15943.36 2.01z"/>
   <path class="fil1" d="M-16800.94 30425.14c0,82.81 11.86,113.79 101.77,113.79l4409.73 0c91.05,0 113.79,-22.74 113.79,-113.79l0 -4762.5c0,-595.02 34.34,-1294.43 3.12,-1875.42 -11.99,-222.99 59.07,-159.71 -681.36,-166.32l-3599.06 -0.88c-157.36,-2.28 -347.99,-45.76 -347.99,102.34l0 6702.78z"/>
   <polygon class="fil1" points="-10005.21,30538.93 -6150.56,30533.93 -5763.06,30538.93 -5649.26,30538.93 -5646.86,23757.43 -5661.28,23620.69 -9994.9,23620.36 -10004.35,23757.64 "/>
   <path class="fil7" d="M-10906.52 8407.75c771.65,-37.3 1642.33,4.05 2427.08,4.05l5997.22 0c776.31,0 605.6,-78.14 917.22,281.21 102.74,110.86 512.78,80.71 673.48,67.91 135.42,-10.79 110.61,-0.39 173.19,-67.91 91.32,-105.31 142.18,-153.62 211.66,-281.21l8921.74 -8.1 -807.84 -21.35c-6.19,-298.22 -80.47,-314.42 -240.53,-471.81 -152.96,-150.4 -231.16,-130.72 -538.61,-130.72 -60.06,-98.96 -145.44,-190.84 -208.65,-285.24l-1095 92.96c-318.69,8.6 -860.45,11.43 -1149.33,-35.87 -970.37,-158.91 -1045.42,-319.59 -1630.94,-485.7 -620.85,-176.12 -1730.45,-197.56 -2378.31,49.66l-375.92 133.5c-433.25,184.9 -592.89,310.23 -919.8,598.05 -5.48,4.83 -13.21,11.78 -18.71,16.6 -5.52,4.84 -13.34,11.7 -18.89,16.53 -5.57,4.85 -13.38,11.73 -19,16.56l-119.93 94.62 -686.61 -479.86c-352.58,-236.96 -804.55,-403.28 -1232.9,-496.42 -101.11,-21.99 -155.29,-29.34 -236.05,-46.23 -598.3,-125.07 -679.05,-127.83 -1373.67,-125.52 -224.56,0.74 -301.46,64.82 -452.31,126.94 -505.61,208.22 -690.66,327.66 -1313.03,450.73 -695.05,137.44 -933.8,114.44 -1655.38,111.35 -240.95,-1.03 -359.2,-37.9 -564.22,-37.9 -65,97.07 -128.46,165.58 -141.11,317.5 -411.55,-42.37 -452.83,-20.41 -751.25,131.7 -513.35,261.66 -497.85,167.52 -518.75,439.83 -218.19,0 -720.2,-51.01 -874.85,24.14z"/>
   <path class="fil7" d="M-6680.28 3931.53l-703.76 -36.93c-136.47,-19.4 -293.92,-57.99 -425.13,-68.91 -101.33,191.52 -77.67,384.85 -349.76,391.08l-171.19 577.97c-80.03,246.64 109.51,136.83 435.16,150.22 759.91,31.25 1775.18,9.62 2555.24,9.62 1352.31,0 2704.63,0 4056.94,0 226.37,338.05 133.34,349.76 599.72,349.76 218.76,0 302.47,-191.2 402.21,-335.6l6825.14 -10.99c122.42,-50.34 74.55,-83.07 0.52,-352.02 -14,-50.83 -27.28,-133.19 -48.04,-201.93l-53.71 -116.48 -246.94 -3.64c-13.7,-163.86 -106.19,-275.65 -179.42,-384.41 -147.88,0 -550.65,99.11 -965.7,94.41 -661,-7.49 -1188.55,-158.18 -1810.83,-316.5 -1010.62,-257.11 -769.89,-284.63 -1877.33,-278.88 -188.67,0.98 -321.81,20.42 -463.19,70.2 -36.41,12.82 -43.06,17.31 -101.69,38.76 -637.34,233.28 -710.18,210.43 -1292.86,788.82 -184.04,182.68 -171.57,242.1 -297.01,273.46 -72.09,-271.85 -653.95,-714.76 -939.17,-858.97 -2013.35,-1017.97 -3437.49,351.09 -4949.2,220.96z"/>
   <path class="fil5" d="M33113.06 5730.69c72.62,-93.29 3397.73,-28.38 3713.84,-25.6l0.52 -3609.47c-4.58,-252.88 -36.12,-311.61 -166.47,-442.04 -174.53,-174.63 -148.56,-129.86 -374,-129.86l-2644.73 0c-206.3,0 -253.65,-28.31 -395.35,142.72 -116.56,140.7 -134.61,213.16 -134.61,465.92l0.8 3598.33z"/>
   <path class="fil5" d="M25634.17 2696.8l0 3527.78 3704.16 0 0 -3527.78c0,-250.3 -178.76,-564.44 -423.33,-564.44l-2822.22 0c-268.26,0 -458.61,289.88 -458.61,564.44z"/>
   <path class="fil3" d="M-16452.22 2908.47c0,-571.33 280.57,-1074.37 643.79,-1437.59 224.04,-224.04 294.29,-276.69 602.24,-420.82 2050.21,-959.59 3970.09,1740.22 2273.08,3437.24 -1330.93,1330.93 -3519.11,322.46 -3519.11,-1578.83zm-881.95 0c0,1211.08 604.3,2222.98 1634.04,2740.41 1629.01,818.55 3435.48,25.21 4066.35,-1485.02 329.93,-789.82 334.73,-1653.4 -15.59,-2424.63 -209.03,-460.18 -580.95,-958.8 -992.69,-1229.81 -507.38,-333.95 -1016.82,-564.28 -1658.22,-564.28 -406.22,0 -935.58,123.53 -1223.41,258.25 -997.15,466.71 -1810.48,1441.25 -1810.48,2705.08z"/>
   <path class="fil5" d="M-13735.83 4495.97c148.39,12.35 249.06,47.7 317.5,141.11 -171.16,65.93 -280.78,1.63 -484.93,-114.8 36.28,-139.95 169.33,-306.64 308.54,-343.81 -35.32,151.58 -106.23,186.86 -141.11,317.5zm-1270 0c-40.26,-150.76 -76.4,-74.98 -141.11,-352.78 169.3,113.38 262.89,153.69 317.5,388.06 -167.58,77.83 -285.79,186 -493.89,105.83 68.43,-93.41 169.1,-128.76 317.5,-141.11zm-811.39 -282.22l138.11 -28.26c106.99,4.59 45.45,17.11 179.39,28.26 -19.72,-85.21 -49.58,-121.45 -59.5,-191.08 -24.15,-169.43 -8.67,-125.99 59.5,-161.7 7.49,90.06 2.96,101.26 54.62,159.58 68.57,77.43 -25.99,9.64 43.54,21.39 40.57,6.85 67.34,-97.19 184.21,135.71 106.78,212.79 104.8,206.78 76.08,258.95 -27.75,50.43 -234.78,188.3 -464.29,-11.18 149.42,-34.81 230.96,-26.78 326.47,-114.8 -126.47,-103.87 -14.84,-53.1 -108.01,-19.16 -121.02,44.09 -293.24,109.11 -430.12,-77.71zm79.52 -211.67c0,-159.17 -21.01,-270.12 35.28,-379.09 338.66,700.11 -246.58,572.43 -326.47,273.26 90.77,43.55 196.3,66.1 291.19,105.83zm2142.98 458.61c3.58,-160.65 111.98,-384.06 200.74,-419.48 163.1,-65.1 -136.66,19.23 46.51,-1.1l28.82 -0.75c56.33,-22.66 37.17,-30.71 81.71,-101l50.07 -67.72c203.76,-179.96 80.26,-110.88 204.4,-185.96l-12.53 317.4c76.52,-17.83 215.74,-73.93 282.22,-105.83 -43.11,161.46 -195.41,235.39 -379.09,237.98 -46.42,-89.88 -35.28,-75.31 -35.28,-211.67l-44.24 0c0,172.14 -23.94,154.92 -35.28,291.19 159.54,-3.56 140.2,-35.28 317.5,-35.28 -76.76,114.64 -377.98,314.26 -458.61,61.59 -91.96,59.55 -71.9,16.33 -105.83,150.08 177.25,0 182.98,3.94 317.5,35.28 -150.76,205.76 -389,51.49 -458.61,35.27zm776.11 -917.22l-8.97 150.08c151.86,-24.87 128.11,-49.75 255.91,-79.52 -202.13,382.01 -533.57,366.65 -352.77,-176.39l90.13 86.78c2.46,-5.64 10.2,12.92 15.7,19.05zm-3069.17 176.39c2.07,-92.86 -1.83,-75.58 18.5,-157.89l87.34 228.45c0,199.62 -242.46,41.03 -388.06,-176.39 195.45,16.26 130.91,65.43 282.22,105.83zm1948.71 -78.98c102.9,11.35 248.8,-26.39 414.9,-26.85 -7.92,-95.26 -16.54,-95.97 -35.27,-176.39l248.78 280.1c25.41,47 18,41.69 33.44,107.95 -1012.25,-84.23 -815.84,245.89 -1058.34,273.26 -193.33,-12.58 -195.22,-167.14 -456.35,-240.24 -173.63,-48.6 -445.78,-33.02 -672.53,-33.02 38.46,-165.09 40.83,-91.22 112.97,-189.75 2.44,-3.33 8.08,-11.54 10.3,-14.88 4.33,-6.5 13.31,-24.91 17.42,-31.83l94.82 -110.45c185.21,-88.62 -125.49,28.45 44,-5.86 85.54,-17.32 30,-12.26 108.54,-70.56 130.94,62.83 257.3,67.23 412.84,151.61 184.99,100.36 198.82,167.65 292.72,236.45 105.79,-77.51 90.02,-169.35 376.69,-293.63 377.23,-163.53 367.92,-88.53 399.42,46.68 -131.33,63.01 -145.04,11.21 -289.54,62.55 -52.39,18.61 -49.91,30.6 -54.81,34.86zm1120.46 -97.41l-26.31 -379.09c51.26,21.73 79.64,-5.81 132.14,246.95 175.52,-100.91 118.88,-98.79 141.11,-150.08l70.56 35.28c-35.34,151.67 -99.62,207.19 -211.67,282.22 -62.64,-20.84 -64.25,-13.09 -105.83,-35.28zm-3175 -105.83c2.86,-128.36 14.57,-164.38 73.92,-248.48l41.83 -43.66c0,180.81 -24.04,315.64 -80.47,433.25 -202.1,-47.08 -203.97,-154.41 -282.23,-317.5 137.1,36.61 131.55,99.11 246.95,176.39zm70.55 -529.17c-4.33,194.51 -62.56,198.98 -105.83,352.78 -160.7,-42.91 -207.27,-155.4 -211.67,-352.78 158.5,116.12 25.79,162.03 211.67,211.67 11.74,-141.09 20.94,-149.47 105.83,-211.67zm3351.39 352.78c-160.97,-14.81 -123.93,-24.4 -173.13,-144.93 -37.86,-92.75 -66.17,-108.71 -64.85,-234.16 72.51,72.4 125.37,181.32 202.71,237.98 20.44,-76.59 82.18,-186.62 132.14,-237.98 7.87,280.12 -51.51,175.63 -96.87,379.09zm-35.27 -458.61c23.73,-285.2 68.06,-225.77 96.86,-237.98 0,205.26 -16.81,294.59 -132.14,379.09 -99.63,-73 -143.53,-176.46 -176.39,-317.5 161.09,107.87 44.77,131.82 211.67,176.39zm-3527.78 105.83c-41.21,-176.89 -70.56,-98.18 -70.56,-352.78 67.77,77.97 94.86,115.08 105.84,246.95l70.55 0c34.61,-129.61 44.95,-141.58 141.11,-176.39 -73.95,154.12 -36.52,264.71 -246.94,282.22zm105.83 -449.64c151.46,-36.62 74.98,-25.8 176.39,-114.8 -15.47,182.02 -63.78,206.81 -176.39,282.22 -104.27,-155.72 -96.87,-126.85 -96.87,-379.09 133.02,56.38 16.79,20.4 96.87,211.67zm3412.98 -211.67c88.54,171.41 14.9,264.86 -61.59,379.09 -97.24,-65.11 -177.44,-154.04 -211.67,-282.22 154.05,65.66 38.21,72.86 208.05,113.83l65.21 -210.7zm-3351.62 -207.95c2.88,7.07 6.63,18.83 9.49,26.45l15.46 54.02c1.85,5.51 7.99,29.29 9.3,24.5 1.29,-4.67 5.95,16.07 10.22,23.46 104.37,-27.87 57.19,-14.36 141.12,-70.56 -30.81,115.36 -88.54,152.84 -176.39,211.67 -36.68,-69.31 -70.56,-104.03 -70.56,-211.67 0,-68.1 11.1,-62.8 35.28,-105.83l26.08 47.96zm3148.92 163.7c85.36,-62.54 35.51,-5.51 83.25,-163.69l22.58 -47.97c36.63,157.23 33.29,174.6 -35.28,317.5 -140.47,-74.33 -169.62,-66.5 -211.66,-246.95 125.29,66.3 101.76,-6.23 141.11,141.11zm-3633.61 705.56c0,1901.29 2188.18,2909.76 3519.11,1578.83 1697.01,-1697.02 -222.87,-4396.83 -2273.08,-3437.24 -307.95,144.13 -378.2,196.78 -602.24,420.82 -363.22,363.22 -643.79,866.26 -643.79,1437.59z"/>
   <path class="fil5" d="M-17334.17 2908.47c0,-1263.83 813.33,-2238.37 1810.48,-2705.08 287.83,-134.72 817.19,-258.25 1223.41,-258.25 641.4,0 1150.84,230.33 1658.22,564.28 411.74,271.01 783.66,769.63 992.69,1229.81 350.32,771.23 345.52,1634.81 15.59,2424.63 -630.87,1510.23 -2437.34,2303.57 -4066.35,1485.02 -1029.74,-517.43 -1634.04,-1529.33 -1634.04,-2740.41zm-355.79 -564.44c-44.64,380.55 -71.21,736.93 -22.03,1120.25 14.37,111.96 113.8,775.73 178.92,843.85 31.03,32.46 38.69,23.83 45.52,28.47 71.73,48.77 102.27,81.19 133.41,228.35 61.88,292.46 321.33,490.78 526.47,694.52l539.69 521.29c138.78,104.53 78.18,8.09 181.32,67.72 160.79,92.98 214.02,213.7 454.65,256.02l793.73 203.45c3,1.88 13.22,9.48 15.65,11.11 2.5,1.67 9.92,9.34 16.2,11.36 86.54,-52.6 644.13,-2.6 935.93,-46.71l351.34 -56.1c97.99,-17.26 193.85,-12.74 279.03,-72.84 3.35,-2.37 10.99,-9.2 14.21,-11.4l44.37 -26.08c3.29,-1.51 13.15,-5.09 16.54,-6.44 3.45,-1.38 13.6,-4.55 17.11,-5.81l138.32 -51.63c3.13,-0.96 12.95,-3.19 16.26,-4.11 3.58,-0.98 13.9,-2.7 17.67,-3.74l136.53 -70.34c327.62,-249.06 406.85,-240.54 816.73,-597.22 146.09,-127.14 545.17,-517.09 604.44,-691.59l209.73 -486.67c28.32,-72.2 2.15,-78.6 57.86,-169.56 64.23,-104.88 60.75,-1.49 98.62,-188.52 40.97,-202.33 -47.79,-159.92 45.3,-413.1 85.35,-232.09 -25.26,-716.15 -25.26,-943.42 0,-171.13 85.64,-150.48 -21.9,-317.78 -65.04,-101.19 -12.78,-119 -44.64,-251.22 -50.5,-209.61 -124.77,-208.94 -174.61,-348.41 -1.67,-4.68 -4.75,-14.86 -6.68,-19.58 -240.37,-589.19 -733.59,-1023.14 -1205,-1425.58 -42.58,-36.35 -21.66,-23.06 -51.65,-47.27l-284.93 -178.27c-155.57,-127.96 -562.39,-266.42 -768.4,-291.07 -138.48,-16.57 -95.49,7.41 -170.06,7.62 -171.47,0.48 -55.22,-19.36 -97.13,-33.31 -114.87,-38.22 -960.35,25.98 -1090.48,49.06 -554.07,98.25 -662.97,105.78 -1201.42,423.01l-892.19 801.71c-116.98,115.96 31.65,63.48 -122.05,227.33 -50.4,53.74 -12.45,6.49 -58.99,51.67 -102.99,99.96 -51.23,101.5 -86.73,169.59 -46.1,88.42 -124.46,61.63 -161.02,242.06 -22.81,112.6 -53.04,320.85 -135.01,462.03 -2.27,3.91 -8.5,11.83 -10.84,15.39l-22.26 27.02c-77.5,114.87 -25.99,230.13 -32.27,294.89z"/>
   <path class="fil7" d="M-17689.96 2344.03c6.28,-64.76 -45.23,-180.02 32.27,-294.89l22.26 -27.02c2.34,-3.56 8.57,-11.48 10.84,-15.39 81.97,-141.18 112.2,-349.43 135.01,-462.03 36.56,-180.43 114.92,-153.64 161.02,-242.06 35.5,-68.09 -16.26,-69.63 86.73,-169.59 46.54,-45.18 8.59,2.07 58.99,-51.67 153.7,-163.85 5.07,-111.37 122.05,-227.33l892.19 -801.71c538.45,-317.23 647.35,-324.76 1201.42,-423.01 130.13,-23.08 975.61,-87.28 1090.48,-49.06 41.91,13.95 -74.34,33.79 97.13,33.31 74.57,-0.21 31.58,-24.19 170.06,-7.62 206.01,24.65 612.83,163.11 768.4,291.07l284.93 178.27c29.99,24.21 9.07,10.92 51.65,47.27 471.41,402.44 964.63,836.39 1205,1425.58 1.93,4.72 5.01,14.9 6.68,19.58 49.84,139.47 124.11,138.8 174.61,348.41 31.86,132.22 -20.4,150.03 44.64,251.22 107.54,167.3 21.9,146.65 21.9,317.78 0,227.27 110.61,711.33 25.26,943.42 -93.09,253.18 -4.33,210.77 -45.3,413.1 -37.87,187.03 -34.39,83.64 -98.62,188.52 -55.71,90.96 -29.54,97.36 -57.86,169.56l-209.73 486.67c-59.27,174.5 -458.35,564.45 -604.44,691.59 -409.88,356.68 -489.11,348.16 -816.73,597.22l-136.53 70.34c-3.77,1.04 -14.09,2.76 -17.67,3.74 -3.31,0.92 -13.13,3.15 -16.26,4.11l-138.32 51.63c-3.51,1.26 -13.66,4.43 -17.11,5.81 -3.39,1.35 -13.25,4.93 -16.54,6.44l-44.37 26.08c-3.22,2.2 -10.86,9.03 -14.21,11.4 -85.18,60.1 -181.04,55.58 -279.03,72.84l-351.34 56.1c-291.8,44.11 -849.39,-5.89 -935.93,46.71 -6.28,-2.02 -13.7,-9.69 -16.2,-11.36 -2.43,-1.63 -12.65,-9.23 -15.65,-11.11l-793.73 -203.45c-240.63,-42.32 -293.86,-163.04 -454.65,-256.02 -103.14,-59.63 -42.54,36.81 -181.32,-67.72l-539.69 -521.29c-205.14,-203.74 -464.59,-402.06 -526.47,-694.52 -31.14,-147.16 -61.68,-179.58 -133.41,-228.35 -6.83,-4.64 -14.49,3.99 -45.52,-28.47 -65.12,-68.12 -164.55,-731.89 -178.92,-843.85 -49.18,-383.32 -22.61,-739.7 22.03,-1120.25zm3813.02 4300.87c219.82,-65.2 -134.41,9.03 107.57,-67.46 150.68,-47.64 284.67,8.07 449.29,-76.9 7.17,-3.7 15.47,-9.39 22.44,-13.26 224.05,-124.43 499.7,-211 729.74,-296 544.11,-201.06 1316.7,-1100.28 1567,-1680.96 64.14,-148.79 24.11,-49.56 35.57,-169.24 10.86,-113.45 -14.91,-45.98 60.54,-147.57 3.01,-4.06 10.54,-11.76 13.41,-15.64l46.56 -80.4c3.6,-7.99 14.11,-32.96 17.84,-42.24 188.28,-468.1 208.83,-1214.49 101.78,-1795.89 -41.98,-227.99 -84.21,-473.83 -214.51,-662.29l-54.46 -84.5c-88.17,-206.58 -96.12,-289.42 -231.17,-513.86 -137.64,-228.74 -246.45,-367.78 -411.73,-579.13 -217.99,-278.73 -535.88,-495.15 -840.7,-677.49 -175.93,-105.24 -217.21,-57.58 -358.01,-167.3 -157.65,-122.86 -240.68,-80.05 -427.26,-135.5l-636.52 -188.19c-109.19,-36.07 -250.15,-25.01 -365.35,-28.79l-765.02 96.25c-249.09,104.06 -645.09,110.53 -840.69,258.08 -120.79,91.12 -156.82,19.36 -556.68,286.82 -474.02,317.08 -888.09,702.07 -1139.12,1219.71l-30.36 49.51c-114.56,156.83 -171.46,298.5 -231.12,470.84l-145.69 427.05c-99.93,302.58 -153.77,808.28 -123.32,1148.59l47.91 340.46c17.93,53.65 27.34,280.9 88.03,361.69l25.41 27.9c65.34,110.17 28.3,180.64 66.37,294.5l161.94 378.18c2.75,4.39 8.83,12.91 11.29,17.16 2.29,3.95 7.44,12.7 9.46,16.62 125.27,243.15 273.28,522.54 480.63,739.8 94.54,99.07 135.12,183.08 230.59,263.69l292.45 236.93c101.38,75.94 415.42,312.02 551.78,347.64 78.84,20.59 18.41,-16.89 148.69,42.72l557.29 221c166.05,53.17 339.51,60.27 485.98,131.52 301.38,146.58 703.23,55.39 1062.15,45.95z"/>
   <path class="fil5" d="M33112.26 19452.95c0,272.74 -31.21,928.05 14.45,1152.45 29.99,147.36 131.15,252.62 236.45,327.07 140.56,99.4 215.25,50.67 454.25,50.26 730.43,-1.26 1532.63,0.42 2188.42,0.42 397.65,0 478.03,60.55 654.87,-134.62 251.1,-277.1 166.3,-872.64 166.44,-1404.46 -841.47,-0.41 -3023.49,-36.3 -3714.88,8.88z"/>
   <path class="fil5" d="M25634.17 19242.08c0,667.28 -147.21,1503.62 529.16,1503.62l2681.11 0c652.66,0 493.89,-1007.39 493.89,-1503.62l-3704.16 0z"/>
   <path class="fil5" d="M5490.56 28837.64c157.35,0 299.63,-123.32 299.38,-282.9 0,-4.58 -1.31,-15.09 -1.86,-19.3l-38.66 -75.75c-34.4,-38.66 -130.53,-115.87 -223.59,-115.94l-1622.92 14.98c-909.53,-24.14 -2929.59,-46.52 -3774.73,-16.85l-2998.46 1.87c-347.89,0 -345.48,493.89 0,493.89l8360.84 0z"/>
   <path class="fil5" d="M-2870.28 27426.53l8431.39 0c148.41,0 82.16,-118.68 253.96,-169.38l0 -155.13c-168.89,-49.84 -115.73,-169.38 -289.24,-169.38l-8396.11 0c-347.89,0 -345.48,493.89 0,493.89z"/>
   <path class="fil5" d="M-2870.28 30248.75l8431.39 0c88.94,0 78.66,-34.82 131.35,-80.44 123.73,-107.12 -29.45,-44.06 122.61,-88.93l0 -155.14c-168.89,-49.84 -115.73,-169.38 -289.24,-169.38l-8396.11 0c-347.89,0 -345.48,493.89 0,493.89z"/>
   <path class="fil1" d="M-3293.61 9897.53c-138.32,0 -105.89,135.62 -103.78,275.94 26.6,1775.42 2,3724.66 2,5505.56 0,1730.28 -33.49,3788.59 -2.81,5505.74 4.56,255.3 22.57,104.75 69.31,279.81 407.87,0 308.05,-30.86 306,-458.58l-0.38 -11095.44 -270.34 -13.03z"/>
   <path class="fil1" d="M-16730.15 11139.66c-6.85,-101.95 -6.64,1.45 -2.49,-77.12 0.12,-2.14 11.06,-80.91 11.17,-81.84 24.16,-201.96 68.82,-910.81 -66.06,-1033.28 -63.98,-58.08 -6.77,-49.89 -123.3,-49.89 -247.49,0 -176.42,87.79 -176.39,630.94l0 10865.56 117.24 57.87c75.53,18.89 121.44,12.68 200.26,12.68 66.45,-197.23 66.5,-242.38 66.5,-493.88 -3.66,-3.13 -11.45,-5.55 -12.83,-6.6 -1.41,-1.07 -10.86,-6.52 -12.48,-7.91 -1.71,-1.45 -10.15,-8.48 -11.8,-10.07 -24.34,-23.35 0.26,33.57 -29.39,-45.98 61.35,-64.48 51.01,94.76 51.01,-105.83l-26.04 -1283.76c-0.17,-9.27 0.83,-33.98 0.87,-42.41l10.82 -140.83c46.76,-238.6 14.35,-6579.57 14.35,-7493.56l-11.44 -694.09z"/>
   <path class="fil1" d="M-4598.89 9897.53c-182.02,0 -105.68,201.62 -105.83,630.94l0 10900.84c408.15,95.08 382.26,57.24 376.93,-352.57l-0.46 -2222.71c0,-2797.97 -39.53,-5829.58 0.94,-8607.86 0.58,-39.99 4.43,-144.24 0.84,-177.94l-48.87 -167.16 -223.55 -3.54z"/>
   <path class="fil1" d="M-6574.44 9897.53c14.41,21.04 -86.14,74.55 -86.3,172.33l-2.24 705.77c10.8,967.95 -35.65,2489.13 0,3351.39l20.22 1164.17c-56.59,766.65 -4.79,2529.51 -11.42,3421.73l-6.56 2575.28c0,153.25 30.74,-22.51 86.3,176.38 286.42,3.19 282.22,78.02 282.22,-211.66l0 -11077.23c0,-317.93 56.45,-278.16 -282.22,-278.16z"/>
   <path class="fil1" d="M-5633.52 11128.19c0,-237.27 6.89,-506.2 -30.99,-727.11 -45.97,-268.08 101.4,-131.57 -27.63,-430.2 -2.08,-4.81 -7.06,-14.32 -8.97,-18.46l-26.67 -54.89c-143.88,0 -282.22,-40.35 -282.22,101.77l0 11430.01c159.54,3.55 140.2,35.27 317.5,35.27 89.59,-374.89 51.02,-681.39 51.02,-1128.88l0 -1305.28c0,-1215.46 57.1,-3364.37 -22.56,-4384.68 -13.71,-175.63 22.56,63.47 22.56,-166.16l0 -846.66c0,-201.22 -34.43,-79.88 -30.11,-207.32 2.39,-70.65 30.11,-18.02 30.11,-180.74l-30.48 -549.34c-0.14,-5.44 -1.47,-15.81 -1.48,-21.26l0.46 -43.48c17.83,-187.83 31.5,52.44 31.5,-126.75 0,-202.92 -51.14,79.5 -28.6,-162.97 40.36,-434.18 36.92,-134.75 6.01,-587.21l30.55 -625.66z"/>
   <path class="fil1" d="M-15041.11 9897.53c1.7,3.93 -6.05,9.55 -6.87,10.86 -124.13,199.03 -71.66,1569.36 -43.73,1936.04 8.89,116.78 -19.96,67.11 -19.96,200.99l0 9278.05c0,156.85 286.18,132.72 359.8,113.78l18.92 -1348.71c-33.4,-452.43 -5.71,-878.81 -3.76,-1340.34l-16.46 -4304.11c52.28,-1269.81 -0.45,-3294.95 -10.13,-4546.56l-277.81 0z"/>
   <path class="fil1" d="M-11266.39 21464.58c117.62,-236.77 86.3,-7.48 86.3,-176.38l0 -11253.62c0,-173.49 -231.79,-120.37 -368.52,-105.83l0 11500.56c124.4,28.98 115.9,35.27 282.22,35.27z"/>
   <path class="fil1" d="M-5045.4 21436.22c85.39,-202.52 58.46,29.84 58.46,-148.02l0 -11218.34c0,-169.49 -188.73,-152.1 -355.79,-164.56l-20.69 9760.12c-16.29,365.44 27.07,707.97 17.98,952.71 -32.87,885.05 -94.73,846.45 287.94,846.45l12.1 -28.36z"/>
   <path class="fil1" d="M-8938.06 21252.92c0,130.35 -37.44,219.62 105.84,219.62 141.71,0 254.9,19.69 254.9,-113.79l0 -11359.45c0,-89.91 -30.98,-101.77 -113.79,-101.77 -224.89,0 -256.91,-23.29 -256.04,137.11l9.09 11218.28z"/>
   <path class="fil1" d="M-15770.36 10528.47l-1.36 3176.38c24.15,240.81 80.84,52.22 41.94,263.28l-8.34 50.04c-1.09,6.44 -2.52,16.31 -3.56,22.68l-39.61 7288.47c11.03,162.48 12.79,117.93 105.3,138.4 73.41,16.24 212.56,-1.54 247.54,-37.28 46.89,-47.9 35.96,-154.92 30.74,-245.42 -0.28,-4.87 -7.82,-115.17 -7.81,-115.82l11.63 -10964.06c0,-232.26 -3.11,-207.61 -282.22,-207.61 -168.65,0 -94.25,301.48 -94.25,630.94z"/>
   <path class="fil1" d="M-14080.65 15149.86c0,-196.32 -34.37,-6.17 -11.75,-317.95 52.5,-723.75 -14.86,-2800.03 2.65,-3633.22 30.52,-1451.99 112.72,-1301.15 -350.15,-1301.38l-9.45 11461.44c0,152.62 167.38,105.83 325.46,105.83 77.19,-331.33 43.24,-5180.6 43.24,-6314.72z"/>
   <path class="fil1" d="M-10243.33 9964.03c0,1928.52 0,3857.03 0,5785.55 0,792.19 -54.07,5331.51 35.27,5715l325.32 0 0.14 -11559.53 -347.04 51.7c-1.55,-4.52 -9.21,4.7 -13.69,7.28z"/>
   <path class="fil1" d="M-9581.01 21358.75c0,127.26 191.06,138.93 286.11,105.44 137.62,-48.48 74.62,-94.16 74.62,-281.83l-1.13 -2998.66c35.13,-1924.37 1.54,-3984.07 7.32,-5926.62l1.77 -2257.78c0,-150.67 -197.91,-101.77 -359.25,-101.99l-9.44 11461.44z"/>
   <path class="fil1" d="M-12148.33 21464.58c50.97,0 161.45,5.94 205.87,-2.08 152.91,-27.61 113.71,-236.17 112.29,-385.22 -32.97,-3467.83 -0.81,-7062.78 -0.66,-10548.81 0.01,-329.47 64.76,-630.94 -105.84,-630.94 -118.06,0 -262.68,38.89 -262.68,172.33l0 11218.34 51.02 176.38z"/>
   <path class="fil1" d="M-16056.21 21323.47c0,-1927.4 -7.96,-3857.21 -7.96,-5785.55 0,-767.08 39.64,-4339.89 -23.84,-5019.6 -10.26,-109.79 31.8,-347.28 31.78,-597.16l-276.3 11.89c-7.79,2.17 -62.22,23.5 -87.78,30.94l3.37 8255.04c0,76.71 -22.26,143.56 -17.99,211.88l20.23 2540c-18.22,434.13 -101.65,493.67 174.14,493.67 157.53,0 184.35,21.59 184.35,-141.11z"/>
   <path class="fil1" d="M-3673.71 20547.36c0,-429.73 9.7,-3480.44 -25.27,-3765.72l25.27 -6147.34c0,-772.56 43.12,-707.33 -368.69,-729.25l0 10395.37c0,1284.78 -115.9,1164.16 325.46,1164.16l43.23 -917.22z"/>
   <path class="fil1" d="M-17651.67 9897.53c14.53,33.48 -70.55,79.58 -70.55,172.33l0 11288.89c0,152.87 160.4,105.83 317.5,105.83 108.4,-465.3 35.28,-2285.76 35.28,-2928.05l0 -5856.11c0,-239.21 60.12,-2550.38 -47.78,-2747.77 -1.29,-2.36 -7.32,-11.02 -8.36,-12.77 -0.93,-1.57 -6.9,-5.85 -7.55,-11.49 -0.62,-5.27 -4.69,-7.18 -6.87,-10.86l-211.67 0z"/>
   <path class="fil1" d="M-10902.03 11833.75c0,204.64 19.31,401.71 34.92,577.48 8.09,91.17 -35.79,330.46 -35.02,516.09l59.07 8537.26c163.07,0 317.5,21.8 317.5,-141.11l0 -11324.17c0,-150.13 -191.55,-101.77 -348.72,-101.77 -48.91,162.94 -27.75,1604.43 -27.75,1936.22z"/>
   <path class="fil4" d="M-1565 8693.01c-311.62,-359.35 -140.91,-281.21 -917.22,-281.21l-5997.22 0c-784.75,0 -1655.43,-41.35 -2427.08,-4.05 -109.51,41.58 -60.84,-5.95 -87.86,108.5 -3.17,13.43 1.03,194.12 1.03,222.24l9350.79 -9.04c98.6,-26.23 13.1,16.29 77.56,-36.44z"/>
   <path class="fil4" d="M-718.33 8693.01c7.26,5.94 19.96,2.87 24.51,13.86l9112.43 31.62 -3.54 -334.79 -8921.74 8.1c-69.48,127.59 -120.34,175.9 -211.66,281.21z"/>
   <path class="fil8" d="M-2870.28 30248.75c-345.48,0 -347.89,-493.89 0,-493.89l8396.11 0c173.51,0 120.35,119.54 289.24,169.38l0 155.14c-152.06,44.87 1.12,-18.19 -122.61,88.93 -52.69,45.62 -42.41,80.44 -131.35,80.44l-8431.39 0zm8466.67 105.84c181.36,0 377.56,-153.49 304.1,-436.66 -15.28,-58.93 -29.36,-268.9 -304.1,-268.9l-8572.5 0c-425.31,0 -425.65,705.56 0,705.56l8572.5 0z"/>
   <path class="fil8" d="M-2870.28 27426.53c-345.48,0 -347.89,-493.89 0,-493.89l8396.11 0c173.51,0 120.35,119.54 289.24,169.38l0 155.13c-171.8,50.7 -105.55,169.38 -253.96,169.38l-8431.39 0zm8466.67 105.83c420.69,0 434.4,-705.55 0,-705.55l-8572.5 0c-423.72,0 -423.72,705.55 0,705.55l8572.5 0z"/>
   <path class="fil8" d="M5490.56 28837.64l-8360.84 0c-345.48,0 -347.89,-493.89 0,-493.89l2998.46 -1.87c845.14,-29.67 2865.2,-7.29 3774.73,16.85l1622.92 -14.98c93.06,0.07 189.19,77.28 223.59,115.94l38.66 75.75c0.55,4.21 1.86,14.72 1.86,19.3 0.25,159.58 -142.03,282.9 -299.38,282.9zm105.83 105.83c205.6,0 350.65,-191.63 326.22,-376.17 -22.75,-171.8 -109.19,-329.38 -326.22,-329.38l-8537.22 0c-486.39,0 -472.47,705.55 0,705.55l8537.22 0z"/>
   <path class="fil1" d="M3581.7 24741.36l284.78 -0.07 -6.66 137.28c-238.1,-29.87 -241.24,54.58 -278.12,-137.21zm-1166.67 0.1l-9.35 119.27 -253.13 -9.32 -5.39 -110.05 267.87 0.1zm-1446.39 0l-9.35 119.27 -253.13 -9.32 -5.67 -110.05 268.15 0.1zm-839.54 129.26c-146.74,-3.76 -119.47,7.53 -145.74,-129.36l278.13 0c-2.74,161.97 38.97,133.75 -132.39,129.36zm-1314.45 -4.31c-254.14,-6.86 -199,22.97 -242.59,-50.44 20.74,-24.24 -68.05,-103.46 145.79,-81.34 148.11,15.31 92.03,4.5 96.8,131.78zm4038.03 -121.44l301.58 8.41c-14.6,102.98 -12.76,119.79 -166.83,114.01 -128.12,-4.8 -119.27,-4.89 -134.75,-122.42zm-1162.75 24.45l17.95 109.15c-72.54,-12.63 -189.05,-7.49 -227.1,-16.82 -92.95,-22.79 -60.7,-11.13 -74.14,-119.25l283.29 26.92zm-2435.58 -16.04c332.01,-44.15 253.7,12.98 301.58,89.91 -94.53,39.56 -156.12,9.94 -295.29,35.28l-6.29 -125.19zm-744.74 175.95l5789.46 0.44 -3.55 -262.87 -5649.06 -2.4 -136.85 14.42 0 250.41z"/>
   <path class="fil1" d="M3859.82 25670.6l-0.03 137.21 -168.4 0c-169.24,0 -130.29,11.54 -133.15,-137.21l301.58 0zm-2892.78 0l0 137.21 -266.3 0 0.31 -137.21 265.99 0zm-2151.94 0l0 137.21 -133.16 0c-69.56,0 -53.6,6.96 -109.88,35.28l0 -172.49 243.04 0zm3429.9 152.51c-136.6,14.9 -102.25,-38.98 -133.15,-117.23 3.15,-4.59 58.43,-35.28 97.87,-35.28l203.71 0 0 137.24 -168.43 15.27zm-2689.07 -152.51c-22.29,134.97 3.04,147.64 -169.1,143.88 -169.48,-3.71 -129.87,-8.02 -132.45,-143.88l301.55 0zm3320.01 0l273.08 -0.88 -18.22 138.09 -254.86 0 0 -137.21zm-1470.17 0l302.11 0c-2.87,148.75 36.08,137.21 -133.16,137.21l-140.08 -0.86 -28.87 -136.35zm-1445.87 0l301.59 0 0.24 137.21 -273.48 -0.86 -28.35 -136.35zm3623.46 199.35c796.54,18.29 709.27,80.53 720.98,-250.55 -913.61,-0.38 -5244.61,-38.14 -5794.73,12.02 0,310.23 57.83,250.85 419.28,250.85l4654.47 -12.32z"/>
   <path class="fil5" d="M33113.06 19323.57l3713.84 -1.25 0 -231.03c-606.42,0 -1142.41,-2.77 -1808.84,-2.78 -565.05,0 -1357.89,-41.83 -1894.18,11.74l-10.82 223.32z"/>
   <polygon class="fil5" points="25634.17,19065.7 26198.69,19084.61 27115.83,19087.47 27327.37,19073.25 27539.03,19089.25 27856.74,19087.47 29338.36,19072.08 29338.33,18854.03 25634.17,18854.03 "/>
   <path class="fil9" d="M-13939.07 3640.88c-9.38,85.99 32.68,140.12 -165.77,203.42 -9.2,2.94 -23.5,5.05 -31.3,7.18 -8.45,2.3 -28.05,15.31 -34.39,5.2 -6.69,-10.69 -24.32,3.04 -36.52,4.29 82.52,-101.25 33.5,-70.69 34.66,-141.11 38.55,-34.99 -30.67,-23.31 89.82,-66.61 64.65,-23.23 89.05,-11.77 143.5,-12.37zm0 0c4.9,-4.26 2.42,-16.25 54.81,-34.86 144.5,-51.34 158.21,0.46 289.54,-62.55 -31.5,-135.21 -22.19,-210.21 -399.42,-46.68 -286.67,124.28 -270.9,216.12 -376.69,293.63 -93.9,-68.8 -107.73,-136.09 -292.72,-236.45 -155.54,-84.38 -281.9,-88.78 -412.84,-151.61 -78.54,58.3 -23,53.24 -108.54,70.56 -169.49,34.31 141.21,-82.76 -44,5.86l-94.82 110.45c-4.11,6.92 -13.09,25.33 -17.42,31.83 -2.22,3.34 -7.86,11.55 -10.3,14.88 -72.14,98.53 -74.51,24.66 -112.97,189.75 226.75,0 498.9,-15.58 672.53,33.02 261.13,73.1 263.02,227.66 456.35,240.24 242.5,-27.37 46.09,-357.49 1058.34,-273.26 -15.44,-66.26 -8.03,-60.95 -33.44,-107.95l-248.78 -280.1c18.73,80.42 27.35,81.13 35.27,176.39 -166.1,0.46 -312,38.2 -414.9,26.85z"/>
   <path class="fil9" d="M-13594.72 4460.69c69.61,16.22 307.85,170.49 458.61,-35.27 -134.52,-31.34 -140.25,-35.28 -317.5,-35.28 33.93,-133.75 13.87,-90.53 105.83,-150.08 80.63,252.67 381.85,53.05 458.61,-61.59 -177.3,0 -157.96,31.72 -317.5,35.28 11.34,-136.27 35.28,-119.05 35.28,-291.19l44.24 0c0,136.36 -11.14,121.79 35.28,211.67 183.68,-2.59 335.98,-76.52 379.09,-237.98 -66.48,31.9 -205.7,88 -282.22,105.83l12.53 -317.4c-124.14,75.08 -0.64,6 -204.4,185.96l-50.07 67.72c-44.54,70.29 -25.38,78.34 -81.71,101l-28.82 0.75c-183.17,20.33 116.59,-64 -46.51,1.1 -88.76,35.42 -197.16,258.83 -200.74,419.48z"/>
   <path class="fil9" d="M-15499.72 4213.75c-133.94,-11.15 -72.4,-23.67 -179.39,-28.26l-138.11 28.26c136.88,186.82 309.1,121.8 430.12,77.71 93.17,-33.94 -18.46,-84.71 108.01,19.16 -95.51,88.02 -177.05,79.99 -326.47,114.8 229.51,199.48 436.54,61.61 464.29,11.18 28.72,-52.17 30.7,-46.16 -76.08,-258.95 -116.87,-232.9 -143.64,-128.86 -184.21,-135.71 -69.53,-11.75 25.03,56.04 -43.54,-21.39 -51.66,-58.32 -47.13,-69.52 -54.62,-159.58 -68.17,35.71 -83.65,-7.73 -59.5,161.7 9.92,69.63 39.78,105.87 59.5,191.08z"/>
   <path class="fil9" d="M-15005.83 4495.97c-148.4,12.35 -249.07,47.7 -317.5,141.11 208.1,80.17 326.31,-28 493.89,-105.83 -54.61,-234.37 -148.2,-274.68 -317.5,-388.06 64.71,277.8 100.85,202.02 141.11,352.78z"/>
   <path class="fil9" d="M-13735.83 4495.97c34.88,-130.64 105.79,-165.92 141.11,-317.5 -139.21,37.17 -272.26,203.86 -308.54,343.81 204.15,116.43 313.77,180.73 484.93,114.8 -68.44,-93.41 -169.11,-128.76 -317.5,-141.11z"/>
   <path class="fil9" d="M-15737.7 4002.08c-94.89,-39.73 -200.42,-62.28 -291.19,-105.83 79.89,299.17 665.13,426.85 326.47,-273.26 -56.29,108.97 -35.28,219.92 -35.28,379.09z"/>
   <path class="fil9" d="M-12818.61 3543.47c-5.5,-6.13 -13.24,-24.69 -15.7,-19.05l-90.13 -86.78c-180.8,543.04 150.64,558.4 352.77,176.39 -127.8,29.77 -104.05,54.65 -255.91,79.52l8.97 -150.08z"/>
   <path class="fil9" d="M-12818.61 3543.47c41.58,22.19 43.19,14.44 105.83,35.28 112.05,-75.03 176.33,-130.55 211.67,-282.22l-70.56 -35.28c-22.23,51.29 34.41,49.17 -141.11,150.08 -52.5,-252.76 -80.88,-225.22 -132.14,-246.95l26.31 379.09z"/>
   <path class="fil9" d="M-15993.61 3437.64c-115.4,-77.28 -109.85,-139.78 -246.95,-176.39 78.26,163.09 80.13,270.42 282.23,317.5 56.43,-117.61 80.47,-252.44 80.47,-433.25l-41.83 43.66c-59.35,84.1 -71.06,120.12 -73.92,248.48z"/>
   <path class="fil9" d="M-12571.67 3261.25c45.36,-203.46 104.74,-98.97 96.87,-379.09 -49.96,51.36 -111.7,161.39 -132.14,237.98 -77.34,-56.66 -130.2,-165.58 -202.71,-237.98 -1.32,125.45 26.99,141.41 64.85,234.16 49.2,120.53 12.16,130.12 173.13,144.93z"/>
   <path class="fil9" d="M-15887.78 3719.86c-151.31,-40.4 -86.77,-89.57 -282.22,-105.83 145.6,217.42 388.06,376.01 388.06,176.39l-87.34 -228.45c-20.33,82.31 -16.43,65.03 -18.5,157.89z"/>
   <path class="fil9" d="M-16028.89 3261.25c43.27,-153.8 101.5,-158.27 105.83,-352.78 -84.89,62.2 -94.09,70.58 -105.83,211.67 -185.88,-49.64 -53.17,-95.55 -211.67,-211.67 4.4,197.38 50.97,309.87 211.67,352.78z"/>
   <path class="fil9" d="M-12606.94 2802.64c-166.9,-44.57 -50.58,-68.52 -211.67,-176.39 32.86,141.04 76.76,244.5 176.39,317.5 115.33,-84.5 132.14,-173.83 132.14,-379.09 -28.8,12.21 -73.13,-47.22 -96.86,237.98z"/>
   <path class="fil9" d="M-12681.12 2457.86c-169.84,-40.97 -54,-48.17 -208.05,-113.83 34.23,128.18 114.43,217.11 211.67,282.22 76.49,-114.23 150.13,-207.68 61.59,-379.09l-65.21 210.7z"/>
   <path class="fil9" d="M-16028.89 2626.25c112.61,-75.41 160.92,-100.2 176.39,-282.22 -101.41,89 -24.93,78.18 -176.39,114.8 -80.08,-191.27 36.15,-155.29 -96.87,-211.67 0,252.24 -7.4,223.37 96.87,379.09z"/>
   <path class="fil9" d="M-16134.72 2908.47c210.42,-17.51 172.99,-128.1 246.94,-282.22 -96.16,34.81 -106.5,46.78 -141.11,176.39l-70.55 0c-10.98,-131.87 -38.07,-168.98 -105.84,-246.95 0,254.6 29.35,175.89 70.56,352.78z"/>
   <path class="fil5" d="M2111.85 25705.88c30.9,78.25 -3.45,132.13 133.15,117.23l168.43 -15.27 0 -137.24 -203.71 0c-39.44,0 -94.72,30.69 -97.87,35.28z"/>
   <path class="fil5" d="M3691.39 25807.81l168.4 0 0.03 -137.21 -301.58 0c2.86,148.75 -36.09,137.21 133.15,137.21z"/>
   <path class="fil5" d="M-444.07 25670.6l-301.55 0c2.58,135.86 -37.03,140.17 132.45,143.88 172.14,3.76 146.81,-8.91 169.1,-143.88z"/>
   <polygon class="fil5" points="-11.75,25806.95 261.73,25807.81 261.49,25670.6 -40.1,25670.6 "/>
   <path class="fil5" d="M1434.64 25806.95l140.08 0.86c169.24,0 130.29,11.54 133.16,-137.21l-302.11 0 28.87 136.35z"/>
   <path class="fil6" d="M-13939.07 3640.88c-54.45,0.6 -78.85,-10.86 -143.5,12.37 -120.49,43.3 -51.27,31.62 -89.82,66.61 -1.16,70.42 47.86,39.86 -34.66,141.11 12.2,-1.25 29.83,-14.98 36.52,-4.29 6.34,10.11 25.94,-2.9 34.39,-5.2 7.8,-2.13 22.1,-4.24 31.3,-7.18 198.45,-63.3 156.39,-117.43 165.77,-203.42z"/>
   <polygon class="fil5" points="700.74,25807.81 967.04,25807.81 967.04,25670.6 701.05,25670.6 "/>
   <polygon class="fil5" points="2875.94,25807.81 3130.8,25807.81 3149.02,25669.72 2875.94,25670.6 "/>
   <path class="fil9" d="M-12818.61 2202.91c-39.35,-147.34 -15.82,-74.81 -141.11,-141.11 42.04,180.45 71.19,172.62 211.66,246.95 68.57,-142.9 71.91,-160.27 35.28,-317.5l-22.58 47.97c-47.74,158.18 2.11,101.15 -83.25,163.69z"/>
   <path class="fil5" d="M3859.82 24878.57l6.66 -137.28 -284.78 0.07c36.88,191.79 40.02,107.34 278.12,137.21z"/>
   <path class="fil5" d="M-1427.94 25843.09c56.28,-28.32 40.32,-35.28 109.88,-35.28l133.16 0 0 -137.21 -243.04 0 0 172.49z"/>
   <path class="fil5" d="M261.49 24741.36l-278.13 0c26.27,136.89 -1,125.6 145.74,129.36 171.36,4.39 129.65,32.61 132.39,-129.36z"/>
   <path class="fil5" d="M-739.36 24878.57c139.17,-25.34 200.76,4.28 295.29,-35.28 -47.88,-76.93 30.43,-134.06 -301.58,-89.91l6.29 125.19z"/>
   <path class="fil9" d="M-16028.89 2097.08c0,107.64 33.88,142.36 70.56,211.67 87.85,-58.83 145.58,-96.31 176.39,-211.67 -83.93,56.2 -36.75,42.69 -141.12,70.56 -4.27,-7.39 -8.93,-28.13 -10.22,-23.46 -1.31,4.79 -7.45,-18.99 -9.3,-24.5l-15.46 -54.02c-2.86,-7.62 -6.61,-19.38 -9.49,-26.45l-26.08 -47.96c-24.18,43.03 -35.28,37.73 -35.28,105.83z"/>
   <path class="fil5" d="M3154.26 24753.38l-301.58 -8.41c15.48,117.53 6.63,117.62 134.75,122.42 154.07,5.78 152.23,-11.03 166.83,-114.01z"/>
   <path class="fil5" d="M1707.88 24878.57l-17.95 -109.15 -283.29 -26.92c13.44,108.12 -18.81,96.46 74.14,119.25 38.05,9.33 154.56,4.19 227.1,16.82z"/>
   <path class="fil5" d="M-1427.94 24815.97c43.59,73.41 -11.55,43.58 242.59,50.44 -4.77,-127.28 51.31,-116.47 -96.8,-131.78 -213.84,-22.12 -125.05,57.1 -145.79,81.34z"/>
   <polygon class="fil5" points="706.16,24851.41 959.29,24860.73 968.64,24741.46 700.49,24741.36 "/>
   <polygon class="fil5" points="2152.55,24851.41 2405.68,24860.73 2415.03,24741.46 2147.16,24741.36 "/>
  </g>
 </g>
</svg>
