<?xml version="1.0" encoding="UTF-8"?>
<!DOCTYPE svg PUBLIC "-//W3C//DTD SVG 1.1//EN" "http://www.w3.org/Graphics/SVG/1.1/DTD/svg11.dtd">
<!-- Creator: CorelDRAW -->
<svg xmlns="http://www.w3.org/2000/svg" xml:space="preserve" width="210mm" height="297mm" version="1.1" style="shape-rendering:geometricPrecision; text-rendering:geometricPrecision; image-rendering:optimizeQuality; fill-rule:evenodd; clip-rule:evenodd"
viewBox="0 0 21000 29700"
 xmlns:xlink="http://www.w3.org/1999/xlink">
 <defs>
  <style type="text/css">
   <![CDATA[
    .fil3 {fill:#95582E}
    .fil1 {fill:#A37150}
    .fil4 {fill:#C4936B}
    .fil0 {fill:#DFBC9A}
    .fil2 {fill:#FCFCFC}
   ]]>
  </style>
 </defs>
 <g id="图层_x0020_1">
  <metadata id="CorelCorpID_0Corel-Layer"/>
  <g id="_1996980788976">
   <path class="fil0" d="M9265.28 24710.14l-211.67 0c186.33,-352.15 756.51,-846.67 1199.45,-846.67 509.59,0 616.94,26.73 1058.85,316.98 146.91,96.49 547.03,399.1 634.48,529.69 -253.95,0 -251.38,-18.76 -393.2,-135.97 -618.61,-511.27 -1146.98,-819.53 -1850.03,-308.09 -187.22,136.19 -331.32,242.68 -437.88,444.06zm-1299.21 -6.07c33.62,-162.51 367.84,-393.21 496.55,-514.36 432.98,-407.53 1453.27,-916.52 2239.73,-811.02 542.7,72.8 1055.49,373.56 1462.36,619.24 723.71,436.99 674.07,375.07 1324,687.17l45.18 25.04c-164.31,-1.39 -386.01,7.38 -495.52,-34.28 -213.58,-81.25 -479.73,-267.45 -680.75,-376.95 -505.71,-275.5 -838.48,-532.66 -1418.57,-698.09 -714.31,-203.7 -1267.76,-13.98 -1871.18,382.75 -112.87,74.21 -166.68,102.73 -276.4,182.2l-504.14 413.35c-117.13,122.28 -99.55,124.95 -321.26,124.95zm-4098.29 0l-14957.78 0c-684.05,0 -1487.74,-157.46 -1487.74,499.96 0,214.75 139.68,366.02 290.02,421.61 230.47,85.23 4753,37 5113.55,37l39440.56 0c487.26,0.01 1029.13,91.16 1029.13,-529.17 0,-110.81 -89.51,-253.17 -155.03,-309.83 -224.95,-194.53 -950.02,-119.57 -1332.71,-119.57l-11465.28 0c-678.58,0 -1201.88,-385.98 -1716.91,-640.63 -125.32,-61.97 -207.41,-120.75 -319.49,-174.4 -649.55,-310.86 -1535.37,-640.39 -2228.01,-515.47 -1142.78,206.09 -1597.42,672.36 -2722.68,-1.89 -611.86,-366.63 -929.95,-648.41 -1650.98,-889.03 -154.41,-51.52 -327.2,-94.74 -501.32,-134.46 -1160.72,-264.79 -2474.5,107.39 -3419.41,774.54l-892.99 729.79c-1057.32,860.63 -1635.76,851.55 -3022.93,851.55z"/>
   <path class="fil1" d="M-15570.28 2979.03c0,247.77 87.74,357.14 29.96,557.45 -95.78,332.11 11.92,1479.24 -23.91,1872.07l-15.6 251.59c0,114.09 50.34,109.12 62.12,227.56 20.55,206.67 -55.6,90.73 -55.6,231.05 0,364.09 -33.79,831.26 27.09,1176.43l14.81 187.74c15.76,177.52 6.29,42.69 278.63,219.5l458.15 251.03c101.35,90.96 68.19,-2.16 264.04,158.28 96.23,78.83 27.25,-13 159.52,59.07l153.36 95.84c178.66,78.02 19.95,52.72 145.73,117.75 98.45,50.91 -5.89,-63.15 211.62,115.36 56.18,46.11 15.79,19.93 74.98,37.6 108.31,32.32 -11.54,-69.67 138.79,67.43l263.55 159.7c66.26,60.1 4.94,25.05 71.8,50.88 287.05,110.87 73.93,31.72 173.81,99.72 38.09,25.92 42.28,-17.19 155.29,48.31 187.2,108.5 -8.26,28.03 92.33,92.95 38.76,25.01 44.39,-7.84 193.53,113.68 121.98,99.39 64.6,-31.01 213.87,105.04 181.34,165.29 5.32,-33.06 273,175.9 1.77,1.37 9.38,5.78 11.34,7.12l148.59 86.11c5,2.85 14.87,7.62 19.53,10.41 4.19,2.52 13.18,7.92 17.04,10.41l71.17 51.69c157.59,72.27 -164.97,-60.37 78.75,21.54 4.37,1.47 14.86,4.38 19.05,6.02l114.68 59.64c142.43,74.67 63.1,49.28 126.87,102.55 64.02,53.48 135.42,44.18 183.28,8.7l24.46 -20.62c2.78,-1.63 12.07,-6.57 15.04,-7.99 3.09,-1.47 13.55,-4.59 16.75,-5.85 116.21,-45.93 78.98,-76.24 206.39,-123.39 3.41,-1.26 13.29,-3.98 16.52,-5.24l170.2 -89.03c4.39,-1.83 14.88,-4.35 19.28,-6.45 124.48,-59.39 22.7,-56.21 247.89,-141.84l805.19 -485.64c89.85,-26.4 95.77,-59.08 161.27,-94.99l36.84 -13.48c4.26,-1.92 14.76,-4.04 19.04,-6.12l123.33 -103.03c130.48,-92.3 36.98,-4.2 150.16,-38.3 139.58,-42.06 80.69,-58.69 131.63,-99.91 50.57,-40.93 36.28,-20.68 69.76,-35.27l253.99 -160.43c4.07,-2.19 13.08,-7.52 17.14,-9.94l208.97 -100.42c156.12,-109.11 10.91,-46.8 209.9,-122.47l423.31 -246.76c76,-29.87 113.99,-107.7 205.56,-133.83 42.85,-12.23 45.67,-6.21 79.13,-27.33l248.46 -165.58c6.04,-4.92 13.58,-12.2 19.83,-17.04 60.89,-47.11 38.26,-28.86 92.42,-59.62l0 -4550.83 -217.87 -143.98c-6.08,-3.49 -15.54,-9 -21.98,-12.59 -6.71,-3.75 -16.45,-8.41 -23.39,-12.22 -7.08,-3.89 -16.88,-8.09 -24.03,-12.05l-364.71 -194.79c-3.18,-2.22 -10.67,-8.66 -13.86,-11.05l-664.39 -376.63c-131.48,-78.59 -91.09,12.11 -259.45,-130.77 -2.92,-2.48 -10.23,-9.11 -13.2,-11.54l-303.48 -169.37c-3.18,-1.64 -12.26,-6 -15.29,-7.49l-332.52 -184.66c-3.56,-2.47 -12.31,-7.81 -16.08,-10.35 -12.44,-8.36 -49.88,-33.76 -77.35,-50.81l-966.38 -519.3c-6.5,-2.64 -16.58,-6.76 -22.62,-9.32l-83 -40.46c-2.42,-1.26 -10.94,-5.15 -13.28,-6.43l-360.8 -198.49c-2.67,-1.34 -11.09,-5.81 -13.62,-7.11l-69.25 -38.43c-104.53,-71.16 -169.71,-143.37 -296.61,-72.82 -75.17,41.79 -54.14,53.15 -113.81,90.73 -72.8,45.85 -58.15,7.61 -144.25,42.91l-760.54 438.28c-3.56,1.94 -12.61,6.16 -16.3,7.97l-618.31 345.2c-6.99,3.69 -26.64,11.41 -34.4,14.65 -65.72,27.39 -92.4,32.97 -157.06,68.96l-1072.51 626.18c-30.29,13.59 -41.48,15.77 -70.45,28.87 -183.86,83.14 -553.95,259.25 -675.02,405.42l-274.37 180.52c-1.69,0.92 -9.12,3.86 -13.45,6.25z"/>
   <path class="fil0" d="M6266.67 7529.86l1973.53 1166.19c89.71,54.02 168.59,92.5 269.97,153.36 98.12,58.9 148.34,112.1 232.69,155.37l494.35 281.76c95.72,60.07 141.17,94.59 240.03,148.03 60.54,32.71 72.43,41.3 131.11,80.56 96.17,64.35 529.24,338.41 604.42,332.98l1968.46 -1166.18c186.82,-101.7 329.97,-203.4 503.9,-307.49l1432.36 -879.86 0 -4569.98 -1961.26 -1143.19c-116.16,-66.98 -1829.33,-1053.58 -2009.01,-1095.44 -151.63,101.54 -329.85,186.54 -491.87,284.24l-1460.52 832.54c-183.35,100.09 -309.75,181.18 -492.65,283.46l-1435.37 822.27c-42.97,1219.12 -6.21,3118.35 -7.08,4409.75l6.94 211.63z"/>
   <path class="fil1" d="M16987.88 7574.33c3.16,2.29 11.28,8.01 14.34,10.4 179.18,139.73 159.5,57.24 266.64,151.49 96.73,85.1 -51.91,-35.14 39.29,48.86l64.14 41.43c4.28,2.62 13.05,9.03 17.8,11.81 5.26,3.07 14.21,9.47 19.99,12.62l518.21 298.54c177.41,55.51 289.88,187.74 377.19,214.74 80.47,24.89 -38.16,-71.78 90.86,42.74l125.38 72.47c59.44,25.58 23.49,8.33 62.51,47.62l132.75 66.11c117.44,65.88 34.96,38.36 89.85,83.01 85.86,69.83 72.3,-3.5 176.4,70.22l175.58 140.66c91.1,65.96 66.98,6.02 179.72,72.1l156.24 92.95c203.77,136.49 -117.06,21.99 118.86,114.05l275.48 137.85c58.49,60.47 178.01,72.82 257.65,155.67 41.92,43.62 64.16,8.63 140.26,62.67l45.75 52.88c98.93,91.64 169.67,71.46 310.98,156.66 80.3,48.42 101.48,89.5 210.2,84.52l355.62 -199.15c46.05,-23.4 -15.7,11.5 28.91,-12.94 5.89,-3.23 21.92,-13.35 27.87,-17.1l554.04 -337.56c4.21,-2.02 14.64,-4.34 18.93,-6.3l156.8 -100.14c2.77,-1.54 12.41,-4.44 14.97,-5.85l326.46 -208.54c38.84,-39.08 -65.26,25.33 51.95,-51.84 106.03,-69.8 -6.16,15.41 89.23,-42.24 21,-12.7 14.34,-16.25 68.36,-50.8l158.34 -92.64c53.54,-36.76 56.78,-33.91 93.75,-52.51l113.8 -58.51c2.76,-1.32 12.52,-4.33 15.09,-5.66 2.32,-1.21 11.15,-4.61 13.28,-5.93 43.32,-26.72 29.95,-62.57 124.02,-94.91 59.44,-20.44 13.37,15.51 64.77,-17.5l143.14 -106c3.91,-2.14 12.98,-7.1 16.84,-9.43l337 -202.45c3.78,-2.11 12.65,-7.09 16.37,-9.38l755.76 -470.88c103.77,-75.63 140.24,-36.11 224.59,-149.72 104.3,-140.48 67.53,-360.27 67.39,-578.28l-0.01 -3139.72c0,-278.38 98.32,-712.85 -127.01,-905.67l-811.35 -493.86c-34.26,-20.83 -70.03,-38.11 -102.88,-55.67l-143.05 -80.96c-7.14,-3.15 -18.27,-2.24 -74.55,-32.55l-601.26 -358.08c-3.97,-2.42 -13.15,-8.56 -17.34,-10.81 -4.23,-2.27 -14.11,-7.07 -18.52,-9.13 -4.42,-2.07 -14.82,-5.56 -19.34,-7.43 -4.51,-1.87 -15.13,-4.68 -19.64,-6.43l-172.34 -108.64c-67.89,-45.69 2.35,-5.29 -87.78,-49.04l-500.13 -271.97c-4.21,-1.7 -14.51,-4.87 -18.57,-6.67l-407.98 -233.63c-2.51,-1.56 -11.05,-6.47 -13.54,-7.95 -2.41,-1.43 -11.15,-5.47 -13.55,-6.87l-40.28 -23.39c-2.99,-1.97 -11.08,-8.01 -14.26,-10.2l-387.84 -197.04c-116.92,-77.46 -193.62,-135.73 -325.38,-161.64 -138.96,-27.34 -309.31,139.81 -383.11,174.93l-330.99 192.58c-3.12,2.01 -11.56,8.04 -14.83,9.92 -3.35,1.91 -12.33,7.25 -15.87,9.01 -3.64,1.82 -13.35,5.96 -17.18,7.63l-504.79 276.18c-4.07,2.21 -13.58,6.35 -18.02,8.55 -4.93,2.43 -15.04,6.27 -20.37,8.77 -5.84,2.75 -16.15,6.73 -22.32,9.62l-459 258.22c-322.58,199.24 -720.93,377.62 -1033.03,576.78l-108.83 67.54c-31.34,19.4 -81.61,51.88 -109.69,66.88 -45.26,24.19 -47.26,20.66 -95.66,45.6 -94,48.46 -43.66,20.98 -110.73,66.99l-378.03 235.66c-136.62,88.95 -282.03,106.45 -302.69,316.7 -38.67,393.43 0.51,3914.47 0.51,4410.23l137.88 79.75z"/>
   <path class="fil0" d="M-16137.76 29366.81c28.88,124.36 129.4,235.84 227.95,304.25 212.71,147.62 1209.5,83.8 1503.7,83.8l29492.22 0c311.96,0 774.94,59.62 996.28,-62.05 221.36,-121.69 323.52,-444.66 154.91,-701.31 -154.74,-235.55 -464.51,-202.18 -801.54,-191.84 -286.51,8.78 -692.94,-16.45 -1019.93,-16.45 -690.66,0 -1428.7,-5.86 -2087.16,12.91 -613.27,17.49 -1402.28,-12.7 -2003.59,-13.56l-22861.47 0.65c-802.43,0 -2387.37,-29.85 -3139.67,18.12 -395.28,25.2 -504.71,380.29 -461.7,565.48z"/>
   <path class="fil0" d="M-6539.17 13280.14l-7.21 2187.17c-3.51,98.87 239.98,191.8 437.2,310.9l1439.73 818.04c93.59,0 1256.53,-715.93 1435.25,-822.53 111.58,-66.56 434.48,-217.58 434.48,-341.64l0 -2081.39c0,-108.34 -211.8,-179.09 -429.99,-310.84l-1439.74 -853.32 -941.38 540.28c-313.49,187.85 -637.55,358.61 -928.34,553.33z"/>
   <path class="fil1" d="M-14935.28 13421.25l0 1940.28c0,77.15 30.82,78.1 75.42,153.92 48.32,82.14 -51.82,30.94 99.58,76.11l188.25 114.16c64.13,35.74 -9.88,2.81 69.75,34.07l197.15 91.01c228,192.8 267.25,90.99 480.76,257.49 123.53,96.33 53.56,83.99 126.52,111.91l495.98 255.17c28.96,17.74 48.78,24.58 81.8,53.72 25.3,22.34 13.3,77.91 93.83,77.04 62.23,-0.67 3.26,4.63 55.55,-12.74 142.08,-47.22 205.81,-134.5 327,-197.06 2.81,-1.46 12.25,-4.8 14.79,-6.17l679.52 -389.22c48.93,-33.39 40.64,-35.83 66.34,-53.41l230.38 -139.55c80.01,-78.09 166.36,-109.07 278.17,-149.83 1.85,-0.68 10.03,-3.37 12.06,-4.06l49.44 -13.73c4.42,-1.77 14.76,-5.36 19.44,-7.52 45.53,-21.03 107.63,-69.22 174.8,-103.67 -108.99,-479.48 66.85,-1950.2 -77.08,-2229.03 15.17,-37.51 60.88,5.51 -51.55,-30.65 -2.89,-0.92 -13.58,-3 -16.61,-4.02 -3.08,-1.03 -13.66,-3.5 -16.72,-4.68 -2.99,-1.16 -13.06,-4.56 -15.89,-5.93 -37.46,-18.05 -9.92,5.22 -46.41,-38.8 -60.54,-73.04 70.65,-20.72 -74.43,-70.78 -148.97,-51.42 36.8,56.44 -156.67,-32.41l-839.79 -499.58c-38.71,-35.01 -47.86,-50.34 -51.8,-54.15l-144.16 -105.78c-61.13,-36.09 -9.72,-10.4 -64.07,-36.68l-108.19 -34.98c-3.08,-0.86 -12.45,-3.24 -15.55,-4.15 -70.51,-20.71 -191.14,-76.47 -303.17,-135.74 -46.37,31.05 -109.32,98.26 -122.43,105.24 -89.44,47.62 -60.5,-8.02 -226.24,137.45l-29.15 22.2c-2.89,1.78 -11.76,6.27 -14.7,7.68l-83.02 21.12c-149.19,50.15 -347.69,227.73 -355.71,230.76 -145.27,54.86 -200.2,152.61 -371.98,229.76l-84.15 24.4c-3.53,0.93 -13.56,2.77 -17.18,3.82l-354.78 204.4c-3.93,3.11 -49.31,35.24 -51.71,36.6 -47.06,26.65 -26.68,-29.51 -73.69,43.56 -1.76,2.73 -6.02,11.95 -7.68,15.26 -1.95,3.9 -5.58,14.11 -7.47,18.6 -42.94,101.82 -34.55,-50.72 -34.55,98.59z"/>
   <path class="fil1" d="M1712.81 13315.42l0 2151.94 156.08 121.21c101.82,44.61 -74.96,-46.61 72.3,16.95 203.2,87.69 -24.34,7.05 91.53,82.59 57.86,37.73 28.98,-47.72 135.09,54.64 65.79,63.47 -82.77,-1.05 218.54,158.88 14.19,7.54 37.08,16.33 37.48,16.47 2.5,0.87 11.91,3.52 14.56,4.34 2.8,0.87 12.52,3.12 15.48,3.99 136.38,40.08 123.48,77.53 263.4,137.72 202.94,87.3 -23.53,5.96 91.26,82.49l264.44 129c131.21,74.2 51.34,67.34 175.21,113.64 2.84,1.06 12.71,4.35 15.39,5.6 115.33,54.05 13.39,16.3 74.87,76.68 75.28,73.94 106.11,37.57 141.28,124.69l141.11 0c48.4,-133.71 68.62,-88.24 130.12,-126.27 221.41,-136.93 -159.04,155.48 39.95,-41.41l120.96 -59.72c203.31,-71.48 -153.12,100.08 80.34,-73.14 95.26,-70.68 127.51,9.77 272.04,-110.68l74.84 -89.69c72.75,-66.25 -39.91,31.4 39.54,-27.98 30.15,-22.54 17.39,-18.19 69.79,-54.5 68.78,-47.64 172.74,-59.21 225.18,-112.71 67.52,-68.89 58.07,-39.56 120.82,-61.34l148.75 -92.49c88.68,-28.81 28.36,-27.84 107.12,-85.84 147.86,-108.9 15.36,-4.63 142.72,-40.84 33.89,-9.64 134.71,-61.16 162.97,-75.19 -19.99,-160.06 -39.59,-151.33 -20.71,-305.8l6.33 -44.62c26.03,-124.21 49.66,-32.89 49.66,-220.56l-6.53 -246.94c0,-165.67 -65.85,-93.56 -45.14,-232.28l26.89 -349.37c32.53,-330.74 -52.8,-403.7 -14.28,-568.11 29.22,-124.68 12.1,-298.97 -85.19,-365.86l-691.41 -359.56c-71.74,-39.87 -205.21,-177.19 -414.86,-276.98 -7.83,-3.72 -42.74,-21.68 -49.32,-25.9l-202 -112.49c-5.16,-1.85 -15.14,-4.71 -20.08,-6.43l-92.14 -36.91c-122.11,-81.5 -5.53,-3.7 -51.45,-53.15 -18.69,-20.12 9.54,-10.96 -41.77,-35.84 -239.41,-116.11 -282.48,-34.05 -322.77,-8.38 -5.89,3.75 -15.74,8.89 -21.69,13.15l-304.17 186.2c-1.65,1.27 -7.97,7.76 -9.51,9.19l-449.03 268.74c-3.88,2.62 -12.47,8.5 -16.41,10.85l-193.12 114.84c-2.5,1.63 -11.39,5.6 -13.7,7.12l-51.59 48.68c-95.92,95.15 -124.01,56.09 -174.44,100.76 -64.9,57.51 -123.11,40.38 -259.8,142.53 -3.52,2.63 -12.21,8.51 -15.51,10.79l-159.42 107.3z"/>
   <path class="fil0" d="M10041.39 13491.81l11.14 1893.85c2.2,12.13 20.86,80.35 22.26,83.58 56.28,129.21 653.65,427.33 793.39,511.89l727.41 438.98c371.55,231.73 270.23,164.26 1195.51,-390.26l684.94 -408.67c90.53,-46.96 198.96,-73.88 198.96,-189.1l0 -2081.39c0,-109.55 -93.22,-116.83 -186.58,-166.19l-706.48 -422.41c-103.66,-62.11 -855.71,-546.63 -961.76,-525.88l-1662.99 983.34c-42.46,27.3 -115.8,14.88 -115.8,272.26z"/>
   <path class="fil1" d="M-15781.95 2802.64c64.58,-34.17 103.9,-54.37 182.72,-83.26l1525.9 -858.84c123.9,-95.17 53.88,-38.1 140.49,-62.75l810.4 -447.54c2.62,-1.54 11.12,-6.84 13.75,-8.49l883.17 -490.75c125.88,-92.75 204.13,-98.08 318.5,-177.54 5.91,-4.11 21.71,-13.16 27.36,-16.44l68.82 -39.77c3.44,-2.55 11.49,-9.62 15.11,-12.41 84.32,-65.04 9.68,-32.73 127.65,-80.59 179.34,-72.76 220.29,-59.76 351.57,54.24l401.47 204.89c182.94,116.25 205.65,85.05 303.73,159.88 6.86,5.23 24.58,22.04 30.72,26.77l97.34 55.14c2.54,1.25 11.48,5.68 14.01,6.93l130.98 58.1c10.55,3.68 12.05,-1.12 61.17,20.53l181.53 127.95c172.32,146.61 191.71,69.59 375.01,201.37l127.3 50.57c88.9,34.44 82.76,38.18 146.19,89.39 4.19,3.38 12,10.9 15.89,14.04 3.51,2.83 11.33,9.79 14.63,12.33 2.99,2.31 10.85,8.66 13.72,10.68 83.54,58.5 135.65,38.04 232.24,113.08l112.23 79.66c2.59,1.29 11.69,4.45 14.24,5.74 2.53,1.28 11.46,4.83 13.97,6.21l253.04 116.28c101.06,59.73 -10.27,-10.87 65.41,53.79 108.82,92.97 158.82,73.95 246.96,140.41l346.14 198.07c2.6,1.5 11.39,5.6 13.89,7.01l824.7 430.04c-2.29,103.79 -1.5,170.38 6.59,272.87l-10.4 4487.81c-21.76,156.32 -78.68,129.39 -179.43,204.57 -109.54,81.73 56.65,7.05 -79.55,84.27l-1446.47 820.39c-266.31,120.7 -152.97,77.01 -314.96,207.47l-1350.82 739.74c-70.86,41.03 -97.71,63.22 -154.61,95.49l-384.92 231.23c-104.77,38.25 -199.65,126.86 -318.76,158.66 -52.73,-35.3 -109.24,-80.52 -169.72,-115.35 -112.32,-64.67 -75.43,-27.34 -153.68,-52.67l-362.77 -220.86c-3.46,-2.19 -12.58,-7.51 -16.28,-10.04 -40.27,-27.52 -72.3,-66.49 -137.29,-97.26l-519.18 -280.84c-132.08,-78.24 -105.76,-96.73 -290.97,-157.12 -128.42,-41.88 -0.52,-44.23 -129.66,-86.06 -158.97,-51.49 -201.74,-108.16 -302.66,-172.58l-29.89 -18.73c-123.46,-90.37 -261.59,-189.57 -412.08,-231 -85.7,-23.58 -119.8,-86.21 -197.66,-137.86 -4.31,-2.87 -74.97,-41.5 -91.55,-51.16l-379.8 -220c-47.84,-26.86 -53.13,-28.02 -90.62,-50.5l-222.62 -130.16c-143.19,-88.88 -671.48,-324.69 -706.04,-472.65 -104.72,-448.36 90.7,-3878.19 -56.15,-4162.66 28.66,-63.2 27.46,-57.27 52.88,-17.6 0.19,-98.2 -6.9,-88.44 -20.37,-155.72 -43.32,-216.32 2.77,-10.38 2.77,-179.46 0,-128.7 -31.65,-84.05 -35.28,-246.94zm-359.3 1164.16c-4.62,476.49 -51.34,3681.83 4.14,3841.68 41.44,119.39 9.41,46.54 70.6,88.75 102.88,70.96 151.6,31.46 304.8,161.57 3.34,2.83 10.98,9.75 14.52,12.65l228.62 117.76c16.47,13.84 -10.06,9.67 43.87,28.78l242.93 142.97c30.83,9.19 -29.89,-41.62 84.17,20.86 115.72,63.39 61.89,90.14 162.78,120.25 117.01,34.92 161.61,115.58 248.03,141.73 192.82,58.33 105.06,81.28 178.7,105.58 4.4,1.46 46.08,-1.92 106.95,26.23 191.2,88.43 41.09,73.17 177.72,120.4 134.11,46.37 52.58,80.03 248.46,141.9 199.87,63.12 36.26,56.25 164.95,122.76 127.42,65.85 8.89,-58.7 194.83,118.35 60.95,58.04 28.27,16.55 87.94,35.23 50.68,15.88 14.85,-12.45 72.98,34.32 218.64,175.92 148.98,64.01 262.86,126.72 128.19,70.59 -29.58,40.88 95.39,84.33l369.02 216.17c3.06,2.48 10.71,9.62 13.88,12.07 82.34,63.79 120.45,8.95 221.69,100.82 65.32,59.27 137.38,72.44 206.09,152.08l23.51 26.37c66.48,47 92.28,10.14 163.12,73.1l173.66 110.67c7.64,3.66 17.14,7.82 24.51,11.6 7.14,3.66 16.18,8.96 22.99,12.71 6.55,3.6 15.1,9.91 21.34,13.47l120.01 50.96c86.79,23.67 -43.34,-63.56 77.45,27.5 40.42,30.48 79.2,224.73 320.64,113.62 137.56,-63.32 -32.49,-78.91 205.68,-145.81l419.91 -243.48c49.8,-24.44 25.46,-13.31 43.89,-32.69 95.92,-100.85 179.17,-87.86 247.84,-123.23l82.63 -68.34c3.92,-2.54 13,-7.83 17.03,-10.04l288.67 -180.62c127.26,-51.34 274.01,-183.14 396.6,-217.97 46.64,-13.25 43.45,-2.67 79.06,-26.82 66.36,-45 46.08,-76.93 148,-112.43 4.28,-1.49 15.44,-2.32 19.42,-3.57l625.82 -379.44c70.45,-28.73 26.05,-1.79 72.55,-30.8l244.97 -123.54c208.87,-171.84 104.46,-47.83 229.99,-128.04l162.36 -88.69c106.64,-39.18 1.85,-51.57 224.21,-143.41 2.22,-0.92 9.97,-4.84 12.22,-5.88l168.67 -96.03c3.9,-2.48 12.71,-8.49 16.25,-10.72 3.1,-1.95 11.59,-7.35 14.4,-9.08l481.83 -263.6c234.67,-88.33 -83.73,26.27 120.22,-118.42 186.09,-132.03 201.45,82.98 201.45,-317.69l0.7 -4974.17c-44.05,-27.91 3.73,13.71 -46.46,-30.8 -229.17,-203.25 -465.38,-218.23 -689.71,-388.83l-61.38 -51.18c-244.9,-184.13 -514.03,-317.82 -778.18,-440.78l-61.69 -38.7c-190.34,-147.86 -473.41,-220.25 -578.18,-307.29l-1522.17 -845.89c-2.83,-2.01 -10.82,-8.23 -13.78,-10.49l-724.64 -399.86c-98.7,-73.74 -166.31,-103.87 -272.83,-48.74l-233.69 113.06c-72.59,46.68 -31.55,25.04 -71.03,53.34l-124.8 66.57c-2.55,1.36 -11.37,5.81 -13.91,7.29 -2.61,1.51 -11.12,6.82 -13.74,8.46l-1468.94 813.93c-50.35,14.22 -24.59,-0.97 -75.71,29.65l-57.48 46.16c-3.11,2.66 -10.62,9.64 -13.82,12.39l-210.69 99.35c-4.35,1.8 -14.03,6.56 -18.11,8.65l-679.32 385.77c-5.12,2.3 -15.26,6.01 -20.64,8.51l-335.73 188.68c-5.83,3.65 -14.71,10.24 -20.22,13.87l-301.52 171.01c-27.05,11.87 -5.49,0.61 -35.44,18.9l-171.62 108.69c-39.16,15.28 -31.06,8.62 -73.87,33.21 -6.92,3.98 -24.65,17.38 -31.28,21.42 -88.35,53.78 42.96,-17.51 -48.16,27.58l-491.71 301.52c-45.86,88.32 -30.89,130.71 -24.15,250.87 18.27,325.75 6.35,765.56 7.08,1114.23z"/>
   <path class="fil0" d="M6090.28 2802.64c166.17,-38.72 377.9,-200.43 529.16,-282.23l3075.95 -1757.11c170.21,-102.32 329.33,-183.34 487.11,-289 159.6,106.88 335.01,189.1 513.76,297.64l3280.73 1869.81c126.16,93.38 89.23,85.25 262.45,125.61 125.31,683.78 -43.14,3956.99 35.28,4868.33l-3605.35 2144.93c-156.04,93.41 -403.59,288.17 -501.42,262.66 -35.81,-9.33 -198.02,-126.37 -256.28,-161.19 -105.15,-62.86 -160.54,-93.64 -269.24,-154.1 -188.66,-104.93 -314.53,-201.43 -506.14,-305.26 -619.74,-335.82 -1880.63,-1122.05 -2540.98,-1515.96 -176.93,-105.54 -344.63,-198.94 -499.44,-306.35l-5.59 -4797.78zm-407.21 -141.11l0 5080c0,108.91 120.29,151.56 206.19,201.06l2015.07 1195.16c202.01,118.74 361.61,208.42 556.22,325.73l573.21 344.01c206.93,124.65 357.91,228.92 572.32,344.9 118.5,64.1 168.21,111.81 283.06,175.55 390.8,216.9 203.92,245.8 850.59,-159.46 98.99,-62.03 166.05,-86.88 268.61,-154.73 104.04,-68.83 174.08,-112.21 282.66,-175.95 109.61,-64.34 171.46,-92.08 267.4,-155.93 378.7,-252.04 1016.53,-584.27 1410.98,-846.79 170.27,-113.32 365.41,-216.47 553.36,-328.59 185.56,-110.69 1009.52,-628.72 1140.04,-659.13l0 -5291.67c-124.29,-28.95 -192.01,-85.71 -284.09,-139.24 -103.47,-60.15 -182.53,-101.92 -291.51,-167.1 -193.23,-115.58 -370.12,-220.33 -555.12,-326.83l-1684.75 -961.08c-190.91,-115.28 -374.61,-202.25 -564.39,-317.56 -189.12,-114.91 -373.64,-202.74 -564.48,-317.46 -678.35,-407.8 -421.03,-372.02 -1146.9,30.82l-3363.33 1928.33c-115.19,62.71 -525.14,257.1 -525.14,375.96z"/>
   <path class="fil1" d="M18505.03 13385.97l0 2151.95c4.87,2.87 14.45,-1.25 16.2,5.01 24.09,86.6 1.15,-42.14 163.23,88.04l42.26 36.01c170.97,153.56 173.18,49.85 269.88,146.82 101.64,101.93 -116.2,22.6 87.17,90.2 127.66,42.43 -6.5,-80.66 191.08,101.32l145.68 86.8c33.62,16.03 78.48,-11.28 175.29,75.9 78.85,71 -37.42,24.5 85.47,63.09 33.85,10.62 5.94,-11.38 59.27,17.86 132.59,72.69 11.29,7.71 53.91,51.87l136.02 104.89c140.66,92.23 71.74,-48.07 207.24,93.76 83.56,87.46 267.69,157.41 369.64,61.24l411.87 -287.18c78.29,-68.01 -41.71,31.68 40.49,-30.25l127.79 -83.8c4.3,-1.87 14.46,-5.27 18.64,-6.84l67.1 -18.11c2.72,-0.86 12.45,-3.31 14.98,-4.27l101.57 -71.87c42.54,-15.88 0.59,11.83 82.78,-21.55l310.48 -208.7c141.97,-119.47 132.36,-75.54 176.99,-104.76l204.62 -136.27c82.93,-81.52 -70,49.43 19.68,-21l41.3 -2185.1c-3.25,10.25 12.86,13.51 -32.1,-12.88 -18.33,-10.76 -12.31,3.27 -55.41,-46.27l-88.64 -79.78c-169.78,-116.14 -185.98,-56.16 -273.35,-147.42 -55.96,-58.45 -130.54,-57.33 -183.96,-124.18 -1.02,-1.28 52.22,-25.93 -133.76,-65.93 -72.28,-15.54 -114.33,-86.33 -160.46,-102.58 -162.51,-57.28 -114.55,-84.41 -176.36,-105.78 -115.78,-40.05 30.75,38.09 -76.59,-20.24 -139.47,-75.79 -0.84,3.72 -64.55,-67.89 -2.69,-3.02 -8.81,-11.1 -11.73,-14.08 -3.07,-3.15 -10.26,-10.49 -13.69,-13.59l-215.64 -108.35c-3.43,-0.97 -13.55,-2.81 -16.79,-3.84l-357.21 -217.67c-26.85,40.57 -51.35,84.59 -84.27,111.37l-347.18 212.34c-3.01,2.7 -10.47,9.48 -13.43,12.08 -206.12,181.4 -393.93,196.62 -537.51,304.98 -6.1,4.6 -48.7,34.58 -52.12,36.63 -89.69,53.69 -2.68,-10.64 -54.04,27.07l-102.04 90.6c-146.59,111.01 -310.83,92.94 -476.94,254.74l-92.86 85.61z"/>
   <path class="fil0" d="M26073.63 13456.53l0 2046.11c0,131.57 196.43,178.63 392.7,296.73 86.65,52.13 125.02,87.92 215.04,137.73 109.8,60.75 140.41,75.8 243.66,144.4l931.64 550.03 848.27 -527.56c293.78,-177.06 548.94,-336.59 864.21,-511.62 0,-641.15 -6.3,-1285.52 1.28,-1926.25 3.56,-300.81 51.64,-241.28 -445.53,-525.31 -219.17,-125.21 -392.72,-242.3 -621.13,-366.64l-613.92 -378.31c-141.18,-64.22 -415.82,143.2 -639.92,277.56 -216.43,129.78 -394.46,240.82 -613.07,374.71 -114.39,70.06 -189.17,122.11 -303.61,190.24 -87.39,52.01 -259.62,96.22 -259.62,218.18z"/>
   <path class="fil1" d="M24819.75 3931.53c0,151.47 47.12,100.68 38.54,235.72 -0.27,4.23 -2.32,14.45 -2.35,18.7 -0.92,132.78 59.46,-31.12 10.63,175.39 -39.65,167.73 -68.44,461.95 -20.11,640.48 88.23,325.98 -33.24,153.25 -33.24,340.82 0,139.36 46.29,61.96 11.77,287.85 -57.26,374.61 45.5,637.3 45.75,734.05 0.3,114.03 -50.99,13.29 -50.99,177.54 0,162.89 47.65,-3.89 57.53,147.96 6.02,92.44 -59.55,153.74 -39.74,344.26 15.2,146.19 -17.79,193.77 -17.79,354.45 0,128.05 28.03,19.27 73.58,176.39 -3.77,1.26 -10.81,-6.68 -11.63,-2.71 -21.91,105.93 -20.68,-3.07 -23.47,-2.49l-312 222.54c-56.16,36.61 -93.21,66.46 -145.81,103.45 -67.74,47.63 -121.1,129.81 -203.15,150.39l-2565.55 1553.37c-4.31,1.75 -14.65,3.89 -19.16,5.61l-459.19 279.31c-69.82,81.11 -37.69,71.53 -174.79,110.7 -57.63,16.46 -0.8,-2.18 -64.32,24.96 -7.25,3.1 -15.07,26.93 -84.23,35.27 -111.9,13.49 -284.22,-141.68 -378,-187.33 -5.13,-2.5 -15.17,-6.33 -20.15,-8.53l-55.63 -19.73c-104.08,-52.02 -195.06,-162.14 -316.86,-201.56l-37.82 -9.51c-3.77,-1.03 -13.97,-2.96 -17.54,-3.96l-205.95 -114.26c-83.55,-31.87 -78,-66.46 -92.27,-80.36l-458.75 -260.33c-149.04,-72.12 -181.39,-162.5 -371.89,-215.28l-561.51 -325.75c-133.03,-48.42 -49.42,-55.32 -119.45,-106.34 -1.27,-0.92 -73.99,-44.89 -85.57,-52.32l-695.82 -394.48c-3.47,-1 -13.32,-3.11 -16.69,-4.03l-302.09 -195.5c-99.3,-98.06 -276.46,-218.6 -420.43,-230.58 1.28,-487.31 28.54,-984.79 -7.39,-1470.15l13.92 -3257.07c0,-155.22 113.82,-151.48 203.21,-214.62l2315.93 -1316.67c147.29,-123.23 131,-45.31 254.74,-136.86 6.2,-4.59 22.86,-17.57 29.37,-22.37l203.1 -114.07c92.72,-48.62 110.11,-102.77 238.1,-149.08l758.07 -409.07c64.93,-40.1 -49.13,-24.73 85.4,-42.79 3.15,-0.42 13.42,-0.67 16.46,-0.54l424.26 237.63c0.47,0.12 20.61,-6.59 88.66,18.48 108.96,40.16 139.04,105.11 225.71,162.57 4.9,3.25 13.8,9.56 19.14,12.83 5.77,3.52 15.22,9.25 21.4,12.74 6.49,3.66 16.42,8.56 23.18,12.11l296.27 125.57c127.71,64.89 100.89,102.7 198.5,158.37l138.4 67.37c3.25,2.16 10.94,8.81 14.14,11.04l125.84 56.67c35.29,9.77 3.39,-23.87 82.55,31.57l162.45 116.04c4.11,1.66 14.49,4.37 18.46,6.09l90.46 57.24c2.62,1.65 11.11,6.98 13.71,8.51 2.53,1.48 11.31,5.98 13.85,7.35l297.71 182.07c4.39,1.89 14.7,5.04 19.26,6.72l218.71 117.16c3.2,2.37 11.15,8.74 14.39,11.05l627.55 352.49c138.78,109.5 98.43,66.6 191.23,96.77l362.78 227.69c360.85,271.98 305.41,18 352.32,270.29 38.91,209.24 2.14,447.45 -0.61,656.71l34.49 179.88c0.9,5.18 3.36,15.4 3.76,20.61l-7.18 64.41c-18.08,88.06 -36.16,-41.81 -36.16,141.1zm-8508.65 -1340.56l0 5221.11c5.64,2.54 15.99,-2.44 18.03,4.36l56.88 16.59c110.52,48.09 110.76,108.47 221.88,145.08 31.67,10.43 25.81,-3.22 78.14,32.91l850.33 501.31c161.05,88.67 25.99,59.72 141.93,119.22 139.38,71.54 -53.55,-83.14 195.06,105.58 52.7,40.01 -38.13,-31.39 55.44,25.58l140.78 92.58c190.39,86.88 318.12,220.85 529.2,317.5 4.26,1.96 14.71,4.29 18.91,6.31 4.14,1.99 14.09,5.38 18.14,7.6l633.22 375.43c72.17,52.67 -38.98,-5.55 67.79,54.37l740.08 401.43c79.96,61.77 91.02,116.2 177.27,143.02 74.86,23.28 54.26,35.2 141.08,101.94 97.47,74.94 187.89,45.51 269.71,134.79 46.14,50.34 34.88,60.24 277.25,60.24 60.84,-114.97 107.42,-95.05 195.34,-159.41 21.22,-15.53 10.18,-14.67 61.9,-56.32 3.18,-2.57 11.46,-8.42 14.64,-10.86l303.25 -177.07c63.72,-22.19 18.34,-4.73 44.67,-31.67l613.87 -360.28c3.34,-1.62 13.24,-5.32 16.3,-7.17 2.89,-1.75 11.35,-7.35 13.95,-9.36 2.56,-1.99 9.21,-9.65 11.55,-11.87 60.06,-57.16 -75.21,8.69 57.43,-60.89l108.03 -57.39c35.87,-36 10.21,-20.43 59.71,-49.18l313.35 -174.57c104.8,-63.91 14.61,-60.86 167.69,-112.9l270.58 -157.45c38.63,-39.11 -56.42,37.57 25.46,-26.98 38,-29.97 69.65,-35.89 70.97,-36.57l659.99 -383.49c72.84,-36.9 230.46,-181.8 463.46,-281.92l267.4 -192.48c125.89,-69.14 181.31,-43.19 353.32,-181.8l63.63 -47.27c13.79,-8.45 118.65,-68.21 118.65,-164.77l0 -4974.17c0,-194.06 -95.52,-195.32 -235.12,-265.39l-1148.52 -652.97c-2.58,-1.15 -11.37,-5.11 -13.88,-6.25 -2.5,-1.15 -11.2,-5.46 -13.67,-6.6 -2.5,-1.16 -11.2,-5.62 -13.7,-6.78l-88.49 -43.16c-3.14,-1.91 -12.01,-7.7 -15.12,-9.74 -3.15,-2.07 -11.64,-8.54 -14.75,-10.7l-87.7 -64.46c-12.62,-9.11 -53.4,-39.82 -75.88,-53.02l-231.32 -124.31c-41.11,-23.78 -47.82,-24.37 -93.33,-47.78l-69.1 -36.94c-6.52,-4.09 -14.98,-9.91 -21.31,-14.22 -2.15,-1.47 -66.92,-53.12 -80.83,-62.63 -153.11,-104.7 -306.33,-136.24 -456.33,-241l-533.21 -318.95c-100.42,-58.03 -78.87,-44.78 -189.27,-94.15l-894.76 -514.52c-70.26,-44.21 -109.82,-32.88 -139.96,-107.54l-70.55 0c-36.26,89.83 8.17,8.22 -46.81,61.6l-266.19 158.7c-112.71,45.1 -189.7,140.16 -309.76,186.87l-393.91 204.47c-3.17,2.14 -10.88,8.14 -14.17,10.16 -3.43,2.12 -11.97,7.21 -15.66,9.25 -7.16,3.95 -29.8,13.47 -38.23,17.48l-165.04 93.26c-3.35,2.37 -11.22,8.37 -14.49,10.67 -3.23,2.26 -11.21,8.1 -14.47,10.33l-31.94 20.66c-11.22,7.18 3.52,1.89 -56.09,35.14l-134.58 56.22c-4.06,1.99 -13.59,7.1 -17.48,9.29l-31.78 22.14c-3.34,2.26 -11.29,8.94 -14.59,11.22l-233.73 130.44c-3.77,2.6 -11.75,8.87 -15.31,11.38 -3.36,2.36 -11.23,8.35 -14.52,10.64 -6.44,4.46 -23.17,16 -29.95,20.39 -101.93,66.07 122.18,-76.03 -54.31,33.01l-159.52 90.17c-6.17,3.07 -23.76,12.26 -31.04,15.73l-905.73 518.46c-3.7,1.95 -12.87,6.11 -16.79,8l-624.13 386.15c-132.63,92.81 -108.78,21.96 -213.73,99.26l-360.66 198.42c-80.3,46.57 -112.77,63.17 -194.85,100.49z"/>
   <path class="fil0" d="M439.76 27426.53c0,254.73 187.48,442.49 499.96,442.49l5393.09 0c680.46,0 649.15,-901.1 4.41,-901.1l-5397.5 0c-136.79,0 -268.33,46.55 -345.33,113.23 -71.19,61.65 -154.63,226.27 -154.63,345.38z"/>
   <path class="fil2" d="M-10783.25 1086.83c6.04,2.56 16.12,6.68 22.62,9.32l966.38 519.3c27.47,17.05 64.91,42.45 77.35,50.81 3.77,2.54 12.52,7.88 16.08,10.35l332.52 184.66c3.03,1.49 12.11,5.85 15.29,7.49l303.48 169.37c2.97,2.43 10.28,9.06 13.2,11.54 168.36,142.88 127.97,52.18 259.45,130.77l664.39 376.63c3.19,2.39 10.68,8.83 13.86,11.05l364.71 194.79c7.15,3.96 16.95,8.16 24.03,12.05 6.94,3.81 16.68,8.47 23.39,12.22 6.44,3.59 15.9,9.1 21.98,12.59l217.87 143.98 0 4550.83c-54.16,30.76 -31.53,12.51 -92.42,59.62 -6.25,4.84 -13.79,12.12 -19.83,17.04l-248.46 165.58c-33.46,21.12 -36.28,15.1 -79.13,27.33 -91.57,26.13 -129.56,103.96 -205.56,133.83l-423.31 246.76c-198.99,75.67 -53.78,13.36 -209.9,122.47l-208.97 100.42c-4.06,2.42 -13.07,7.75 -17.14,9.94l-253.99 160.43c-33.48,14.59 -19.19,-5.66 -69.76,35.27 -50.94,41.22 7.95,57.85 -131.63,99.91 -113.18,34.1 -19.68,-54 -150.16,38.3l-123.33 103.03c-4.28,2.08 -14.78,4.2 -19.04,6.12l-36.84 13.48c-65.5,35.91 -71.42,68.59 -161.27,94.99l-805.19 485.64c-225.19,85.63 -123.41,82.45 -247.89,141.84 -4.4,2.1 -14.89,4.62 -19.28,6.45l-170.2 89.03c-3.23,1.26 -13.11,3.98 -16.52,5.24 -127.41,47.15 -90.18,77.46 -206.39,123.39 -3.2,1.26 -13.66,4.38 -16.75,5.85 -2.97,1.42 -12.26,6.36 -15.04,7.99l-24.46 20.62c-47.86,35.48 -119.26,44.78 -183.28,-8.7 -63.77,-53.27 15.56,-27.88 -126.87,-102.55l-114.68 -59.64c-4.19,-1.64 -14.68,-4.55 -19.05,-6.02 -243.72,-81.91 78.84,50.73 -78.75,-21.54l-71.17 -51.69c-3.86,-2.49 -12.85,-7.89 -17.04,-10.41 -4.66,-2.79 -14.53,-7.56 -19.53,-10.41l-148.59 -86.11c-1.96,-1.34 -9.57,-5.75 -11.34,-7.12 -267.68,-208.96 -91.66,-10.61 -273,-175.9 -149.27,-136.05 -91.89,-5.65 -213.87,-105.04 -149.14,-121.52 -154.77,-88.67 -193.53,-113.68 -100.59,-64.92 94.87,15.55 -92.33,-92.95 -113.01,-65.5 -117.2,-22.39 -155.29,-48.31 -99.88,-68 113.24,11.15 -173.81,-99.72 -66.86,-25.83 -5.54,9.22 -71.8,-50.88l-263.55 -159.7c-150.33,-137.1 -30.48,-35.11 -138.79,-67.43 -59.19,-17.67 -18.8,8.51 -74.98,-37.6 -217.51,-178.51 -113.17,-64.45 -211.62,-115.36 -125.78,-65.03 32.93,-39.73 -145.73,-117.75l-153.36 -95.84c-132.27,-72.07 -63.29,19.76 -159.52,-59.07 -195.85,-160.44 -162.69,-67.32 -264.04,-158.28l-458.15 -251.03c-272.34,-176.81 -262.87,-41.98 -278.63,-219.5l-14.81 -187.74c-60.88,-345.17 -27.09,-812.34 -27.09,-1176.43 0,-140.32 76.15,-24.38 55.6,-231.05 -11.78,-118.44 -62.12,-113.47 -62.12,-227.56l15.6 -251.59c35.83,-392.83 -71.87,-1539.96 23.91,-1872.07 57.78,-200.31 -29.96,-309.68 -29.96,-557.45 4.33,-2.39 11.76,-5.33 13.45,-6.25l274.37 -180.52c121.07,-146.17 491.16,-322.28 675.02,-405.42 28.97,-13.1 40.16,-15.28 70.45,-28.87l1072.51 -626.18c64.66,-35.99 91.34,-41.57 157.06,-68.96 7.76,-3.24 27.41,-10.96 34.4,-14.65l618.31 -345.2c3.69,-1.81 12.74,-6.03 16.3,-7.97l760.54 -438.28c86.1,-35.3 71.45,2.94 144.25,-42.91 59.67,-37.58 38.64,-48.94 113.81,-90.73 126.9,-70.55 192.08,1.66 296.61,72.82l69.25 38.43c2.53,1.3 10.95,5.77 13.62,7.11l360.8 198.49c2.34,1.28 10.86,5.17 13.28,6.43l83 40.46zm-4998.7 1715.81c3.63,162.89 35.28,118.24 35.28,246.94 0,169.08 -46.09,-36.86 -2.77,179.46 13.47,67.28 20.56,57.52 20.37,155.72 -25.42,-39.67 -24.22,-45.6 -52.88,17.6 146.85,284.47 -48.57,3714.3 56.15,4162.66 34.56,147.96 562.85,383.77 706.04,472.65l222.62 130.16c37.49,22.48 42.78,23.64 90.62,50.5l379.8 220c16.58,9.66 87.24,48.29 91.55,51.16 77.86,51.65 111.96,114.28 197.66,137.86 150.49,41.43 288.62,140.63 412.08,231l29.89 18.73c100.92,64.42 143.69,121.09 302.66,172.58 129.14,41.83 1.24,44.18 129.66,86.06 185.21,60.39 158.89,78.88 290.97,157.12l519.18 280.84c64.99,30.77 97.02,69.74 137.29,97.26 3.7,2.53 12.82,7.85 16.28,10.04l362.77 220.86c78.25,25.33 41.36,-12 153.68,52.67 60.48,34.83 116.99,80.05 169.72,115.35 119.11,-31.8 213.99,-120.41 318.76,-158.66l384.92 -231.23c56.9,-32.27 83.75,-54.46 154.61,-95.49l1350.82 -739.74c161.99,-130.46 48.65,-86.77 314.96,-207.47l1446.47 -820.39c136.2,-77.22 -29.99,-2.54 79.55,-84.27 100.75,-75.18 157.67,-48.25 179.43,-204.57l10.4 -4487.81c-8.09,-102.49 -8.88,-169.08 -6.59,-272.87l-824.7 -430.04c-2.5,-1.41 -11.29,-5.51 -13.89,-7.01l-346.14 -198.07c-88.14,-66.46 -138.14,-47.44 -246.96,-140.41 -75.68,-64.66 35.65,5.94 -65.41,-53.79l-253.04 -116.28c-2.51,-1.38 -11.44,-4.93 -13.97,-6.21 -2.55,-1.29 -11.65,-4.45 -14.24,-5.74l-112.23 -79.66c-96.59,-75.04 -148.7,-54.58 -232.24,-113.08 -2.87,-2.02 -10.73,-8.37 -13.72,-10.68 -3.3,-2.54 -11.12,-9.5 -14.63,-12.33 -3.89,-3.14 -11.7,-10.66 -15.89,-14.04 -63.43,-51.21 -57.29,-54.95 -146.19,-89.39l-127.3 -50.57c-183.3,-131.78 -202.69,-54.76 -375.01,-201.37l-181.53 -127.95c-49.12,-21.65 -50.62,-16.85 -61.17,-20.53l-130.98 -58.1c-2.53,-1.25 -11.47,-5.68 -14.01,-6.93l-97.34 -55.14c-6.14,-4.73 -23.86,-21.54 -30.72,-26.77 -98.08,-74.83 -120.79,-43.63 -303.73,-159.88l-401.47 -204.89c-131.28,-114 -172.23,-127 -351.57,-54.24 -117.97,47.86 -43.33,15.55 -127.65,80.59 -3.62,2.79 -11.67,9.86 -15.11,12.41l-68.82 39.77c-5.65,3.28 -21.45,12.33 -27.36,16.44 -114.37,79.46 -192.62,84.79 -318.5,177.54l-883.17 490.75c-2.63,1.65 -11.13,6.95 -13.75,8.49l-810.4 447.54c-86.61,24.65 -16.59,-32.42 -140.49,62.75l-1525.9 858.84c-78.82,28.89 -118.14,49.09 -182.72,83.26z"/>
   <path class="fil2" d="M16850 7494.58c0,-495.76 -39.18,-4016.8 -0.51,-4410.23 20.66,-210.25 166.07,-227.75 302.69,-316.7l378.03 -235.66c67.07,-46.01 16.73,-18.53 110.73,-66.99 48.4,-24.94 50.4,-21.41 95.66,-45.6 28.08,-15 78.35,-47.48 109.69,-66.88l108.83 -67.54c312.1,-199.16 710.45,-377.54 1033.03,-576.78l459 -258.22c6.17,-2.89 16.48,-6.87 22.32,-9.62 5.33,-2.5 15.44,-6.34 20.37,-8.77 4.44,-2.2 13.95,-6.34 18.02,-8.55l504.79 -276.18c3.83,-1.67 13.54,-5.81 17.18,-7.63 3.54,-1.76 12.52,-7.1 15.87,-9.01 3.27,-1.88 11.71,-7.91 14.83,-9.92l330.99 -192.58c73.8,-35.12 244.15,-202.27 383.11,-174.93 131.76,25.91 208.46,84.18 325.38,161.64l387.84 197.04c3.18,2.19 11.27,8.23 14.26,10.2l40.28 23.39c2.4,1.4 11.14,5.44 13.55,6.87 2.49,1.48 11.03,6.39 13.54,7.95l407.98 233.63c4.06,1.8 14.36,4.97 18.57,6.67l500.13 271.97c90.13,43.75 19.89,3.35 87.78,49.04l172.34 108.64c4.51,1.75 15.13,4.56 19.64,6.43 4.52,1.87 14.92,5.36 19.34,7.43 4.41,2.06 14.29,6.86 18.52,9.13 4.19,2.25 13.37,8.39 17.34,10.81l601.26 358.08c56.28,30.31 67.41,29.4 74.55,32.55l143.05 80.96c32.85,17.56 68.62,34.84 102.88,55.67l811.35 493.86c225.33,192.82 127.01,627.29 127.01,905.67l0.01 3139.72c0.14,218.01 36.91,437.8 -67.39,578.28 -84.35,113.61 -120.82,74.09 -224.59,149.72l-755.76 470.88c-3.72,2.29 -12.59,7.27 -16.37,9.38l-337 202.45c-3.86,2.33 -12.93,7.29 -16.84,9.43l-143.14 106c-51.4,33.01 -5.33,-2.94 -64.77,17.5 -94.07,32.34 -80.7,68.19 -124.02,94.91 -2.13,1.32 -10.96,4.72 -13.28,5.93 -2.57,1.33 -12.33,4.34 -15.09,5.66l-113.8 58.51c-36.97,18.6 -40.21,15.75 -93.75,52.51l-158.34 92.64c-54.02,34.55 -47.36,38.1 -68.36,50.8 -95.39,57.65 16.8,-27.56 -89.23,42.24 -117.21,77.17 -13.11,12.76 -51.95,51.84l-326.46 208.54c-2.56,1.41 -12.2,4.31 -14.97,5.85l-156.8 100.14c-4.29,1.96 -14.72,4.28 -18.93,6.3l-554.04 337.56c-5.95,3.75 -21.98,13.87 -27.87,17.1 -44.61,24.44 17.14,-10.46 -28.91,12.94l-355.62 199.15c-108.72,4.98 -129.9,-36.1 -210.2,-84.52 -141.31,-85.2 -212.05,-65.02 -310.98,-156.66l-45.75 -52.88c-76.1,-54.04 -98.34,-19.05 -140.26,-62.67 -79.64,-82.85 -199.16,-95.2 -257.65,-155.67l-275.48 -137.85c-235.92,-92.06 84.91,22.44 -118.86,-114.05l-156.24 -92.95c-112.74,-66.08 -88.62,-6.14 -179.72,-72.1l-175.58 -140.66c-104.1,-73.72 -90.54,-0.39 -176.4,-70.22 -54.89,-44.65 27.59,-17.13 -89.85,-83.01l-132.75 -66.11c-39.02,-39.29 -3.07,-22.04 -62.51,-47.62l-125.38 -72.47c-129.02,-114.52 -10.39,-17.85 -90.86,-42.74 -87.31,-27 -199.78,-159.23 -377.19,-214.74l-518.21 -298.54c-5.78,-3.15 -14.73,-9.55 -19.99,-12.62 -4.75,-2.78 -13.52,-9.19 -17.8,-11.81l-64.14 -41.43c-91.2,-84 57.44,36.24 -39.29,-48.86 -107.14,-94.25 -87.46,-11.76 -266.64,-151.49 -3.06,-2.39 -11.18,-8.11 -14.34,-10.4l-137.88 -79.75zm7969.75 -3563.05c0,-182.91 18.08,-53.04 36.16,-141.1l7.18 -64.41c-0.4,-5.21 -2.86,-15.43 -3.76,-20.61l-34.49 -179.88c2.75,-209.26 39.52,-447.47 0.61,-656.71 -46.91,-252.29 8.53,1.69 -352.32,-270.29l-362.78 -227.69c-92.8,-30.17 -52.45,12.73 -191.23,-96.77l-627.55 -352.49c-3.24,-2.31 -11.19,-8.68 -14.39,-11.05l-218.71 -117.16c-4.56,-1.68 -14.87,-4.83 -19.26,-6.72l-297.71 -182.07c-2.54,-1.37 -11.32,-5.87 -13.85,-7.35 -2.6,-1.53 -11.09,-6.86 -13.71,-8.51l-90.46 -57.24c-3.97,-1.72 -14.35,-4.43 -18.46,-6.09l-162.45 -116.04c-79.16,-55.44 -47.26,-21.8 -82.55,-31.57l-125.84 -56.67c-3.2,-2.23 -10.89,-8.88 -14.14,-11.04l-138.4 -67.37c-97.61,-55.67 -70.79,-93.48 -198.5,-158.37l-296.27 -125.57c-6.76,-3.55 -16.69,-8.45 -23.18,-12.11 -6.18,-3.49 -15.63,-9.22 -21.4,-12.74 -5.34,-3.27 -14.24,-9.58 -19.14,-12.83 -86.67,-57.46 -116.75,-122.41 -225.71,-162.57 -68.05,-25.07 -88.19,-18.36 -88.66,-18.48l-424.26 -237.63c-3.04,-0.13 -13.31,0.12 -16.46,0.54 -134.53,18.06 -20.47,2.69 -85.4,42.79l-758.07 409.07c-127.99,46.31 -145.38,100.46 -238.1,149.08l-203.1 114.07c-6.51,4.8 -23.17,17.78 -29.37,22.37 -123.74,91.55 -107.45,13.63 -254.74,136.86l-2315.93 1316.67c-89.39,63.14 -203.21,59.4 -203.21,214.62l-13.92 3257.07c35.93,485.36 8.67,982.84 7.39,1470.15 143.97,11.98 321.13,132.52 420.43,230.58l302.09 195.5c3.37,0.92 13.22,3.03 16.69,4.03l695.82 394.48c11.58,7.43 84.3,51.4 85.57,52.32 70.03,51.02 -13.58,57.92 119.45,106.34l561.51 325.75c190.5,52.78 222.85,143.16 371.89,215.28l458.75 260.33c14.27,13.9 8.72,48.49 92.27,80.36l205.95 114.26c3.57,1 13.77,2.93 17.54,3.96l37.82 9.51c121.8,39.42 212.78,149.54 316.86,201.56l55.63 19.73c4.98,2.2 15.02,6.03 20.15,8.53 93.78,45.65 266.1,200.82 378,187.33 69.16,-8.34 76.98,-32.17 84.23,-35.27 63.52,-27.14 6.69,-8.5 64.32,-24.96 137.1,-39.17 104.97,-29.59 174.79,-110.7l459.19 -279.31c4.51,-1.72 14.85,-3.86 19.16,-5.61l2565.55 -1553.37c82.05,-20.58 135.41,-102.76 203.15,-150.39 52.6,-36.99 89.65,-66.84 145.81,-103.45l312 -222.54c2.79,-0.58 1.56,108.42 23.47,2.49 0.82,-3.97 7.86,3.97 11.63,2.71 -45.55,-157.12 -73.58,-48.34 -73.58,-176.39 0,-160.68 32.99,-208.26 17.79,-354.45 -19.81,-190.52 45.76,-251.82 39.74,-344.26 -9.88,-151.85 -57.53,14.93 -57.53,-147.96 0,-164.25 51.29,-63.51 50.99,-177.54 -0.25,-96.75 -103.01,-359.44 -45.75,-734.05 34.52,-225.89 -11.77,-148.49 -11.77,-287.85 0,-187.57 121.47,-14.84 33.24,-340.82 -48.33,-178.53 -19.54,-472.75 20.11,-640.48 48.83,-206.51 -11.55,-42.61 -10.63,-175.39 0.03,-4.25 2.08,-14.47 2.35,-18.7 8.58,-135.04 -38.54,-84.25 -38.54,-235.72z"/>
   <path class="fil2" d="M6259.73 7318.23c0.87,-1291.4 -35.89,-3190.63 7.08,-4409.75l1435.37 -822.27c182.9,-102.28 309.3,-183.37 492.65,-283.46l1460.52 -832.54c162.02,-97.7 340.24,-182.7 491.87,-284.24 179.68,41.86 1892.85,1028.46 2009.01,1095.44l1961.26 1143.19 0 4569.98 -1432.36 879.86c-173.93,104.09 -317.08,205.79 -503.9,307.49l-1968.46 1166.18c-75.18,5.43 -508.25,-268.63 -604.42,-332.98 -58.68,-39.26 -70.57,-47.85 -131.11,-80.56 -98.86,-53.44 -144.31,-87.96 -240.03,-148.03l-494.35 -281.76c-84.35,-43.27 -134.57,-96.47 -232.69,-155.37 -101.38,-60.86 -180.26,-99.34 -269.97,-153.36l-1973.53 -1166.19 -6.94 -211.63zm-169.45 -4515.59l5.59 4797.78c154.81,107.41 322.51,200.81 499.44,306.35 660.35,393.91 1921.24,1180.14 2540.98,1515.96 191.61,103.83 317.48,200.33 506.14,305.26 108.7,60.46 164.09,91.24 269.24,154.1 58.26,34.82 220.47,151.86 256.28,161.19 97.83,25.51 345.38,-169.25 501.42,-262.66l3605.35 -2144.93c-78.42,-911.34 90.03,-4184.55 -35.28,-4868.33 -173.22,-40.36 -136.29,-32.23 -262.45,-125.61l-3280.73 -1869.81c-178.75,-108.54 -354.16,-190.76 -513.76,-297.64 -157.78,105.66 -316.9,186.68 -487.11,289l-3075.95 1757.11c-151.26,81.8 -362.99,243.51 -529.16,282.23z"/>
   <path class="fil0" d="M36458.38 5589.58l-26.76 428.04c-0.06,7.64 -0.08,17.46 -0.19,25.15 -4.22,287.72 39.12,407.25 1.31,683.66 -43.32,316.67 25.64,802.09 25.64,1226.76 0,292.18 -63.23,536.3 -25.64,803.46 37.09,263.67 -37.28,1027.96 -7.77,1382.85 51.61,620.75 -1.87,224.84 -1.87,777.03 0,1123.8 -35.41,11564.84 18.41,11730.98 46.19,142.55 -6.97,63.06 99.56,128.42 36.89,-71.76 70.56,-107.09 70.56,-217.73l0 -14216.95c0,-297.24 -47.01,-338.71 -29.53,-623.11l5.75 -100.2c56.66,-853.67 23.78,-1766.32 23.78,-2628.08 0,-333.48 118.51,-295.22 135.04,-493.89 213.66,-17.78 80.98,-49.94 214.59,-134.48 105.79,-66.95 624.42,-112.78 851.73,303.11 107.38,196.47 56.5,604.23 56.5,889.7 0,315.66 8.61,641.69 3.1,955.58 -6.18,352.11 -311.25,215.36 -32.31,631.92l246.94 0c27.16,-101.69 78.5,-110.37 141.12,-176.38 -36.49,-438.41 -158.08,84.7 -157.25,-776.11 0.31,-317.55 -0.75,-635.16 0.07,-952.7 0.86,-332.14 -15.33,-581.03 -169.46,-766.79 -66.55,-80.21 -154.53,-173.03 -238.45,-220.51 -412.33,-233.25 -924.38,-41.73 -1128.27,317.12 -175.25,308.47 -76.6,612.87 -76.6,1023.15z"/>
   <path class="fil0" d="M35229.72 24251.53c210.71,0 21.16,-18.32 155.92,-45.35 213.2,-42.76 453.47,-15.13 806.46,-368.11 172.48,-172.48 321.57,-433.97 378.31,-683.02 35.32,-155 42.68,-173.52 -29.34,-285.43 -237.52,144.48 -91.08,733.48 -798.71,1083.15 -751.59,371.39 -1741.29,-155.71 -1741.29,-1147.63l-6.07 -11077.22c0.03,-201.44 141.11,21.42 141.11,-388.06 0,-239.73 -510.02,-259.95 -474.58,100.6 37.59,382.42 150.96,-248.87 151.01,781.33l0 9630.85c0,986.11 -89.15,1658.19 655.82,2172.48 147.23,101.65 526.95,226.41 761.36,226.41z"/>
   <path class="fil1" d="M-4643.9 2837.92l0 4833.05c5.56,2.51 15.44,-1.37 17.53,5.31 2.17,6.93 15.12,4.62 18.22,5.44l179.12 53.28c-94.95,30.35 -38.72,-10.21 -70.56,83.61 165.52,37.36 193.97,-7.09 288.76,35.28l-8.4 58.61c23.8,58.14 97.68,86.52 155.31,109.66 10.3,4.14 70.32,25.37 73.43,26.47 5.78,2.05 15.69,5.41 21.16,7.32 5.07,1.77 14.87,4.91 19.7,6.6l620.74 313.98c-57.31,-78.23 -103.09,-156.22 -277.47,-220.77 -8.5,-3.15 -19,-5.15 -27.19,-8.29l-288.47 -163.76c-5.54,-5.17 -12.18,-13.37 -17.74,-18.58 -141.51,-132.43 -431.68,-188.37 -518.02,-364.71 -3.97,-7.66 -7.47,-28.96 -8.33,-24.52l-18.09 -256.41c6.72,-646.07 -46.21,-4302.88 17.84,-4489.7 15.04,-43.86 1.54,-29.95 64.99,-39.15 132.29,-19.18 123.3,-19.37 217.44,-105.71l446.7 -289.54c41.71,-22.23 78.95,-31.81 123.08,-54.01 360.81,-181.56 374.42,-155.86 467.16,-201.01l44.78 -27.07c97.01,-74.54 18.52,-76.17 136.98,-146.55 138.16,-82.08 66.64,24.88 337.79,-155.45 6.44,-4.29 15.4,-9.57 22.02,-13.65l141.02 -87.05c6.11,-4.99 20.11,-18.44 25.78,-23.48 2.8,-2.5 10.06,-9.18 12.93,-11.76l62.8 -56.51c6.57,-5.21 107.03,-64.02 111.24,-65.46 269.82,-92.52 184.4,-47.73 407.04,-193.84l230.07 -118.19c140.5,-59.23 39.99,-18.84 110.86,-69.65l170.77 -111.96c143.58,-127.42 206.13,-166.51 402.71,-232.99l471.36 -187.74c4.76,0.84 14.65,4.17 19.12,5.34 118.48,30.97 200.12,128.71 316.24,171.62 43.49,16.07 78.69,24.3 110.99,43.03 102.31,59.31 104.36,130 218.07,175.56l329.07 159.1c7.86,4.3 26.1,17.43 33.14,21.31 46.92,25.89 202.84,80.82 282.09,160.4 100.01,100.44 158.63,95.31 335.98,227.04 8.16,6.06 33.46,23.75 42.08,29.77l178.92 105.93c9.66,4.84 37.2,18.65 46.98,23.34 7.27,3.48 15.97,8.49 23.35,11.86l158.22 53.01c154.8,46.26 313.27,163.99 458.98,244.92 42.23,23.45 75.7,36.33 108.56,66.54l63.49 82.93c3.35,4.98 8.52,16.45 13.84,24l32.34 -26.72c55.98,-38.2 -48.49,-77.57 84.17,-17.92l55.08 62.04c0.02,3.75 -2.49,14.37 -3.29,18.37 -1.51,7.55 -32.2,65.52 -33.72,70.06 271.54,61.3 406.72,115.75 640.1,279.94l102.35 76.73c18.1,9.83 200.06,83.35 251.86,95.42 28.48,716.01 -62.24,4635.73 28.75,4826.52 -192.81,24.27 -21.93,-38.92 -159.94,86.67 -100.96,91.87 -78.89,64.03 -222.85,128.29 -108.15,48.27 -198.82,97.29 -252.21,186.16 150.89,-30.57 32.83,-17.9 115.88,-37.04l117.76 2.25c3.84,0.08 14.06,1.79 17.95,1.42 4.05,-0.38 14.42,-1.19 18.57,-2.18l260.97 -169.55c86.77,-34.2 136.8,-57.63 222.76,-77.12 56.91,-503.13 -25.38,-1106.55 0,-1629.31 43.4,-894.17 -7.32,-2066.95 0.28,-2963.53 2.16,-254.56 36.94,-353.96 -160.6,-440.78 -98.53,-43.3 -61.9,13.7 -181.02,-70.51l-70.55 -69.76c-4.75,-3.89 -12.76,-11.28 -17.58,-14.67 -81.05,-56.99 -58.09,-0.47 -156.22,-74.28 -121.74,-91.58 -209.36,-64.79 -327.82,-184.52l-382.41 -259.1c-224.06,-114.61 -124.1,3.96 -314.62,-158.46 -80.78,-68.86 -154.8,-61.04 -260.2,-109.42l-1042.93 -648.69c-167.88,-118.42 -369.37,-153.44 -533.73,-275.31l-260.34 -155.96c-4.01,-2.47 -13.18,-7.2 -17.11,-9.41 -348.42,-196.26 -159.81,-242.63 -694.46,-36.67 -65.04,25.05 -40.7,12.44 -90.07,46.85l-110.08 73.25c-176.39,77 -145.8,105.05 -293.74,156.92 -236.14,82.81 -371.4,278.34 -601.97,371.7 -94.03,38.07 31.82,-28.12 -50.44,23.59 -10.94,6.88 -27.73,26.28 -67.33,54.41 -67.21,47.76 -130.22,62.53 -162.5,78.94 -104.3,53.02 -237.56,86.64 -335.8,164.03 -117.24,92.37 83.32,-70.76 -37.89,34.64l-136.16 92.3c-3.58,2.33 -12.11,7.98 -15.72,10.58 -301.08,217.69 -231.37,28.1 -415.34,245.68 -138.76,164.13 -420.04,245.83 -597.39,316.82 -74.62,29.88 -97.01,77.33 -133.43,115.72 -104.13,109.78 -291.37,155.19 -393.36,201.65l-340.18 203.16z"/>
   <path class="fil0" d="M32413.04 26821.26c-205.89,-265.89 -381.79,-176.91 -964.11,-176.91 30.18,182.29 598.65,767.8 747.14,958.33 80.57,103.39 173.2,207.97 246.71,317.74 -176.05,202.54 -335.41,401.7 -520.08,608.81 -94.07,105.49 -163.03,205.45 -250.72,313.72 -96.63,119.28 -203.01,144.34 -216.98,312.19 79.12,18.43 81.11,35.28 176.39,35.28 768.02,0 561.21,77.44 861.56,-302.61 131.48,-166.39 762.67,-875.99 796.5,-1002.67 -42.9,-64.07 -115.47,-148.04 -171.38,-216.68 -63.48,-77.95 -110.28,-129.88 -176.45,-211.61l-528.58 -635.59z"/>
   <path class="fil0" d="M26368.93 26644.35c165.05,240.51 876.16,1012.36 1029.13,1240.79 -31.15,116.66 -171.33,249.22 -254.81,344.92l-529.16 635c-58.32,66.85 -67.51,89.77 -126.22,156 -82.74,93.34 -78.61,41.06 -112.87,169.36 172.06,-79.58 16.84,0 211.67,0l564.44 0c174.77,0 917.67,-1115.24 1128.89,-1270 -205.51,-306.9 -926.16,-1074.24 -1023.05,-1276.07l-888.02 0z"/>
   <path class="fil0" d="M30511.34 27594.08c103.63,108.81 151.69,209.57 273.38,291.06l-819.5 979.67c-47.23,57.95 -76.87,101.04 -125.95,156.26 -82.77,93.13 -78.7,41.32 -112.88,169.35 141.73,0 709.21,17.79 803.37,-8.02 104.34,-28.61 261.47,-281.79 387.83,-423.56l713.8 -873.7c-181,-208.24 -359.1,-409.34 -533.72,-630.44 -97.14,-122.99 -173.63,-204.2 -272.73,-327 -51.15,-63.39 -73.68,-80.17 -129.49,-152.5 -49.82,-64.56 -62.78,-130.85 -157.12,-130.85l-811.94 6.07 784.95 943.66z"/>
   <path class="fil0" d="M29091.39 27885.14l-1058.33 1305.28c157.13,0 689.97,20.58 804.88,-6.51 119.89,-28.27 1060.03,-1148.64 1100.12,-1298.77l-802.5 -961.39c-333.49,-358.99 -67.21,-274.55 -1067.23,-279.4l1023.06 1240.79z"/>
   <path class="fil0" d="M-15429.17 23545.97c0,571.67 602.63,429.41 1411.11,429.41 562.62,0 577.45,-817.46 0,-817.46l-772.12 30.18c-35.93,-3.33 -269.62,-97.92 -473.53,64.72 -82.06,65.45 -165.46,159.94 -165.46,293.15z"/>
   <path class="fil2" d="M7966.07 24704.07c221.71,0 204.13,-2.67 321.26,-124.95l504.14 -413.35c109.72,-79.47 163.53,-107.99 276.4,-182.2 603.42,-396.73 1156.87,-586.45 1871.18,-382.75 580.09,165.43 912.86,422.59 1418.57,698.09 201.02,109.5 467.17,295.7 680.75,376.95 109.51,41.66 331.21,32.89 495.52,34.28l-45.18 -25.04c-649.93,-312.1 -600.29,-250.18 -1324,-687.17 -406.87,-245.68 -919.66,-546.44 -1462.36,-619.24 -786.46,-105.5 -1806.75,403.49 -2239.73,811.02 -128.71,121.15 -462.93,351.85 -496.55,514.36z"/>
   <path class="fil3" d="M34509.38 3367.08l-2.1 2751.48c-16.62,466.8 44.77,945.57 1.78,1413.93 -14.36,156.43 -22.52,57.42 -163.02,174.45 -139.68,116.35 -39.45,29 -39.08,81.43 0.04,5.16 3.04,19.53 3.45,24.21 0.3,3.4 -6.18,11.4 2.09,34.78l139.74 -39.6c-36.63,-175.11 15.74,-167.84 192.55,-136.79 -121.91,-179.03 0,-40.3 0,-282.22l-0.75 -1835.33c-2.37,-235.03 -49.32,-261.64 -49.32,-316.62 0,-153.38 44.56,-160.9 44.56,-352.77l5.51 -670.28c-0.26,-91.24 -28.69,-113.11 -9.8,-188.94 46.69,-187.5 -25.07,-56.41 -20.24,-194.39l30.04 -498.62c0,-149.91 21.06,-370.08 -50.07,-493.88 -44.68,-123.45 5.38,-39.45 -111.77,-99.73 -39.56,-20.36 -19.73,-4.24 -72.65,-33.41l-266.38 -120.09c-11.09,-6.65 -46.57,-39.92 -56.4,-50.28 -5.13,-5.4 -10.33,-14.76 -15.31,-20.3l-31.47 -39.56c-94.97,-88.35 -221.64,-83.1 -322.7,-174.34l-614.06 -361.53c-5.27,-1.5 -16.21,-2.64 -21.52,-4.34l-193.57 -114.52c-393.58,-282.37 -185.91,-166.63 -551.94,-251.91 101.02,137.89 324.03,181 475.31,303.34l392.4 240.25c5.87,4.46 13.93,11 19.81,15.44 104.18,78.57 179.6,92.84 290.36,131.85l542.11 347.6c24.99,8.11 70.87,1.18 166.78,85.65 3.01,2.65 10.28,9.49 13.18,12.1 5.73,5.14 20.34,18.31 26.26,23.62l226.84 160.31c58.17,62.92 2.88,295.45 19.38,479.01z"/>
   <path class="fil3" d="M26798.33 2979.03c0,173.66 33.83,34.62 24.07,203.69 -32.58,564.47 16.27,2010.86 1.72,2115 -43.3,309.83 10.23,1449.96 9.49,1844.08 -1,536.01 -118.55,564 135.6,558.94 -55.48,-119.96 -21.56,-548.82 -21.56,-735.32 0,-147.97 -50.19,-1.89 -24.73,-230.22 34.39,-308.32 22.17,-2230.23 -4.06,-2533.8 -7.36,-85.13 -5.68,-30.06 1.17,-108.03 1.4,-15.94 10.82,-74.64 11.8,-86.46 1.05,-12.58 4.4,-148.12 3.74,-211.47 -2.36,-226.3 52.14,-875.97 3.88,-992.8 110.26,39.91 63.51,93.92 242.63,-39.72l58.4 -44.52c4.22,-3.3 12.52,-9.95 16.43,-13.07 287.42,-229.52 -48.09,-93.73 465.05,-321.49 130.86,-58.09 150.68,-132.36 245.26,-156.59 50.48,-12.94 51.52,17.84 185.95,-42.54 131.62,-59.13 -13.91,-19.56 126.83,-52.35 -48.84,-134.93 -60.24,-35.27 -35.28,-105.83l380.38 -152.12c90.34,-43.13 -4.01,46.5 41.66,-32.93 91.93,-159.88 -85.55,110.2 1.65,-56.37 40.86,-78.06 26.58,-17.97 176.04,-5.53 36.85,-75.44 61.73,-134.47 105.83,-211.67l-290.22 133.11c-6.44,4.06 -15.11,9.69 -21.42,13.86l-102.32 74.07c-58.24,37.07 -99.81,51.02 -159.65,87.3l-415.22 254.96c-115.07,92.08 -86.79,132.89 -231.21,193.68 -154.56,65.06 -825,388.2 -901.17,543.76 -23.61,48.2 -30.74,51.55 -30.74,110.38z"/>
   <path class="fil0" d="M38334.17 21887.92c-156.4,325.95 -419.03,589.08 -477.76,724.71 434.61,0 411.84,75.05 614.22,-200.17l357.43 -489.26c-163.17,-243.67 -338.88,-454.33 -493.89,-711.63l-458.61 0c26.89,109.25 145.21,246.86 221.59,348.92 81.11,108.37 168.15,224.58 237.02,327.43z"/>
   <path class="fil0" d="M37416.95 21923.2l-477.77 689.43c617.6,0 410.94,23.25 875.6,-573.82 35.12,-45.13 64.68,-79.51 96.06,-115.61 -166.71,-248.96 -301.62,-392.47 -493.89,-711.63l-458.61 0c33.62,136.6 320.74,451.08 458.61,711.63z"/>
   <path class="fil0" d="M38809.02 22558.2c7.87,4.71 21.87,-0.6 25.79,9.59 60.9,158.27 -41.43,6.67 97.14,21.42l212.22 5.89c162.54,-15.08 166.19,-74.56 243.96,-182.38l357.15 -489.52 -493.89 -711.63 -458.61 0c31.42,127.61 16.7,60.85 89.75,163.72 312.91,440.64 442.19,478.63 291.45,680.01l-364.96 502.9z"/>
   <path class="fil4" d="M3127.14 19030.62c-184.77,97.67 -290.38,63.6 -233.76,192.1 40.86,92.71 20.32,42.94 140.63,5.02 86.53,-27.26 122.42,-38.66 198.97,-56.41l365.18 552.04 294.36 -385.97c94.62,-118.48 264.82,-266.94 315.43,-400.21 -137.08,24.54 -1078.65,-161.37 -1149.36,-143.98 -146.05,35.94 14.43,155.99 68.55,237.41z"/>
   <path class="fil1" d="M-12077.78 18924.58l145.88 280.95c35.16,32.58 25.23,15.76 62.09,38.54l88.6 67.44c12.2,13.08 21.94,22.4 40.01,46.48 65.15,86.81 -4.76,-5.23 31.36,49.15l337.62 399.39 307.01 -500.87c5.39,-5.23 14.7,-10.76 20.31,-15.93 5.63,-5.21 14.85,-10.65 20.44,-15.99 5.55,-5.3 14.27,-11.22 19.53,-16.84 5.24,-5.6 12.97,-12.54 17.74,-18.59 72.41,-91.84 15.66,-17.26 56.33,-121.93l52.53 -121.24c-121.97,-37.52 -141.63,-18.6 -307.16,-48.1l-578.72 -56.02c-214.97,-25.25 -171.58,-55.87 -313.57,33.56z"/>
   <path class="fil1" d="M19030.69 19354.45c156.46,58.22 94.94,-56.35 232.93,-16.27 124.54,36.18 89.76,112.3 146.12,235.12l297.76 339.06c24.05,-90.08 70.35,-151.58 128.01,-227.19 261.15,-342.47 -16.75,-92.86 306.94,-430.93l33.31 -38.54c16.37,-22.04 51.69,-92.26 67.44,-121.26l-1170.7 -134.58c14.91,67.25 52.22,212.73 55.06,262.32 7.35,128.39 16.04,22.86 -24.82,64.06 -59.35,59.83 -32.24,-42.22 -72.05,68.21z"/>
   <path class="fil4" d="M-4916.19 19030.62c-147.21,12.23 -164.1,28.8 -176.39,175.99 127.21,-10.63 168.01,-44.07 282.22,-70.56l329.9 552.04 162.94 -219.11c85.36,-117.03 342.07,-344.93 388.71,-544.2l-548.83 -121.74c-95.56,-15.23 -247.37,-27.83 -291,-31.5 -107.85,-9.1 -177.86,-38.4 -288.66,-58.42 49.28,92.59 131.58,202.55 141.11,317.5z"/>
   <path class="fil0" d="M10570.56 19065.7c-86.25,20.09 -208.7,41.04 -157.59,151.66 41.71,90.28 102.52,18.71 228.14,-10.55 38.72,166.18 127.01,324.42 141.11,493.89 131.63,-35.15 622.61,-546.41 705.56,-670.28l-1023.06 -388.06c3.99,178.87 69.49,267.34 105.84,423.34z"/>
   <path class="fil2" d="M9265.28 24710.14c106.56,-201.38 250.66,-307.87 437.88,-444.06 703.05,-511.44 1231.42,-203.18 1850.03,308.09 141.82,117.21 139.25,135.97 393.2,135.97 -87.45,-130.59 -487.57,-433.2 -634.48,-529.69 -441.91,-290.25 -549.26,-316.98 -1058.85,-316.98 -442.94,0 -1013.12,494.52 -1199.45,846.67l211.67 0z"/>
   <path class="fil1" d="M28350.56 19665.42c75.69,-50.69 248.89,-213.11 307.19,-282.24l174.33 -217.26c2.19,-3.58 7.04,-13.15 8.55,-16.55 52.36,-117.45 -105.57,-152 -262.82,-183.24l-657.11 -153.91c55.36,216.68 155.75,266.56 220.3,391.66 42.39,82.17 60.39,203.55 96.44,258.12l34.54 38.47c26.28,31.58 23.66,-85.94 73.29,129.81l5.29 35.14z"/>
   <path class="fil1" d="M15890.97 20688.47c0,173.81 186.7,73.09 314.27,-7.02 90.52,-56.85 64.08,-41.13 86.84,-140.62 -141.94,5.48 -401.11,29.32 -401.11,147.64z"/>
   <path class="fil4" d="M2280.48 19488.83c146.62,-12.25 344.11,-69.15 422.93,-175.99l-35.18 -38.31c-124.47,-68.8 -91.77,-31.31 -201.27,12.09 -177.06,70.19 -182.21,9.78 -186.48,202.21z"/>
   <path class="fil1" d="M26827.08 19559.58c0,94.95 22.43,104.91 98.68,97.15l219.58 -78.32c61.53,-39.8 58.12,-77.39 76.33,-159.94 -97.88,43.41 -394.59,22.12 -394.59,141.11z"/>
   <path class="fil3" d="M-16205.28 21147.08c31.9,64.35 27.21,44.13 35.28,141.12 93.06,-24.85 311.06,-128.87 344.45,-219.99 14.37,-39.2 7.42,-56.73 8.33,-97.51 -195.11,16.23 -142.82,110.9 -388.06,176.38z"/>
   <path class="fil4" d="M-8130.36 20265.34l4.63 175.97c126.29,-67.59 262.77,-110.61 386.92,-176.37l-63.05 -131.77c-63.06,48.01 -243.49,113.34 -328.5,132.17z"/>
   <path class="fil1" d="M-14412.64 20188.06c51.98,227.18 120.44,149.81 276.26,67.22 144.55,-76.61 117.22,-26.69 124.85,-208.34 -310.91,23.19 29.18,150.99 -401.11,141.12z"/>
   <path class="fil4" d="M-6327.3 19524.51l0 105.43c266.2,0 374.09,-45.13 387.65,-215.16 -229.35,5.69 -259.14,75.4 -387.65,109.73z"/>
   <path class="fil3" d="M-12571.67 19383.2c0,155.38 88.63,76.76 173.93,35.46 124.4,-60.24 178.63,-43.65 214.13,-176.58 -108.43,-90.56 -388.06,112.98 -388.06,141.12z"/>
   <path class="fil1" d="M-13771.11 20053.47c235.83,-20.1 109.1,-68.75 141.11,-105.83 100.71,-53.29 154.56,-79.25 246.94,-141.11 -72.61,-99.11 -62.09,-50.61 -90.48,-33.69l-18.75 13.16c-95.36,27.98 77.3,-33.59 -81.79,4.83 -148.21,35.79 -201.59,86.62 -197.03,262.64z"/>
   <path class="fil3" d="M15262.5 20935.42c6,72.06 -13.57,99.08 47.55,128.45l281.87 -116.96c91.29,-46.45 40.06,-15.54 93.91,-117.33 -135.9,-113.51 -184.03,65.95 -289.27,100.08 -40.58,13.16 -90.91,6.65 -134.06,5.76z"/>
   <path class="fil3" d="M28244.72 8588.19c80.42,18.74 81.14,27.35 176.39,35.28 -42.75,-134.42 -32.12,-114.69 -141.11,-176.39l-35.28 141.11z"/>
  </g>
 </g>
</svg>
