<?xml version='1.0' encoding='utf-8'?>
<svg xmlns="http://www.w3.org/2000/svg" width="1642" height="958" viewBox="0 0 1642 958"><rect width="100%" height="100%" fill="#ffffff" /><defs>
  <style type="text/css">
   
    .fil1 {fill:#332C2C}
    .fil0 {fill:#C42C30}
    .fil2 {fill:#D7B891}
    .fil4 {fill:#DC2524}
    .fil3 {fill:#DDAF0B}
    .fil5 {fill:#ECCC14}
    .fil6 {fill:#FBF9F9}
   
  </style>
 </defs>
 <g id="graph" transform="matrix(0.03013348 0 0 0.03013348 487.09509481 32.96433697)"><g id="图层_x0020_1">
  <metadata id="CorelCorpID_0Corel-Layer" />
  <g id="_2105605313552">
   <path class="fil0" d="M-11901.39 15520.28l8607.78 0c321.33,0 335.77,-390.32 430.44,-769 79.39,-317.54 167.86,-650.79 247.21,-987.52 758.03,-3216.87 1649.06,-6669.06 2454.96,-9892.26l726.81 -2977.35c49.11,-196.49 232.8,-858.7 232.8,-1037.2 0,-114.31 -153.3,-211.67 -282.22,-211.67l-16192.51 0c-453.38,0 -196.62,556.39 -143.93,814.22 189.82,928.96 549.02,2140.37 740.77,3069.23 139.36,675.12 349.71,1359.33 488.01,2016.71l2238.37 9156.35c97.98,390.15 98.25,818.49 451.51,818.49z" />
   <path class="fil1" d="M36958.34 30301.66c345.5,0 491.8,-217.54 635.25,-423.08 152.48,-218.45 732.71,-811.64 176.14,-811.64l-22613.06 0c-359.35,0 -490.34,230.22 -650.1,443.51 -251.96,336.39 -698,791.21 -231.85,791.21l22683.62 0z" />
   <path class="fil2" d="M-10995.7 19812.64c32.29,-89.94 14.11,-67.59 23.06,-164.84l-8.37 175.11c-3.04,6.72 -9.74,14.62 -13.48,20.99l-161.32 164.62c-129.41,65.04 -228.5,32.5 -346,3.56 -36.99,84.78 -53.93,123.64 -164.17,141.11 32.9,-31.67 -16.7,-72.63 77.07,-156.48 146.83,-131.28 225.39,-94.61 289.8,-98.98l303.41 -85.09zm329.02 -553c140.18,37.39 160.9,130.37 282.31,211.67l0 352.93c-70.47,-16.39 -71.18,-8.2 -121.16,-55.4l-42.63 -63.16c-2.17,-11.77 -7.77,-15.46 -12.69,-22.55l-11.51 70.46c-8.45,-5.73 -19.95,-11.93 -26.49,-15.39l-79.17 -40.31c-78.13,-33.59 -151.97,-34.97 -205.22,-116.56l-42.33 -102.66c-71.67,-136.47 -30.68,-114.84 -140.68,-89.37l20.38 -51.54c51.61,-107.05 87.17,-125.3 191.85,-193.13 59.83,-38.77 19.67,-24.63 81.52,-49.41 4.28,6.44 11.8,14.59 14.49,18.11l91.33 146.31zm-1234.71 247l11.53 11.55c-6.02,123.92 -37.71,78.78 -57.58,204.8 -34.44,218.36 117.38,276.56 147.02,318.84 47.26,67.4 44.9,151.31 51.67,158.86l184.76 133.54c4.59,5.22 10.73,13.94 15.62,18.97l80.52 61.45c247.27,134.93 403.97,-55.76 547.07,-43.06l302.93 312.79c-12.21,-11.06 -11.07,-10.05 -63.6,-35.68 -272.55,-133.04 -367.96,-9.58 -436.99,36.01 -4.12,2.73 -13.21,8.49 -17.91,11.28 -5.32,3.16 -14.94,8.55 -20.86,11.73 -223.45,119.94 -425.43,-51.21 -603.05,-248.56 25.23,-168.78 83.94,-137.13 -31.4,-318.63l-267.74 -231.34c-45.11,-43.35 -5.62,3.6 -53.64,-49.75 0.97,-4.62 16.31,-91.41 17.22,-94.29 50.22,-159.59 28.19,-12.1 123.79,-187.92 -8.53,-8.07 -21.64,-28.2 -24.82,-32.59 -1.73,-2.39 -8.73,-12.94 -10.87,-15.82 -2.06,-2.76 -8.18,-12.05 -10.53,-15.03 -2.27,-2.9 -8.2,-11.35 -10.73,-14.27 -256.84,-297.74 -353.23,123.91 -967.55,-911.54 -119.09,-200.74 -11.42,-234.85 197.96,-578.19 101.06,-165.71 149.47,-226.97 269.95,-365.07 150.51,-172.5 155.47,-276.34 335.39,-280.42 399.36,-9.07 205.46,-90.03 432.87,-150.77l0 -105.68c-91.71,-24.38 -39.34,13.06 -70.55,-70.71 76.09,-50.95 105.26,-69.84 156.43,-164.18 50.9,-93.83 74.88,-207.48 -3.04,-270.8 -220.13,-178.9 -601.78,267.76 -672.31,339.4 -110.39,112.14 -237.72,171.79 -354.53,280.47 -170.79,158.92 -813.92,782.1 -917.49,989.22 -116.64,233.28 152.34,700.58 276.46,905.46 200.21,330.47 47.46,136.43 32.6,462.17 -13.72,300.74 319.85,577.44 504.15,764.49 163.28,165.72 156.81,191.84 134.06,434.17 -7.42,78.99 108.06,1014.32 101.8,1481.75 -4.73,353.24 48.18,262.05 60.95,291.94 4.41,10.31 19.2,8.27 25.53,9.73l2525.11 14.79c0,-188.53 38.23,-305.71 21.54,-442.47 -20.65,-169.21 -21.54,-291.48 -21.54,-474.75 257.3,-136.09 211.67,-128.13 211.67,-493.89l35.43 0c0,368.8 84.69,553.19 67.69,735.22 -21.38,228.83 -132.72,427.8 -138.25,675.89l2151.87 0c-0.15,-458.39 -223.64,-579.61 70.63,-776.11 0,306.28 70.56,441.84 70.56,776.11l493.26 0c0.47,-366.74 -38.42,-594.66 -36.74,-954.32 1.39,-297.03 148.66,-488.75 425.27,-562.62 -44.33,-531.94 -191.84,-788.1 -357.66,-1194.45 -132.89,-325.65 -217.28,-465.41 -614.85,-549.13 -154.61,-32.55 -182.22,-65.03 -307.62,-90.71 -235.63,532.37 -545.77,221.46 -702.11,460.11 -57.73,88.12 -18.53,-81.94 -31.1,75.08 -23.24,290.31 26.52,37.63 61.62,124.32 61.83,152.66 51.92,-138.02 0.66,51.33l73.44 47.08c2.56,0.11 10.87,1.41 12.65,2.35l6.85 110.07c105.99,-40.07 105.27,-13.72 202.56,-20.5 10.46,-0.73 19.69,-0.84 30.2,-2.03l144.97 -37.65c214.14,-88.87 82.36,-136.26 290.08,-161.51 68.57,-8.34 171.49,2.37 209.13,14.3 67.78,21.49 7.61,-0.52 71.12,32.92l174.8 148.32c19.49,31.99 4.71,-1.22 29.15,64.34 47.42,127.16 4.37,-13.49 12.16,55.42l-317.33 -67.7c-12.38,-1.03 -72.94,-4.4 -83.94,-3.53l-50.66 8.76c-225.76,45.4 67.86,61.89 -218.35,29.21 5.05,16.75 36.59,74.03 38.65,81.99 33.48,129.35 57.53,-62.04 -3.01,43.5l-63.64 53.62c-5.8,4.48 -13.97,12.02 -20.2,16.44 -73.84,52.34 -103.13,86.08 -301.01,51.78 -9.37,-1.63 -19.12,-3.07 -28.02,-5.24l-375.11 -349.94 129.56 -141.11c-219,17.71 -67.12,49.78 -163.28,-48.5l-39.26 -66.95c-0.89,-6.93 -4.44,-10.72 -9.13,-13.44 86.23,-9.98 65.12,34.77 176.39,70.55 -45.34,-115.81 -90.07,-191.62 41.62,-310.69l134.44 -76.92c15.26,-6.53 54.21,-20.47 77.62,-28.89 7.96,-2.86 71.12,-24.27 80.96,-28.05 8.34,-3.22 17.59,-6.73 25.73,-10.07l177.81 -100.47c346.81,-237.16 103.9,-26.13 209.31,-237.13 11.13,-238.02 16.6,-428.78 -36.63,-636.46 -199.57,-778.68 27.52,-813.27 -389.83,-1018.46 -370,-181.89 -712.39,-202.46 -986.98,158.4 -230.83,303.37 -70.93,985.25 39.73,1138.88 87.87,121.99 378.05,225.79 249.68,420.64 -66.18,137.94 -32.91,146.38 -59.01,305.89 112.12,48.92 127.41,90.52 209.87,211.88 31.18,45.88 29.8,34.89 37.07,58.12 -112.49,9.93 1.66,-2.81 -157.72,-48.16 -141.08,-40.14 -170.78,29.99 -248.03,-170.78 -38.44,-99.91 -29.09,-50.23 -29.09,-180.6 -204.01,-4.46 -278.04,-23.37 -414.51,-149.78 -94.96,-87.95 -64.99,-73.16 -184.58,-133.11 -87.29,-43.77 -148.72,-58.35 -221.84,-130.96 -58.34,-57.92 -86.21,-122.74 -131.32,-186.2 -57.61,-81.06 -98.25,-98.88 -150.99,-169.79 -96.56,-129.82 3.78,-299.57 66.45,-478.6 435.76,-1244.91 622.37,-987.79 796.79,-1178.79 57.59,-63.06 218.83,-339.95 239.9,-430.23l-141.11 -0.08c125.28,-236.98 289.17,-412.27 211.67,-599.65l-294.34 145.32c-93.91,-2.67 -113.2,129.82 -179.25,227.59 -80.82,119.65 -95.54,91.5 -173.8,249.52 -206.19,416.34 -154.96,247.68 -333.84,512.84 -206.31,305.81 -521.46,687.96 -676.67,981.4 -115.93,-30.89 -379.85,-280.95 -670.36,-281.15 -168.56,-0.12 -385.96,66.25 -439.28,270.57 -144.7,554.55 -188.36,-96.88 -88.53,926.44 21.2,217.23 86.31,198.21 160.6,337.41 57.04,106.87 32.3,99.26 12.52,161.17 -38.21,119.63 -70.7,58.24 -33.36,137.68z" />
   <path class="fil0" d="M4361.67 1197.5l99.83 -76.55c101.13,-76.18 31.76,9.45 111.83,-99.83 -187.43,0 -213.57,-23.7 -352.78,-35.28 120.94,-165.07 627.92,-153.66 1104.19,-271.65l483.31 -45.85c85.15,0 117.93,51.54 96.27,128.67 -17.19,61.21 10.07,17.39 -49.32,60.65 -405.95,295.63 -986.13,339.84 -1493.33,339.84zm1881.78 -223.14c313.29,-13.77 -27.27,23.8 427.01,67.21 260.87,24.92 302.98,-58.42 442.87,-91.01 -81.4,111.1 -25.36,34.37 -138.91,108.03 -75.26,48.82 -83.94,59.75 -152.72,129.51 -872.81,885.24 -1739.86,471.67 -2625.27,973.06 -70.08,39.69 -124.63,61.39 -187.54,94.68 131.18,-491.28 1162.57,-559.62 1452.66,-664.1 180.3,-64.94 539.42,-321.18 -260.39,-119.19 -348.98,88.13 -508.35,148.29 -945.33,148.29 101.58,-151.69 649.54,-336.1 841.74,-392.99 345.73,-102.32 855.32,-50.78 922.15,-324.05 143.83,-288.35 17.81,204.26 203.04,-438.5 -218.78,133.3 -1589.06,3.61 -2361.26,169.38 -196.31,42.15 -112.9,71.69 -311.22,81 -20.08,63.33 -43.19,-78.99 17.45,13.6 36.09,55.11 34.47,-22.11 17.82,44.89 -177.43,40.96 -236.96,15.1 -439.52,162.01 -421.48,305.66 -707.51,633.67 -903.48,1137.13 -282.08,724.69 -20.55,1020.42 201.33,1394.98 89.6,151.24 329.03,307.96 504.52,373.88 129.55,44.63 190.99,97.72 286.7,175.59 393.99,320.56 295.05,141.99 761.36,-116.11 886.54,-490.7 1292.56,-329.04 1425.76,-516.21 101.3,-142.36 51.13,-230.29 155.24,-221 39.74,-104.88 45.41,-63.23 80.86,-150.29 -12.55,-61.52 -15.18,-53.57 103.72,-168.07 394.03,-379.45 486.14,-247.48 539.97,-449.06l70.42 0c34.5,85.34 -75.24,70.9 132.21,69.76 78.17,-0.43 91.04,-29.6 220.5,-38.83 178.82,-12.96 369.97,-96.4 492.86,-169.95 100,-128.41 87.74,-51.39 194.79,-160.78 143.83,-146.97 189.59,-169.4 192.69,-341.56 -202.48,0.46 -551.63,48.03 -489,-93.42 -69.73,-57.99 -113.66,-48.06 -188.5,-20.54 -65.55,24.1 -95.41,63.49 -179.64,108.02 -162.4,85.85 -157.38,51.12 -219.44,168.63 -44.78,84.8 15.14,18.52 -45.42,95.69 -62.34,79.44 -261.73,103.76 -371.09,158.08 -225.05,111.8 -108.47,154.27 -410.17,154.27 109.88,-207.65 34.64,-74.32 201.9,-192.22 170.35,-120.07 29,2.87 -25.51,-231.11 263.3,-139.32 1001.65,-542.11 1270,-564.44 31.44,134.95 18.69,113.4 111.96,179.42 52.21,-36.1 30.72,-10.36 69.9,-69.26 5.49,-8.26 18.82,-38.07 24.02,-46.73l42.14 -65.18c4.42,-2.48 12.75,-10.44 13.88,-6.2l342.55 -806.81c88,3.43 -58.29,36.33 18.49,3.37l37.18 -399.53c-138.17,20.17 -469.37,498.62 -1064.33,704.95 -269.14,93.34 -408.76,46.51 -500.95,141.71z" />
   <path class="fil0" d="M14274.72 -531.11c0,121.91 652.56,1605.28 652.88,1605.74 39.04,55.41 117.11,106.23 193.79,106.23l4903.61 0c168.75,0 228.12,-213.05 281.42,-336.94l383.4 -886.6c54.31,-136.11 181.85,-337.86 181.85,-488.43 0,-134.88 10.83,-12.84 -35.28,-105.83 -290.89,-52.87 -5652.53,-18.67 -6420.56,-18.63 -87.34,0 -141.11,32.99 -141.11,124.46z" />
   <path class="fil0" d="M26657.22 -566.38c11.58,139.06 235.42,594.81 302.62,755.72 110.58,264.82 210.13,477.4 316.53,741.75 132.08,328.16 143.63,249.77 791.97,249.77l4235.83 1.86c330.03,2.24 314.07,-90.89 511.52,-564.81l472.45 -1120.09c6.2,-195.49 -155.86,-156.39 -350,-154.12l-6102.8 -0.47c-177.67,19.39 -30.28,5.14 -178.12,90.39z" />
   <path class="fil2" d="M-15887.7 22258.33c0,220.14 789.8,944.17 1058.41,1131.34 8.49,5.91 33.16,22.1 41.8,27.78 39.18,25.77 66.4,41.99 106.15,68.4 494.07,328.17 1174.6,606.85 1933.28,606.85l23741.95 0c954.97,0 1941.09,-414.25 2602.36,-1066.45 844.61,-833.03 494.65,-1048.97 273.38,-749.69 -46.01,62.22 -76.93,110.17 -119.13,163.09 -644.06,807.68 -1594.88,1406.26 -2721.33,1406.26l-23741.95 0c-1144.74,0 -2095.02,-640.82 -2762.67,-1435.48 -68.33,-81.33 -75,-82.13 -143.14,-174.21 -80.25,-108.43 -55.35,-107.67 -198.56,-118.92 -42.61,63.62 -70.55,62.04 -70.55,141.03z" />
   <path class="fil2" d="M10711.67 28043.81c987.35,0 1564.68,-194.78 2185.7,-565.91 415.37,-248.23 765.4,-610.03 1054.83,-991.25 35.74,-47.07 128.05,-161.4 149.32,-208.72 52.24,-116.18 22.51,-118.36 -38.54,-209.52 -193.71,16.14 -209.55,155.95 -312.1,287.46 -92.2,118.24 -170.19,214.19 -278.49,321.24 -655.4,647.8 -1408.36,1119.91 -2478.5,1119.91l-23777.23 0c-971.88,0 -1837.49,-521.03 -2443.22,-1119.91 -296.01,-292.67 -389.55,-564.38 -555.39,-608.7 -54.82,36.76 -105.75,46.83 -105.75,141.03 0,200.37 754.1,936.63 1073.88,1148.52 76.57,50.73 127.3,75.81 196.02,121.48 447.46,297.36 1192.17,564.37 1940.3,564.37l23389.17 0z" />
   <path class="fil3" d="M5658.32 3014.15c105.86,-90.96 151.54,-155.01 246.05,-238.71 95.25,-84.34 183.24,-109.69 291.87,-166.96 -30.67,132.05 -137.28,332.43 -196.54,473.95 -69.23,165.32 -126.64,298.57 -186.47,448.52 -113.82,285.27 -289.02,651.51 -357.75,947.39 28.18,334.66 341.73,381 352.85,882.22 -188.17,-89.68 -334.34,83.12 -565.5,36.91 -4.93,-0.98 -14.7,-4.48 -19.63,-5.46 -228.76,-45.58 -339.17,3.06 -766.02,-86.25 -628.44,-131.49 -277.39,-42.47 -726.69,-90.2 -314.65,-33.42 -535.27,-249.64 -638.55,-67.01l839.1 642.33c154.86,103.6 284.04,196.3 445.59,295.24 177.21,108.53 318.18,189.37 479.06,297.08 -45.67,95.49 -102.77,250.5 -105.84,388.05 164.93,-14.03 292,-74.31 451.48,-113.08 32.08,-7.8 76.3,-15.63 116.09,-27.2l189.76 -49.88c22.15,0.16 110.93,13.64 159.76,13.64 2.39,-4.35 5.1,-17.47 5.86,-13.7 0.78,3.88 5.81,-11.91 7,-13.62l19.05 -27.42c2.48,-3.02 9.55,-11.01 12.44,-14.27 316.38,-356.32 152.37,-463.08 520.37,-707.1 11,132.42 41.35,146 37.84,317.54 -3.39,165.74 -48.16,195.06 -41.61,321.15 8.13,156.51 56.32,140.25 211.1,141.46 242.84,1.9 558.46,34.43 648.66,-246.04 9.47,-29.45 10.68,-71.02 10.43,-76.2 -7.33,-154.79 -110.82,-179.3 -140.39,-196.08 -6.91,-3.92 -16.58,-7.87 -23.63,-11.65 -351.76,-188.59 -445.57,-158.57 -491.28,-356.02 157.58,-13.09 42.67,-13.78 162.36,-49.44l365.58 -93.05c180.31,-48 246.79,-6.55 602.7,-105.44l155.64 -40.49c33.55,-3.47 46.5,1.9 54.93,2.87l35.3 6.67c611.68,110.26 172.78,31.94 775.71,31.94 2.5,4.53 4.2,8.59 4.98,14.71 1.18,9.29 11.97,22.23 14.61,24.02l262.91 102.59 409.07 -366.7c5.33,-4.93 12.82,-12.21 18.16,-17.12 113.34,-104.19 207.71,-155.89 242.64,-286.26 -158.76,-3.54 -374.89,-74.48 -533.6,-101.3 -377.16,-63.74 -1385.43,-180.92 -1723.91,-180.92l-250.31 314.15c-182.22,176.77 -35.39,103.89 -314.55,250.44 -126.95,-265.16 -55.95,-714.65 -37.86,-953.01 25.12,-330.9 -78.3,-746.45 37.93,-987.55 -62.9,-270.8 -219.19,-469.95 -282.15,-740.96l282.22 -109.98c-129.46,9.23 -142.33,38.4 -220.5,38.83 -207.45,1.14 -97.71,15.58 -132.21,-69.76l-70.42 0c-53.83,201.58 -145.94,69.61 -539.97,449.06 -118.9,114.5 -116.27,106.55 -103.72,168.07z" />
   <path class="fil0" d="M-5763.06 25169.74c3648.78,0 7271,-18.63 10900.84,-18.63 862.25,0 6208.99,35.55 6794.31,-49.56 316.51,-46.02 741.72,-175.39 1009.62,-330.96 296,-171.88 556.58,-350.37 777.19,-598.63 98.63,-110.99 199.69,-260.66 281.25,-389.07 171.6,-270.19 164.03,-335.19 -7.65,-395.67 -179.03,119.88 -134.68,338.83 -588.85,751.71 -54.07,49.16 -74.2,74.02 -125.18,121.76 -92.92,87.02 -198.54,157.64 -306.56,222.6 -480.38,288.86 -885.37,421.34 -1660.52,420.88l-24706.97 22.45c-263.76,0.14 -630.64,-109.4 -839.29,-193.7 -619.73,-250.4 -1093.2,-612.68 -1403.88,-1207.15 -192.23,-367.84 -525.83,-37.64 270.03,753.5 240.39,238.97 452.63,389.36 762.21,543.07 694.31,344.74 1191.68,356.41 2211.23,356.41l6632.22 -9.01z" />
   <path class="fil0" d="M10958.61 29031.66c961.89,0 1492.15,-171.59 2102.05,-543.79 269.05,-164.19 1504.2,-1311.61 861.28,-1325.93 -41.45,177.95 -301.47,518.02 -433.54,660.85 -573.37,620.06 -1317.16,963.13 -2282.83,961.94l-12947.51 7.62c-1157.44,2.24 -2434.93,-33.86 -3562.56,-8.72 -1632.04,36.38 -3526.16,8.72 -5185.78,8.72l-2363.61 0c-1126.65,0 -1800.91,-329.51 -2461.1,-1039.03 -396.34,-425.96 -230.31,-584.54 -537.51,-591.38 -27.93,119.86 -50.1,118.42 11.15,232.77 561.89,1049.22 1709.72,1636.95 2987.46,1636.95l23812.5 0z" />
   <path class="fil2" d="M23517.58 23457.7c159.84,107.04 135.77,87.93 402.1,-91.64l768.89 -501.12c135.71,-91.03 252.6,-155.71 388.25,-246.75l2729.62 -1750.66c148.75,-90.68 261.85,-167.84 409.85,-260.42 266.98,-167.01 507.02,-324.64 776.05,-493.96 978.02,-615.54 797.52,-623.22 1759.19,-44.14 273.74,164.83 542.68,316.44 816.22,489.06 266.4,168.1 511.76,318.27 784.14,485.85l2398.33 1482.24c274.74,180.5 533.09,333.05 796.71,508.56 106.34,70.8 738.78,493.53 811.69,493.53 108.53,0 105.75,-48.95 105.75,-141.03 0,-123.59 -564.37,-424.8 -755.37,-549.81 -1535.96,-1005.26 -3335.73,-2089.2 -4904.33,-3033.17 -1119.94,-673.98 -852.09,-549.62 -2169.81,233.69 -1105.38,657.09 -2464.81,1592.18 -3593.45,2297.94l-1391.83 901.23c-102.59,70.3 -119.4,69.39 -132,220.6z" />
   <path class="fil4" d="M4555.78 6889.72l-75.79 5.23c94.98,32.24 -5.54,-95.86 63.12,57.89 -140.64,7.29 -358.96,119.53 -463.67,176.39l388.06 730.72c190.12,-10.47 1578.21,-675.68 3014.95,-186.99 165.58,56.32 286.17,98.04 440.04,159.49 69.75,27.86 128.32,67.22 187.28,91.17l134.91 37.9c1.91,-5.52 12.98,4.07 15.96,9.49 -16.4,-51.15 13.84,-93.74 52.31,-139.54 -1.01,-186.44 224.17,-356.09 276.99,-566.19l-197.82 -115.31c-552.34,-273.51 -1035.71,-397.24 -1672.83,-478.83 -401.76,-51.46 -847.02,6.09 -1192.15,31.81 -374.63,27.92 -860.06,222.09 -971.36,186.77z" />
   <path class="fil0" d="M28400.39 21814.28c151.04,-98.86 257.38,-173.54 407.11,-263.17 443.72,-265.63 902.9,-701.94 1272.9,-563.78 124.61,46.53 298.28,176.46 420.44,249.61 1623.92,972.43 3896.51,2441.55 5526.09,3540.3 66.95,45.15 366.96,297.04 366.96,56.37 0,-162.98 -197.18,-237.36 -359.81,-345.75l-5273.25 -3369.8c-287.48,-171.04 -600.66,-411.95 -893.33,-411.95 -318.98,0 -2075.56,1204.96 -2462.67,1453.16l-3759.7 2449.19c-108.64,69.45 -94.78,48.88 -127.63,189.87 63.67,42.64 62.02,70.56 141.11,70.56l4741.78 -3054.61z" />
   <path class="fil5" d="M2948.4 3842.17c28.09,41.65 295.29,239.28 499.95,455.87 4.99,5.27 12.35,12.68 17.39,17.89 295.56,305.74 170.65,135.23 381.22,218.5 90.4,35.75 45.86,52.68 150.6,96.34 91.67,38.22 145.94,23.96 258.27,23.96l0 70.55c-219.29,0 -1065.36,219.31 -1270,317.5l106.11 105.77c103.28,-182.63 323.9,33.59 638.55,67.01 449.3,47.73 98.25,-41.29 726.69,90.2 426.85,89.31 537.26,40.67 766.02,86.25 4.93,0.98 14.7,4.48 19.63,5.46 231.16,46.21 377.33,-126.59 565.5,-36.91 -11.12,-501.22 -324.67,-547.56 -352.85,-882.22 -64.5,31.87 -44.41,27.02 -141.31,35.27 -186.33,-376.23 0.94,-205.02 75.57,-414.56 35.45,-99.54 -3.1,-48.71 -3.44,-187.28 -0.57,-236.39 78.27,-103.24 102.72,-352.14 39.31,-400.02 26.68,-142.39 88.44,-395.19 -104.11,-9.29 -53.94,78.64 -155.24,221 -133.2,187.17 -539.22,25.51 -1425.76,516.21 -466.31,258.1 -367.37,436.67 -761.36,116.11 -95.71,-77.87 -157.15,-130.96 -286.7,-175.59z" />
   <path class="fil5" d="M4749.85 6771.25c-93.98,49.84 -101,41.46 -194.07,118.47 111.3,35.32 596.73,-158.85 971.36,-186.77 345.13,-25.72 790.39,-83.27 1192.15,-31.81 637.12,81.59 1120.49,205.32 1672.83,478.83l197.82 115.31c-52.82,210.1 -278,379.75 -276.99,566.19 121.48,-75.6 9.07,13.51 78.7,-58.16 54.99,-56.58 36.52,-44.01 63.98,-90.99 190.14,115.99 395.66,212.43 703.81,211.67 -75.94,163.16 -227.45,245.86 -381.76,330.08 89.76,287.35 233.71,204.41 352.78,423.33 -166.28,0 -384.24,-37.86 -500.18,-29.87 74.48,78.85 -47.38,20.24 124.7,76.24 181.59,59.09 411.28,-14.39 545.58,-17.38l0 -70.55c-99.33,-26.53 -174.34,-87.15 -248.25,-139.82 -119.52,-85.15 -107.49,-85.2 -175.09,-212.96 184.72,-123.7 315.62,-219.77 423.34,-423.34 -440.81,0 -527.17,-61.85 -811.39,-211.66 35.02,-66.18 55.52,-115.56 98.94,-183.28 54.33,-84.72 86.15,-105.25 112.72,-204.78 -158.69,-83.97 -409.5,-219.52 -569.93,-276.74 -153.45,-54.73 -194.34,-22.01 -244.99,-178.34 -18.92,-58.41 -60.75,-316.24 -67.02,-391.58 421.91,-223.25 780.85,-590.79 1058.61,-776.18l-262.91 -102.59c-2.64,-1.79 -13.43,-14.73 -14.61,-24.02 -0.78,-6.12 -2.48,-10.18 -4.98,-14.71 -602.93,0 -164.03,78.32 -775.71,-31.94l-35.3 -6.67c-8.43,-0.97 -21.38,-6.34 -54.93,-2.87l-155.64 40.49c-355.91,98.89 -422.39,57.44 -602.7,105.44l-365.58 93.05c-119.69,35.66 -4.78,36.35 -162.36,49.44 45.71,197.45 139.52,167.43 491.28,356.02 7.05,3.78 16.72,7.73 23.63,11.65 29.57,16.78 133.06,41.29 140.39,196.08 0.25,5.18 -0.96,46.75 -10.43,76.2 -90.2,280.47 -405.82,247.94 -648.66,246.04 -154.78,-1.21 -202.97,15.05 -211.1,-141.46 -6.55,-126.09 38.22,-155.41 41.61,-321.15 3.51,-171.54 -26.84,-185.12 -37.84,-317.54 -368,244.02 -203.99,350.78 -520.37,707.1 -2.89,3.26 -9.96,11.25 -12.44,14.27l-19.05 27.42c-1.19,1.71 -6.22,17.5 -7,13.62 -0.76,-3.77 -3.47,9.35 -5.86,13.7 -48.83,0 -137.61,-13.48 -159.76,-13.64l-189.76 49.88c-39.79,11.57 -84.01,19.4 -116.09,27.2 -159.48,38.77 -286.55,99.05 -451.48,113.08z" />
   <path class="fil2" d="M16603.13 27444.16c0,94.2 50.93,104.27 105.76,141.04 79.82,-21.34 141.03,-33.98 141.03,-141.04l0 -8431.38c0,-175.49 -246.79,-156.33 -246.79,0l0 8431.38z" />
   <path class="fil2" d="M17837.86 27373.61c0,156.63 48.63,181.81 176.23,211.59 42.61,-63.63 70.56,-62.05 70.56,-141.04l0 -8431.38c0,-140.01 -31.75,-5.44 -44.49,-120.78 -1.13,-10.22 -6.08,-13.34 -10.28,-26.36l-156.75 41.38c-18.43,79.11 -35.27,81.06 -35.27,176.31l0 6667.5 0 1622.78z" />
   <path class="fil0" d="M19531.11 27373.61c0,95.28 16.85,97.27 35.28,176.39l176.39 0c18.43,-79.12 35.28,-81.11 35.28,-176.39l0 -8219.72c0,-121.62 -26.1,-136.6 -35.28,-246.95l-176.39 0c-18.43,79.12 -35.28,81.11 -35.28,176.39l0 8290.28z" />
   <path class="fil0" d="M20782.48 27408.88c0,170.1 117.85,166.41 248.93,89.19l-6.93 -8508.11c-46.35,-170.14 -242,-121.4 -242,58.09l0 8360.83z" />
   <path class="fil5" d="M4255.9 8711.94l35.49 -141.66c-125.06,0 -40.07,9.69 -71.01,-35.84 -126.26,38.14 -362.4,77.69 -535.28,77.69 28.8,-121.08 33.87,-70.2 186.47,-214.86 203.26,-192.68 160.91,-117.06 174.34,-251.79 -69.23,-14.97 -56.91,-11.01 -107.07,-32.93 -7.08,-3.09 -16.52,-7.86 -23.62,-11.34 -7.02,-3.43 -15.87,-8.61 -22.72,-12.34 -122.96,-66.96 -166.51,-114.91 -242.68,-230.16 407.95,0 400.52,-144.63 647.58,-176.39 45.9,98.95 90.38,179.96 134.82,288.69 75.52,-36.02 209.67,-78.88 290.26,-101.18 196.66,-54.44 170.87,-12.19 271.73,0.87 175.63,22.73 119.13,-17.69 265.38,83.74 96.7,67.06 136.26,104.93 195.41,192.72 112.94,-75.11 25.07,-57.88 176.67,-70.49 36.02,154.62 175.93,604.28 323.8,558.17l311.2 -99.56c23.71,-67.02 21.08,49.86 -35.28,-105.83l140.08 72.48 -52.04 -234.79c-38.5,-330.95 -329.74,-845.18 18.07,-613.87l0 -70.21c256.5,0 814.91,29.73 1044.74,119 139.14,54.04 119.13,103.16 196.57,226.57 108.4,172.71 200.73,332.11 315.71,495.69 138.97,197.7 76.75,222.4 200.66,404.3 82.55,121.19 62.05,47.49 41.21,93.26l176.39 107.29c-2.71,-121.74 -45.44,-350.8 -70.56,-458.61l164.7 0c-110.52,-159.13 -26.11,4.38 -128.73,-107.72 -37.05,-40.48 -54.33,-95.46 -64.56,-148.08 -1.55,-7.92 -20.03,-178.54 -19.89,-180.75 6.99,-112.32 -6.97,-20.06 66.9,-163 -2.98,-5.42 -14.05,-15.01 -15.96,-9.49l-134.91 -37.9c-58.96,-23.95 -117.53,-63.31 -187.28,-91.17 -153.87,-61.45 -274.46,-103.17 -440.04,-159.49 -1436.74,-488.69 -2824.83,176.52 -3014.95,186.99l-388.06 -730.72c104.71,-56.86 323.03,-169.1 463.67,-176.39 -68.66,-153.75 31.86,-25.65 -63.12,-57.89 -204.04,51.93 -319.17,113.55 -471.1,193.94 46.63,200.16 194.43,322.03 211.66,529.17 -244.81,129.54 -366.44,176.39 -740.83,176.39 91.75,137.01 276.69,345.67 458.61,388.05 -42.87,160.58 -353.39,359.96 -458.61,388.06l0 70.55c159.6,0 213.97,46.71 377.48,27.52 94.35,-11.08 290.34,-53.78 398.63,-62.79l0.07 106.1z" />
   <path class="fil4" d="M6243.45 974.36l-200.84 -13.75 -22.89 -56.81c-66.83,273.27 -576.42,221.73 -922.15,324.05 -192.2,56.89 -740.16,241.3 -841.74,392.99 436.98,0 596.35,-60.16 945.33,-148.29 799.81,-201.99 440.69,54.25 260.39,119.19 -290.09,104.48 -1321.48,172.82 -1452.66,664.1 62.91,-33.29 117.46,-54.99 187.54,-94.68 885.41,-501.39 1752.46,-87.82 2625.27,-973.06 68.78,-69.76 77.46,-80.69 152.72,-129.51 113.55,-73.66 57.51,3.07 138.91,-108.03 -139.89,32.59 -182,115.93 -442.87,91.01 -454.28,-43.41 -113.72,-80.98 -427.01,-67.21z" />
   <path class="fil3" d="M6337.5 7653.27c306.66,205.54 578.62,420.77 889.14,627.56 160.19,106.68 296.89,216.44 450.99,325.12 151.69,106.98 292.48,224.92 458.76,315.93 20.84,-45.77 41.34,27.93 -41.21,-93.26 -123.91,-181.9 -61.69,-206.6 -200.66,-404.3 -114.98,-163.58 -207.31,-322.98 -315.71,-495.69 -77.44,-123.41 -57.43,-172.53 -196.57,-226.57 -229.83,-89.27 -788.24,-119 -1044.74,-119l0 70.21z" />
   <path class="fil3" d="M4432.22 7971.01l-211.84 563.43c30.94,45.53 -54.05,35.84 71.01,35.84l-35.49 141.66c0.1,139.22 -10.99,142.87 -35.21,246.54 205.97,-138.58 404.23,-257.73 620.62,-402.2 216.17,-144.31 407.67,-271.03 613.69,-409.12 -59.15,-87.79 -98.71,-125.66 -195.41,-192.72 -146.25,-101.43 -89.75,-61.01 -265.38,-83.74 -100.86,-13.06 -75.07,-55.31 -271.73,-0.87 -80.59,22.3 -214.74,65.16 -290.26,101.18z" />
   <path class="fil5" d="M7289.86 4654.86l-564.79 -1375.97c-116.23,241.1 -12.81,656.65 -37.93,987.55 -18.09,238.36 -89.09,687.85 37.86,953.01 279.16,-146.55 132.33,-73.67 314.55,-250.44l250.31 -314.15z" />
   <path class="fil0" d="M8312.95 7831.47c-38.47,45.8 -68.71,88.39 -52.31,139.54 -73.87,142.94 -59.91,50.68 -66.9,163 -0.14,2.21 18.34,172.83 19.89,180.75 10.23,52.62 27.51,107.6 64.56,148.08 102.62,112.1 18.21,-51.41 128.73,107.72 59.52,43.58 104.7,60.05 223.36,46.97 115.94,-7.99 333.9,29.87 500.18,29.87 -119.07,-218.92 -263.02,-135.98 -352.78,-423.33 154.31,-84.22 305.82,-166.92 381.76,-330.08 -308.15,0.76 -513.67,-95.68 -703.81,-211.67 -27.46,46.98 -8.99,34.41 -63.98,90.99 -69.63,71.67 42.78,-17.44 -78.7,58.16z" />
   <path class="fil6" d="M5658.32 3014.15c-35.45,87.06 -41.12,45.41 -80.86,150.29 -61.76,252.8 -49.13,-4.83 -88.44,395.19 -24.45,248.9 -103.29,115.75 -102.72,352.14 0.34,138.57 38.89,87.74 3.44,187.28 -74.63,209.54 -261.9,38.33 -75.57,414.56 96.9,-8.25 76.81,-3.4 141.31,-35.27 68.73,-295.88 243.93,-662.12 357.75,-947.39 59.83,-149.95 117.24,-283.2 186.47,-448.52 59.26,-141.52 165.87,-341.9 196.54,-473.95 -108.63,57.27 -196.62,82.62 -291.87,166.96 -94.51,83.7 -140.19,147.75 -246.05,238.71z" />
   <path class="fil4" d="M4361.67 1197.5c507.2,0 1087.38,-44.21 1493.33,-339.84 59.39,-43.26 32.13,0.56 49.32,-60.65 21.66,-77.13 -11.12,-128.67 -96.27,-128.67l-483.31 45.85c-476.27,117.99 -983.25,106.58 -1104.19,271.65 139.21,11.58 165.35,35.28 352.78,35.28 -80.07,109.28 -10.7,23.65 -111.83,99.83l-99.83 76.55z" />
   <path class="fil0" d="M-7889.93 19224.52l5.33 -168.83c-105.41,211 137.5,-0.03 -209.31,237.13l-177.81 100.47c-8.14,3.34 -17.39,6.85 -25.73,10.07 -9.84,3.78 -73,25.19 -80.96,28.05 -23.41,8.42 -62.36,22.36 -77.62,28.89l-134.44 76.92c-131.69,119.07 -86.96,194.88 -41.62,310.69 -111.27,-35.78 -90.16,-80.53 -176.39,-70.55 4.69,2.72 8.24,6.51 9.13,13.44l39.26 66.95c96.16,98.28 -55.72,66.21 163.28,48.5l-129.56 141.11 375.11 349.94c8.9,2.17 18.65,3.61 28.02,5.24 197.88,34.3 227.17,0.56 301.01,-51.78 6.23,-4.42 14.4,-11.96 20.2,-16.44l63.64 -53.62c60.54,-105.54 36.49,85.85 3.01,-43.5 -2.06,-7.96 -33.6,-65.24 -38.65,-81.99 286.21,32.68 -7.41,16.19 218.35,-29.21l50.66 -8.76c11,-0.87 71.56,2.5 83.94,3.53l317.33 67.7c-7.79,-68.91 35.26,71.74 -12.16,-55.42 -24.44,-65.56 -9.66,-32.35 -29.15,-64.34l-174.8 -148.32c-63.51,-33.44 -3.34,-11.43 -71.12,-32.92 -37.64,-11.93 -140.56,-22.64 -209.13,-14.3 -207.72,25.25 -75.94,72.64 -290.08,161.51l-144.97 37.65c-10.51,1.19 -19.74,1.3 -30.2,2.03 -97.29,6.78 -96.57,-19.57 -202.56,20.5l-6.85 -110.07c-1.78,-0.94 -10.09,-2.24 -12.65,-2.35l-73.44 -47.08c51.26,-189.35 61.17,101.33 -0.66,-51.33 -35.1,-86.69 -84.86,165.99 -61.62,-124.32 12.57,-157.02 -26.63,13.04 31.1,-75.08 156.34,-238.65 466.48,72.26 702.11,-460.11z" />
   <path class="fil4" d="M7116.48 1662.24l144.09 -144.2c-93.27,-66.02 -80.52,-44.47 -111.96,-179.42 -268.35,22.33 -1006.7,425.12 -1270,564.44 54.51,233.98 195.86,111.04 25.51,231.11 -167.26,117.9 -92.02,-15.43 -201.9,192.22 301.7,0 185.12,-42.47 410.17,-154.27 109.36,-54.32 308.75,-78.64 371.09,-158.08 60.56,-77.17 0.64,-10.89 45.42,-95.69 62.06,-117.51 57.04,-82.78 219.44,-168.63 84.23,-44.53 114.09,-83.92 179.64,-108.02 74.84,-27.52 118.77,-37.45 188.5,20.54z" />
   <path class="fil0" d="M4220.38 8534.44l211.84 -563.43c-44.44,-108.73 -88.92,-189.74 -134.82,-288.69 -247.06,31.76 -239.63,176.39 -647.58,176.39 76.17,115.25 119.72,163.2 242.68,230.16 6.85,3.73 15.7,8.91 22.72,12.34 7.1,3.48 16.54,8.25 23.62,11.34 50.16,21.92 37.84,17.96 107.07,32.93 -13.43,134.73 28.92,59.11 -174.34,251.79 -152.6,144.66 -157.67,93.78 -186.47,214.86 172.88,0 409.02,-39.55 535.28,-77.69z" />
   <path class="fil0" d="M-11972.03 19577.23c-95.6,175.82 -73.57,28.33 -123.79,187.92 -0.91,2.88 -16.25,89.67 -17.22,94.29 48.02,53.35 8.53,6.4 53.64,49.75l267.74 231.34c115.34,181.5 56.63,149.85 31.4,318.63 177.62,197.35 379.6,368.5 603.05,248.56 5.92,-3.18 15.54,-8.57 20.86,-11.73 4.7,-2.79 13.79,-8.55 17.91,-11.28 69.03,-45.59 164.44,-169.05 436.99,-36.01 52.53,25.63 51.39,24.62 63.6,35.68l-302.93 -312.79c-143.1,-12.7 -299.8,177.99 -547.07,43.06l-80.52 -61.45c-4.89,-5.03 -11.03,-13.75 -15.62,-18.97l-184.76 -133.54c-6.77,-7.55 -4.41,-91.46 -51.67,-158.86 -29.64,-42.28 -181.46,-100.48 -147.02,-318.84 19.87,-126.02 51.56,-80.88 57.58,-204.8l-11.53 -11.55 -70.64 70.59z" />
   <path class="fil0" d="M-10560.85 19683.13c0.02,-168.28 -51.44,-310.03 -105.83,-423.49l-91.33 -146.31c-2.69,-3.52 -10.21,-11.67 -14.49,-18.11 -61.85,24.78 -21.69,10.64 -81.52,49.41 -104.68,67.83 -140.24,86.08 -191.85,193.13l-20.38 51.54c110,-25.47 69.01,-47.1 140.68,89.37l42.33 102.66c53.25,81.59 127.09,82.97 205.22,116.56l79.17 40.31c6.54,3.46 18.04,9.66 26.49,15.39l11.51 -70.46z" />
   <path class="fil0" d="M-9255.54 19295.04c0,130.37 -9.35,80.69 29.09,180.6 77.25,200.77 106.95,130.64 248.03,170.78 159.38,45.35 45.23,58.09 157.72,48.16 -7.27,-23.23 -5.89,-12.24 -37.07,-58.12 -82.46,-121.36 -97.75,-162.96 -209.87,-211.88 26.1,-159.51 -7.17,-167.95 59.01,-305.89l-68.76 -40.67 -178.15 217.02z" />
   <path class="fil5" d="M7260.57 1518.04l-144.09 144.2c-62.63,141.45 286.52,93.88 489,93.42 -3.1,172.16 -48.86,194.59 -192.69,341.56 -107.05,109.39 -94.79,32.37 -194.79,160.78 171.54,-16.96 240.42,-99.35 325.56,-206.9l204.77 -359.71c-170.22,13.3 -351.78,79.91 -529.16,0 52.31,-195.91 159.65,-95.98 177.46,-354.52l-42.14 65.18c-5.2,8.66 -18.53,38.47 -24.02,46.73 -39.18,58.9 -17.69,33.16 -69.9,69.26z" />
   <path class="fil0" d="M-10995.7 19812.64l-303.41 85.09c-64.41,4.37 -142.97,-32.3 -289.8,98.98 -93.77,83.85 -44.17,124.81 -77.07,156.48 110.24,-17.47 127.18,-56.33 164.17,-141.11 117.5,28.94 216.59,61.48 346,-3.56l161.32 -164.62c3.74,-6.37 10.44,-14.27 13.48,-20.99l8.37 -175.11c-8.95,97.25 9.23,74.9 -23.06,164.84z" />
   <path class="fil6" d="M-10560.85 19683.13c4.92,7.09 10.52,10.78 12.69,22.55l42.63 63.16c49.98,47.2 50.69,39.01 121.16,55.4l0 -352.93c-121.41,-81.3 -142.13,-174.28 -282.31,-211.67 54.39,113.46 105.85,255.21 105.83,423.49z" />
  </g>
 </g>
</g><g id="text"><text x="140.00" y="248.06" font-family="DengXian, Microsoft YaHei, Noto Sans SC, Noto Sans CJK SC, SimHei, Arial, sans-serif" font-size="19.16" font-weight="800" fill="#da4440" textLength="176.00" lengthAdjust="spacing">中国少年先锋队队欧</text>
  <text x="1348.00" y="245.50" font-family="Microsoft YaHei, Noto Sans SC, Noto Sans CJK SC, SimHei, Arial, sans-serif" font-size="19.06" font-weight="800" fill="#da4846" textLength="175.00" lengthAdjust="spacing">中国少年先锋队章程</text>
  <text x="1310.00" y="279.76" font-family="Microsoft YaHei, Noto Sans SC, Noto Sans CJK SC, SimHei, Arial, sans-serif" font-size="7.66" font-weight="800" fill="#a5a4a3" textLength="125.00" lengthAdjust="spacing">一、我们的队名：中国少年先物队。</text>
  <text x="1326.00" y="290.12" font-family="Microsoft YaHei, Noto Sans SC, Noto Sans CJK SC, SimHei, Arial, sans-serif" font-size="8.56" font-weight="800" fill="#a6a5a4" textLength="131.00" lengthAdjust="spacing">费们的的有和导名：中国民产党，</text>
  <text x="1313.00" y="289.02" font-family="Microsoft YaHei, Noto Sans SC, Noto Sans CJK SC, SimHei, Arial, sans-serif" font-size="8.58" font-weight="800" fill="#b4b5b5" textLength="18.00" lengthAdjust="spacing">二、</text>
  <text x="147.00" y="300.94" font-family="Microsoft YaHei, Noto Sans SC, Noto Sans CJK SC, SimHei, Arial, sans-serif" font-size="13.26" font-weight="800" fill="#757474" textLength="160.00" lengthAdjust="spacing">我们是共产主义接班人</text>
  <text x="1310.00" y="301.12" font-family="Microsoft YaHei, Noto Sans SC, Noto Sans CJK SC, SimHei, Arial, sans-serif" font-size="8.65" font-weight="800" fill="#aaaaaa" textLength="146.00" lengthAdjust="spacing">三、良们的制图：五角量加火能的红8</text>
  <text x="1309.00" y="312.12" font-family="Microsoft YaHei, Noto Sans SC, Noto Sans CJK SC, SimHei, Arial, sans-serif" font-size="8.49" font-weight="800" fill="#adacac" textLength="260.00" lengthAdjust="spacing">四、们的解名：辽巾，红市代积誉红信前一角，是少先从员的移忘性</text>
  <text x="169.00" y="318.76" font-family="Microsoft YaHei, Noto Sans SC, Noto Sans CJK SC, SimHei, Arial, sans-serif" font-size="9.08" font-weight="800" fill="#a3a2a2" textLength="114.00" lengthAdjust="spacing">（1182/4）周都碍阅募明会</text>
  <text x="1309.00" y="333.12" font-family="Microsoft YaHei, Noto Sans SC, Noto Sans CJK SC, SimHei, Arial, sans-serif" font-size="7.57" font-weight="800" fill="#a8a8a7" textLength="255.00" lengthAdjust="spacing">五、良们的队儿：石平互照并使，高每头上，它农币人民的前始高于一切。</text>
  <text x="120.00" y="334.48" font-family="Microsoft YaHei, Noto Sans SC, Noto Sans CJK SC, SimHei, Arial, sans-serif" font-size="8.82" font-weight="800" fill="#898786" textLength="45.00" lengthAdjust="spacing">精神饱消地</text>
  <text x="116.00" y="353.86" font-family="Microsoft YaHei, Noto Sans SC, Noto Sans CJK SC, SimHei, Arial, sans-serif" font-size="14.44" font-weight="800" fill="#b9b9b9" textLength="221.00" lengthAdjust="spacing">1. 15|1553-21765 -|55]55|3i1</text>
  <text x="1309.00" y="365.12" font-family="Microsoft YaHei, Noto Sans SC, Noto Sans CJK SC, SimHei, Arial, sans-serif" font-size="8.08" font-weight="800" fill="#acabac" textLength="165.00" lengthAdjust="spacing">七、段们的以数：（良们题户主文插的人）。</text>
  <text x="120.00" y="363.38" font-family="Microsoft YaHei, Noto Sans SC, Noto Sans CJK SC, SimHei, Arial, sans-serif" font-size="7.02" font-weight="800" fill="#a09f9e" textLength="12.00" lengthAdjust="spacing">R</text>
  <text x="236.00" y="365.84" font-family="Microsoft YaHei, Noto Sans SC, Noto Sans CJK SC, SimHei, Arial, sans-serif" font-size="9.36" font-weight="800" fill="#bbbbbd" textLength="16.00" lengthAdjust="spacing">A.</text>
  <text x="1308.00" y="375.12" font-family="Microsoft YaHei, Noto Sans SC, Noto Sans CJK SC, SimHei, Arial, sans-serif" font-size="8.11" font-weight="800" fill="#b3b2b2" textLength="262.00" lengthAdjust="spacing">八、良们的款点：凡至6用多到14商步的少年儿营，患定参加少先队，患</text>
  <text x="241.00" y="370.10" font-family="Microsoft YaHei, Noto Sans SC, Noto Sans CJK SC, SimHei, Arial, sans-serif" font-size="6.00" font-weight="800" fill="#b9babb" textLength="7.00" lengthAdjust="spacing">人</text>
  <text x="1300.00" y="387.12" font-family="Microsoft YaHei, Noto Sans SC, Noto Sans CJK SC, SimHei, Arial, sans-serif" font-size="7.45" font-weight="800" fill="#abaaab" textLength="251.00" lengthAdjust="spacing">意通中队瘤，向昕色容收少鱼总脂执陷出中确，陪担准，就成为少免队员，</text>
  <text x="119.00" y="398.94" font-family="Microsoft YaHei, Noto Sans SC, Noto Sans CJK SC, SimHei, Arial, sans-serif" font-size="10.61" font-weight="800" fill="#b9b9ba" textLength="215.00" lengthAdjust="spacing">2.i13 3 57. 6|2 39 0.5|0 6]43|2 32|1 -1</text>
  <text x="1310.00" y="396.66" font-family="Microsoft YaHei, Noto Sans SC, Noto Sans CJK SC, SimHei, Arial, sans-serif" font-size="8.41" font-weight="800" fill="#aeacad" textLength="163.00" lengthAdjust="spacing">九、良们的的段：段试扣队费由地都严至，</text>
  <text x="1311.00" y="408.12" font-family="Microsoft YaHei, Noto Sans SC, Noto Sans CJK SC, SimHei, Arial, sans-serif" font-size="8.05" font-weight="800" fill="#a7a6a6" textLength="156.00" lengthAdjust="spacing">十、侵们的作风：随交、款、活湿、图信。</text>
  <text x="1312.00" y="417.66" font-family="Microsoft YaHei, Noto Sans SC, Noto Sans CJK SC, SimHei, Arial, sans-serif" font-size="8.62" font-weight="800" fill="#adacac" textLength="88.00" lengthAdjust="spacing">十一、段们的报自胞：</text>
  <text x="1310.00" y="429.12" font-family="Microsoft YaHei, Noto Sans SC, Noto Sans CJK SC, SimHei, Arial, sans-serif" font-size="7.57" font-weight="800" fill="#a6a5a6" textLength="217.00" lengthAdjust="spacing">1.望换认的编镇湿论，积提参细随流动，开展各种有盘的活动。</text>
  <text x="116.00" y="448.32" font-family="Microsoft YaHei, Noto Sans SC, Noto Sans CJK SC, SimHei, Arial, sans-serif" font-size="12.20" font-weight="800" fill="#bdbebe" textLength="221.00" lengthAdjust="spacing">23517s-6|3-2 1i|5sli]i 0]3:36]60|</text>
  <text x="1309.00" y="440.94" font-family="Microsoft YaHei, Noto Sans SC, Noto Sans CJK SC, SimHei, Arial, sans-serif" font-size="8.64" font-weight="800" fill="#a8a7a7" textLength="142.00" lengthAdjust="spacing">2.参加队全，图时文的费，能认语。</text>
  <text x="1310.00" y="451.12" font-family="Microsoft YaHei, Noto Sans SC, Noto Sans CJK SC, SimHei, Arial, sans-serif" font-size="8.92" font-weight="800" fill="#a8a6a7" textLength="252.00" lengthAdjust="spacing">3.名个以民都硬争“仁巾史盘”，人人都蛋守纪律，通守留案法</text>
  <text x="1300.00" y="460.66" font-family="Microsoft YaHei, Noto Sans SC, Noto Sans CJK SC, SimHei, Arial, sans-serif" font-size="8.86" font-weight="800" fill="#a4a3a4" textLength="244.00" lengthAdjust="spacing">律，实护企的，每队，相始用护，明品他人，为用人的所部，</text>
  <text x="758.00" y="487.08" font-family="DengXian, Microsoft YaHei, Noto Sans SC, Noto Sans CJK SC, SimHei, Arial, sans-serif" font-size="34.32" font-weight="800" fill="#d1aa7e" textLength="172.00" lengthAdjust="spacing">入队誓词</text>
  <text x="277.00" y="466.66" font-family="Microsoft YaHei, Noto Sans SC, Noto Sans CJK SC, SimHei, Arial, sans-serif" font-size="10.14" font-weight="800" fill="#b2b2b0" textLength="44.00" lengthAdjust="spacing">不9面准</text>
  <text x="1309.00" y="473.12" font-family="Microsoft YaHei, Noto Sans SC, Noto Sans CJK SC, SimHei, Arial, sans-serif" font-size="7.94" font-weight="800" fill="#a6a6a5" textLength="244.00" lengthAdjust="spacing">4.所力多习，努力始账身体，现险参加劳动，路心留助叠体和间学。</text>
  <text x="1310.00" y="483.12" font-family="Microsoft YaHei, Noto Sans SC, Noto Sans CJK SC, SimHei, Arial, sans-serif" font-size="8.78" font-weight="800" fill="#a9a8a8" textLength="189.00" lengthAdjust="spacing">5.隐时激从队的公式次死，积输完队地的往鲁。</text>
  <text x="118.00" y="493.94" font-family="Microsoft YaHei, Noto Sans SC, Noto Sans CJK SC, SimHei, Arial, sans-serif" font-size="9.71" font-weight="800" fill="#bdbebe" textLength="215.00" lengthAdjust="spacing">5 . 5 6|3 0|5·6  3|3.2|1 2 |112 12 32| 5:4|</text>
  <text x="1311.00" y="492.66" font-family="Microsoft YaHei, Noto Sans SC, Noto Sans CJK SC, SimHei, Arial, sans-serif" font-size="8.07" font-weight="800" fill="#a8a7a8" textLength="215.00" lengthAdjust="spacing">6.无分发用队且的空珀性，创力，甜腊为积蛋动敏计献算，</text>
  <text x="1308.00" y="503.66" font-family="Microsoft YaHei, Noto Sans SC, Noto Sans CJK SC, SimHei, Arial, sans-serif" font-size="8.10" font-weight="800" fill="#a8a7a7" textLength="257.00" lengthAdjust="spacing">7.款组眠开脂自限组动，队员要和机参与，男于承组任务，发得作用，</text>
  <text x="120.00" y="506.48" font-family="Microsoft YaHei, Noto Sans SC, Noto Sans CJK SC, SimHei, Arial, sans-serif" font-size="10.92" font-weight="800" fill="#adacac" textLength="74.00" lengthAdjust="spacing">不价目人，品</text>
  <text x="120.00" y="513.66" font-family="Microsoft YaHei, Noto Sans SC, Noto Sans CJK SC, SimHei, Arial, sans-serif" font-size="10.14" font-weight="800" fill="#b1b1b0" textLength="73.00" lengthAdjust="spacing">不他款人，项强</text>
  <text x="221.00" y="513.66" font-family="Microsoft YaHei, Noto Sans SC, Noto Sans CJK SC, SimHei, Arial, sans-serif" font-size="10.14" font-weight="800" fill="#b9b8b9" textLength="75.00" lengthAdjust="spacing">32显决斗导</text>
  <text x="1301.00" y="514.48" font-family="Microsoft YaHei, Noto Sans SC, Noto Sans CJK SC, SimHei, Arial, sans-serif" font-size="8.49" font-weight="800" fill="#aeadad" textLength="78.00" lengthAdjust="spacing">爽分示目已的冲级，</text>
  <text x="311.00" y="513.02" font-family="Microsoft YaHei, Noto Sans SC, Noto Sans CJK SC, SimHei, Arial, sans-serif" font-size="8.58" font-weight="800" fill="#a4a4a2" textLength="18.00" lengthAdjust="spacing">向着</text>
  <text x="1308.00" y="523.66" font-family="Microsoft YaHei, Noto Sans SC, Noto Sans CJK SC, SimHei, Arial, sans-serif" font-size="8.01" font-weight="800" fill="#aaa9a9" textLength="258.00" lengthAdjust="spacing">十二、良E前入队营调：我是中限少年免情队队员、我位队旗下宝营：我</text>
  <text x="592.00" y="531.40" font-family="Microsoft YaHei, Noto Sans SC, Noto Sans CJK SC, SimHei, Arial, sans-serif" font-size="15.60" font-weight="800" fill="#d0a879" textLength="511.00" lengthAdjust="spacing">我是中国少年先锋队队员。我在队旗下宣誓：我热爱中国共产党</text>
  <text x="1299.00" y="537.12" font-family="Microsoft YaHei, Noto Sans SC, Noto Sans CJK SC, SimHei, Arial, sans-serif" font-size="8.02" font-weight="800" fill="#a8a7a7" textLength="270.00" lengthAdjust="spacing">热爱中面民产宽，阶是植国，热是人民，好财学习，好好锻练，准登看：为</text>
  <text x="117.00" y="542.40" font-family="Microsoft YaHei, Noto Sans SC, Noto Sans CJK SC, SimHei, Arial, sans-serif" font-size="15.54" font-weight="800" fill="#b9b9b9" textLength="218.00" lengthAdjust="spacing">3.232|5-|53-5|11632|2056|</text>
  <text x="552.00" y="557.40" font-family="Microsoft YaHei, Noto Sans SC, Noto Sans CJK SC, SimHei, Arial, sans-serif" font-size="15.60" font-weight="800" fill="#d0a778" textLength="565.00" lengthAdjust="spacing">热爱祖国，热爱人民，好好学习，好好锻炼，准备着：为共产主义事业</text>
  <text x="1311.00" y="557.48" font-family="Microsoft YaHei, Noto Sans SC, Noto Sans CJK SC, SimHei, Arial, sans-serif" font-size="9.92" font-weight="800" fill="#adacad" textLength="81.00" lengthAdjust="spacing">十三、股贝的务：</text>
  <text x="1309.00" y="569.12" font-family="Microsoft YaHei, Noto Sans SC, Noto Sans CJK SC, SimHei, Arial, sans-serif" font-size="7.46" font-weight="800" fill="#a6a5a4" textLength="252.00" lengthAdjust="spacing">1.目降少部儿值对静大祖国、中华民族、中华文化、中国共产党、中国特色</text>
  <text x="552.00" y="583.40" font-family="Microsoft YaHei, Noto Sans SC, Noto Sans CJK SC, SimHei, Arial, sans-serif" font-size="15.60" font-weight="800" fill="#ddc1a0" textLength="86.00" lengthAdjust="spacing">贡献力量！</text>
  <text x="117.00" y="586.86" font-family="Microsoft YaHei, Noto Sans SC, Noto Sans CJK SC, SimHei, Arial, sans-serif" font-size="12.04" font-weight="800" fill="#c0c0c0" textLength="110.00" lengthAdjust="spacing">i-21i6]0 7|10 i-1</text>
  <text x="1309.00" y="590.12" font-family="Microsoft YaHei, Noto Sans SC, Noto Sans CJK SC, SimHei, Arial, sans-serif" font-size="8.47" font-weight="800" fill="#abaaab" textLength="165.00" lengthAdjust="spacing">2.得少年儿盘的好思感，梦品措、好习惯，</text>
  <text x="1309.00" y="601.12" font-family="Microsoft YaHei, Noto Sans SC, Noto Sans CJK SC, SimHei, Arial, sans-serif" font-size="7.79" font-weight="800" fill="#aaa9aa" textLength="255.00" lengthAdjust="spacing">3.绍持少部儿童从小争是学习，爱免动，里科学、爱社会主文的好少年，</text>
  <text x="1299.00" y="612.12" font-family="Microsoft YaHei, Noto Sans SC, Noto Sans CJK SC, SimHei, Arial, sans-serif" font-size="8.23" font-weight="800" fill="#a8a7a7" textLength="210.00" lengthAdjust="spacing">第力成试为中指特色会应空文要金的自特宜食和可的人。</text>
  <text x="1311.00" y="621.66" font-family="Microsoft YaHei, Noto Sans SC, Noto Sans CJK SC, SimHei, Arial, sans-serif" font-size="7.58" font-weight="800" fill="#a9a8a7" textLength="202.00" lengthAdjust="spacing">4.困结、就窝，引明少年儿瘤，维护少部儿盘的金语较益。</text>
  <text x="1312.00" y="632.48" font-family="Microsoft YaHei, Noto Sans SC, Noto Sans CJK SC, SimHei, Arial, sans-serif" font-size="9.80" font-weight="800" fill="#a8a8a7" textLength="70.00" lengthAdjust="spacing">十民、们的册：</text>
  <text x="1310.00" y="643.94" font-family="Microsoft YaHei, Noto Sans SC, Noto Sans CJK SC, SimHei, Arial, sans-serif" font-size="8.03" font-weight="800" fill="#adadad" textLength="181.00" lengthAdjust="spacing">1.少免织的组鼠曾脑：少免乱大积、中队，小队。</text>
  <text x="1309.00" y="654.76" font-family="Microsoft YaHei, Noto Sans SC, Noto Sans CJK SC, SimHei, Arial, sans-serif" font-size="7.97" font-weight="800" fill="#b2b1b1" textLength="253.00" lengthAdjust="spacing">2.少允队大镇费员、中队盛员、小员长分前山大队会、中队会、小队合</text>
  <text x="1301.00" y="664.48" font-family="Microsoft YaHei, Noto Sans SC, Noto Sans CJK SC, SimHei, Arial, sans-serif" font-size="9.80" font-weight="800" fill="#acacac" textLength="40.00" lengthAdjust="spacing">选举严生</text>
  <text x="1308.00" y="676.12" font-family="Microsoft YaHei, Noto Sans SC, Noto Sans CJK SC, SimHei, Arial, sans-serif" font-size="7.85" font-weight="800" fill="#aaa9a9" textLength="249.00" lengthAdjust="spacing">3.少免队的大队、中队、小队受目会在少先队组职的领导下开展工作。</text>
</g></svg>