<?xml version='1.0' encoding='utf-8'?>
<svg xmlns="http://www.w3.org/2000/svg" width="2146" height="732" viewBox="0 0 2146 732"><rect width="100%" height="100%" fill="#ffffff" /><defs>
  <style type="text/css">
   
    .fil1 {fill:#10A7D2}
    .fil0 {fill:#2D82C5}
    .fil4 {fill:#4F5251}
    .fil6 {fill:#8BCCE8}
    .fil7 {fill:#ADDFF1}
    .fil3 {fill:#AE885B}
    .fil2 {fill:#CED0D3}
    .fil5 {fill:#F6FAFB}
   
  </style>
 </defs>
 <g id="graph" transform="matrix(0.02426193 0 0 0.02426193 823.46524827 22.07932258)"><g id="图层_x0020_1">
  <metadata id="CorelCorpID_0Corel-Layer" />
  <g id="_1996988682848">
   <path class="fil0" d="M-16081.23 24286.8l2486.51 0c105.33,0 86.78,26.91 99.56,-222.03l-20.6 -852.52c1.02,-81.34 19.9,-127.61 26.3,-264.15l0.7 -4305.74c-0.17,-86.36 -19.91,-136.2 -20.95,-180.74 -2.21,-94.19 20.82,-72.08 20.82,-207.32 0,-525.1 13.54,-989.41 -21.23,-1504.37l7.48 -311.05c-4.11,-142.28 13.75,-57.83 13.75,-195.41l0 -10724.44c-0.03,-129.29 2.81,-261.42 0.57,-390.3 -26.81,-1540.95 -3.14,-3268.15 -0.11,-4830.81 0.05,-81.21 -25.63,-105.83 -106.29,-105.83l-2486.51 0 0 24094.71z" />
   <polygon class="fil1" points="-20156.39,24286.8 -17605.29,24286.8 -17605.29,192.09 -20156.39,192.09 " />
   <path class="fil0" d="M13533.89 3966.81c-1.2,-1.32 -69.88,-69.66 -70.56,-70.56 -43.79,164.02 -450.43,596.88 -607.03,733.53 -236.28,206.18 -531.97,374.93 -845.94,459.33 -174,46.77 -555.52,129.51 -766.86,111.41 -780.98,-66.88 -1281.29,-303.87 -1793.49,-854 -215.03,-230.96 -191.35,-348.24 -396.4,-485.54l0 11888.6c1351.69,0 2705.67,-7.85 4057.07,0.13 579.93,3.42 423.21,163.47 423.21,-1587.63l0 -10195.27z" />
   <path class="fil0" d="M35441.39 3949.08l0 11800.5 4480.28 0 0 -11818.05c-74.21,26.86 -34.19,7.82 -88.58,52.53l-137.4 180.11c-377.86,582.51 -1239.2,1048.53 -1996.72,1039.98 -1076.08,-12.15 -1662.7,-537.47 -2191.86,-1313.27l-65.72 58.2z" />
   <path class="fil0" d="M17978.89 11657.36c-835.26,0 -1168.37,-237.55 -1668.71,-693.22 -29.64,-27 -28.67,-23.84 -55.35,-49.49l-35.48 -35.58c-7.16,-7.46 -27.26,-29.82 -34.21,-37.54 -557.34,-618.96 -697.72,-1673.31 -323.54,-2430.34 204.6,-413.92 299.69,-524.48 609.24,-801.87 72.95,-65.37 76.88,-67.01 159.8,-122.43 130.07,-86.94 220.62,-135.77 359.85,-204.59 579.13,-286.25 1308.46,-283.27 1894.74,11.5 278.58,140.07 446.23,266.57 654.89,474 1392.15,1383.94 409.17,3889.56 -1561.23,3889.56zm2187.22 -7725.83c-346.89,183.55 -40.37,46.59 -432.55,449.4 -254.85,261.76 0.7,103.48 -470.11,411.82 -1065.44,697.78 -2433.04,452.76 -3170.14,-422.03 -177.9,-211.13 -233.84,-392.83 -407.48,-439.19 0,1023.06 0,2046.11 0,3069.17 0,430.61 79.27,1159.85 -54.41,1497.8 -239.93,606.54 -192.7,1281.18 70.22,1909.04 95.87,228.97 83.13,376.09 76.99,685.37 -11.22,564.94 -34.74,4379.33 13.04,4656.67l4131.11 3.61c197.96,-20.97 141.26,-128.85 138.14,-355.75l-0.64 -3669.52c0,-338.38 -9.18,-688.51 -2.09,-1025.15 8.24,-391.73 409,-570.3 282.17,-1724.38 -40.28,-366.53 -177.9,-428.91 -174.73,-883.6 9.66,-1386.47 0.48,-2776.4 0.48,-4163.26z" />
   <path class="fil2" d="M-20015 29049.3c0,95.2 16.84,97.04 35.28,176.11 79.07,18.44 80.91,35.28 176.11,35.28l33655 0c82.19,0 140.83,-58.64 140.83,-140.83 0,-402.61 73.03,-775.83 -140.83,-775.83l-33655 0c-95.2,0 -97.04,16.83 -176.11,35.28 -60.68,260.1 -35.28,359.49 -35.28,669.99z" />
   <path class="fil3" d="M22565 8301.52c526.75,-470.61 864.13,-1008.48 2010.85,-996.87 828.32,8.38 1568.54,403.34 1979.34,1023.81 57.75,-138.81 8.67,-6355.63 20.83,-7715.75 2.8,-312.97 13.66,-267.64 -483.21,-266.74l-3550.3 0.02c-52.06,375.82 -11.7,6316.87 -12.66,7466.1 -0.1,117.2 -22.43,405.61 35.15,489.43z" />
   <path class="fil3" d="M29122.87 8399.02c470.72,-505.7 936.96,-948.53 1910.33,-1010.35 861.07,-54.69 1697.83,482.73 2009.37,952.45 104.78,-22.54 57.7,-720.71 57.7,-917.09l-0.11 -6946.59c-13.73,-91.73 20.73,-116.79 -162.33,-132.78l-3603.14 -1.47c-282.28,-2.71 -231.01,-22.06 -230.52,519.16 1.06,1169.8 -41.44,7392.12 18.7,7536.67z" />
   <polygon class="fil4" points="-20164.8,27019.26 -20226.95,27019.26 13921.94,27019.26 13992.5,27019.26 13992.6,26295.96 13851.49,26287.55 13639.72,26289.23 -20164.8,26289.23 " />
   <path class="fil0" d="M22299.84 9717.08c0,-2237.57 3092.5,-3203.59 4275.7,-1011.93 406.92,753.74 265.45,1884.42 -293.21,2508.37l-262.3 263.06c-451.06,434.7 -940.88,533.09 -1550.03,533.41 -1228.17,0.66 -2170.16,-1034.38 -2170.16,-2292.91zm265.16 -1415.56c-32.56,129.54 -837.88,1214.9 -212.26,2474.49 61.89,124.59 112.51,221.22 185.72,343.45 91.93,153.51 62.91,243.38 61.93,467.24 -6.09,1387.08 -0.11,2775.63 -0.11,4162.88l3915.83 0c0,-1369.99 -16.95,-2756.17 -0.2,-4127.51 1.75,-143.22 -8.63,-365.15 30.7,-465.94l193.34 -333.26c122.11,-243.96 204.88,-502.24 238.79,-823.16 49.43,-467.78 -54.39,-936.88 -230.12,-1326.52 -57.6,-127.75 -135.97,-226.42 -193.43,-344.73 -410.8,-620.47 -1151.02,-1015.43 -1979.34,-1023.81 -1146.72,-11.61 -1484.1,526.26 -2010.85,996.87z" />
   <path class="fil0" d="M17837.78 7265.86c-444.57,0 -904.49,227.85 -1154.63,414.65 -320.2,239.13 -510.69,496.07 -679.82,872.4 -703.47,1565.23 865.02,3513.18 2747.69,2747.7 1582.32,-643.36 1731.01,-3088.3 39.28,-3841.32 -309.95,-137.97 -564.12,-193.43 -952.52,-193.43z" />
   <path class="fil1" d="M15851.12 2767.36c0,1739.45 2038.94,2617.99 3272.44,1673.84 196.65,-150.51 375.92,-301.26 512.32,-510.73 993.46,-1525.74 -150.27,-3296.45 -1656.99,-3296.45 -1215.37,0 -2127.77,927.41 -2127.77,2133.34z" />
   <path class="fil1" d="M37769.72 4824.58c606.14,0 1147.63,-341.27 1438.06,-654.44 1198.41,-1292.24 354.74,-3536.12 -1508.61,-3536.12 -1550.83,0 -2526.19,1653.09 -1882.23,2992.51 355.17,738.72 1034.22,1198.05 1952.78,1198.05z" />
   <path class="fil1" d="M9218.9 2661.53c0,887.15 442.56,1574.91 1151.6,1928.66 479.43,239.2 620.26,223.29 1117.28,223.29 696.85,0 1464.65,-619.32 1714.39,-1248.95 207.97,-524.31 243.31,-1171.93 -8.5,-1691.67 -688.14,-1420.35 -2361.89,-1606.99 -3337.55,-631.32 -350.37,350.36 -637.22,865.07 -637.22,1419.99z" />
   <path class="fil0" d="M22483.22 9717.08c0,851.54 476.34,1535.41 1119.36,1890.48 1830.88,1011 4124.16,-1348.65 2445.25,-3327.19 -99.6,-117.37 -445.01,-349.32 -600.93,-422.13 -571.64,-266.93 -1149.74,-264.64 -1728.66,-21.8 -170.65,71.59 -496.78,288.61 -615.35,407.7 -352.24,353.8 -619.67,937.47 -619.67,1472.94z" />
   <path class="fil0" d="M29044.89 9822.92c0,1532.76 1528.82,2529.7 2925.17,1926.17 86.57,-37.41 232.04,-128.07 311.52,-182.38 289.56,-197.86 251.93,-205.53 400.35,-375.75 1291.16,-1480.84 -47.8,-3791.63 -1983.22,-3394.33 -642.82,131.96 -1183.6,570.9 -1454.73,1155.83 -111.41,240.35 -199.09,519.87 -199.09,870.46z" />
   <path class="fil1" d="M35441.39 2555.7c0,-433.93 221.86,-919.27 469.2,-1224.14 1740.57,-2145.38 4886.43,-99.37 3830.66,2384.28 -110.8,260.65 -275.76,445.83 -479.12,648.94 -981.37,980.13 -2517.06,837.76 -3403.09,-286.57 -83.35,-105.77 -129.7,-203.96 -194.74,-334.31 -232.67,-466.26 -222.91,-697.34 -222.91,-1188.2zm0 1393.38l65.72 -58.2c529.16,775.8 1115.78,1301.12 2191.86,1313.27 757.52,8.55 1618.86,-457.47 1996.72,-1039.98l137.4 -180.11c54.39,-44.71 14.37,-25.67 88.58,-52.53 84.9,-757.37 543.43,-1397.36 -183.13,-2533.26 -317.3,-496.06 -744.27,-824.62 -1314.24,-1014.09 -611.74,-203.36 -1377.42,-121.72 -1918.72,201.82 -350.29,209.37 -599.37,426.62 -824.91,762.59 -798.67,1189.69 -239.28,2022.7 -239.28,2600.49z" />
   <path class="fil1" d="M11311.39 5008.46c-404.25,0 -661.33,-65.66 -941.2,-206.29 -2707.82,-1360.62 -918.66,-5315.26 1914.8,-4137.29 263.19,109.42 454.25,303.87 640.43,488.45 1377.3,1365.51 411.59,3855.13 -1614.03,3855.13zm-2257.78 -1147.48c205.05,137.3 181.37,254.58 396.4,485.54 512.2,550.13 1012.51,787.12 1793.49,854 211.34,18.1 592.86,-64.64 766.86,-111.41 313.97,-84.4 609.66,-253.15 845.94,-459.33 156.6,-136.65 563.24,-569.51 607.03,-733.53 0.68,0.9 69.36,69.24 70.56,70.56 0,-487.77 235.68,-613.22 212.97,-1341.65 -72.5,-2325.32 -3176.16,-3251.82 -4475.23,-1262.55 -262.24,401.56 -345.26,666.6 -400.92,1151.51 -86.02,749.4 182.9,1001.67 182.9,1346.86z" />
   <path class="fil1" d="M15661.66 2767.36c0,-504.92 135.68,-957.64 411.57,-1341.21 642.17,-892.82 1697.82,-1219.25 2768.24,-791.37 719.25,287.51 1359.92,1171.12 1359.92,2097.31 0,2062.61 -2494.36,3000.49 -3854.29,1631.78 -370.51,-372.9 -685.44,-889.7 -685.44,-1596.51zm24.17 1164.17c173.64,46.36 229.58,228.06 407.48,439.19 737.1,874.79 2104.7,1119.81 3170.14,422.03 470.81,-308.34 215.26,-150.06 470.11,-411.82 392.18,-402.81 85.66,-265.85 432.55,-449.4 0,-432.3 569.19,-1340.16 -168.68,-2512.66 -1465.61,-2328.91 -5004.48,-813.98 -4450.56,1840.4 50.26,240.81 138.96,376.82 138.96,672.26z" />
   <path class="fil5" d="M9218.9 2661.53c0,-554.92 286.85,-1069.63 637.22,-1419.99 975.66,-975.67 2649.41,-789.03 3337.55,631.32 251.81,519.74 216.47,1167.36 8.5,1691.67 -249.74,629.63 -1017.54,1248.95 -1714.39,1248.95 -497.02,0 -637.85,15.91 -1117.28,-223.29 -709.04,-353.75 -1151.6,-1041.51 -1151.6,-1928.66zm2092.49 2346.93c2025.62,0 2991.33,-2489.62 1614.03,-3855.13 -186.18,-184.58 -377.24,-379.03 -640.43,-488.45 -2833.46,-1177.97 -4622.62,2776.67 -1914.8,4137.29 279.87,140.63 536.95,206.29 941.2,206.29z" />
   <path class="fil5" d="M22483.22 9717.08c0,-535.47 267.43,-1119.14 619.67,-1472.94 118.57,-119.09 444.7,-336.11 615.35,-407.7 578.92,-242.84 1157.02,-245.13 1728.66,21.8 155.92,72.81 501.33,304.76 600.93,422.13 1678.91,1978.54 -614.37,4338.19 -2445.25,3327.19 -643.02,-355.07 -1119.36,-1038.94 -1119.36,-1890.48zm-183.38 0c0,1258.53 941.99,2293.57 2170.16,2292.91 609.15,-0.32 1098.97,-98.71 1550.03,-533.41l262.3 -263.06c558.66,-623.95 700.13,-1754.63 293.21,-2508.37 -1183.2,-2191.66 -4275.7,-1225.64 -4275.7,1011.93z" />
   <path class="fil5" d="M17837.78 7265.86c388.4,0 642.57,55.46 952.52,193.43 1691.73,753.02 1543.04,3197.96 -39.28,3841.32 -1882.67,765.48 -3451.16,-1182.47 -2747.69,-2747.7 169.13,-376.33 359.62,-633.27 679.82,-872.4 250.14,-186.8 710.06,-414.65 1154.63,-414.65zm141.11 4391.5c1970.4,0 2953.38,-2505.62 1561.23,-3889.56 -208.66,-207.43 -376.31,-333.93 -654.89,-474 -586.28,-294.77 -1315.61,-297.75 -1894.74,-11.5 -139.23,68.82 -229.78,117.65 -359.85,204.59 -82.92,55.42 -86.85,57.06 -159.8,122.43 -309.55,277.39 -404.64,387.95 -609.24,801.87 -374.18,757.03 -233.8,1811.38 323.54,2430.34 6.95,7.72 27.05,30.08 34.21,37.54l35.48 35.58c26.68,25.65 25.71,22.49 55.35,49.49 500.34,455.67 833.45,693.22 1668.71,693.22z" />
   <path class="fil5" d="M37769.72 4824.58c-918.56,0 -1597.61,-459.33 -1952.78,-1198.05 -643.96,-1339.42 331.4,-2992.51 1882.23,-2992.51 1863.35,0 2707.02,2243.88 1508.61,3536.12 -290.43,313.17 -831.92,654.44 -1438.06,654.44zm-2328.33 -2268.88c0,490.86 -9.76,721.94 222.91,1188.2 65.04,130.35 111.39,228.54 194.74,334.31 886.03,1124.33 2421.72,1266.7 3403.09,286.57 203.36,-203.11 368.32,-388.29 479.12,-648.94 1055.77,-2483.65 -2090.09,-4529.66 -3830.66,-2384.28 -247.34,304.87 -469.2,790.21 -469.2,1224.14z" />
   <path class="fil5" d="M15851.12 2767.36c0,-1205.93 912.4,-2133.34 2127.77,-2133.34 1506.72,0 2650.45,1770.71 1656.99,3296.45 -136.4,209.47 -315.67,360.22 -512.32,510.73 -1233.5,944.15 -3272.44,65.61 -3272.44,-1673.84zm-189.46 0c0,706.81 314.93,1223.61 685.44,1596.51 1359.93,1368.71 3854.29,430.83 3854.29,-1631.78 0,-926.19 -640.67,-1809.8 -1359.92,-2097.31 -1070.42,-427.88 -2126.07,-101.45 -2768.24,791.37 -275.89,383.57 -411.57,836.29 -411.57,1341.21z" />
   <path class="fil0" d="M28861.51 9787.64c0,-1191.19 983.37,-2211.28 2311.27,-2211.28 1200.34,0 2187.22,1068.01 2187.22,2034.89 0,619.74 33.9,708.32 -258.26,1293.96 -143.31,287.25 -246.2,390.34 -455.8,602.53 -1231.33,1246.54 -3784.43,521.41 -3784.43,-1720.1zm261.36 -1388.62c-133.48,348.67 -385.81,551.78 -432.2,1281.56 -59.22,931.46 432.15,1809.58 1155.65,2244.9 1263.31,760.13 2818.08,249.97 3408.12,-938.12 466.24,-938.79 391.85,-1740.89 -211.87,-2646.24 -311.54,-469.72 -1148.3,-1007.14 -2009.37,-952.45 -973.37,61.82 -1439.61,504.65 -1910.33,1010.35z" />
   <path class="fil5" d="M29044.89 9822.92c0,-350.59 87.68,-630.11 199.09,-870.46 271.13,-584.93 811.91,-1023.87 1454.73,-1155.83 1935.42,-397.3 3274.38,1913.49 1983.22,3394.33 -148.42,170.22 -110.79,177.89 -400.35,375.75 -79.48,54.31 -224.95,144.97 -311.52,182.38 -1396.35,603.53 -2925.17,-393.41 -2925.17,-1926.17zm-183.38 -35.28c0,2241.51 2553.1,2966.64 3784.43,1720.1 209.6,-212.19 312.49,-315.28 455.8,-602.53 292.16,-585.64 258.26,-674.22 258.26,-1293.96 0,-966.88 -986.88,-2034.89 -2187.22,-2034.89 -1327.9,0 -2311.27,1020.09 -2311.27,2211.28z" />
   <path class="fil6" d="M1939.3 17290c27.62,125.43 44.18,294.84 94.03,399.86 -129.04,-34.46 -73.92,-37.22 -176.39,-105.83 37.93,142.02 73.95,53.72 35.28,141.11 -112.55,-26.22 -108.28,-50.89 -208.09,-78.75 -114.54,-31.98 -78.75,-44.51 -179.96,43.47 160.91,13.39 281.38,72.76 423.33,105.83l0 70.56c-177.93,14.81 -296.97,35.28 -529.17,35.28l0 35.27c90.15,0 76.06,-7.25 139.91,18.65 130.73,53.01 -125.44,-13.47 71.76,51.91l154.76 -56.91c103.08,-28.93 78.37,-8.44 162.74,-48.92 -42.92,160.74 -221.47,275.19 -340.97,376.25 363.4,-92.98 152.09,5.62 328.99,-211.04 80.71,-98.86 11.33,-56.11 117.81,-94.66 -34.95,150.04 -70.55,270.19 -70.55,458.61l105.83 -246.94c6.63,148.05 47.08,168.03 47.08,246.94 0,508.61 -4.89,1519.42 -47.08,2010.84 -24.62,-34.83 -21.2,-4.87 -38.09,-72.61 -11.87,-47.62 -6.7,-47.2 -8.99,-91.98 -74.23,24.33 -26.04,12.44 -117.5,35.28 180.1,45.6 25.81,-7.37 105.83,70.55l-82.36 164.59c91.59,61.33 107.05,59.11 141.11,176.39l42.07 -67.69c3.73,-5.68 10.73,-15.83 14.73,-21.94l49.46 -138.48c0.17,-57.36 -16.77,31.6 2.05,-58 25.61,-122.02 56.28,-61.43 56.28,-266.53l-86.2 151.38c-4.47,6.18 -12.42,17.25 -19.64,25.01 -11.13,-144.54 -35.28,-85.9 -35.28,-223.47 0,-125.26 47.09,-358.81 47.09,-705.56 0,-257.46 -58.24,-698.62 14.07,-930.26 60.45,-193.65 -14.07,-135.48 -14.07,-516.13 101.73,68.13 163.31,160.37 176.39,317.5l105.83 0c-28.86,-108.09 -119.62,-210.21 -176.39,-317.5l139.74 39.6 -110.47 -139.99 452.98 15.43c-24.49,-71.63 -12.6,-23.44 -35.44,-114.9 -166.39,52.54 -216.63,38.88 -411.73,25.81 146.34,-203.69 294.42,-61.33 247.14,-284.56 -118.42,79.3 -177.57,137.63 -317.5,211.67 12.34,-148.3 40.11,-116.23 70.56,-246.95 -130.02,53.72 -87.15,-55.22 -141.11,176.39l-70.56 0c0,-178.51 -35.28,-300.79 -35.28,-529.16l-35.27 0c0,108.43 12.28,72.7 -26.44,147.02 -41.7,80.03 -114.21,-15.56 -32.32,17.56z" />
   <path class="fil7" d="M-3893.33 19665.42l-70.56 0c18.74,80.42 27.35,81.13 35.28,176.38 -113.1,-75.73 -72.59,-49.98 -105.83,-35.27 37.52,108.62 -18.12,64.44 88.24,123.52 -138.09,-21.19 -161.53,42.07 -194.08,52.87 -107.32,-74.58 -248.16,-121.6 -388.05,0 163.98,0 272.68,-20.08 388.05,35.27 60.33,194.4 -108.34,-164.87 -35.28,70.56 107.61,49.77 68.16,4.28 194.09,17.69l-210.76 137.99c-145.39,84.65 -138.31,55.99 -336.1,55.99 261.58,227.36 317.35,15.26 582.13,-88.25 -101.66,56.47 -70.31,31.44 -88.24,158.8 164.87,-3.65 94.11,29.69 176.38,-70.55l35.28 211.66c2.4,-107.48 15.93,-128.61 35.28,-211.66 95.13,162.98 105.83,346.33 105.83,581.99l35.28 -17.55c0,-164.57 -24.93,-286.1 -27.19,-387.6 -4.77,-213.39 70.11,-73.72 -25.78,-300.37 58.6,31.54 9.33,48.23 95.28,31.4 269.02,-52.68 165.56,-59.99 63.52,-119.54 340.74,0 345.68,-0.84 388.06,-105.83 -113.8,54.6 -192.29,35.27 -352.78,35.27l246.95 -105.83c-56.65,1.26 -331.45,39.81 -370.47,52.97 41.12,-166.76 82.11,-59.16 -41.59,-203.86l-31.03 -39.53c-3.28,-4.16 -9.77,-14.63 -15.52,-21.25 -20.79,78.96 -26.13,91.48 -70.56,158.81 -50.85,-87.74 -121.41,-450.21 -22.62,-604.75 18.5,-28.94 34.14,-40.22 50.21,-55.63 5.2,-4.99 13.89,-11.61 19.1,-16.19l39.15 -31.41c3.97,-3.2 13.66,-9.77 19.99,-15.27 -262.59,21.85 -211.66,252.33 -211.66,529.17z" />
   <path class="fil6" d="M-8361.81 18654.16c147.57,124.79 86.11,52.84 70.54,204.01 -12.83,124.44 -11.79,222.35 -11.79,348.63l-63.38 47.61c-7.56,38.47 8.75,24.43 -7.17,58.23 -223.65,-126.78 -198.97,-195.29 -340.98,-376.25l56.78 124.65c-61.39,54.23 27.46,6.13 -58.15,27.85 -1.4,0.35 -62.31,-0.29 -69.18,0.28 144.97,81.38 329.33,188.84 376.25,364.58 -94.45,-45.32 -150.35,-52.66 -266.4,-84.83 -163.18,-45.24 -145.13,-74.55 -250.96,-115.03 336.6,284.64 208.38,70.3 422.78,247.47l94.58 70.03c-68.25,58.36 -124.31,92.38 -176.39,164.58 66.61,-31.57 95.99,-70.01 126.98,-74.4 58.45,-8.29 -14.19,-63.25 72.16,51.68 2.79,3.71 7.59,15.62 12.53,22.72 33.3,-142.95 9.44,-106.22 105.83,-141.11 0,357.83 36.63,167.07 103.95,391.15l131.19 725.93c0,-212.72 -92.35,-404.35 -46.46,-611.8 63.76,-288.19 -82.85,-106.21 -82.85,-540.56 140.54,37.53 135.51,97.94 211.67,211.67 55.61,-75.13 123.02,-140.91 223.47,-152.92l0 70.56c189.13,-7 -74.37,-70.56 282.22,-70.56l-141.11 70.56c111.96,26.12 40.83,26.12 152.78,0 -12.24,-116.36 -6.45,-58.23 -70.55,-152.78 -179.43,143.82 -380.56,37.44 -587.92,-11.81l0 -70.55c238.02,-19.81 68.27,-82.36 587.92,-82.36l-282.2 -13.01c6.56,-6.78 18.3,-27.6 22.3,-20.68 3.91,6.77 16.93,-16.54 22.26,-21.17 89.41,-77.63 106.84,-65.6 131.81,-133.2 -99.47,115.15 -343.03,194.52 -517.37,235.14 51.93,-194.49 254.04,-210.46 270.42,-446.81 -55.73,102.92 -173.46,240.77 -270.42,305.7l0 -176.39c-30.9,132.63 -14.43,144.7 -105.83,211.67 -23.82,-459.8 -73.53,-600.37 152.91,-646.81 49.83,113.57 12.55,57.1 32.72,184.8l11.45 -149.35c62.88,-26.8 76.06,-27.03 143.89,-47.12l-232.65 13c-243.2,39.85 -70.54,50.93 -237.63,-13z" />
   <path class="fil6" d="M10782.22 18959.86l105.84 317.5c-202.25,-54 -196.65,-189.17 -351.81,-230.79l-225.46 -58.65c-79.53,-5.47 -124.69,47.31 -187.04,89.58 3.35,126.59 -10.45,80.95 46.95,152.78 -70.02,-224.42 84.77,-267.62 286.83,-160.75 105.99,56.06 282.75,162.51 324.69,278.39 -219.05,0.79 -184.38,3.85 -359.98,70.51 -102.35,38.86 -126.09,26.09 -157.38,94.07 131.03,-105.03 289.95,-94.03 517.36,-94.03 -35.59,133.3 -68.08,102.61 -141.11,211.67 305.59,-6.81 -12.2,-81.33 282.22,-105.84 -4.4,197.49 -69.33,219.46 -26.18,385.87l61.46 249.13c0,-276.46 39.62,-207.14 47.05,-313.44 9.23,-132.15 -51.56,-200.38 23.51,-356.83 93.53,68.09 231.1,349.3 270.42,482.08 -6.55,-371.25 -7.48,-168.69 -141.12,-411.53 6.75,-3.35 19.94,-10.04 22.46,-2.5l199.44 -17.56c115.76,-18.81 -16.43,43.46 72.13,-15.22 -206.32,-28.78 -138.3,-82.34 -317.5,-129.3 90.33,-151.03 32.78,-34.14 161.54,-125.45 135.21,-95.89 50.16,-133.21 50.13,-133.3 -137.91,92.34 -76.77,93.25 -282.23,141.11 12.34,-148.29 40.11,-116.23 70.56,-246.94 -115.05,60.87 -127.25,45.09 -141.11,211.66l-117.64 -540.99 -52.19 201.42c-19.58,37.33 8.63,-94.86 -41.84,57.35z" />
   <path class="fil6" d="M-2200 22381.8c-63.62,191.89 -20.73,-71.84 -317.5,70.56 68.77,257.56 420.49,149.37 487.36,147.25l147.64 170.25c-159.12,3.54 -186.38,40.01 -317.5,70.55l0 70.56c157.36,36.66 253.49,71.32 439.28,-18.09 71.58,-34.44 48.34,-21.36 89.89,-52.47l2.06 -281.78c0.25,-159.9 -9.99,-165.24 -37.34,-282.66 -114.77,30.65 -117.96,34.47 -130.82,181.65 -9.65,110.52 12.7,189.62 24.99,276.96 -164.26,-109.99 -109.88,-140.01 -80.84,-326.49 28.4,-182.4 6.27,-244.86 -25,-379.06l-70.55 0c-41.58,178.47 -35.28,272.78 -41.42,500.42l-170.25 -147.65z" />
   <path class="fil6" d="M-2235.28 18324.86c-3.81,1.18 -9.48,-9.99 -10.14,-6.36l-45.91 -16.9c-1.21,0.35 -8.07,4.45 -9.36,5.07 -181.33,87.57 -80.87,8.65 -234.54,-70.09 9.92,57.35 9.5,19.72 8.58,83.17 -4,276.47 -110.89,-21.1 91.51,228.58 -79.87,35.4 -167.24,68.97 -275.93,87.59 -196.52,33.66 -155.97,-39.68 -288.52,-5.36 107.19,56.73 229.39,35.27 388.06,35.27 -6.62,8.18 -18,8.58 -21.95,22.68l40.95 27.04c266.12,86.5 -181.86,-110.98 49.48,26.94 0.05,0.02 -81.98,72.53 178.46,-41.38 -50.19,212.68 -24.65,12.25 9.25,141.38 23.02,87.65 26.03,54.33 26.03,176.12 8.64,-34.35 11.16,-73.26 24.51,-119.45 3.01,-10.43 22.25,-66.79 28.03,-79.61 35.52,-78.77 9.57,-30.65 41.49,-71.36 13.39,90.43 39.61,230.68 58.75,305.7l-23.1 -411.56 105.46 141.14c29.04,-137.11 29.04,-39.28 0,-176.39l304.73 24.86c-94.75,-36.73 -181.33,-61.61 -281.25,-83.61l117.63 -188.19c-80.42,18.73 -81.13,27.35 -176.38,35.28l95.06 -128.48c-107.21,-64.71 -85.5,-117.5 -130.34,-189.02 -9,108.15 -33.44,169.59 -70.56,246.94z" />
   <path class="fil6" d="M-5939.45 19594.86c-53.53,-412.2 -1.55,-290.22 70.56,-599.72l141.11 0 14.21 446.72c0.5,-11.3 5.96,-59.07 9.32,-67.82l58.83 -108.48 42.08 142.79c-10.47,-163.03 -53.88,-35.06 -53.88,-448.49 110.7,74.13 179.25,185.43 258.75,305.7l35.27 -141.12c6.6,5.02 18.62,1.87 21.96,11.62l45.64 21.38c5.99,2.35 17.16,6.75 23.8,9.16 3.84,1.4 75.89,21.84 96.66,28.4 -109.34,-87.37 -73.71,0.05 -220.48,-107.15 -153.73,-112.3 -147.73,-153.06 -155.77,-233.82 174.43,9.1 152,66.35 235.14,23.47 -135.53,-40.13 -121.69,-44.89 -164.58,-105.83 248.28,0 366.78,-21.54 294.02,211.66 32.97,-28.09 21.03,-19.14 82.23,-35.27 -19.02,-180.77 -143.93,-194.87 -307.13,-223.95 -313.38,-55.82 -19.39,-152.31 -421.9,-152.31 -197.78,437.56 -56.77,246 -91.59,434.88 -19.96,108.3 -137.78,287.73 -143.55,505.82 30.33,-97.69 0.59,-67.81 105.83,-105.83l23.47 188.19z" />
   <path class="fil6" d="M6572.36 19783.05c-7.61,-98.79 -23.45,-132.32 -46.95,-211.66l0 246.94c-96.63,-45.67 -0.6,14.46 -113.95,-12 -52.86,-12.34 -43.78,-35.73 -132.99,-58.56 46.39,39.23 92.42,61.36 105.86,131.7l-6.34 70.2c-0.33,3.11 -1.69,12.95 -1.99,15.97 -0.31,2.99 -1.03,13.06 -1.28,15.92l-378.42 48.44c146.29,43.33 209.59,55.42 411.48,58.75 36.67,69.31 15.78,2.85 55.28,84.07 37.24,76.57 17.33,1.54 20.18,80.9 3.99,111.22 -35.5,88.68 65.65,140.72 26.74,-48.98 19.22,-70.48 34.85,-94.11 60.96,-92.19 -29.61,-36.36 82.79,-82.27 -20.87,112.24 -41.25,99.32 0,176.38l13.05 -164.54c39.85,37.04 15.92,14.71 53.88,60.29l62.37 80.78c-7.92,-95.25 -16.54,-95.97 -35.27,-176.39 107.53,72.01 83.75,118.81 235.14,129.31 -128.64,-53.91 -162.31,-125.05 -235.14,-235.14l234.53 28.78c-66.06,-33.67 -78.91,-44.79 -175.78,-52.26 7.27,-7.08 21.59,-25.27 24.61,-17.92 2.79,6.8 18.98,-13.86 22.25,-17.32 69.22,-73.22 31.48,17.41 34.6,-42.77l-73.94 -60.28c-13.53,-9.19 -172.66,12.34 -78.08,-238.09 -9.56,-8.08 -26.55,-17.43 -37.84,-23.66 -2.54,-1.4 -12.37,-6.53 -15.21,-8.05 -3.08,-1.66 -13.5,-7.11 -16.52,-8.7 -3.22,-1.69 -14.94,-7.73 -17.68,-9.15 -2.86,-1.47 -12.71,-5.55 -18.58,-9.19l0 -376.25c-18.22,71.41 -11.28,145.48 -10.13,233.29 1.75,132.83 16.53,204.08 -60.43,295.87z" />
   <path class="fil6" d="M-777.09 17384.16c27.84,120.73 41.08,-124.23 165.87,58.69 87.91,128.88 15.8,201.73 -1.28,352.84 161.87,-161.55 41.21,9.09 140.76,-136.7 41.11,-60.2 -19.06,-32.03 104.72,-67.59 5.97,-1.71 16.39,-2.49 22.68,-4.27l131.7 -50.18c22.72,103.19 33.16,208.11 117.5,246.94 -62,-77.35 -95.64,-175.82 -105.83,-305.7 174.05,99.97 135.13,214.15 282.22,270.42 -86.86,-73.46 -139.47,-139.97 -176.39,-282.22 94.17,43.98 100.97,49.38 177.48,130.65 98.9,105.05 63.47,47.48 104.74,186.85 71.56,-138.76 -249.78,-291.84 -387.58,-506.21l-147.51 -187.54c-292.03,119.3 -144.99,222.4 -429.08,294.02z" />
   <path class="fil6" d="M-5092.78 21041.25c73.46,-84.51 51.07,-81.79 141.11,-105.84 0,121.89 27.68,420.65 -35.5,523.51 -56.71,92.31 -43.84,53.66 -117.41,88.02 -89.13,-203.12 -3.63,-320.25 11.8,-505.69zm0 0c-31.95,36.76 -1.07,-8.43 -44.67,61.02 -3.88,6.19 -9.44,15.39 -13.31,22.02l-59.36 118.67c-61.57,106.73 -35.74,95.39 -153.08,127.59 50.92,27.5 99.76,28.85 28.19,194.88 -36.63,84.97 -69.62,113.76 -98.74,204.85 64.19,-81.81 177.61,-287.68 188.06,-423.34l78.85 127.22c40.14,60.59 21.21,39.26 74.06,84.45 169.93,-52.6 205.75,-243.64 205.64,-410.04 -0.26,-373.27 7.4,-310.78 170.61,-260.24 -120.35,-94.44 -61.88,6.48 -108.15,-155.42 -20.69,-72.39 -29.46,-141.59 -38.88,-185.55 -361.84,6.73 -159.51,123.95 -429.35,229.69 -33.53,13.15 -94.16,26.9 -140.29,45.75l269.87 -28.5c-70.59,105.41 -255.36,197.82 -270.42,340.98 209,-247.16 334.77,-372.54 340.97,-94.03z" />
   <path class="fil6" d="M-10278.61 19489.03c-216.72,-50.49 -292.16,-34.49 -376.25,-235.14 12.54,119.21 26.68,99.78 105.83,152.78 -7.47,7.43 -20.69,5.58 -24.96,19.42 -13.86,44.93 -133.77,24.44 -151.43,192.24 132.18,-315.39 704.45,-11.44 302.18,191.07 -152.73,76.88 -82.28,24.49 -231.62,8.93l217.95 50.41c182.03,16.08 -11.55,-125.84 299.41,-132.77 48.58,208.52 84.58,295.77 -94.03,446.81 103.41,-39.56 90.19,-36.03 117.5,-141.11l32.05 54.15c78.08,118.5 1.35,49.89 68.14,57.1 170.99,18.48 281.59,-27.17 287.87,-264.03 -51.64,174.36 -38.14,232.57 -246.95,246.94 -192.64,-291.2 -91.52,-593.16 141.12,-341.11l20.16 -75.54c-58.17,-24.64 -72.46,-34.26 -149.47,-53.76l0 -211.67c245.4,-152.53 364.58,-214.21 364.58,94.03 62.72,-211.81 28.32,-210.39 -199.8,-222.26 -6,-0.31 -16.82,-1.41 -22.18,-1.73 -4.57,-0.27 -14.75,-2.32 -18.77,-2.51 -73.56,-3.51 37.62,-49.15 -55.09,4.68 -31.81,18.46 -71.39,82.32 -139.3,127.79l-147.48 -70.59 -35.11 -122.23c-79.55,173.51 1.94,88.45 -64.35,228.1z" />
   <path class="fil7" d="M-7597.5 21535.14c18.73,-210.23 88.14,-116.68 88.14,-546.75 -122.32,49.75 -13.1,-26.65 -111.98,66.53 -218.59,205.97 36.67,153.45 -187.83,621.33 -49.11,15.24 43.18,93.12 -70.55,-70.56 -12.34,148.3 -40.11,116.24 -70.56,246.95l-35.28 -211.67 -74.62 80.8c-62.21,-69.88 29.73,-29.15 -31.21,-10.24 -54.2,113.12 -20.02,90.23 -5.99,190.33l32.45 165.67c49.16,143.02 8.82,214.56 8.82,420.11l35.28 0c0,-540.17 152.82,-362.55 246.94,-635 -171.65,36.35 -72.11,66.42 -105.83,-35.28 80.33,-29.08 52.76,-12.42 96.34,-80.04 15.06,-23.38 34.15,-81.42 41.34,-99.77 40.9,-104.33 64.02,-123.8 73.98,-243.52l70.56 141.11z" />
   <path class="fil6" d="M7818.89 21499.86c-67.94,-519.28 -17.45,-171.96 0,-564.45 173.72,127.28 193.23,392.99 152.76,578.74l-152.76 -14.29zm0 0c118.72,65.76 115.76,56.32 201.1,-44.46 6.28,-7.41 34.17,-31.49 37.96,-47.98 3.45,-14.96 12.17,-17.65 19.69,-25.2 26.53,119.49 48.19,112.35 82.22,235.12 -16.05,-208.02 -119.17,-187.88 70.56,-246.79 -198.08,-17.92 -290.93,-293 -305.7,-470.41 99.94,-8.73 86.14,2.7 105.65,-75.32l235.33 -7.04c-120.89,-30.84 -117.14,15.87 -235.14,-46.95l164.58 -105.83c-161.26,16 -69.46,67.13 -228.06,-16.62 -455.11,-240.33 -150.67,78.48 -383.33,275.23 127.72,-26.84 56.69,-37.37 164.58,11.8 21.66,210.89 -27.46,335.07 -94.03,458.62l82.04 -60.89c3.48,-13.64 15.46,-14.8 23.8,-21.47 3.04,151.01 -18.39,97.29 58.75,188.19z" />
   <path class="fil6" d="M-5939.45 19594.86c130.4,230.48 82.43,213.72 82.36,635 -0.03,239.12 0,478.24 0,717.36l-199.78 -256.21c-4.75,21.46 -127.7,-4.04 -174.35,-122.38 -16.36,-41.5 53.19,-138.18 -202.11,-197.66 46.87,201.2 214.28,424.1 355.45,565.32 382.55,382.68 106.84,200.52 232.46,692.88 0,-329.13 69.87,-1210.63 15.22,-1550.91 -34.02,-211.81 -21.67,-337.12 78.79,-471.6 -159.55,-28.56 -115.55,30.79 -188.04,-11.8z" />
   <path class="fil6" d="M7971.8 19089.17c132.85,-41.95 143.76,-35.28 317.5,-35.28 7.45,100.45 14.64,79.49 1.6,165.33 -0.8,5.26 -3.67,15.09 -4.59,20.08l-8.35 38.38c-47.8,234.47 -94.49,169.83 -94.49,375.93 54.59,-184.34 79.8,-337.85 235.14,-423.33 60.42,91.8 47.08,213.2 47.08,329.3l83.46 -0.1 -30.66 -352.16c135,33.94 79.88,36.71 182.34,105.32 -18.73,-80.42 -27.35,-81.14 -35.27,-176.39 81.1,53.65 196.42,171.55 270.41,199.86 -112.85,-155.21 -186.46,-166.25 -283.76,-328.93l-56.82 -110.91c-2.31,-4.99 -7.37,-17.26 -9.18,-21.27 -1.77,-3.95 -6.44,-13.79 -8.94,-20.97 -217.83,40.98 -164.54,90.8 -306.26,141.98 -129.11,46.63 -198.82,12.94 -299.21,93.16z" />
   <path class="fil6" d="M3573.75 22381.8c26.75,-71.58 35.28,-137.43 35.28,-235.14 -68.27,230.54 -82.23,538.94 -82.23,834.87 72.14,17.93 -95.29,44.67 13.42,-19.94l92.97 -9.43c387.07,-79.38 93.72,95.38 516.81,-5.91 -39.25,-147 -79.95,-110.23 -230.98,-161.07l-204.16 -50.6c3.33,-201.97 15.24,-186.63 -23.47,-352.78 -4.38,-1.33 -11.85,2.33 -13.51,2.52l-104.13 -2.52z" />
   <path class="fil6" d="M4538.06 22134.86l141.11 -105.83c167.24,88.49 404.42,134.98 529.16,-35.28 -150.86,-79.83 -90.29,-41.68 -277.44,-80.01 -9.36,-1.91 -19.25,-4.85 -27.84,-6.8l-153.33 -19.03c43.12,-148.38 78.32,-409.44 -105.83,-458.61 -73.46,315.32 -51.1,283.29 -26.93,641.18l-78.9 64.38z" />
   <path class="fil7" d="M4961.39 18712.92l-35.28 0c0,-212.2 16.61,-105.93 -70.55,-141.12 42.38,88.34 19.22,53.65 46.79,162.38 1.5,5.91 16.79,68.82 21.73,81.24l55 91.47c-28.98,87.66 54.87,37.41 -88.25,52.97 33.61,45.86 18.53,31.71 66.87,76.31l35.07 30.12c100.76,68.02 145.04,8.79 193.66,-16.65 95.06,-49.75 318.08,-178.03 409.96,-178.03 125.5,0 61.25,46.57 176.39,88.25 -52.76,-99.71 -83.58,-107.24 -35.28,-211.67 -228.68,53.28 -191.96,-22.25 -366.72,45.37 -138.73,53.67 -141.27,80.95 -225.28,59.38l-113.56 -34.19c0,-176.84 -35.27,-217.18 -35.27,-423.33l-35.28 317.5z" />
   <path class="fil6" d="M-1071.11 19171.53l105.83 35.27c0,86.14 -8.81,238.42 3.51,316.98 22.71,144.86 35.76,69.72 90.52,200.39 -1.88,-71.15 -57.1,-357.4 -35.28,-446.81 51.79,-99.77 -20.34,-9.92 41.15,-32.73l43.15 -6.3c116.49,-42.13 -93.32,-93.91 174.45,-31.53 -44.53,-65.9 -64.84,-74.78 -82.36,-188.19 350.74,0 230.54,45.58 388.06,105.83 -265.64,-224.63 -243.97,-71.53 -493.11,-224.35 -74.54,-45.72 18.53,-8.03 -89.67,-51.24 -50.35,-20.11 -43.13,-14.29 -110.97,-30.1 -122.08,230.72 -40.87,101.91 -35.28,352.78z" />
   <path class="fil6" d="M9441.67 21111.8c145.4,97.37 46.18,105.61 216.98,70.8l-17.12 411.29c110.02,-138.78 20.52,-247 47.08,-411.53 0.12,-0.73 205.07,-352.78 -35.28,-352.78 -242.61,0 -41.36,141.11 -388.05,141.11l98.08 43.04c10.05,3.95 42.76,10.46 78.31,27.52 -86.23,128.76 -158.15,244.45 -363.1,258.69l-13.16 11.73c226.41,0 119.92,8.08 176.39,58.88 -0.33,0.43 -74.92,24.61 -29.56,186.45 16.57,59.11 42.71,95.83 109.18,98.16 124.34,4.35 63.4,-138.03 179,9.28l-58.75 -270.41c-20.4,166.06 54.97,116.52 -74.2,183.78 -86.97,45.28 -149.27,52.67 -149.27,-77.95 0,-194.28 138.29,-260.86 223.47,-388.06z" />
   <path class="fil6" d="M4114.72 22522.91c2.27,-82.13 26.39,-75.15 70.56,-141.11 -0.59,0.23 -69.82,18.61 -75.15,18.92l-42.49 -18.92c22.14,-185.72 -23.47,-211.74 -23.47,-388.05l-70.56 0c-28.7,123.2 -70.55,118.79 -70.55,246.94 0,225.32 36.99,256.35 11.8,376.25 197.17,-88.77 150.1,187.18 587.92,82.36 -79.95,-119.39 -193.87,-172.06 -388.06,-176.39z" />
   <path class="fil6" d="M4538.06 22134.86c-66.85,16 -58.3,8.57 -97.56,35.35l-8.28 -458.68c-88.35,23.59 -138.36,38.61 -161.55,258.8 -15.34,145.54 18.39,199.04 20.44,340.92 271.95,63.35 203.48,154.65 564.45,70.55 -162.73,-243.01 -396.89,-54.78 -317.5,-246.94z" />
   <path class="fil6" d="M3797.22 18430.69c95.26,7.93 95.97,16.55 176.39,35.28l11.8 282.22c3.5,1.36 10.23,-2.89 11.18,1.13l61.83 20.91c0.21,0.12 190.91,204.06 220.89,-80.79 -55.1,131.48 -25.62,87.17 -141.11,141.11 -92.5,-184.83 -94.03,-160.71 -94.03,-435.13 155.05,12.9 175.01,62.58 305.69,94.03 -219.92,-185.98 -438.82,-206.71 -70.55,-458.62l-105.57 24.42c7.04,-106.23 29.01,-136.48 23.34,-177.2 -40.38,77.19 -74.02,184.86 -117.64,270.42l-223.65 0c-15.68,-179.1 -70.37,-114.3 -70.37,-376.25 -15.59,61.11 -13.81,79.11 -7.22,156.46 3.69,43.4 9.9,68.96 11.91,89.72l30.09 321.25c-7.88,58.85 1.23,38.69 -22.98,91.04z" />
   <path class="fil6" d="M5208.33 21394.03c-44.96,32.94 -5.91,-0.42 -56.69,49.13l-49.14 56.7c0,-214.61 -35.28,-257.34 -35.28,-458.61l-70.55 0c-50.28,215.78 -35.28,441.5 -35.28,705.55 123.09,-59.06 125.59,-16.61 268.45,-49.04 155.79,-35.37 93.93,-56.95 225.44,-92.07l0 -105.83c-152.86,0 -173.5,-16.89 -286.54,33.91l39.59 -139.74z" />
   <path class="fil6" d="M-2200 22381.8c-68.12,-292.37 197.94,-605.23 -35.28,-776.11 -10.87,130.64 -11.31,65.94 -39.53,172.27 -45.37,171 -58.29,482.49 -136.86,145.23 -35.02,53.24 -35.27,-80.68 -35.27,105.84 -100.86,-67.54 -105.24,-89.02 -246.95,-88.29 15.67,148.91 113.13,187.53 236.86,239.48 276.49,116.09 100.19,86.67 257.03,201.58z" />
   <path class="fil6" d="M457.64 19783.05c38.21,5.32 59.22,-8.38 141.11,-23.61 -43.57,130.53 -73.13,95.36 -176.39,176.39l211.16 -60.25c-72.33,175.73 -126.44,101.87 -175.88,236.64 210,-23.24 -19.52,-52.11 270.42,-211.66 38.18,112.49 3.85,50.51 0,223.47 4.98,-7.18 9.99,-28.6 11.84,-23.4l35.77 -70.09c48.69,-72.27 7.72,-51.85 93.5,-82.9l14.29 482.26c66.11,-59.93 64.88,51.74 56.26,-200.04 -18.2,-531.73 46.52,-240.32 70.56,-529.17 -252.45,0 -212.44,14.93 -246.95,-70.55 -73.96,54.19 -4.81,14.42 -53.87,52.43 -60,46.5 10.02,8.8 -65.6,44.03 -89.54,41.71 -92.12,6.64 -186.22,56.45z" />
   <path class="fil7" d="M12601.28 22364c-55.83,-90.67 38.28,-45.35 -90.45,-88.03 0,188.62 -2.88,223.59 61.01,365 102.34,226.52 21.54,178.4 80.1,270l21.36 -49.86c3.21,-5.96 7.77,-17.34 11.62,-23.55l88.73 -77.8c16.91,-6.24 417.46,-54.22 478.02,-236.85l-202.2 -2.78c-226.21,-142.65 214.36,45.19 -44.75,-32.49l-100.39 79.3c-116.48,70.16 -100.44,-12.82 -141.58,-9.38 -196.54,16.44 71.56,-66.77 -42.51,29.07l-33.02 42.12 -85.94 -264.75z" />
   <path class="fil7" d="M-2147.03 20670.89c73.12,203.02 57.18,119.1 152.2,271.2 121.39,194.3 117.13,236.92 365.68,413.09 86.07,61 134.71,75.39 134.71,215.23l0 -352.77c-116.83,-9.84 -57.95,29.94 -186.12,-128.97l-265.81 -298.46c-105.61,-121.81 -29.78,-88.75 -200.66,-119.32z" />
   <path class="fil6" d="M-6821.39 20935.41c74.87,-179.64 31.98,-41.44 0,-105.83 -122.66,93.56 -117.1,109.3 -100.25,226.91 21.47,149.87 79.08,57.39 64.18,298.71 -5.98,96.83 -20.7,90.86 -22.63,203.41l58.7 -376.25c79.39,21.2 36.61,0.23 88.38,52.73l41.1 64.78c2.13,-5.49 6.63,16.4 11.63,23.6l0 -176.39c278.9,74.47 123.83,267.87 321.51,230.51 145.07,-27.42 125.54,5.82 122.42,-148.46l-8.79 106.14c-254.36,-4.88 -379.07,-196.97 -308.61,-303.38l73.33 -84.67c-265.21,-9.09 -88.17,-187.48 -340.97,-11.81z" />
   <path class="fil6" d="M12522.64 19441.94l94.12 11.11 -0.09 247.64c304.36,33.17 47.1,376.19 47.08,376.25l141.11 -105.83c36.21,139.28 57.89,152.13 176.23,94.16 -150.39,-10.36 -71.77,33.19 -151.66,-49.62 -71.16,-73.74 -41.38,-223.8 -34.13,-314.77 166.16,8.54 185.44,58.28 256.5,164.4l-58.88 -141.11 211.85 -3.43c-196,-8.24 -157.94,-27.57 -305.88,-55.32 0,-182.41 -11.42,-206.22 141.11,-246.95 -0.53,-0.5 -46.73,-47.27 -52.63,-53.2 -16.24,-16.3 -50.8,-50.1 -53.2,-52.63 -16.06,60.14 -3.93,88.1 -83.37,122.37 -227.79,98.26 -322.68,-230.27 -175.38,-357.51 -119.29,44.05 -80.23,41.89 -79.32,193.35 1.05,174.07 71.67,65 -73.46,171.09z" />
   <path class="fil7" d="M1221.94 21852.64l-70.55 282.22c-130.64,-150.3 -70.56,-155.87 -70.56,-352.78l-105.83 70.56c23.32,181.84 13.76,38.16 46.36,165.18 49.82,194.1 -11.08,-38.61 -11.08,152.32 0,62.17 29.97,10.28 59.18,98.66 53.01,160.39 -27.63,-145.32 -1.96,53.69 10.93,84.72 45.2,47.22 48.61,200.42l282.22 -388.05c-66.84,16 -58.29,8.57 -105.83,35.28 18.74,-80.42 27.35,-81.14 35.28,-176.39l-141.11 141.11c28.98,-124.4 35.27,-115.9 35.27,-282.22z" />
   <path class="fil6" d="M8712.64 21593.89c29.45,-115.43 -8.86,-291.65 19.07,-408.47 20.23,-84.58 119.92,-181.27 175.79,-255.07 368.94,-487.38 163.53,-374.9 304.77,-559.38 -102.46,21.98 -64.47,-8.36 -136.46,59.81 -106.81,101.16 30.34,168.59 -104.69,159.31 -96.72,-6.65 -91.04,145.89 -182.06,261.89 -39.6,50.47 -18.12,24.92 -64.75,59.96l-11.67 681.95z" />
   <path class="fil7" d="M411.82 20972.45c-9.58,-47.61 -1.95,-97.97 -14.72,-164.95 -20.65,-108.37 -51.67,-143.01 -74.79,-242.45 -66.44,63.52 -44.93,1.58 -80.31,108.13 -16.54,49.82 36.9,519.13 168.56,703.12l131.04 -421.08c24.6,-196.31 19.21,-60.94 -25.21,-125.64 -11.41,137.06 -31.83,91.91 -35.28,246.95 -74.52,-34.73 -34.78,67.47 -69.29,-104.08z" />
   <path class="fil7" d="M9214.53 22399.72l15.47 -194.31c-111.69,160.74 -19.87,86.29 -70.56,70.56 -24.88,-106.82 -24.52,-238.94 -80.31,-343.02 -34.43,-64.23 -38.84,-55.05 -60.8,-80.31 -31.34,134.51 -35.27,140.25 -35.27,317.5l35.27 0 0 -176.39c145.45,106.57 19.59,137.75 105.84,317.5 -79.75,-32.19 -58.72,-38.02 -105.84,-105.84 3.39,169.36 56.73,234.84 88.25,370.37l81.44 -58.73c121.58,-104.67 314.55,-270.22 350.55,-399.78 -139.03,51.52 -184.83,109.85 -324.04,282.45z" />
   <path class="fil7" d="M-4105 22417.08c4.36,-157.95 35.28,-152.6 35.28,-335.23l-35.28 -17.55c0,237.28 -70.56,221.34 -70.56,458.61l-52.97 -229.25 -141 176.28c360.74,227.16 -37.94,476.31 229.25,476.31 99.63,0 136.11,-80.95 176.39,-141.11 -129.04,34.45 -73.93,37.22 -176.39,105.83 36.36,-171.65 66.43,-72.11 -35.28,-105.83 4.83,-216.45 144.4,-384.4 229.22,-564.45 -95.55,52.46 -38,7.79 -102.17,93.01l-56.49 83.38z" />
   <path class="fil6" d="M1680.56 23228.47c315.14,-299.76 355.04,-172.59 599.72,-635 -302.79,70.54 -407.85,333 -539.52,435.1l-13.12 -211.63c0,147.9 -32.25,238.72 -47.08,411.53z" />
   <path class="fil7" d="M2192.03 21394.03c89.47,-88.51 205.93,-158.29 229.36,-317.5 -69.44,47.54 -48.59,42.5 -114.54,99.8 -69.55,60.43 -73.54,43.83 -80.46,48.31 -102.72,66.41 -21.57,104.86 -157.78,204.66 18.74,-80.42 27.35,-81.13 35.28,-176.39l-70.56 141.12c-70.26,-94.12 -16.14,-42.81 -105.83,-105.84 26.99,234.07 47.89,62.4 18.76,225.36 -11.14,62.33 -45.57,4.38 69.49,145.01 99.43,-40.9 30.12,-3.68 120.14,-54.8 53.82,-30.56 102.44,-48.67 93.62,-126.13l-27.59 -63.25c-1.17,-10.31 -8.32,-12.97 -9.89,-20.35z" />
   <path class="fil7" d="M13237.84 21415.04c17.42,-31.86 1.82,6.97 37.14,-77.62 30.5,-73.04 44.66,-88.53 25.92,-170.99 -62.97,-277.22 -38.25,-407.75 -119.79,-407.4l-70.55 0c0,148.44 -9.32,267.88 19.7,403.51 24.84,116.07 50.12,203.33 50.85,337.32l56.73 -84.82z" />
   <path class="fil6" d="M4091.25 20923.61c113.14,-122.58 245.02,-1.64 519.41,-197.34 95.28,-67.95 81.78,-43.65 121.33,-178.91 -336.01,63.23 -284.01,74.25 -518.91,184.52 -3.95,1.85 -14.16,3.92 -17.88,5.82 -75.27,38.47 -81.28,78.03 -103.95,185.91z" />
   <path class="fil7" d="M-10507.97 21632.04c28.05,-143.55 84.88,-180.72 87.81,-348.79 0.69,-39.28 -3.59,-57.45 -6.06,-91.79l-11.2 -238.35c-161.38,44.27 -54.56,-51.91 -134.49,88.78 -49.84,87.72 -8.83,297.23 -6.51,352.14 -4.69,133.41 2.03,-19.89 -52.97,105.83l123.42 132.18z" />
   <path class="fil6" d="M3861.9 21427.2c57.45,-134.07 79.32,-154.48 5.88,-209.56 0,-172.43 -9.65,-194.07 -32.3,-322.43 -39.55,-224.17 -9.22,-170.19 -108.81,-206.74 -63.23,271.4 11.83,488.76 70.55,740.83l64.68 -2.1z" />
   <path class="fil6" d="M-1318.06 23157.91c-70.8,-147.56 -10.05,-236.61 -47.95,-410.7 -65.78,-302.19 -128.64,-247.94 -163.71,-259.57 0,222.41 29.63,318.22 70.55,493.89l-141.11 70.55c72.24,98.59 137.02,72 282.22,105.83z" />
   <path class="fil6" d="M-6262.85 22240.69c-45.69,-182.02 -6.36,5.18 -44.06,-53.5 -0.05,-0.07 -63.54,106.06 -25.74,-85.76 34.77,-176.47 1.43,-42.26 53.65,-52.83l57.33 15.7c31.29,-107.65 41.72,-150.3 -11.8,-235.14 -42.37,86.43 -70.73,130.92 -109.76,218.34l-101.91 228.47c-15.74,-60.67 -29.16,-104.53 -51.97,-164.03 17.11,162.01 46.62,250.74 -0.64,319.71 -83.19,121.45 19.77,-107 -26.09,32.19 -39.35,119.43 87.32,111.15 149.26,258.94 0,-168.81 -37.06,-152.18 9.49,-270.21 18.86,-47.81 73.84,-156.73 102.24,-211.88z" />
   <path class="fil5" d="M-5092.78 21041.25c-15.43,185.44 -100.93,302.57 -11.8,505.69 73.57,-34.36 60.7,4.29 117.41,-88.02 63.18,-102.86 35.5,-401.62 35.5,-523.51 -90.04,24.05 -67.65,21.33 -141.11,105.84z" />
   <path class="fil7" d="M5949.17 22134.86c67.93,45.49 78.5,76.06 146.54,109.8 101.38,50.27 122.55,34.65 188.54,13.62 38.23,-141.92 9.7,-62.83 -3.32,-136.52 -46.83,-265.03 -66.29,-240.15 -190.65,-269.12l0 211.66 -65.44 -31.03 -75.67 101.59z" />
   <path class="fil7" d="M-5798.33 22946.25c12.52,-150.52 58.03,-166.99 70.55,-317.5l-141.11 246.94c0,-413.85 42.38,-340.58 -70.56,-423.33 0,298.57 17.7,469.21 17.7,758.42 105.59,-40.23 43.69,-12.79 75.27,-43.28 6.37,-6.15 16.29,-26.25 20.74,-33.23 122.9,-192.24 -37.41,32.47 37.7,-72.31 54.14,-75.54 80.7,-102.03 130.82,-186.27 -104.37,27.87 -57.19,14.36 -141.11,70.56z" />
   <path class="fil5" d="M7818.89 21499.86l152.76 14.29c40.47,-185.75 20.96,-451.46 -152.76,-578.74 -17.45,392.49 -67.94,45.17 0,564.45z" />
   <path class="fil6" d="M13545.69 20817.78c49.68,-58.75 108.84,-145.49 184.79,-142.04l78.04 19c3.4,0.18 142.26,-8.12 183.98,-6.27 -55.88,-50.1 -40.73,-76.17 -40.93,-77.26 -7.99,-43.97 38.57,-39.33 -100.18,-52.05 34.1,-158.37 84.64,-141.82 105.83,-329.3l-96.18 115.42c-29.93,49.81 -7.06,-14.33 -33.12,72.77l-94.15 0 -3.71 -176.62c-32.08,43.69 41.71,91.21 -66.86,211.9 -7.61,-98.79 -23.46,-132.33 -46.95,-211.67 3.58,135.28 50.87,197.22 48.3,325.66 -2.85,142.89 -68.93,119.94 -118.86,250.46z" />
   <path class="fil7" d="M13516.2 22187.83c117.52,-99.17 100.4,-194.08 335.19,-194.08l0 -35.28c-139.28,0 -143.15,11.1 -246.95,35.28 -12.39,-145.49 -2.64,-62.7 -35.27,-105.84 -16.19,205.21 -60.59,161.26 -141.11,299.92 0,-112.14 8.57,-124.97 -35.28,-194.08 -27.66,118.7 -31.71,190.16 -52.86,343.84 105.1,22.48 58.29,-39.12 88.14,79.49 4.63,-6.79 9.58,-17.11 11.93,-21.57l61.33 -114.68c26.04,-163.04 204.55,140.51 279.51,-181.25 -228.12,167.14 26.95,43.5 -264.63,88.25z" />
   <path class="fil6" d="M12016.94 20900.14c38.76,-167.14 106.4,-108.88 58.76,-199.87 -68,159.84 -56.81,97.39 -179.84,110.19 -167.1,17.4 -31.46,-2.92 -78.77,172.04 -185.96,0 -172.45,15.69 -246.95,-70.56 78.57,212.76 329.22,96.44 345.36,93.83l7.41 223.67c-164.92,11.18 -75.26,-24.59 -105.83,46.95 92.33,-29.52 81.52,-42.24 199.86,-58.75 -50.09,-103.25 -41.4,-98.92 -35.27,-246.95 123.16,30.75 103.5,71.93 234.7,18.94 92.39,-37.32 116.84,-62.6 70.99,-148.24 -34.23,115.59 -7.76,236.23 -270.42,58.75z" />
   <path class="fil6" d="M-9996.39 22840.41c18.74,80.42 27.35,81.14 35.28,176.39l70.55 0c16.59,-199.29 -9.81,-19.88 53,-158.66 92.8,-205.02 65.62,-304.26 105.67,-511.61 -119.13,65.39 -45.8,-5.79 -114.7,115.8 -15.25,26.92 -44.42,90.51 -55.22,119.91 -35.53,96.76 -26.44,160.11 -94.58,258.17z" />
   <path class="fil6" d="M-11084.1 20723.75l-60.21 108.68c-37.36,101.7 -100.95,14.05 -16.25,138.26 -97.6,11.03 -186.35,37.61 -270.41,58.75 414.02,0 265.98,-31 305.69,82.36 99.92,-73.21 4.33,-48.55 177.84,-108.04 47.68,-16.35 -65.53,-12.43 104.38,-33.07l-141.11 -35.28c53.51,-80.87 67.38,-60.4 94.03,-164.58 -80.15,56.82 -15.28,26.5 -141.11,35.28 -23.49,-106.69 -52.01,-180.21 -82.22,-282.22 2.77,104.56 17.22,112.28 29.37,199.86z" />
   <path class="fil6" d="M-2446.94 21887.91c0,-188.23 19.5,-534.76 -176.39,-599.72 -46.11,93 -35.28,-29.04 -35.28,105.84 0,95.09 86.45,402.14 211.67,493.88z" />
   <path class="fil6" d="M5243.61 21323.47c137.44,-92.04 246.95,-266.5 246.95,-493.89 0,-100.77 -11.1,-64.51 -70.56,-105.83 -43.11,161.43 -176.39,274.05 -176.39,599.72z" />
   <path class="fil6" d="M-9996.39 22840.41c-14.7,-78.39 -19.45,-87.09 -47.08,-141.11 -152.99,-44.41 -19.79,59.95 -199.86,-94.03 -4.59,10.82 -11.54,27.88 -13.25,31.16l-97.25 -63.93c-0.01,-0.04 52.58,-74.58 -141.1,-153.71l-101.18 -1.71c-127.29,123.47 599.35,423.14 599.72,423.33z" />
   <path class="fil6" d="M-10639.4 21891.38c-86.96,-27.77 -41.8,-60.55 -203.66,-74.02 19.11,148.93 -44.85,59.81 67.35,144.32 198.97,149.88 379.98,-34.12 450.02,149.55 -8.87,-172.65 -32.08,-89.62 -70.56,-246.79 -12.03,16.68 -18.98,31.09 -40.47,36.96 -54.5,14.89 -50.8,-18.87 -115.62,-18.41l-87.06 8.39z" />
   <path class="fil7" d="M163.61 22346.53c22.79,-51.01 35.28,-134.72 35.28,-211.67l-35.28 0c0,195.13 -88.74,161.28 -105.83,317.5 -83.93,-56.2 -36.75,-42.69 -141.11,-70.56 52.74,198.91 103.73,28.46 141.11,317.5l53.86 -94.05c3.72,-7.21 6.64,-17.71 10.45,-24.71 90.65,-166.63 133.32,-48.07 182.63,-234.01 -12.82,1.06 -87.96,11.02 -89.59,11.08 -58.14,1.89 -8.29,9.28 -51.52,-11.08z" />
   <path class="fil6" d="M-7281.31 22769.64c30.51,-216.86 43.83,-199.64 -10.49,-199.64 -88.32,-98.34 159.05,73.41 -117.51,0l128 199.64z" />
  </g>
 </g>
</g><g id="text"><text x="1646.82" y="197.16" font-family="Microsoft JhengHei, SimHei, Microsoft YaHei, Noto Sans CJK SC, sans-serif" font-size="36.37" font-weight="800" fill="#9f7244" writing-mode="vertical-rl" textLength="133.98" lengthAdjust="spacing">勤劳俭朴</text>
  <text x="1200.09" y="200.43" font-family="Microsoft YaHei, SimHei, Noto Sans CJK SC, sans-serif" font-size="27.50" font-weight="800" fill="#a07545" writing-mode="vertical-rl" textLength="127.45" lengthAdjust="spacing">勤奋学习</text>
  <text x="1234.71" y="200.43" font-family="Microsoft YaHei, SimHei, Noto Sans CJK SC, sans-serif" font-size="31.04" font-weight="800" fill="#a17746" writing-mode="vertical-rl" textLength="129.63" lengthAdjust="spacing">遵规守纪</text>
  <text x="1613.83" y="200.43" font-family="Microsoft JhengHei, SimHei, Microsoft YaHei, Noto Sans CJK SC, sans-serif" font-size="30.16" font-weight="800" fill="#9f7544" writing-mode="vertical-rl" textLength="128.54" lengthAdjust="spacing">孝敬父母</text>
  <text x="292.05" y="322.97" font-family="KaiTi, Microsoft YaHei, Noto Sans SC, Noto Sans CJK SC, SimHei, Arial, sans-serif" font-size="125.27" font-weight="800" fill="#3886cd" textLength="249.86" lengthAdjust="spacing">校园</text>
  <text x="513.79" y="318.20" font-family="Microsoft YaHei, Noto Sans SC, Noto Sans CJK SC, SimHei, Arial, sans-serif" font-size="66.14" font-weight="800" fill="#15a9d5" textLength="287.72" lengthAdjust="spacing">文明礼仪</text>
  <text x="1455.36" y="312.62" font-family="Microsoft YaHei, SimHei, Noto Sans CJK SC, sans-serif" font-size="31.04" font-weight="800" fill="#498dce" writing-mode="vertical-rl" textLength="130.71" lengthAdjust="spacing">严于律己</text>
  <text x="1816.64" y="312.62" font-family="Microsoft YaHei, SimHei, Noto Sans CJK SC, sans-serif" font-size="31.04" font-weight="800" fill="#4f90cf" writing-mode="vertical-rl" textLength="131.80" lengthAdjust="spacing">礼貌待人</text>
  <text x="1009.72" y="313.71" font-family="Microsoft YaHei, SimHei, Noto Sans CJK SC, sans-serif" font-size="29.27" font-weight="800" fill="#4288cc" writing-mode="vertical-rl" textLength="128.54" lengthAdjust="spacing">注重仪表</text>
  <text x="1418.59" y="313.71" font-family="Microsoft YaHei, SimHei, Noto Sans CJK SC, sans-serif" font-size="29.27" font-weight="800" fill="#5594d1" writing-mode="vertical-rl" textLength="130.71" lengthAdjust="spacing">遵守公德</text>
  <text x="1851.25" y="313.71" font-family="Microsoft YaHei, SimHei, Noto Sans CJK SC, sans-serif" font-size="31.04" font-weight="800" fill="#488bce" writing-mode="vertical-rl" textLength="130.71" lengthAdjust="spacing">诚实守信</text>
  <text x="1045.42" y="314.80" font-family="Microsoft YaHei, SimHei, Noto Sans CJK SC, sans-serif" font-size="27.50" font-weight="800" fill="#4a8ecf" writing-mode="vertical-rl" textLength="128.54" lengthAdjust="spacing">自尊自爱</text>
  <text x="371.01" y="450.03" font-family="KaiTi, Microsoft YaHei, Noto Sans SC, Noto Sans CJK SC, SimHei, Arial, sans-serif" font-size="127.27" font-weight="800" fill="#3686ce" textLength="526.77" lengthAdjust="spacing">你我共同守护</text>
</g></svg>