<?xml version="1.0" encoding="UTF-8"?>
<!DOCTYPE svg PUBLIC "-//W3C//DTD SVG 1.1//EN" "http://www.w3.org/Graphics/SVG/1.1/DTD/svg11.dtd">
<!-- Creator: CorelDRAW -->
<svg xmlns="http://www.w3.org/2000/svg" xml:space="preserve" width="210mm" height="297mm" version="1.1" style="shape-rendering:geometricPrecision; text-rendering:geometricPrecision; image-rendering:optimizeQuality; fill-rule:evenodd; clip-rule:evenodd"
viewBox="0 0 21000 29700"
 xmlns:xlink="http://www.w3.org/1999/xlink">
 <defs>
  <style type="text/css">
   <![CDATA[
    .fil2 {fill:#9F3034}
    .fil0 {fill:#B8393A}
    .fil4 {fill:#CB6D6B}
    .fil3 {fill:#CEA36F}
    .fil5 {fill:#D49493}
    .fil7 {fill:#DEC2A0}
    .fil6 {fill:#E4C3C2}
    .fil1 {fill:#FDFDFD}
   ]]>
  </style>
 </defs>
 <g id="图层_x0020_1">
  <metadata id="CorelCorpID_0Corel-Layer"/>
  <g id="_1995461580016">
   <path class="fil0" d="M30079.17 10845.97c-32.65,21.86 -84.76,70.56 -105.84,70.56 -146,0 -173.07,-98.1 -176.39,-246.95 188.99,4.21 210.96,41.71 282.23,176.39zm2857.5 -776.11c172.12,-14.32 388.29,-119.67 543.06,-85.15 91.37,20.38 167.42,73.02 240.43,74.85 214.09,5.34 -12.02,9.92 120.65,-31.06l648.1 -100.2c328.94,-13.87 232.07,-33.48 529.15,35.73l0 282.22c184.59,15.36 183.07,76.14 424.15,72.54 432.85,-6.46 106.18,-32.33 351.96,33.29 68.61,-102.46 71.37,-47.34 105.83,-176.39l-70.56 0c39.08,-146.32 72.9,-74.83 74.7,-188.68l-4.14 -22.98c249.02,5.54 338.7,55.44 392.14,85.74l207.58 55.37c-58.27,250.12 -131.61,190.84 -303.78,296.02 -202.27,123.56 -103.5,214.72 -154.83,338.98 262.66,0 220.74,34.41 448.98,-3.51 100.81,-16.76 68.27,-1.81 200.9,-17.48 247.96,-29.3 385.06,-42.27 660.6,16.12 245.16,51.96 199,-58.49 312.3,110.7 -132.52,30.87 -149.44,71.31 -254.08,133.98 -88.61,53.08 -169.98,81.17 -270.89,117.16 -174.37,62.2 -366.2,132.11 -533.71,207.13 -181.83,81.42 -408.01,106.59 -531.2,142.78 -210.28,61.76 -314.63,133.71 -548.92,190.63l-546.11 137.74c-1011.03,233.45 -856.21,141.3 -1815.82,227.43l-1234.66 -7.49c-394.84,-59.14 -825.49,-39.59 -1073.8,-125.72 -348.85,-121 -281.64,-87.76 -281.64,-282.8 -99.99,46.24 -41.13,46.24 -141.12,0 -1.25,-3.55 1.25,-10.09 1.27,-11.22l-4.55 -168.28c0.42,-4.52 3.31,-14.9 3.63,-19.43l-70.9 -259.69c44.43,-29.75 235.62,-179.83 272.78,-221.57l115.54 -155.91c147.27,-139.65 224.37,-229.31 367.77,-277.53l524.15 -181.41c400.89,-93.92 349.71,-155.45 559.08,-181.76l771.23 -110.7c73.07,235.42 -95.6,-123.84 -35.27,70.55zm5115.45 -6773.51c78.66,-307.64 35.1,-699.34 35.1,-1022.88l952.5 0c0,323.54 -43.55,715.24 35.1,1022.88 -568.87,-54.26 -453.83,-54.26 -1022.7,0zm1128.71 -493.71l458.61 0c0,196.82 -14.22,300.79 35.11,493.71 -232.17,-59.36 -493.72,40.37 -493.72,-140.93l0 -352.78zm-1093.61 -1128.89l458.61 0c0,196.82 -14.22,300.79 35.1,493.71 -192.92,-49.33 -296.88,-35.1 -493.71,-35.1l0 -458.61zm-4303.89 10936.11c-59.49,-144.02 59.59,-168.92 166.85,-256.45 64.36,-52.53 75.95,-72.85 113.09,-133.89 75.15,-123.47 -9.65,-97.96 143.4,-138.83 9.29,111.71 47.79,182.47 -70.56,352.78 79.54,118.78 114.36,70.35 70.56,176.39l2963.33 0 785.07 1119.93c124.16,152.11 116.24,310.39 308.54,361.74l785.06 -1119.95c109.6,-121.2 185.65,-230.86 273.27,-361.72 1570.37,0 1303.84,380.05 1305.87,-1551.16l-35.87 -1764.95c197.03,0 44.09,6.27 105.84,-41.39 -1106.45,74.41 -2232.53,-34.42 -3321.13,59.11 -75,6.44 -123.79,3.13 -201.12,13.68 -68.6,9.36 -197.47,64.3 -312.38,-11.43 -216.64,-142.77 7.12,-127.01 23.93,-583.91l0.7 -2611.06c0,-900.01 -159.18,-740.83 740.83,-740.83 999.54,0 1999.08,0 2998.61,0 -64.06,-769.81 14.83,-2398.18 -25.62,-2690.74 -18.54,-134.07 -9.84,-276.62 -9.67,-413.69l1.26 -1200.71c-11.43,-163.48 -34.95,-205.73 -209.25,-214.08 -509.44,-24.38 -1106.54,3.66 -1626.44,3.66l-17709.44 0c-247.93,0 -596.16,4.26 -772.49,10.07 -370.06,12.19 -390.08,-40.91 -673.9,25.21 0,161.22 -14,224.11 -27.05,328.54 -19.07,152.66 19.54,202.11 28,342.35l-36.25 740.2c0.63,526.48 32.7,967.66 35.53,1517.2 1.47,285.25 -37.21,419.83 -35.74,705.09l2.14 2994.62c7.35,134.31 40.84,177.1 35.73,356.94 -4.94,173.72 -33.56,176.62 -38.79,351.68 -19.05,636.53 19.46,1430.88 16.33,2012.81l10.29 855.31c39.79,475.56 8.58,714.83 -24.83,1122.49 -14.85,181.1 23.29,213.37 34.64,349.71 242.17,20.16 277.41,49.52 599.01,32.28l13582.65 3z"/>
   <path class="fil1" d="M-6186.39 1709.03l0 8572.5c0,148.72 159.23,109.64 316.28,107.05 153.22,-2.52 306.57,-1.22 459.83,-1.22l2681.11 0c53.24,199.39 913.9,1266.55 952.5,1411.11 187.02,-49.93 440.55,-526.44 550.05,-684.68 174.26,-251.83 344.23,-481.43 508.29,-726.43l17356.66 0c283.55,0 566.38,0.41 849.76,3.09 218.37,2.06 225.54,31.72 256.18,-165.87l-12.33 -2024.44c0,-1123.42 -54.13,-2385.7 3,-3491.82 6.05,-117.16 8.31,-81.46 5.76,-163.28 -2.48,-80.03 -5.03,-93.3 0.47,-178.48l-9.23 -2128.37c-0.14,-291.17 121.95,-647.09 -176.38,-647.09l-23530.28 0c-122.29,0 -211.67,-0.8 -211.67,117.93z"/>
   <path class="fil0" d="M-13347.78 9364.31c172.62,0.51 -8.28,-23.62 70.38,70.55 -6.83,9.24 -16.57,11.09 -19.42,28.48 -19.62,119.56 -55.46,-106.19 -51.18,394.57l0.22 7055.84c0,2504.72 0,5009.44 0,7514.17 66.04,104.08 105.84,822.77 105.84,917.22 209.38,0 302.52,-31.8 458.61,-35.28 -54.18,77.97 -5.79,43.84 -105.84,70.56l0 105.83c209.38,17.42 505.36,141.11 846.67,141.11 1.59,-4.51 -3.7,-17.27 -3.92,-13.8 -0.01,0.17 -70.27,-93.77 41.34,-110.34 124.81,-18.52 69.84,9.61 73.12,75.95 8.27,167.61 -61.15,-79.38 -4.71,48.19l996.12 1.97c350.92,-33.75 54.06,148.05 372.76,135.79 448.92,-17.26 187.61,15.5 465.57,38.63 35.6,-86.17 23.85,-28.47 0,-141.11 91.47,42.3 165.03,12.32 276.8,-44.92 163.62,-83.79 56.54,-57.2 40.7,-202.02 255.44,5.69 376.78,175.18 431.41,-168.32l56.62 -613.65c13.37,-135.3 -17.42,-219.36 41.13,-311.65l0 -15451.66c-140.93,-162.15 -163.82,-301.93 -35.27,-493.89 -174.1,19.04 -67.88,-45.99 -128.74,153.49 -49.7,162.9 -161.55,315.28 -310.63,394.92 -35.42,18.92 -65.78,35.22 -89.8,51.31l-70.56 -246.94c303.37,-81.01 176.56,-175.99 176.39,-176.39 -15.2,-5.38 -80.08,46.2 -176.39,0 -4.32,194.28 6.73,77.72 -54.75,191.14l-39.23 61.84c-26.29,25.03 -79.63,26.71 -162.41,-10.69 -87.08,-39.33 -26.25,31.36 -96.38,-101.18 54.08,-73.81 348.35,-275.58 -87.91,-127.35 -281.48,95.64 -268.7,80.85 -370.7,233.18 76.07,50.94 103.79,80.7 211.66,105.83 125.27,-83.88 76.96,-126.96 246.95,-141.11 -38.3,115.51 -1.61,17.93 -60.23,63.27 -38.07,29.44 -51.76,39.67 -89.1,68.52 -232.27,179.43 -367.08,-36.81 -462.85,-84.4 -167.61,-83.28 -63.78,60.11 -199.21,-82.66 -61.62,264.48 -333.98,114.12 -388.06,-35.28 -343.52,181.77 -156.41,60.18 -410.77,118.4 -142.16,32.53 -6.23,37.37 -190.23,56.71 -76.23,8.01 -166.56,-7.33 -241.66,5.28 -139.38,23.42 -222.18,172.39 -815.39,172.39l-47.48 180.18c-1.24,9.77 -0.06,38.32 -1.87,47.18 -26.12,127.64 -5.91,90.14 -197.6,90.14z"/>
   <path class="fil0" d="M-17584.32 16511.19c54.7,498.58 12.31,4058.82 12.31,4882.84 0,1237.63 -35.29,3023.49 -1.25,4234.33l-11.06 542.67c115.84,210.03 -39.44,2734.13 38.49,3266.33l1940.27 0 0 -29068.89c-670.27,0 -1340.55,0 -2010.83,0l56.06 5750.28c474.57,0 1122.09,46.76 1566.54,-35.1 -77.42,302.81 -35.1,2917.2 -35.1,3457.04l-1531.44 0c0,746.2 59.48,6819.17 -23.99,6970.5z"/>
   <polygon class="fil0" points="-19380.28,6118.75 -17863.55,6118.75 -17863.33,368.47 -19806.46,368.18 -19803.61,29437.36 -17864.41,29437.36 -17863.33,9540.69 -19380.28,9540.69 "/>
   <path class="fil2" d="M-13347.78 9364.31c191.69,0 171.48,37.5 197.6,-90.14 1.81,-8.86 0.63,-37.41 1.87,-47.18l47.48 -180.18c593.21,0 676.01,-148.97 815.39,-172.39 75.1,-12.61 165.43,2.73 241.66,-5.28 184,-19.34 48.07,-24.18 190.23,-56.71 254.36,-58.22 67.25,63.37 410.77,-118.4 54.08,149.4 326.44,299.76 388.06,35.28 135.43,142.77 31.6,-0.62 199.21,82.66 95.77,47.59 230.58,263.83 462.85,84.4 37.34,-28.85 51.03,-39.08 89.1,-68.52 58.62,-45.34 21.93,52.24 60.23,-63.27 -169.99,14.15 -121.68,57.23 -246.95,141.11 -107.87,-25.13 -135.59,-54.89 -211.66,-105.83 102,-152.33 89.22,-137.54 370.7,-233.18 436.26,-148.23 141.99,53.54 87.91,127.35 70.13,132.54 9.3,61.85 96.38,101.18 82.78,37.4 136.12,35.72 162.41,10.69l39.23 -61.84c61.48,-113.42 50.43,3.14 54.75,-191.14 96.31,46.2 161.19,-5.38 176.39,0 0.17,0.4 126.98,95.38 -176.39,176.39l70.56 246.94c24.02,-16.09 54.38,-32.39 89.8,-51.31 149.08,-79.64 260.93,-232.02 310.63,-394.92 60.86,-199.48 -45.36,-134.45 128.74,-153.49 -128.55,191.96 -105.66,331.74 35.27,493.89l0 -8501.95 -4092.22 0 0 8995.84z"/>
   <path class="fil3" d="M-19168.61 6365.69l2904.87 0 0 2928.06 -2904.87 0 0 -2928.06zm1584.29 19805.34l-2.87 3266.33 -240.87 0 -4.61 -19931.94c159.71,3.45 112.9,23.36 245.14,35.27l3.21 6970.5c83.47,-151.33 23.99,-6224.3 23.99,-6970.5l1531.44 0c0,-539.84 -42.32,-3154.23 35.1,-3457.04 -444.45,81.86 -1091.97,35.1 -1566.54,35.1l-56.06 -5750.28c670.28,0 1340.56,0 2010.83,0l0 29068.89 -1940.27 0c-77.93,-532.2 77.35,-3056.3 -38.49,-3266.33zm-243.74 -25802.56l240.53 0 0.21 5755.53 -245.31 6.84 4.57 -5762.37zm-1552.22 9172.22l1516.95 0 -1.08 19896.67 -1939.2 0 -2.85 -29069.18 1943.13 0.29 -0.22 5750.28 -1516.73 0 0 3421.94zm-811.39 20178.89c0,187.2 447.35,101.85 775.99,92.02l1517.07 13.82c809.07,-33 1619.16,1.05 2434.17,0 121.62,0 136.59,-26.1 246.94,-35.28l0 -28963.06c0,-329.97 68.85,-846.66 -105.83,-846.66l-4868.34 0 0 29739.16z"/>
   <path class="fil3" d="M-9255.56 8870.42l0 15451.66c0,812.09 42.17,4093.04 -7.22,4614.08 -36.45,384.51 109.39,405.36 -697.61,403.88 -513.72,-0.93 -3035.27,28.51 -3324.57,-36.05 -141.33,-312.61 -62.82,-4147.92 -62.82,-4876.07 0,-2504.73 0,-5009.45 0,-7514.17l-0.22 -7055.84c-4.28,-500.76 31.56,-275.01 51.18,-394.57 2.85,-17.39 12.59,-19.24 19.42,-28.48 -78.66,-94.17 102.24,-70.04 -70.38,-70.55l0 -8995.84 4092.22 0 0 8501.95zm-4427.36 20872.35l4780.06 0 0.08 -29762.35 -4797.82 0 17.68 29762.35z"/>
   <path class="fil1" d="M19435.93 12775.6c-77.52,-328.13 -30.92,-11997.04 6.49,-12107.76 6555.95,0 13111.91,0 19667.86,0 1921.53,0 1677.16,-163.72 1676.2,476.7l-0.01 10936.15c0,790.37 84.36,706.86 -370.46,692.73 -346.85,-10.78 -711.38,24.03 -1023.51,-22.45 -30.7,114.99 -790.86,1125.11 -892.23,1259.72 -86.14,114.38 -211.52,328.22 -307.21,398.34 -87.69,-165.72 -179.36,-278.69 -282.1,-423.46l-289.75 -415.81c-189.65,-283.35 -370.9,-540.82 -557.04,-818.79 -541.92,80.7 -1598.65,24.63 -2222.5,24.63 -5143.12,0 -10294.34,0 -15405.74,0zm-257.6 -59.91c0,145.85 118.97,321.04 234.19,365.53l1961.93 38.02c231.8,-5.98 464.5,-3.4 696.66,-3.4 987.25,0 2345.22,-31.64 3316.39,0l1340.4 -13.82c664.84,41.14 4344.2,13.82 5573.77,13.82 949.59,0 3037.1,-37.67 3783.01,3.69l837.95 -4.96c175.3,18.44 288.31,279.19 451.99,525.39l605.23 876.44c62.6,86.97 173.77,174.85 319.04,174.85 282.08,0 320.58,-141.54 453.15,-322.96l934.86 -1249.38 446.43 -15.16c445.61,-9.12 1070.43,133.83 1070.43,-388.06l0 -11923.89c0,-268.72 -169.02,-423.33 -364.87,-423.33l-21272.5 0c-206.13,0 -388.06,181.93 -388.06,388.06l0 11959.16z"/>
   <path class="fil1" d="M11311.39 25815.85c334.92,0 740.83,67.87 740.83,-117.93 0,-298.13 -712.12,70.19 -987.78,-246.95 40.36,-76.27 61.47,-176.39 176.39,-176.39l7126.11 0c121.63,0 136.6,26.1 246.95,35.28 114.55,491.69 -119.46,375.96 -987.78,375.96 -901.39,0 -2849.37,-47.58 -3527.78,12.1 -201.66,301.15 -132.49,530.85 280.23,531.16l9844.5 -2c120.27,179.62 135.76,72.88 70.55,352.78 -429.44,100.05 -1830.24,35.28 -2398.89,35.28l-7231.94 0c-65.39,123.57 -125.98,246.94 -317.5,246.94l-3210.28 0c-170.64,0 -282.22,-111.58 -282.22,-282.22 0,-169.44 271.27,-359.26 -173.34,-355.83l-3883.61 3.05c-394.2,0 -1234.72,89.25 -1234.72,-176.38 0,-315.14 319.54,-234.99 634.99,-234.86l5115.29 0.01zm7690.55 -12.1c30.38,-118.01 70.56,-125.47 70.56,-246.94 0,-367.51 -152.62,-682.38 -560.03,-682.38l-7342.19 0c-190.59,0 -251.46,32.87 -346.25,124.59 -174.48,168.81 -182.84,224.55 -183.08,384.35 -1172.55,-62.56 -3569.97,-15.05 -4868.17,-15.05 -378.28,0 -611.82,263.72 -611.82,647.1 0,613.44 457.79,636 858.72,635.04l4057.69 -0.74c47.13,-0.51 134,-4.26 177.01,-0.63 55.31,4.67 46.79,6.2 89.73,16.12l50.06 20.49c100.04,51.38 28.89,-26.5 110.37,207.13 75.84,217.47 355.39,392.59 524.63,392.59l3421.94 0c319.53,0 304.75,-156.8 494.05,-212.41 187.47,-55.07 8071.38,-26.08 8995.72,-22.18 423.56,1.79 811.34,-88.59 811.34,-576.8 0,-762.81 -558.77,-670.3 -1023.05,-670.28l-4727.23 0z"/>
   <path class="fil1" d="M-6010 19735.97l7902.22 0c153.68,0 108.67,189.05 106.47,352.14l-0.63 1376.47c-55.3,-40.51 -70.56,-6.49 -70.56,-105.83l0 -1552.22 -7902.22 0 -35.28 1622.78 0 -1693.34zm-176.39 1940.28l8360.83 0 0 -2116.67 317.5 0 -8690.98 0 12.65 2116.67z"/>
   <path class="fil1" d="M4114.72 15608.47l0 -176.39 7725.84 0 -2.63 1693.04c-209.63,0.36 -393.85,60.07 -844.21,35.75l-881.78 -35.45c-247.38,0 -452.45,55.97 -660.18,26.09 -297.85,-42.85 -365.28,9.18 -645.09,9.18 -178.05,0 -187.86,-27.57 -320.51,-34.57 -267.95,-14.16 -46.75,71.09 -637.14,4.45l-1864.81 -5.39c-345.27,-1.77 -802.28,78.33 -1229.33,30.36 -228.2,-25.63 -375.31,-43.28 -658.61,-11.67l62.13 -72.1c261.39,58.98 7190.22,18.37 7646.88,18.37 -59.89,-480.23 17.26,-1010.86 -23.48,-1622.47l-7596.52 -0.31 -70.56 141.11zm-188.48 1728.61l8090.7 0 0 -2093.48 -8096.25 0 5.55 2093.48z"/>
   <path class="fil1" d="M4079.44 19806.53l7655.28 0c81.29,0 105.84,24.55 105.84,105.83l0 1622.78 -6808.63 18.76c-213.09,2.61 -302.57,33.24 -406.49,-73.11l7144.56 19.07 0 -1658.05c-145.56,60.13 -738.71,20.34 -925.07,11.55 -148.53,-7 -47.17,15.94 -205.02,21.22 -128.8,4.3 -235.06,-32.77 -422.13,-32.77l-5044.72 0c-160.55,0 -206.42,31.46 -314.2,28.27 -801.34,-23.71 -714.93,-159.46 -708.29,287.38l-0.57 1323.95c37.66,0 189.36,-6.63 213.23,-2.71 199.73,32.81 73.41,-11.1 158.01,74.89l-465.89 -0.33 24.09 -370.9 0 -1375.83zm-176.38 1905c1556.6,0 3126.38,36.6 4691.81,-1.73l3398.89 1.73 0 -2081.39 -8090.7 0 0 2081.39z"/>
   <path class="fil4" d="M-13347.78 24427.92c0,728.15 -78.51,4563.46 62.82,4876.07 289.3,64.56 2810.85,35.12 3324.57,36.05 807,1.48 661.16,-19.37 697.61,-403.88 49.39,-521.04 7.22,-3801.99 7.22,-4614.08 -58.55,92.29 -27.76,176.35 -41.13,311.65l-56.62 613.65c-54.63,343.5 -175.97,174.01 -431.41,168.32 15.84,144.82 122.92,118.23 -40.7,202.02 -111.77,57.24 -185.33,87.22 -276.8,44.92 23.85,112.64 35.6,54.94 0,141.11 -277.96,-23.13 -16.65,-55.89 -465.57,-38.63 -318.7,12.26 -21.84,-169.54 -372.76,-135.79l-996.12 -1.97c-56.44,-127.57 12.98,119.42 4.71,-48.19 -3.28,-66.34 51.69,-94.47 -73.12,-75.95 -111.61,16.57 -41.35,110.51 -41.34,110.34 0.22,-3.47 5.51,9.29 3.92,13.8 -341.31,0 -637.29,-123.69 -846.67,-141.11l0 -105.83c100.05,-26.72 51.66,7.41 105.84,-70.56 -156.09,3.48 -249.23,35.28 -458.61,35.28 0,-94.45 -39.8,-813.14 -105.84,-917.22z"/>
   <path class="fil1" d="M-5904.17 17090.14l7866.95 0 0 -1622.78 -7866.95 0c-123.74,0 -80.89,54.17 -88.29,107.32 -7.8,56.01 -15.55,124.43 -18.59,210.29l36.61 990.63c-5.24,184.91 -77.51,314.54 70.27,314.54z"/>
   <path class="fil3" d="M11064.44 25450.97c275.66,317.14 987.78,-51.18 987.78,246.95 0,185.8 -405.91,117.93 -740.83,117.93l-5115.29 -0.01c-315.45,-0.13 -634.99,-80.28 -634.99,234.86 0,265.63 840.52,176.38 1234.72,176.38l3883.61 -3.05c444.61,-3.43 173.34,186.39 173.34,355.83 0,170.64 111.58,282.22 282.22,282.22l3210.28 0c191.52,0 252.11,-123.37 317.5,-246.94l7231.94 0c568.65,0 1969.45,64.77 2398.89,-35.28 65.21,-279.9 49.72,-173.16 -70.55,-352.78l-9844.5 2c-412.72,-0.31 -481.89,-230.01 -280.23,-531.16 678.41,-59.68 2626.39,-12.1 3527.78,-12.1 868.32,0 1102.33,115.73 987.78,-375.96 -110.35,-9.18 -125.32,-35.28 -246.95,-35.28l-7126.11 0c-114.92,0 -136.03,100.12 -176.39,176.39z"/>
   <path class="fil1" d="M27115.83 25662.64c0,-88.97 89.53,-164.29 180.8,-164.29l11707.81 0c333.81,0 245.19,232.09 211.67,375.96 -79.12,18.43 -81.11,35.27 -176.39,35.27l-11712.22 0c-234.63,0 -211.67,-119.27 -211.67,-246.94zm12065 705.56c673.41,0 758.65,-1305.28 -70.55,-1305.28l-11853.34 0c-244.29,0 -529.16,288.51 -529.16,529.16l0 246.95c0,218.19 267.17,529.17 493.89,529.17l11959.16 0z"/>
   <path class="fil2" d="M40627.22 5377.92c138.13,-13.41 68.14,-9.35 123.39,35.27 0,314.54 -29.78,643.74 -29.78,987.78 0,474.76 39.06,2712.63 -23.05,2851.39 -61.75,47.66 91.19,41.39 -105.84,41.39l35.87 1764.95c-2.03,1931.21 264.5,1551.16 -1305.87,1551.16 -87.62,130.86 -163.67,240.52 -273.27,361.72l-785.06 1119.95c-192.3,-51.35 -184.38,-209.63 -308.54,-361.74l-785.07 -1119.93 -2963.33 0 -423.34 0 -13582.65 -3c-321.6,17.24 -356.84,-12.12 -599.01,-32.28 -11.35,-136.34 -49.49,-168.61 -34.64,-349.71 33.41,-407.66 64.62,-646.93 24.83,-1122.49l-10.29 -855.31c3.13,-581.93 -35.38,-1376.28 -16.33,-2012.81 5.23,-175.06 33.85,-177.96 38.79,-351.68 5.11,-179.84 -28.38,-222.63 -35.73,-356.94l-2.14 -2994.62c-1.47,-285.26 37.21,-419.84 35.74,-705.09 -2.83,-549.54 -34.9,-990.72 -35.53,-1517.2l36.25 -740.2c-8.46,-140.24 -47.07,-189.69 -28,-342.35 13.05,-104.43 27.05,-167.32 27.05,-328.54 283.82,-66.12 303.84,-13.02 673.9,-25.21 176.33,-5.81 524.56,-10.07 772.49,-10.07l17709.44 0c519.9,0 1117,-28.04 1626.44,-3.66 174.3,8.35 197.82,50.6 209.25,214.08l-1.26 1200.71c-0.17,137.07 -8.87,279.62 9.67,413.69 40.45,292.56 -38.44,1920.93 25.62,2690.74zm-21191.29 7397.68c5111.4,0 10262.62,0 15405.74,0 623.85,0 1680.58,56.07 2222.5,-24.63 186.14,277.97 367.39,535.44 557.04,818.79l289.75 415.81c102.74,144.77 194.41,257.74 282.1,423.46 95.69,-70.12 221.07,-283.96 307.21,-398.34 101.37,-134.61 861.53,-1144.73 892.23,-1259.72 312.13,46.48 676.66,11.67 1023.51,22.45 454.82,14.13 370.46,97.64 370.46,-692.73l0.01 -10936.15c0.96,-640.42 245.33,-476.7 -1676.2,-476.7 -6555.95,0 -13111.91,0 -19667.86,0 -37.41,110.72 -84.01,11779.63 -6.49,12107.76z"/>
   <path class="fil4" d="M33113.06 11339.86c-303.56,0 -526.72,-57.41 -715.89,-271.92 -84.84,-96.21 -95.25,-269.69 -97,-281.31 -7.66,-50.69 -7.46,-7.62 -0.02,-57.72l26.36 -100.58c56.33,-239.31 22.72,-205.69 433.77,-205.69 273.03,0 57.68,401.94 93.41,610.06 53.13,309.45 116.51,93.83 259.37,307.16zm-176.39 -1270c-60.33,-194.39 108.34,164.87 35.27,-70.55l-771.23 110.7c-209.37,26.31 -158.19,87.84 -559.08,181.76l-524.15 181.41c-143.4,48.22 -220.5,137.88 -367.77,277.53l-115.54 155.91c-37.16,41.74 -228.35,191.82 -272.78,221.57l70.9 259.69c-0.32,4.53 -3.21,14.91 -3.63,19.43l4.55 168.28c-0.02,1.13 -2.52,7.67 -1.27,11.22 99.99,46.24 41.13,46.24 141.12,0 0,195.04 -67.21,161.8 281.64,282.8 248.31,86.13 678.96,66.58 1073.8,125.72l1234.66 7.49c959.61,-86.13 804.79,6.02 1815.82,-227.43l546.11 -137.74c234.29,-56.92 338.64,-128.87 548.92,-190.63 123.19,-36.19 349.37,-61.36 531.2,-142.78 167.51,-75.02 359.34,-144.93 533.71,-207.13 100.91,-35.99 182.28,-64.08 270.89,-117.16 104.64,-62.67 121.56,-103.11 254.08,-133.98 -113.3,-169.19 -67.14,-58.74 -312.3,-110.7 -275.54,-58.39 -412.64,-45.42 -660.6,-16.12 -132.63,15.67 -100.09,0.72 -200.9,17.48 -228.24,37.92 -186.32,3.51 -448.98,3.51 51.33,-124.26 -47.44,-215.42 154.83,-338.98 172.17,-105.18 245.51,-45.9 303.78,-296.02l-207.58 -55.37c-53.44,-30.3 -143.12,-80.2 -392.14,-85.74l4.14 22.98c-1.8,113.85 -35.62,42.36 -74.7,188.68l70.56 0c-34.46,129.05 -37.22,73.93 -105.83,176.39 -245.78,-65.62 80.89,-39.75 -351.96,-33.29 -241.08,3.6 -239.56,-57.18 -424.15,-72.54l0 -282.22c-297.08,-69.21 -200.21,-49.6 -529.15,-35.73l-648.1 100.2c-132.67,40.98 93.44,36.4 -120.65,31.06 -73.01,-1.83 -149.06,-54.47 -240.43,-74.85 -154.77,-34.52 -370.94,70.83 -543.06,85.15z"/>
   <path class="fil3" d="M17943.61 17725.14c107.38,123.54 101.48,213.04 154.07,375.1 36.02,110.97 89.32,320.07 128.15,401.01l776.11 0 -635 493.89c85.69,178.57 196.58,559.92 246.95,776.11l-493.64 -353.03c-60.25,-42.13 -80.89,-65.08 -141.36,-105.58 -171.68,39.99 -510.81,351.82 -670.28,458.61 5.98,-268.19 211.67,-559.37 211.67,-776.11 0,-45.72 -525.11,-382.46 -599.72,-493.89l776.11 0 246.94 -776.11zm-1623.14 2681.11l3269.11 -0.75c-0.01,-347.65 23.61,-3193.24 -14.5,-3256.83 -67.82,-113.18 -591.83,-46.44 -749.52,-46.44l-2492.63 0 -12.46 3304.02z"/>
   <path class="fil3" d="M-6186.39 1709.03c0,-118.73 89.38,-117.93 211.67,-117.93l23530.28 0c298.33,0 176.24,355.92 176.38,647.09l9.23 2128.37c-5.5,85.18 -2.95,98.45 -0.47,178.48 2.55,81.82 0.29,46.12 -5.76,163.28 -57.13,1106.12 -3,2368.4 -3,3491.82l12.33 2024.44c-30.64,197.59 -37.81,167.93 -256.18,165.87 -283.38,-2.68 -566.21,-3.09 -849.76,-3.09l-17356.66 0c-164.06,245 -334.03,474.6 -508.29,726.43 -109.5,158.24 -363.03,634.75 -550.05,684.68 -38.6,-144.56 -899.26,-1211.72 -952.5,-1411.11l-2681.11 0c-153.26,0 -306.61,-1.3 -459.83,1.22 -157.05,2.59 -316.28,41.67 -316.28,-107.05l0 -8572.5zm70.56 8854.72c112.61,-71.45 3174.39,-35.5 3175,-35.28l179.65 212.26c29.97,30.98 43.12,39.78 53.57,51.24 80.91,88.78 162.1,166.28 204.61,280.17 -392.87,0 -2936.77,-49.03 -3069.17,23.98l3160.5 -3.2c28.5,106.72 568.69,896.12 705.56,987.77 118.69,-177.24 235.77,-336.04 359.81,-522.13 85.88,-128.85 228.2,-424.84 381.02,-465.64 -2.85,-118.25 86.68,-202.45 155.1,-303.6 61.63,-91.1 136.86,-165.18 162.4,-260.85l2998.61 0 6632.11 -0.04 4656.66 0c963.54,0.48 1969.86,28 2928.18,-1.16 1559.27,-47.45 1293.18,371.08 1293.18,-1621.58 0,-538.79 48.86,-7124.16 -29.53,-7296.31 -92,-202.04 -304.86,-147.7 -593.37,-147.31l-22613.06 0.01c-850.92,0 -921.65,-99.24 -917.47,528.92l0 8043.83c-2.85,424.7 -29.49,311.61 176.64,528.92z"/>
   <path class="fil3" d="M38748.89 6533.47c39.78,-121.69 30.5,-6.87 43.89,-167.78 136.01,99.66 151.24,466.05 240.27,642.86 37.76,74.98 -52.71,92.3 322.71,86.81 141.56,-2.07 283.21,-0.93 424.8,-0.93 -63.02,115.02 -173.71,150.63 -277.62,228.38 -102.77,76.9 -182.33,137.07 -286.83,207.05 21.11,253.62 156.21,502.8 211.67,740.83l-459.25 -316.86c-31.14,-22.27 -44.26,-29.81 -82.43,-58.69 -71.06,-53.76 -19.3,-14.1 -58.04,-47.78 -234.54,124.1 -408.54,303.5 -635,423.33 55.45,-238.03 190.56,-487.21 211.66,-740.83 -103.96,-69.62 -184.22,-129.8 -287.31,-206.51 -42.47,-31.6 -106.28,-74.05 -141.82,-103.84 -27.71,-23.24 -27.69,-22.34 -58,-54.84 -35.73,-38.29 -23.69,-26.73 -54.44,-70.24l705.87 0 179.87 -560.96zm-1367.22 2336.95c638.35,0 2441.57,26.72 2951.5,-9.08l0.87 -2779.51c1.98,-137.79 38.34,-303.76 -94.87,-303.76l-2857.5 0c-157.01,0 -95.29,475.06 -85.35,708.72l-21.12 2031.49c-2.2,163.09 -47.21,352.14 106.47,352.14z"/>
   <path class="fil3" d="M-17863.33 7988.47c440.22,-102.56 227.21,-378.84 728.14,-129.13 134.8,67.2 135.9,30.13 189.08,164.41 -104.37,27.87 -57.19,14.36 -141.11,70.56 -296.1,-68.99 -142.51,-265.83 -585.49,12.15l-14.23 305.35c83.55,55.94 189.85,173.27 312.73,165.82 114.44,-6.93 227.7,-112.56 286.99,-201.1 -227.93,0 -300.66,61.29 -317.5,-141.11l50.01 -26.25c8.1,-2.82 17.99,-7.55 27.43,-10.14l130.71 -14.05c82.07,-2.12 178.24,3.06 269.07,2.66l16.67 365.28c-57.31,15.3 -405.32,209.48 -458.61,282.22 -149.12,-99.85 -330.66,-195.85 -493.89,-282.22l0 -564.45zm517.07 -811.39c0,-121.48 362.25,-288.54 470.7,-317.5l0 211.67c-107.83,57.06 -305.4,103.58 -305.4,246.94 0,249.66 -11.01,201.56 124.42,285.8 58.37,36.31 114.79,67.24 180.98,102.26l0 211.67c-159.62,-84.46 -301.13,-163.62 -461,-246.74l-9.7 -494.1zm-552.35 705.56c0,-175.31 -9.77,-171.76 115.89,-236.89 180.42,-93.51 166.33,3.66 166.33,-362.83 0,-118.95 -92.79,-106.74 -186.07,-166.71 -124.06,-79.75 -96.15,-75.59 -96.15,-256.63 109.06,25.41 367.9,186.2 461,246.74l-2.39 564.65c-111.74,59.13 -334.25,201.32 -458.61,211.67zm-670.28 -176.39c286.21,-151.44 317.5,-71.29 317.5,-458.61 -101.9,-68.24 -183.63,-145.2 -317.5,-176.39l0 -211.67c119,27.73 190.86,75.78 289.68,133.65 89.39,52.35 204.21,81.2 204.21,183.85 0,722.06 45.08,385.79 -282.22,670.28 380.6,101.63 282.22,252 282.22,635 0,124.21 -403.6,309.99 -493.89,317.5 0,-225.31 -38.01,-175.22 127.28,-260.78 341.58,-176.8 209.3,-507.47 -127.28,-585.89l0 -246.94zm-517.07 -1257.91c10.66,33.81 4.25,2719.59 0,2762.76 362.37,0 2650.15,38.33 2708.17,-18.87 67.81,-66.84 45.86,-2555.49 19.31,-2744.11l-2727.48 0.22z"/>
   <path class="fil1" d="M27080.56 28273.2c0,-115.94 100.2,-129.02 211.66,-129.02l5785.56 0c217.45,0 242.78,340.68 35.28,340.68l-5926.67 0c-125.42,0 -105.83,-68.73 -105.83,-211.66zm-364.88 35.27c0,336.51 202.82,599.73 470.71,599.73l5997.22 0c568.16,0 684.58,-1164.17 -70.55,-1164.17l-5926.67 0c-258.16,0 -470.71,265.5 -470.71,564.44z"/>
   <path class="fil1" d="M-17584.32 26171.03l11.06 -542.67c-34.04,-1210.84 1.25,-2996.7 1.25,-4234.33 0,-824.02 42.39,-4384.26 -12.31,-4882.84l-3.21 -6970.5c-132.24,-11.91 -85.43,-31.82 -245.14,-35.27l4.61 19931.94 240.87 0 2.87 -3266.33z"/>
   <path class="fil3" d="M27115.83 25662.64c0,127.67 -22.96,246.94 211.67,246.94l11712.22 0c95.28,0 97.27,-16.84 176.39,-35.27 33.52,-143.87 122.14,-375.96 -211.67,-375.96l-11707.81 0c-91.27,0 -180.8,75.32 -180.8,164.29z"/>
   <path class="fil3" d="M19178.33 12715.69l0 -11959.16c0,-206.13 181.93,-388.06 388.06,-388.06l21272.5 0c195.85,0 364.87,154.61 364.87,423.33l0 11923.89c0,521.89 -624.82,378.94 -1070.43,388.06l-446.43 15.16 -934.86 1249.38c-132.57,181.42 -171.07,322.96 -453.15,322.96 -145.27,0 -256.44,-87.88 -319.04,-174.85l-605.23 -876.44c-163.68,-246.2 -276.69,-506.95 -451.99,-525.39l-837.95 4.96c-745.91,-41.36 -2833.42,-3.69 -3783.01,-3.69 -1229.57,0 -4908.93,27.32 -5573.77,-13.82l-1340.4 13.82c-971.17,-31.64 -2329.14,0 -3316.39,0 -232.16,0 -464.86,-2.58 -696.66,3.4l-1961.93 -38.02c-115.22,-44.49 -234.19,-219.68 -234.19,-365.53zm-70.55 -11888.61l0 11818.06c0,179.11 64.97,307.29 165.67,398.78 240.34,218.35 1089.71,130.39 1598.22,130.39 5373.98,0 10747.96,0 16121.94,0l1031.32 1473.4c495.47,435.88 919.9,-457.55 1352.12,-1030.25 99.94,-132.42 254.88,-282.91 297.67,-443.15 407.35,0 1199.24,68.05 1418.75,-98.18 40.8,-30.9 88.84,-81.37 117.36,-130.63 18.84,-32.57 74.58,-164.77 74.58,-194.53l0 -11959.17c0,-296.46 -234.99,-493.88 -517.08,-493.88l-21201.94 0c-253.96,0 -458.61,256.47 -458.61,529.16z"/>
   <path class="fil5" d="M-1423.89 28167.36l4056.95 35.28 126.24 161.76c2.45,3.97 10.52,12.08 13.32,16.33 94.01,142.37 35.2,107.76 58.73,199.98 1.58,6.23 5.05,16.26 7.15,22.33l21.71 42.81c2.79,6 9.4,14.82 12.16,20.78 24.62,53.2 17.58,29.87 30.16,85.38 3.37,14.87 -29.59,-16.87 12.75,85.63l-528.89 0.22c-1001.24,-1.71 -3815.48,-46.14 -4410,8.27l-4888.05 5.31c43.8,42.35 38.95,41.75 192.62,44.25 79.86,1.3 168.87,-2.86 250.39,-3.03l14675.47 -19.8 95.1 -67.55c29.83,-6.22 116.57,21.47 116.57,-214.49l-105.83 105.83c-5.17,-232.43 -81.97,-195.44 -101.17,-273.31 -24.95,-101.2 -20.45,46.5 10.02,-40.18 59.43,-169 40.93,151.67 20.01,-39.3 -7.71,-70.4 -41.78,-47.61 -94.84,-59.6l-45.19 -5.53c-76.89,-13.26 13.24,14.42 -54.17,-10.01l-50.81 -35.07c-159.23,-151.47 -31.78,134.75 -142.34,-66.17l-4481.57 1.3c-105.78,1.03 -205.1,11.55 -281.05,-36.64 -240.57,50.84 -9556.4,-56.54 -9911.26,2.01l-83 28.04c-4.5,-7.77 -17.19,7.49 -24.51,13.2l5503.33 -8.03z"/>
   <path class="fil3" d="M37203.07 5718.6l3189.3 0 0 3116.54c0,33.34 13.13,75.38 23.19,105.83l-3210.28 0 -2.21 -3222.37zm3494.71 3533.76c62.11,-138.76 23.05,-2376.63 23.05,-2851.39 0,-344.04 29.78,-673.24 29.78,-987.78 -55.25,-44.62 14.74,-48.68 -123.39,-35.27 -999.53,0 -1999.07,0 -2998.61,0 -900.01,0 -740.83,-159.18 -740.83,740.83l-0.7 2611.06c-16.81,456.9 -240.57,441.14 -23.93,583.91 114.91,75.73 243.78,20.79 312.38,11.43 77.33,-10.55 126.12,-7.24 201.12,-13.68 1088.6,-93.53 2214.68,15.3 3321.13,-59.11z"/>
   <path class="fil3" d="M3903.06 19630.14l8090.7 0 0 2081.39 -3398.89 -1.73c-1565.43,38.33 -3135.21,1.73 -4691.81,1.73l0 -2081.39zm-141.12 2222.5l4021.67 0 0 141.11 4374.45 0c80.99,0 93.73,-32.03 93.73,-105.83 0.64,-627.68 38.26,-1996.81 -23.18,-2540l-4445 0 0 141.11 -4021.67 0 0 2363.61z"/>
   <path class="fil6" d="M8206.82 28872.86c406.95,39.41 1075.15,-0.06 1517.07,-0.06 842.5,0 3229.67,44.71 3934.93,-64.06l227.73 -41.77c73.48,-153 92.5,-432.01 -75.24,-504.87 -14.66,-6.37 -485.98,-84.19 -596.69,-92.87 -427.69,-33.53 -1001.1,-1.86 -1444.62,-1.75 -487,0.13 -895.84,-35.28 -1411.11,-35.28l-7267.34 -0.06c75.95,48.19 175.27,37.67 281.05,36.64l4481.57 -1.3c110.56,200.92 -16.89,-85.3 142.34,66.17l50.81 35.07c67.41,24.43 -22.72,-3.25 54.17,10.01l45.19 5.53c53.06,11.99 87.13,-10.8 94.84,59.6 20.92,190.97 39.42,-129.7 -20.01,39.3 -30.47,86.68 -34.97,-61.02 -10.02,40.18 19.2,77.87 96,40.88 101.17,273.31l105.83 -105.83c0,235.96 -86.74,208.27 -116.57,214.49l-95.1 67.55z"/>
   <path class="fil3" d="M-6204.03 15243.6l8272.85 -2.41 140.9 14.5 0 2081.39 -8431.39 0 17.64 -2093.48zm-158.75 2234.59l4474.47 1.11 41.09 127.91 4259.53 0.27c33.24,-473.53 9.08,-2018.66 9.08,-2598.73l-3987.09 -0.78c-376.52,-4.74 -273.04,23.6 -342.71,52.88 -93.6,39.33 -206.02,55.08 -326.72,54.14l-3350.43 -16.97c-325.09,2.35 -777.22,-76.18 -777.22,87.12l0 2293.05z"/>
   <path class="fil1" d="M-6045.28 15432.08l7972.78 0c81.29,0 105.83,24.55 105.83,105.84l0 1516.94c0,81.29 -24.54,105.83 -105.83,105.83l-7866.94 0c-81.29,0 -105.84,-24.54 -105.84,-105.83l0 -1622.78zm-176.39 1905l8431.39 0 0 -2081.39 -140.9 -14.5 -8272.85 2.41 -17.64 2093.48z"/>
   <path class="fil3" d="M16250.28 17054.86l140.9 -14.51 3256.79 2.42 1.07 3434.04 -3398.76 0 0 -3421.95zm-246.95 1023.06c0,197.35 38.59,146.6 16.05,331.23l-15.7 1712.52c-1.99,336.54 -38.52,602.08 105.49,602.08l3704.16 0c81,0 93.74,-32.03 93.74,-105.83l0 -3704.17c0,-73.8 -12.74,-105.83 -93.74,-105.83 -570.34,-0.19 -3471.87,-25.06 -3795.72,12.11l-14.28 1257.89z"/>
   <path class="fil0" d="M-6911.66 28851.44l4888.05 -5.31c131.45,-25.68 48.25,20.32 126.65,-93.38 160.65,-232.96 11.19,-222.58 -23.26,-420.16l-32.84 -129.95c161.3,13.42 127.12,50.13 420.29,-2.59l83.76 -22.51c4.41,-10.22 17.49,-5.34 25.12,-10.18l-5503.33 8.03c-46.38,121.12 -63.63,581.42 15.56,676.05z"/>
   <path class="fil3" d="M-6199.04 19559.58l8690.98 0 -317.5 0 0 2116.67 -8360.83 0 -12.65 -2116.67zm4175.43 2328.34l0 -70.56 4303.89 0 0 -2398.89 -4303.89 0 0 -70.55 -4303.89 70.55c-69.06,498.26 -14.45,1472.49 -24.13,2082.87 -6.15,387.94 9.8,294.69 94.84,314.68l4233.18 71.9z"/>
   <path class="fil3" d="M33430.56 20653.19l1763.88 0 0 -1869.72 -1597.86 18.26c-56.32,-4.82 -166.02,-41.46 -166.02,87.58l0 1763.88z"/>
   <path class="fil5" d="M833.89 11092.92l6914.32 -0.06 674.49 -109.87c81.33,-86.89 -8.53,-11.23 81.37,-43.65 8.54,-3.08 114.61,7.52 170.68,-154.62 32.64,-94.36 -2.88,-125.81 68.69,-174.34l214.69 -70.38c5.43,-2.16 17.1,-6.69 24.81,-11.57l-6632.11 0.04 174.3 37.37c277.27,10.18 659.45,-32.16 772.22,250.75 22.72,57 5.79,61.28 41.26,135.22 -107.6,25.06 -85.27,42.14 -176.39,0 38.18,94.57 -2.99,18.9 69.67,71.45l-2153.09 32.35c-34.27,-0.1 -105.92,-0.52 -137.4,3.71 -10.48,1.41 -20.92,3.65 -29.96,5.33l-77.55 28.27z"/>
   <path class="fil3" d="M19001.94 25803.75l4727.23 0c464.28,-0.02 1023.05,-92.53 1023.05,670.28 0,488.21 -387.78,578.59 -811.34,576.8 -924.34,-3.9 -8808.25,-32.89 -8995.72,22.18 -189.3,55.61 -174.52,212.41 -494.05,212.41l-3421.94 0c-169.24,0 -448.79,-175.12 -524.63,-392.59 -81.48,-233.63 -10.33,-155.75 -110.37,-207.13l-50.06 -20.49c-42.94,-9.92 -34.42,-11.45 -89.73,-16.12 -43.01,-3.63 -129.88,0.12 -177.01,0.63l-4057.69 0.74c-400.93,0.96 -858.72,-21.6 -858.72,-635.04 0,-383.38 233.54,-647.1 611.82,-647.1 1298.2,0 3695.62,-47.51 4868.17,15.05 0.24,-159.8 8.6,-215.54 183.08,-384.35 94.79,-91.72 155.66,-124.59 346.25,-124.59l7342.19 0c407.41,0 560.03,314.87 560.03,682.38 0,121.47 -40.18,128.93 -70.56,246.94zm105.84 -70.55c0,-207.74 37.26,-207.64 12.04,-362.51 -58.93,-361.74 -317.64,-577.9 -682.32,-577.9l-7161.39 0c-409.75,0 -626.89,214.7 -705.55,552.35 -104.13,-24.04 -126.74,-58.46 -246.95,-58.46l-4445 0c-1012.94,0 -1050.81,1434.29 -35.28,1434.29l4586.11 0c0,440.8 398.51,635 846.67,635l2151.95 0c1854.36,60.51 1077.92,-231.29 1727.29,-225.55 118.18,1.04 235.84,1.79 354.09,1.79l7161.39 0c473.95,0 976.73,16.51 1446.86,1.44 926.42,-29.69 916.51,-1400.45 34.81,-1400.45l-5044.72 0z"/>
   <path class="fil4" d="M-1741.39 28308.47c68.24,101.9 145.2,183.63 176.39,317.5 -5.54,6.37 -12.01,9.63 -14.57,20.71 -2.53,10.99 -11.87,16.24 -15.62,19.66l-35.54 35.02c-77.32,47.44 8.64,20.52 -110.66,30.45 81.41,-169.66 -3.63,-218.03 -141.11,-423.34 127.46,-10.6 168.11,-43.97 282.22,-70.55 -82.13,112.1 24.33,53.24 -141.11,70.55zm-282.22 537.66c594.52,-54.41 3408.76,-9.98 4410,-8.27l528.89 -0.22c-42.34,-102.5 -9.38,-70.76 -12.75,-85.63 -12.58,-55.51 -5.54,-32.18 -30.16,-85.38 -2.76,-5.96 -9.37,-14.78 -12.16,-20.78l-21.71 -42.81c-2.1,-6.07 -5.57,-16.1 -7.15,-22.33 -23.53,-92.22 35.28,-57.61 -58.73,-199.98 -2.8,-4.25 -10.87,-12.36 -13.32,-16.33l-126.24 -161.76 -4056.95 -35.28c-7.63,4.84 -20.71,-0.04 -25.12,10.18l-83.76 22.51c-293.17,52.72 -258.99,16.01 -420.29,2.59l32.84 129.95c34.45,197.58 183.91,187.2 23.26,420.16 -78.4,113.7 4.8,67.7 -126.65,93.38z"/>
   <path class="fil6" d="M7748.21 11092.86c989.67,-0.64 3961.34,42.23 4816.78,-26.76 425.93,-34.35 428.94,22.79 889.79,-50.44l291.41 -42.41c102.89,-19.18 -30.62,7.42 65.2,-11.03l39.88 -10.3c-23.32,-49.72 -2.22,4.04 -5.1,-58.22 -6.74,-145.88 -1.99,-195.24 -81.11,-263.13 -7.12,-6.11 -31.37,-21.5 -39.79,-27.31 -105.87,-73.12 -24.48,84.01 -85.67,-74.83l-4656.66 0c-7.71,4.88 -19.38,9.41 -24.81,11.57l-214.69 70.38c-71.57,48.53 -36.05,79.98 -68.69,174.34 -56.07,162.14 -162.14,151.54 -170.68,154.62 -89.9,32.42 -0.04,-43.24 -81.37,43.65l-674.49 109.87z"/>
   <path class="fil3" d="M3920.69 15243.6l8096.25 0 0 2093.48 -8090.7 0 -5.55 -2093.48zm3862.92 2234.59c1117.13,0 2234.26,0 3351.39,0 262.83,0 599.02,19.36 851.62,3.98 228.67,-13.92 157.23,-74.96 156.92,-674.25 -0.29,-560.16 0.02,-1120.92 0.02,-1678.84l-4359.95 -14.5c-1028.36,0 -2142.59,-23.18 -3210.28,-23.18 -976.76,0 -799.29,-177.47 -799.29,799.29 0,525.14 0,1050.27 0,1586.89l4009.57 0.61z"/>
   <path class="fil4" d="M-965.28 11092.92c270.8,0 1674.55,-57.64 1799.17,0l77.55 -28.27c9.04,-1.68 19.48,-3.92 29.96,-5.33 31.48,-4.23 103.13,-3.81 137.4,-3.71l2153.09 -32.35c-72.66,-52.55 -31.49,23.12 -69.67,-71.45 91.12,42.14 68.79,25.06 176.39,0 -35.47,-73.94 -18.54,-78.22 -41.26,-135.22 -112.77,-282.91 -494.95,-240.57 -772.22,-250.75l-174.3 -37.37 -2998.61 0c-25.54,95.67 -100.77,169.75 -162.4,260.85 -68.42,101.15 -157.95,185.35 -155.1,303.6z"/>
   <path class="fil3" d="M27080.56 28273.2c0,142.93 -19.59,211.66 105.83,211.66l5926.67 0c207.5,0 182.17,-340.68 -35.28,-340.68l-5785.56 0c-111.46,0 -211.66,13.08 -211.66,129.02z"/>
   <path class="fil0" d="M-5572.17 11096.12c132.4,-73.01 2676.3,-23.98 3069.17,-23.98 -42.51,-113.89 -123.7,-191.39 -204.61,-280.17 -10.45,-11.46 -23.6,-20.26 -53.57,-51.24l-179.65 -212.26c-0.61,-0.22 -3062.39,-36.17 -3175,35.28 -14.02,168.49 -35.28,271.1 -35.28,493.89 101.93,42.11 340.19,31.22 578.94,38.48z"/>
   <path class="fil3" d="M39180.83 26368.2l-11959.16 0c-226.72,0 -493.89,-310.98 -493.89,-529.17l0 -246.95c0,-240.65 284.87,-529.16 529.16,-529.16l11853.34 0c829.2,0 743.96,1305.28 70.55,1305.28zm-176.39 70.55c870.94,0 967.48,-984.36 468.31,-1314.01 -207.12,-136.78 -452.68,-120.34 -785.8,-120.28l-10936.12 0c-385.04,-0.03 -525.1,-35.01 -789.02,116.14 -465.68,266.69 -458.55,1318.15 436.25,1318.15l11606.38 0z"/>
   <path class="fil0" d="M7783.61 15114.58l4359.95 14.5c0,557.92 -0.31,1118.68 -0.02,1678.84 0.31,599.29 71.75,660.33 -156.92,674.25 -252.6,15.38 -588.79,-3.98 -851.62,-3.98 -1117.13,0 -2234.26,0 -3351.39,0l0 132.43 4480.17 -0.42 -15.94 -2657.05 -4464.23 20.32 0 141.11z"/>
   <path class="fil1" d="M17696.67 18501.25l-776.11 0c74.61,111.43 599.72,448.17 599.72,493.89 0,216.74 -205.69,507.92 -211.67,776.11 159.47,-106.79 498.6,-418.62 670.28,-458.61 60.47,40.5 81.11,63.45 141.36,105.58l493.64 353.03c-50.37,-216.19 -161.26,-597.54 -246.95,-776.11l635 -493.89 -776.11 0c-38.83,-80.94 -92.13,-290.04 -128.15,-401.01 -52.59,-162.06 -46.69,-251.56 -154.07,-375.1l-246.94 776.11z"/>
   <path class="fil0" d="M-2023.61 19347.92l0 70.55 4303.89 0 0 2398.89 -4303.89 0 0 70.56 0 70.55c964.26,0 1928.52,0 2892.78,0 1548,0 1561.8,150.04 1554.3,-280.14l-8.37 -1801.25c-2.29,-409.88 84.46,-562.2 -99.06,-600.2l-4339.65 71.04z"/>
   <polygon class="fil1" points="-17832.63,6130.84 -17587.32,6124 -17587.53,368.47 -17828.06,368.47 "/>
   <path class="fil1" d="M38569.02 7094.43l-705.87 0c30.75,43.51 18.71,31.95 54.44,70.24 30.31,32.5 30.29,31.6 58,54.84 35.54,29.79 99.35,72.24 141.82,103.84 103.09,76.71 183.35,136.89 287.31,206.51 -21.1,253.62 -156.21,502.8 -211.66,740.83 226.46,-119.83 400.46,-299.23 635,-423.33 38.74,33.68 -13.02,-5.98 58.04,47.78 38.17,28.88 51.29,36.42 82.43,58.69l459.25 316.86c-55.46,-238.03 -190.56,-487.21 -211.67,-740.83 104.5,-69.98 184.06,-130.15 286.83,-207.05 103.91,-77.75 214.6,-113.36 277.62,-228.38 -141.59,0 -283.24,-1.14 -424.8,0.93 -375.42,5.49 -284.95,-11.83 -322.71,-86.81 -89.03,-176.81 -104.26,-543.2 -240.27,-642.86 -13.39,160.91 -4.11,46.09 -43.89,167.78l-179.87 560.96z"/>
   <path class="fil7" d="M1962.78 17090.14l-7866.95 0c-147.78,0 -75.51,-129.63 -70.27,-314.54l-36.61 -990.63c3.04,-85.86 10.79,-154.28 18.59,-210.29 7.4,-53.15 -35.45,-107.32 88.29,-107.32l7866.95 0 0 1622.78zm-8008.06 -35.28c0,81.29 24.55,105.83 105.84,105.83l7866.94 0c81.29,0 105.83,-24.54 105.83,-105.83l0 -1516.94c0,-81.29 -24.54,-105.84 -105.83,-105.84l-7972.78 0 0 1622.78z"/>
   <path class="fil3" d="M26715.68 28308.47c0,-298.94 212.55,-564.44 470.71,-564.44l5926.67 0c755.13,0 638.71,1164.17 70.55,1164.17l-5997.22 0c-267.89,0 -470.71,-263.22 -470.71,-599.73zm-81.64 35.28c0,271.06 253.32,635 622.9,635l5750.28 0c985.6,0 874.84,-1305.28 70.56,-1305.28l-5820.84 0c-348.52,0 -622.9,340.15 -622.9,670.28z"/>
   <path class="fil7" d="M4079.44 21182.36l-24.09 370.9 465.89 0.33c-84.6,-85.99 41.72,-42.08 -158.01,-74.89 -23.87,-3.92 -175.57,2.71 -213.23,2.71l0.57 -1323.95c-6.64,-446.84 -93.05,-311.09 708.29,-287.38 107.78,3.19 153.65,-28.27 314.2,-28.27l5044.72 0c187.07,0 293.33,37.07 422.13,32.77 157.85,-5.28 56.49,-28.22 205.02,-21.22 186.36,8.79 779.51,48.58 925.07,-11.55l0 1658.05 -7144.56 -19.07c103.92,106.35 193.4,75.72 406.49,73.11l6808.63 -18.76 0 -1622.78c0,-81.28 -24.55,-105.83 -105.84,-105.83l-7655.28 0 0 1375.83z"/>
   <path class="fil3" d="M38052.12 3296.35c568.87,-54.26 453.83,-54.26 1022.7,0 -78.65,-307.64 -35.1,-699.34 -35.1,-1022.88l-952.5 0c0,323.54 43.56,715.24 -35.1,1022.88z"/>
   <path class="fil1" d="M-19085.96 6448.34l2727.48 -0.22c26.55,188.62 48.5,2677.27 -19.31,2744.11 -58.02,57.2 -2345.8,18.87 -2708.17,18.87 4.25,-43.17 10.66,-2728.95 0,-2762.76zm-82.65 2845.41l2904.87 0 0 -2928.06 -2904.87 0 0 2928.06z"/>
   <path class="fil1" d="M16332.93 17102.23l2492.63 0c157.69,0 681.7,-66.74 749.52,46.44 38.11,63.59 14.49,2909.18 14.5,3256.83l-3269.11 0.75 12.46 -3304.02zm-82.65 3374.58l3398.76 0 -1.07 -3434.04 -3256.79 -2.42 -140.9 14.51 0 3421.95z"/>
   <path class="fil1" d="M37381.67 8870.42c-153.68,0 -108.67,-189.05 -106.47,-352.14l21.12 -2031.49c-9.94,-233.66 -71.66,-708.72 85.35,-708.72l2857.5 0c133.21,0 96.85,165.97 94.87,303.76l-0.87 2779.51c-509.93,35.8 -2313.15,9.08 -2951.5,9.08zm-176.39 70.55l3210.28 0c-10.06,-30.45 -23.19,-72.49 -23.19,-105.83l0 -3116.54 -3189.3 0 2.21 3222.37z"/>
   <polygon class="fil3" points="33430.56,18395.42 34312.5,18395.42 34312.5,17584.03 33430.56,17584.03 "/>
   <path class="fil3" d="M36429.17 20653.19c81.28,0 105.83,-24.54 105.83,-105.83l0 -705.55 -881.94 0 0 811.38 776.11 0z"/>
   <path class="fil7" d="M-6010 21429.31l35.28 -1622.78 7902.22 0 0 1552.22c0,99.34 15.26,65.32 70.56,105.83l0.63 -1376.47c2.2,-163.09 47.21,-352.14 -106.47,-352.14l-7902.22 0 0 1693.34z"/>
   <path class="fil7" d="M9451.76 17151.51c207.73,29.88 412.8,-26.09 660.18,-26.09l881.78 35.45c450.36,24.32 634.58,-35.39 844.21,-35.75l2.63 -1693.04 -7725.84 0 0 176.39 70.56 -141.11 7596.52 0.31c40.74,611.61 -36.41,1142.24 23.48,1622.47 -456.66,0 -7385.49,40.61 -7646.88,-18.37l-62.13 72.1c283.3,-31.61 430.41,-13.96 658.61,11.67 427.05,47.97 884.06,-32.13 1229.33,-30.36l1864.81 5.39c590.39,66.64 369.19,-18.61 637.14,-4.45 132.65,7 142.46,34.57 320.51,34.57 279.81,0 347.24,-52.03 645.09,-9.18z"/>
   <path class="fil1" d="M-17863.33 7988.47l0 564.45c163.23,86.37 344.77,182.37 493.89,282.22 53.29,-72.74 401.3,-266.92 458.61,-282.22l-16.67 -365.28c-90.83,0.4 -187,-4.78 -269.07,-2.66l-130.71 14.05c-9.44,2.59 -19.33,7.32 -27.43,10.14l-50.01 26.25c16.84,202.4 89.57,141.11 317.5,141.11 -59.29,88.54 -172.55,194.17 -286.99,201.1 -122.88,7.45 -229.18,-109.88 -312.73,-165.82l14.23 -305.35c442.98,-277.98 289.39,-81.14 585.49,-12.15 83.92,-56.2 36.74,-42.69 141.11,-70.56 -53.18,-134.28 -54.28,-97.21 -189.08,-164.41 -500.93,-249.71 -287.92,26.57 -728.14,129.13z"/>
   <path class="fil1" d="M-18568.89 7071.25c133.87,31.19 215.6,108.15 317.5,176.39 0,387.32 -31.29,307.17 -317.5,458.61l0 246.94c336.58,78.42 468.86,409.09 127.28,585.89 -165.29,85.56 -127.28,35.47 -127.28,260.78 90.29,-7.51 493.89,-193.29 493.89,-317.5 0,-383 98.38,-533.37 -282.22,-635 327.3,-284.49 282.22,51.78 282.22,-670.28 0,-102.65 -114.82,-131.5 -204.21,-183.85 -98.82,-57.87 -170.68,-105.92 -289.68,-133.65l0 211.67z"/>
   <path class="fil0" d="M33113.06 11339.86c-142.86,-213.33 -206.24,2.29 -259.37,-307.16 -35.73,-208.12 179.62,-610.06 -93.41,-610.06 -411.05,0 -377.44,-33.62 -433.77,205.69l-26.36 100.58c-7.44,50.1 -7.64,7.03 0.02,57.72 1.75,11.62 12.16,185.1 97,281.31 189.17,214.51 412.33,271.92 715.89,271.92z"/>
   <path class="fil0" d="M25893.96 19245.5l209.42 172.97c175.39,-210.89 379.72,-365.8 559.14,-599.72 -108.12,-225.77 -398.18,-392.92 -580.82,-603.48l-188.01 180.15c109.81,150.95 258.3,246.7 375.48,423.33l-375.21 426.75z"/>
   <path class="fil0" d="M25571.26 18826.3l-393.58 418.22 184.86 180.01 589.13 -605.78c-91.92,-137.26 -460.29,-506.35 -591.71,-591.7l-192.2 176.08 403.5 423.17z"/>
   <path class="fil3" d="M25563.61 21276.1c-80.08,146.17 -259.76,313.64 -393.11,446.8l192.83 187.51 588.34 -622.22 -571.04 -606.6 -212.19 190.06 395.17 404.45z"/>
   <path class="fil3" d="M26763.06 21887.92c143.46,-38.31 570.63,-541.05 593.67,-599.73 -196.44,-195.7 -440.12,-522.95 -599.81,-570.97l-178.05 155.36 395.85 415.61c-49.26,184.51 -284.61,304.14 -381.92,452.08l170.26 147.65z"/>
   <path class="fil0" d="M26605.73 19254.83l192.6 155.62c190.32,-220.51 401.21,-347.93 564.45,-591.7 -64.75,-152.62 -427.64,-433.19 -574.63,-602.84l-185.44 163.46c109.26,160.86 269.31,250.74 372.01,404.1 -33.12,124.05 -97.75,148.07 -185.84,237.45 -77.46,78.6 -123.99,156.45 -183.15,233.91z"/>
   <path class="fil3" d="M26586.67 15961.25c152.37,102.03 303.89,228.99 388.05,388.06 -99.76,148.97 -302.68,235.7 -359.31,429.47l156.21 178.82 597.6 -614.53 -581.23 -597.89 -201.32 216.07z"/>
   <polygon class="fil3" points="25571.21,16356.8 25181.01,16773.23 25363.21,16954.26 25960.38,16340.58 25351.35,15755.03 25171.19,15936.24 "/>
   <path class="fil3" d="M26232.3 21744.52c54.2,-57.89 83.78,-86.62 139.39,-142.11 101.45,-101.21 179.72,-179.55 279.48,-278.94 -73.05,-186.01 -490.06,-512.6 -573.31,-614.56l-184.65 179.13c132.34,145.53 300.87,270.62 411.23,435.43 -107.36,71.89 -356.73,306.17 -395.89,431.18l148.95 133.27c129.01,-69.74 75.29,-37.11 174.8,-143.4z"/>
   <path class="fil3" d="M25893.21 15925.97c104.59,121.49 293.05,299.53 375.96,423.34 -93.04,138.94 -242.53,258.69 -359.31,429.47l156.21 178.82 599.86 -617.02 -609.42 -585.92 -163.3 171.31z"/>
   <path class="fil1" d="M-17346.26 7177.08l9.7 494.1c159.87,83.12 301.38,162.28 461,246.74l0 -211.67c-66.19,-35.02 -122.61,-65.95 -180.98,-102.26 -135.43,-84.24 -124.42,-36.14 -124.42,-285.8 0,-143.36 197.57,-189.88 305.4,-246.94l0 -211.67c-108.45,28.96 -470.7,196.02 -470.7,317.5z"/>
   <path class="fil1" d="M-17616.39 7282.92c0,366.49 14.09,269.32 -166.33,362.83 -125.66,65.13 -115.89,61.58 -115.89,236.89 124.36,-10.35 346.87,-152.54 458.61,-211.67l2.39 -564.65c-93.1,-60.54 -351.94,-221.33 -461,-246.74 0,181.04 -27.91,176.88 96.15,256.63 93.28,59.97 186.07,47.76 186.07,166.71z"/>
   <path class="fil3" d="M39180.83 3155.42c0,181.3 261.55,81.57 493.72,140.93 -49.33,-192.92 -35.11,-296.89 -35.11,-493.71l-458.61 0 0 352.78z"/>
   <path class="fil3" d="M38087.22 2132.36c196.83,0 300.79,-14.23 493.71,35.1 -49.32,-192.92 -35.1,-296.89 -35.1,-493.71l-458.61 0 0 458.61z"/>
   <path class="fil4" d="M33783.33 12609.86l423.34 0c43.8,-106.04 8.98,-57.61 -70.56,-176.39 118.35,-170.31 79.85,-241.07 70.56,-352.78 -153.05,40.87 -68.25,15.36 -143.4,138.83 -37.14,61.04 -48.73,81.36 -113.09,133.89 -107.26,87.53 -226.34,112.43 -166.85,256.45z"/>
   <path class="fil0" d="M-1741.39 28308.47c165.44,-17.31 58.98,41.55 141.11,-70.55 -114.11,26.58 -154.76,59.95 -282.22,70.55 137.48,205.31 222.52,253.68 141.11,423.34 119.3,-9.93 33.34,16.99 110.66,-30.45l35.54 -35.02c3.75,-3.42 13.09,-8.67 15.62,-19.66 2.56,-11.08 9.03,-14.34 14.57,-20.71 -31.19,-133.87 -108.15,-215.6 -176.39,-317.5z"/>
   <path class="fil4" d="M29973.33 10916.53c21.08,0 73.19,-48.7 105.84,-70.56 -71.27,-134.68 -93.24,-172.18 -282.23,-176.39 3.32,148.85 30.39,246.95 176.39,246.95z"/>
  </g>
 </g>
</svg>
