<?xml version='1.0' encoding='utf-8'?>
<svg xmlns="http://www.w3.org/2000/svg" width="2048" height="768" viewBox="0 0 2048 768"><rect width="100%" height="100%" fill="#ffffff" /><defs>
  <style type="text/css">
   
    .fil4 {fill:#93242B}
    .fil0 {fill:#C3383C}
    .fil1 {fill:#D65F5C}
    .fil3 {fill:#D6A86E}
    .fil6 {fill:#E1B899}
    .fil5 {fill:#EDD4BC}
    .fil7 {fill:#FAF4EB}
    .fil2 {fill:#FCFCFC}
   
  </style>
 </defs>
 <g id="graph" transform="matrix(0.02929438 0 0 0.02929438 730.73728673 -52.38540825)"><g id="图层_x0020_1">
  <metadata id="CorelCorpID_0Corel-Layer" />
  <g id="_2309631319872">
   <path class="fil0" d="M16179.72 13791.67c-311.95,0 -305.37,-317.5 -105.83,-317.5 327.11,0 230.66,19.24 423.33,35.28 -47.46,70.87 -216.3,282.22 -317.5,282.22zm18238.62 -7690.55c0,-81.29 24.54,-105.84 105.83,-105.84 600.21,0 293.4,21.48 423.16,528.99 -198.39,-50.72 -325.59,-35.1 -528.99,-35.1l0 -388.05zm-141.11 -70.56c0,255.88 -35.28,294.11 -35.28,458.61l-1002.2 0 14.42 -599.72c0,-243.83 -55.64,-149.22 0,-388.06 188.14,0 376.36,0.57 564.49,-0.05 607.34,-1.97 441.97,-3.13 441.13,388.11 -0.13,61.54 17.44,32.31 17.44,141.11zm-564.45 -670.28c-461.96,0 -551.68,73.54 -495.16,-339.08l36.55 -154.63c85.28,-0.27 279.37,-10.5 353.01,1.75 175.14,29.13 105.6,-5.03 105.6,491.96zm-9983.61 10195.28l-50.75 -19.8c-34.15,-10.04 -43.77,-13.37 -83.84,-22 -219.84,-47.32 -351.35,-15.12 -537.71,-62.02 -465.85,-117.22 -127,-208.21 -535.82,-275.56 -236.33,-38.94 -457.62,-95.26 -671.4,-140l-663.44 -147.94c-233.27,-48.49 -408.16,-103.04 -646.97,-164.43 -126.2,-32.44 -176.76,-50.46 -292.74,-95.31 -907.79,-351.05 -816.1,-102.34 -1491.5,-554.61 -130.57,87.44 -109.37,162 -282.22,176.39 -83.32,-124.43 -70.56,-76.66 -70.56,-282.22 -310.97,0 -371.48,-29.24 -520.92,-184.64 -126.06,-131.08 -263.24,-233.78 -361.02,-379.81 242.43,-362.03 540.18,-106.29 725.3,-297.75 169.53,-175.34 27.37,-160.51 367.91,-161.26 206.5,-0.45 266.64,-37.33 494.34,-34.83 256.78,2.82 385.82,-26.05 604.44,-171.66 109.53,-72.96 14.87,-54.71 187.2,-95.03 133.63,-31.25 95.48,13.1 191.69,-55.25 20.71,-14.71 203.9,-250.4 533.56,-277.83 78.46,-336.78 -49.31,-233.11 317.53,-352.75 119.44,-38.95 12.62,2.23 96.4,-44.71l193.84 -123.66c33.67,-30.42 42.45,-48.46 66.56,-74.55 4.94,-5.33 11.75,-13.26 16.78,-18.5l1025.36 -567.65 437.24 -121.69c171.36,-37.65 342.5,-39.47 518.55,-81.17 237.79,-56.33 150.66,-164.45 429.33,-170.4 404.47,-8.64 729.45,-12.08 1104.47,-97.28 306.46,-69.63 937.85,-54.09 1332.02,-79.6l760.51 -10.37c105.36,-15.49 1404.83,-55.75 1597.45,-15.37 9.81,2.05 18.67,4.75 27.88,7.4 319.26,91.56 43.12,96 649.04,91.79 225.46,-1.56 348.06,22.23 562.14,40.01 211.14,17.52 270.98,-5.28 530.58,-4.77 520.67,1.03 234.2,-1.63 539.07,61.58 181.74,37.69 388.82,-1.28 571.25,19.81l2233.02 103.98 613.22 127.61c139.12,62.5 70.69,66.61 205.07,112.43l394.69 63.93c170.93,41.82 68.5,35.42 197.92,84.29l470.3 129.42c508.83,107.38 179.08,217.53 490.9,426.33 -27.35,-129.13 -6.83,-75.48 -15.71,-231.54 -7.34,-128.89 -10.67,-120.77 86.26,-191.79 0,-237.34 10.63,-384.11 31.34,-570.81 19.09,-172.13 -31.34,-339.12 -31.34,-558.08 -134.92,-155.23 -180.78,-502.54 0,-635l0 -141.11c-87.85,-64.37 -83.41,-133.78 -98.15,-254.63l-7.57 -4507.98c2.42,-568.64 -92.41,-354.85 -35.39,-599.61 -1039.3,-86.48 -2165.3,-35.28 -3210.28,-35.28 -2429.56,0 -22666.7,-35.37 -22784.89,7.37 -138.85,50.21 -42.03,75.67 -55.78,258.57 -46.22,615.12 -19.6,935.65 10.88,1509.56 9,169.5 -16.49,190.39 -20.6,345.25l-9.61 8815.36c-0.03,809.2 -204.73,635 1023.06,635l12526.07 2.46c247.7,-0.1 174.82,-14.4 315.04,-108.29z" />
   <path class="fil1" d="M23729.17 15555.56c677.54,0 475.56,109.05 986.95,106.66l2788.05 -0.55c419.3,3.36 288.09,7.89 458.33,-106.11l135.67 111.84c220.56,-150.06 194,-20.95 427.15,-4.48l1201.65 -0.95c250.95,2.53 352.17,2.8 458.03,-141.69 126.23,33.7 58.28,43 154.38,62.95 151.18,31.39 122.87,0.4 188.15,-35.81 188.96,-104.83 45.27,-60.93 387.37,-108.63 304.19,-42.41 545.94,-59.62 928.16,-59.62 106.63,-67.66 682.51,-33.89 812.6,-34.07 232.2,-0.32 954.14,-110.52 1129.22,-176.06 249.43,-93.37 58.22,-89.91 571.21,-310.73l306.05 -152.56c126.62,-101.95 157.31,-232.43 198.22,-436.78 49.63,-247.95 -24.81,-108.16 128.88,-329.73l312.8 -569.15c30.27,-144.6 -19.97,-43.97 57.98,-153.68 325.74,-458.44 182.22,96 462.27,-631.35 55.13,-143.18 13.79,-98.04 112.99,-133.95 17.67,-75.86 24.98,-108.35 47.39,-199.55 40.53,-164.94 -11.17,-111.65 93.72,-188.5 0,-143.36 11.79,-113.59 -35.27,-211.67l-35.28 -35.28c-311.82,-208.8 17.93,-318.95 -490.9,-426.33l-470.3 -129.42c-129.42,-48.87 -26.99,-42.47 -197.92,-84.29l-394.69 -63.93c-134.38,-45.82 -65.95,-49.93 -205.07,-112.43l-613.22 -127.61 -2233.02 -103.98c-182.43,-21.09 -389.51,17.88 -571.25,-19.81 -304.87,-63.21 -18.4,-60.55 -539.07,-61.58 -259.6,-0.51 -319.44,22.29 -530.58,4.77 -214.08,-17.78 -336.68,-41.57 -562.14,-40.01 -605.92,4.21 -329.78,-0.23 -649.04,-91.79 -9.21,-2.65 -18.07,-5.35 -27.88,-7.4 -192.62,-40.38 -1492.09,-0.12 -1597.45,15.37l-760.51 10.37c-394.17,25.51 -1025.56,9.97 -1332.02,79.6 -375.02,85.2 -700,88.64 -1104.47,97.28 -278.67,5.95 -191.54,114.07 -429.33,170.4 -176.05,41.7 -347.19,43.52 -518.55,81.17l-437.24 121.69 -1025.36 567.65c-5.03,5.24 -11.84,13.17 -16.78,18.5 -24.11,26.09 -32.89,44.13 -66.56,74.55l-193.84 123.66c-83.78,46.94 23.04,5.76 -96.4,44.71 -366.84,119.64 -239.07,15.97 -317.53,352.75 -329.66,27.43 -512.85,263.12 -533.56,277.83 -96.21,68.35 -58.06,24 -191.69,55.25 -172.33,40.32 -77.67,22.07 -187.2,95.03 -218.62,145.61 -347.66,174.48 -604.44,171.66 -227.7,-2.5 -287.84,34.38 -494.34,34.83 -340.54,0.75 -198.38,-14.08 -367.91,161.26 -185.12,191.46 -482.87,-64.28 -725.3,297.75 97.78,146.03 234.96,248.73 361.02,379.81 149.44,155.4 209.95,184.64 520.92,184.64 0,205.56 -12.76,157.79 70.56,282.22 172.85,-14.39 151.65,-88.95 282.22,-176.39 675.4,452.27 583.71,203.56 1491.5,554.61 115.98,44.85 166.54,62.87 292.74,95.31 238.81,61.39 413.7,115.94 646.97,164.43l663.44 147.94c213.78,44.74 435.07,101.06 671.4,140 408.82,67.35 69.97,158.34 535.82,275.56 186.36,46.9 317.87,14.7 537.71,62.02 40.07,8.63 49.69,11.96 83.84,22l50.75 19.8z" />
   <path class="fil0" d="M-24566.12 27655.83l1875.75 9.29 -1.38 -16977.9c-383.23,0 -1153.29,-50 -1486.13,35.11 -123.93,-488.02 31.25,-0.34 -18.59,-789.09 -9.54,-150.98 14.11,-40.69 17.98,-201.8 6.84,-284.12 -130.65,-105.76 -144.29,-351.15 -12.59,-226.32 104.08,-120.18 141.97,-318.59 45.32,-237.32 2.23,-1555.14 -32.35,-1690.41 323.8,82.79 1141.79,35.1 1521.41,35.1l4.65 -5293.84 -1879.02 -0.86 0 25544.14z" />
   <path class="fil0" d="M-22446.13 7391.97c265.77,28.94 539.72,14.43 808.07,14.42 423.93,0 634.67,-68.94 670.76,105.35 15.45,74.61 33.54,3078.25 -30.85,3141.41 -71.48,70.1 -14.35,12 -141.96,13.16l-1306.02 35.34c60.14,1376.63 3.33,2696.38 3.33,4183.63 0,1392.83 32.35,2871.35 -0.94,4232.41 -17.6,719.46 -19.33,1516.96 28.44,2189.35 16.03,225.55 -35.53,329.85 -28.78,526.17 5.75,167.39 30.97,286.72 30.1,495.51 -2.92,697.61 -45.31,932.66 -1.7,1588.51 41.11,618.13 -27.26,2019.37 -27.12,2680.26 0.08,382.26 28.63,711.59 28.63,1058.34 437.85,0 1508.28,65.25 1826.56,-25.99l8.99 -25483.71c-124.19,-74.1 -1781.96,-32.13 -1864.18,-24.75l20.43 3951.68c49.43,429.65 2.37,931.32 -23.76,1318.91z" />
   <path class="fil2" d="M-16750.39 18429.04c155.19,-104.35 2405.72,-51.26 2767.61,-51.26l8386.48 44.91 0 2344.34c-255.05,73.18 -8638.33,25.4 -9832.87,25.4 -381.82,0 -1065.28,39.29 -1411.11,-15.77l-3.57 -2363.61c115.45,132.72 54.61,958.66 54.61,1128.89 0,394.56 0,789.12 0,1183.68l11137.78 15.65 4.04 -2312.27 -11102.97 0.04zm-321.07 2614.08l11731.74 0.28 0 -2912.57c-346.9,55.23 -10689.12,28.04 -11502.92,14.25 -382.9,-6.5 -244.59,-129.52 -244.59,1044.08 0,431.18 -53.03,1496.79 15.77,1853.96z" />
   <path class="fil2" d="M36076.39 9487.78l0 141.11c17.18,24.72 19.95,17.23 40.5,65.34 52.41,122.74 30.63,397.4 28.2,531.37l-68.7 38.29c0,218.96 50.43,385.95 31.34,558.08 -20.71,186.7 -31.34,333.47 -31.34,570.81l70.56 35.28 -4.25 347.66 -101.58 75.67c47.06,98.08 35.27,68.31 35.27,211.67 103.73,154.9 72.73,176.07 70.84,423.05l-0.28 3351.67c-385.88,0 -781.39,15.41 -1164.28,7.81 -87.01,-1.73 -238.39,-17.23 -315.9,-6.48 -129.31,17.94 -107.82,32.63 -174.23,108.14l-1061.96 1266.37c-242.27,312.02 -132.81,244.5 -317.52,248.84 -27.09,-104.15 -49.11,-105.85 -120.45,-199.02 -129.98,-169.78 -1056.21,-1379.56 -1193.34,-1417.3l-1684.82 -0.26c-4611.33,0.44 -9261.51,-26.23 -13864.17,0.25 -1538.58,8.85 -3082.3,0.37 -4621.39,-0.25 -388.86,-0.16 -776.13,0.3 -1164.17,0.13 -891.23,-0.4 -781.01,84.21 -776.41,-396.02l0.3 -6914.71c0,-685 -50.99,-4215.79 35.28,-4586.11 429.7,-100.11 1444.44,-35.28 1975.55,-35.28l22083.9 0c668.85,0 1343.31,8.58 2011.47,-0.63 257.15,-3.55 346.3,-65.39 356.62,172.54 6.54,150.84 -4.48,341.85 -4.48,498.37 -0.01,488.36 48.28,4595.41 -36.31,4832.03 -36.02,100.78 -5.38,26.08 -34.25,71.58zm-26599.45 -5503.33l0 11500.55c0.4,766.11 164.61,701.94 1410.9,652.26 398.34,-15.88 975.24,40.23 1481.88,18.02l3104.23 2.24c1440.91,60.47 3693.71,-83.54 5221.33,-18.01 1130.37,48.49 2573.09,-47.14 3668.89,0 978.1,42.08 2332.53,-35.9 3280.83,0 1030.91,39.03 1987.55,-26.92 3104.23,18.01l988 -18.01c92.23,0 128.67,108.57 187.85,181.25l346.13 429.42c70.31,94.94 110.28,126.65 177.14,210.92 73.67,92.84 81.63,132.48 168.89,219.17l170.23 217.82c560.02,734.35 776.38,156.57 1075.55,-175.36 81.09,-89.97 100.84,-129.28 170.13,-217.92l80.92 -95.47c35.92,-41.2 50.44,-54.89 82.23,-94.16 129.91,-160.45 473.38,-544.25 504.26,-659.9 349.82,-37.27 1198.24,40.07 1575.31,-17.68 208.17,-31.88 290.54,-176.72 290.54,-405.66l0 -11747.49c0.09,-393.24 -143.2,-429.1 -736.96,-429.1l-3527.7 11.01c-754.46,18.92 -1667.11,-21.12 -2504.72,0l-2892.86 -1.37c-149.33,0 -158.03,-27.75 -246.95,-27.75l-776.11 27.75c-1194.8,-31.07 -2814.93,1.9 -3981.98,0l-7941.91 0c-149.32,0 -158.02,-27.75 -246.94,-27.75l-3668.89 27.75c-81.09,-0.2 -207.98,-73.85 -396.2,58.26 -111.53,78.28 -168.25,182.11 -168.25,361.2z" />
   <polygon class="fil2" points="-16770.26,25292.74 -5662.51,25309.29 -5657.01,22999.16 -16769.73,22999.38 " />
   <path class="fil3" d="M23376.39 22787.5c0,-110.75 103.58,-217.35 184.3,-242.39 82.62,-25.64 284.01,-14.77 380.1,-14.34l2328.38 0.15c484.56,0 751.45,76.52 868.19,-146.58 50.22,-95.96 23.59,-26 32.27,-106 48.92,-450.55 -1023.24,-303.96 -1570.74,-302.23l-1375.91 -1.38c-328.85,7.91 -2980.76,-34.14 -3137.82,42.18 -199.25,96.83 -186.7,389.16 34.42,487.42 208.99,92.88 893.11,-76.24 1070.99,95.19 131.15,126.4 77.64,421.64 -106.08,480.27 -62.46,19.93 -2735.4,45.69 -3223.66,9.44l-3245.55 15.77c-105.72,199.8 -114.65,178.51 -105.83,388.05 262.18,175.57 292.88,131.67 705.54,131.48l9207.51 0c1045.54,0 2295.84,-61.87 3316.11,9.63 169.94,253.77 166.55,525.3 -211.66,525.3l-4445 0c-478.4,0 -431.95,523.4 -30.87,523.4l7791.98 0c78.94,0 250.82,-85.1 250.82,-272.59 0,-307.07 -405.01,-251.2 -709.45,-250.81 -120.11,0.16 -340.92,19.5 -445.87,-10.2 -101.51,-28.72 -189.11,-171.75 -189.11,-268.15 0,-312.01 392.5,-256.7 705.55,-256.59 1461.28,0.53 13172.53,30.64 13316.05,-11.95 104.05,-30.87 195.34,-140.62 195.34,-260.63 0,-363.66 -642.13,-260.14 -952.5,-246.94l-20355.28 0c-182.03,0 -282.22,-146.88 -282.22,-317.5z" />
   <path class="fil2" d="M-3575.84 25362.77c100.03,-41.32 3116.98,0.03 3280.84,0 2217.08,-0.38 4597.92,-31.75 6809.25,-3.28 153.42,1.97 361.77,41.91 361.77,-102.55l0 -2267.41 -10354.84 0c-153.45,0 -93.39,346.17 -93.16,503.5l-3.86 1869.74z" />
   <path class="fil2" d="M6872.15 20737.51c27.83,-681.31 -34.72,-1581.04 23.49,-2170.95 12.8,-129.68 62.34,-80.9 -39.97,-136.18 -74.49,-40.24 -3776.23,-18.79 -4046.23,-17.44l-6385.28 0.11c20.25,517.91 3.88,1066.27 3.88,1587.5 0,874.86 -203.56,740.84 842.79,740.84l9601.32 -3.88z" />
   <path class="fil4" d="M36076.39 12063.06c-104.89,76.85 -53.19,23.56 -93.72,188.5 -22.41,91.2 -29.72,123.69 -47.39,199.55 48.13,75.85 37.6,175.2 36.57,280.93l1.34 2721.25c1.65,315.34 -2.81,212.31 -318.28,207.53 -211.27,-3.21 -425.6,0.87 -637.36,0.14l-528.66 0.43c-153.86,290.79 -251.7,180.68 -383.32,533.9l-63.98 112.41c-55.58,50.77 -138.47,62.05 -206.29,146.48 -109.56,136.41 -10.45,60.27 -162.76,190.02 -70.48,60.04 -103.87,113.56 -161.49,191.29 -176.24,237.73 -148.13,258.05 -327.44,378.12l-156.88 -160.61c-247.18,-448.67 -226.16,-205.72 -398.27,-518.96 -78.84,-143.49 -129.82,-150.19 -241.04,-288.12 -4.61,-5.72 -11.14,-13.82 -15.64,-19.64l-281.78 -388.5c-83.53,-30.24 -70.81,-54.57 -170.62,-182.15 -102.93,-131.57 -76.32,-48.32 -76.32,-276.46 -382.22,0 -623.97,17.21 -928.16,59.62 -342.1,47.7 -198.41,3.8 -387.37,108.63 -65.28,36.21 -36.97,67.2 -188.15,35.81 -96.1,-19.95 -28.15,-29.25 -154.38,-62.95 -105.86,144.49 -207.08,144.22 -458.03,141.69l-1201.65 0.95c-233.15,-16.47 -206.59,-145.58 -427.15,4.48l-135.67 -111.84c-170.24,114 -39.03,109.47 -458.33,106.11l-2788.05 0.55c-511.39,2.39 -309.41,-106.66 -986.95,-106.66 -140.22,93.89 -67.34,108.19 -315.04,108.29l-12526.07 -2.46c-1227.79,0 -1023.09,174.2 -1023.06,-635l9.61 -8815.36c4.11,-154.86 29.6,-175.75 20.6,-345.25 -30.48,-573.91 -57.1,-894.44 -10.88,-1509.56 13.75,-182.9 -83.07,-208.36 55.78,-258.57 118.19,-42.74 20355.33,-7.37 22784.89,-7.37 1044.98,0 2170.98,-51.2 3210.28,35.28 -57.02,244.76 37.81,30.97 35.39,599.61l7.57 4507.98c14.74,120.85 10.3,190.26 98.15,254.63 28.87,-45.5 -1.77,29.2 34.25,-71.58 84.59,-236.62 36.3,-4343.67 36.31,-4832.03 0,-156.52 11.02,-347.53 4.48,-498.37 -10.32,-237.93 -99.47,-176.09 -356.62,-172.54 -668.16,9.21 -1342.62,0.63 -2011.47,0.63l-22083.9 0c-531.11,0 -1545.85,-64.83 -1975.55,35.28 -86.27,370.32 -35.28,3901.11 -35.28,4586.11l-0.3 6914.71c-4.6,480.23 -114.82,395.62 776.41,396.02 388.04,0.17 775.31,-0.29 1164.17,-0.13 1539.09,0.62 3082.81,9.1 4621.39,0.25 4602.66,-26.48 9252.84,0.19 13864.17,-0.25l1684.82 0.26c137.13,37.74 1063.36,1247.52 1193.34,1417.3 71.34,93.17 93.36,94.87 120.45,199.02 184.71,-4.34 75.25,63.18 317.52,-248.84l1061.96 -1266.37c66.41,-75.51 44.92,-90.2 174.23,-108.14 77.51,-10.75 228.89,4.75 315.9,6.48 382.89,7.6 778.4,-7.81 1164.28,-7.81l0.28 -3351.67c1.89,-246.98 32.89,-268.15 -70.84,-423.05z" />
   <path class="fil3" d="M41015.28 10324.81c49.19,-73.06 273.71,-699.43 282.22,-801.75 195.77,143.43 238.38,572.97 352.88,813.39l807.42 1.87c-47.34,205.94 -569.51,344.69 -619.7,529.71 -41.47,152.92 180.16,479.59 206.16,691.86l-5.92 79.83c-48.76,47.62 -370.51,-234.25 -705.56,-458.61 -33.64,29.24 6.39,-1.27 -57.81,48.02l-683.02 445.87 77.49 -242.82c76,-179.78 102.14,-374.69 204.73,-568.57 -129.75,-86.88 -640.34,-432.06 -705.57,-530.08l846.68 -8.72zm-1587.18 2126.11c192.89,0.41 261.45,58.14 488.05,30.68l3351.15 -4.84 -3.73 -3342.04c-2.21,-192.08 61.58,-339.99 -65.86,-384.41 -76.96,-26.82 -3278.26,43.77 -3769.61,-3.17 3.18,142.16 37.32,218.56 30.48,281.5l39.93 -210.96 2363.3 -3.63c286.83,-7.88 262.32,38.33 317.46,102.59 -700.85,-36.27 -2025.96,-56.71 -2623.59,41.97 0,556.69 -21.68,1127.7 -21.74,1693.34l21.56 1270.35c-2.38,334.45 -42.85,365.75 124.21,388.12 334.7,44.81 2911.44,-65.13 3359.62,12.8 159.12,-339.36 50.43,-3346 35.28,-3364.78 -50.79,-66.02 64.74,-38.65 -150.9,-51.83l-602.97 10.03c102.28,-119.2 -7.39,-44.36 138.63,-94l772.27 1c-3.03,190 -31.47,205.7 -29.43,414.64l22.86 1378.39c-0.19,620.02 -22.74,1174.54 -22.74,1798.99 -486.14,-33.27 -3487.54,-53.04 -3736.97,29.29l15.72 -240.96c-53.41,64.45 -45.17,130.02 -52.98,246.93z" />
   <polygon class="fil3" points="-24566.12,27655.83 -24566.12,2111.69 -24944.54,2120.49 -24944.62,27651.91 " />
   <path class="fil3" d="M-20578.62 2146.13l-8.99 25483.71c8.47,3.62 20.11,6.53 26.46,7.92 6.49,1.42 19.04,5.64 27.3,7.17 172.71,32.08 208.23,-10.9 322.67,28.45l0 -25562.52c-158.8,0 -257.32,-20.36 -367.44,35.27z" />
   <path class="fil3" d="M-3842.29 22697.58l11026.18 -15.92c-55.05,254.41 -14.01,445.41 -32.07,706.01 -14.51,209.53 -5.14,2084.11 32.07,2257.32l-2681.11 5.05c-1878.29,-34.69 -3879.06,48.77 -5750.28,3.71 -489.7,-11.79 -921.29,9.51 -1411.85,11.01 -201.4,0.62 -1070.29,-46.11 -1198.48,15.51l15.54 -2982.69zm-192.16 3162.71l5393.63 0.24 21.51 223.57c975.68,0.56 5552.79,46.6 6147.75,-25.41l-11.11 -3781.11 -4129.71 -3.21c-184.62,22.55 -133.88,-16.04 -331.23,-16.04l-1673.83 19.51c0,157.29 28,203.67 -124.95,227.16l-5297.8 -0.24c-44.1,580.17 -19.9,583.29 -19.9,1094.12l25.64 2261.41z" />
   <path class="fil3" d="M-17071.46 21043.12c-68.8,-357.17 -15.77,-1422.78 -15.77,-1853.96 0,-1173.6 -138.31,-1050.58 244.59,-1044.08 813.8,13.79 11156.02,40.98 11502.92,-14.25l0 2912.57 -11731.74 -0.28zm5507.08 -3104.44l-5715 15.76 0 3284.71 5483.82 0c567.16,0 120.92,172.51 388.06,172.51 1341.91,0 2799.15,20.29 4127.42,-11.01l2309.11 -1.1 0.11 -3233.53c2.02,-190.57 57.39,-403.73 -121.92,-403.73l-6438.2 0c9.56,165.31 39.61,91.79 -33.4,176.39z" />
   <path class="fil3" d="M-15887.78 14250.28c190.21,-91.27 882.67,2.12 1050.55,-42.42 95.53,-25.34 63.76,-20.02 121.5,-72.71 -133.12,-137.69 -894.29,-77.03 -1191.56,-77.03 -68.77,-221.57 -25.4,-6429.15 -25.4,-7216.17 246.81,8.72 448.35,-39.24 625.77,-21.87 423.28,41.44 1222.88,-10.98 1606.05,6.1 155.12,6.91 126.38,42.69 247.26,-74.12 182.59,128.05 149.17,52.71 495.76,77 198.23,13.89 431.12,3.25 633.12,3.25 1464.1,0 13641.35,42.11 13876.89,-22.4 224.11,-61.39 89.88,-11.23 242.4,16.39l512.85 -2.61c966.28,-0.3 4035.16,-29.27 4523.7,18.26l5.56 7161.74c-0.2,3.99 -2.13,15.32 -2.37,18.33 -0.22,2.77 -0.49,11.63 -2.87,16.78l-51.42 19.36c-6.5,1.68 -19.26,6.04 -27.46,7.92 -131.66,30.23 -305.81,26.55 -415.33,78.34 83.15,113.54 194.78,70.58 388.06,70.58 8.18,233.01 11.33,426.37 -42.44,525.75 -243.93,450.83 -930.32,281.75 -1686.17,281.77l-15634.93 10.38c-130.24,22.71 -131.93,110.29 -286.31,300.03l-224.71 269.18c-125.21,152.55 -318.27,334.23 -568.51,122.65 -134.75,-113.93 -148.08,-227.31 -324.71,-345.59 36.07,135.11 379.26,658.76 760.14,443.59 114.17,-64.5 236.26,-243.66 317.87,-353.36 69.69,-93.68 76.48,-90.99 148.32,-169.64l141.98 -180.85c145.13,-75.71 16711.06,56.35 17074.6,-48.63 253.21,-73.13 488.81,-449.63 395.42,-855.28 87.57,36.18 73.72,19.05 176.39,-35.28l0 -5820.83c0,-328.36 -12.42,-661.23 8.22,-987.82 10.23,-161.92 7.81,-358.17 -35.92,-466.43 -43.5,-107.71 -148.4,-195.63 -262.61,-218.07 -192.11,-37.74 -4380.79,-36.8 -4819.81,19.94 -807.71,104.39 -468.69,-24.33 -884.78,-23.16l-4306.21 49.85c-108.57,-1.28 -231.6,-53.87 -459.99,-42.25 -273.38,13.92 -605.5,13.24 -915.84,-2.86 -292.51,-15.18 -646.48,13.21 -952.52,12.73 -194.24,-0.31 -299.65,-6.57 -474.84,27.65 -307.76,60.11 -167.11,-46.59 -395.04,-45.04 -565.5,3.86 -1395.66,-38.62 -1913.74,-6.89 -780.6,47.81 -2756.37,8.34 -3707.48,8.35 -1298.83,0.02 -2597.66,0 -3896.5,0 -95.16,248.51 -44.97,1526.27 -44.97,1815.11l0 5679.72 202.03 70.56z" />
   <path class="fil2" d="M-3601.48 22938.24l10330.86 -3.73c172.83,1.2 195,-5.7 202.03,166.51l-2.21 2189.55c-25.73,145.9 -55.18,111.92 -235.77,110.74l-10306.81 0.61 11.9 -2463.68zm-256.35 2742.03c128.19,-61.62 997.08,-14.89 1198.48,-15.51 490.56,-1.5 922.15,-22.8 1411.85,-11.01 1871.22,45.06 3871.99,-38.4 5750.28,-3.71l2681.11 -5.05c-37.21,-173.21 -46.58,-2047.79 -32.07,-2257.32 18.06,-260.6 -22.98,-451.6 32.07,-706.01l-11026.18 15.92 -15.54 2982.69z" />
   <path class="fil2" d="M-3611.11 18373.9l10407.08 -1.93 131.34 11.57 0 2383.49c-78.6,23.11 -37.77,25.4 -131.48,25.4l-10406.94 0 0 -2418.53zm-243.08 -137.23l0.56 2575.26c5.45,262.95 -157.87,247.39 418.91,246.96l10618.61 -15.82c-80.8,-172.02 -11.28,-2789.56 -9.63,-2912.33l-10997.04 3.96 -31.41 101.97z" />
   <path class="fil2" d="M-16858.63 23740c0,-408.29 -65.34,-811.39 124.18,-811.39l11041.95 0c172.22,0 105.96,364.35 105.84,529.16l-0.01 1905c-88.44,31.73 -35.21,34.76 -141.11,34.76l-11125.57 0 -5.28 -1657.53zm-228.6 -917.23l0 2822.22c1057.72,0 2118.45,20.18 3174.79,-18.01l8396.68 13.14c183.04,-1.76 50.03,-47.18 176.04,4.87l0.96 -2963.32c-362.68,57.58 -10021.18,13.25 -11576.42,13.06 -286.8,-0.04 -172.05,19.69 -172.05,128.04z" />
   <path class="fil3" d="M9476.94 3984.45c0,-179.09 56.72,-282.92 168.25,-361.2 188.22,-132.11 315.11,-58.46 396.2,-58.26l3668.89 -27.75c88.92,0 97.62,27.75 246.94,27.75l7941.91 0c1167.05,1.9 2787.18,-31.07 3981.98,0l776.11 -27.75c88.92,0 97.62,27.75 246.95,27.75l2892.86 1.37c837.61,-21.12 1750.26,18.92 2504.72,0l3527.7 -11.01c593.76,0 737.05,35.86 736.96,429.1l0 11747.49c0,228.94 -82.37,373.78 -290.54,405.66 -377.07,57.75 -1225.49,-19.59 -1575.31,17.68 -30.88,115.65 -374.35,499.45 -504.26,659.9 -31.79,39.27 -46.31,52.96 -82.23,94.16l-80.92 95.47c-69.29,88.64 -89.04,127.95 -170.13,217.92 -299.17,331.93 -515.53,909.71 -1075.55,175.36l-170.23 -217.82c-87.26,-86.69 -95.22,-126.33 -168.89,-219.17 -66.86,-84.27 -106.83,-115.98 -177.14,-210.92l-346.13 -429.42c-59.18,-72.68 -95.62,-181.25 -187.85,-181.25l-988 18.01c-1116.68,-44.93 -2073.32,21.02 -3104.23,-18.01 -948.3,-35.9 -2302.73,42.08 -3280.83,0 -1095.8,-47.14 -2538.52,48.49 -3668.89,0 -1527.62,-65.53 -3780.42,78.48 -5221.33,18.01l-3104.23 -2.24c-506.64,22.21 -1083.54,-33.9 -1481.88,-18.02 -1246.29,49.68 -1410.5,113.85 -1410.9,-652.26l0 -11500.55zm-74.42 9771.94c0,341.88 -57.73,1974.13 70.28,2226.72 24.49,48.33 20.11,37.85 40.98,64.78 153.28,197.72 425.73,182.59 703.95,181.86l18662 -0.05c946.76,0 1953.41,32.86 2892.77,-3.87l1189.03 1492.09c116.3,105.51 492.99,168.6 688.6,-108.35 72.64,-102.83 74.53,-102.93 157.83,-194.94l190.6 -232.75c4.59,-5.7 11.36,-13.61 15.98,-19.29l31.97 -38.58c4.59,-5.72 11.42,-13.56 15.94,-19.34l346.8 -429.32c65.54,-73.6 79.99,-103.4 142.33,-175.17 270.43,-311.32 128.77,-270.75 748.7,-270.48 223.81,0.1 447.58,0.23 671.39,0.73 282.09,0.64 336.43,-5.48 492.3,-109.27 274.81,-183.01 192.64,-722.4 192.64,-1165.33l9.87 -3915.83c0.04,-881.09 26.79,-1805.63 -4.85,-2681.11 -42.52,-1176.42 -5.86,-2771.24 -4.84,-4021.7 0.27,-329.88 21.86,-862.4 -509.84,-862.4l-26229.03 0c-543.33,0 -515.41,549.47 -511.93,862.42 14.7,1322.95 32.56,3039.63 0.41,4266.22l-0.01 2401.29c0,916.86 -3.87,1837.91 -3.87,2751.67z" />
   <path class="fil0" d="M32090 15837.78c-38.09,-76.83 -10.51,-12.46 -35.27,-105.84 45.37,-67.76 68.53,-88.55 131.22,-150.99 80.63,-80.3 38.33,-65.87 151,-95.95 -41.38,177.6 -92.55,311.55 -246.95,352.78zm-246.94 -458.61c0,228.14 -26.61,144.89 76.32,276.46 99.81,127.58 87.09,151.91 170.62,182.15l281.78 388.5c4.5,5.82 11.03,13.92 15.64,19.64 111.22,137.93 162.2,144.63 241.04,288.12 172.11,313.24 151.09,70.29 398.27,518.96l156.88 160.61c179.31,-120.07 151.2,-140.39 327.44,-378.12 57.62,-77.73 91.01,-131.25 161.49,-191.29 152.31,-129.75 53.2,-53.61 162.76,-190.02 67.82,-84.43 150.71,-95.71 206.29,-146.48l63.98 -112.41c131.62,-353.22 229.46,-243.11 383.32,-533.9l528.66 -0.43c211.76,0.73 426.09,-3.35 637.36,-0.14 315.47,4.78 319.93,107.81 318.28,-207.53l-1.34 -2721.25c1.03,-105.73 11.56,-205.08 -36.57,-280.93 -99.2,35.91 -57.86,-9.23 -112.99,133.95 -280.05,727.35 -136.53,172.91 -462.27,631.35 -77.95,109.71 -27.71,9.08 -57.98,153.68l-312.8 569.15c-153.69,221.57 -79.25,81.78 -128.88,329.73 -40.91,204.35 -71.6,334.83 -198.22,436.78l-306.05 152.56c-512.99,220.82 -321.78,217.36 -571.21,310.73 -175.08,65.54 -897.02,175.74 -1129.22,176.06 -130.09,0.18 -705.97,-33.59 -812.6,34.07z" />
   <path class="fil3" d="M43027.59 19991.9c286.65,0.87 487.27,-56.12 625.1,-211.44 127.98,-144.21 149.54,-434.12 149.54,-697.13 0,-479 31.98,-424.99 -121.6,-458.61 0,641.53 162.56,1264.98 -478.12,1270l-12347.23 -3.87c-1243.39,0 -310.57,1100.42 -1011.99,1325.94 -115.21,37.04 -344.83,28.58 -469.63,28.2l-8960.6 9.79c-3.21,169.7 -39.15,336.51 -39.15,544.94l3.87 635c-453.62,-17.74 -4471.27,-48.46 -4828.98,39.37 -540.1,132.62 -861.76,805.66 -532.52,1371.01 279.95,480.71 712.46,449.72 1234,449.7l6910.57 13.51c0,442.76 180.7,820.85 470.38,940.58 64.78,26.77 294.37,94.37 380.16,94.37l7902.22 0c112.64,0 311.3,-55.3 382.01,-92.53 415.72,-218.9 490.3,-524.48 490.3,-955.93l10628.25 0c480.26,0.02 571.06,68.55 599.72,-95.14l-7655.27 -1.05c-76.74,0 -143.57,-22.3 -211.89,-18.02 -709.14,52.44 -2627.26,18.02 -3457,18.02 1.25,420.52 45.89,490.12 -159.58,757.64 -142.58,185.63 -330.05,284.92 -616.54,284.92l-7902.22 0c-305.69,0 -511.66,-117.54 -643.6,-328.44 -81.02,-129.5 -99.27,-191.02 -118.89,-335.83 -15.14,-111.79 18.5,-234.37 21.66,-382.17l-7478.89 0c-923.64,0 -1162.68,-1197.59 -331.35,-1597.29 390.95,-187.97 4219.1,25.8 5039.24,-76.22 0,-159.61 -26.45,-142.36 -34.94,-232.1l33.38 -826.94c18.19,-90.82 87.74,-81.19 122.91,-89.77 290.07,-70.77 7604.51,-27.43 8682.15,-27.43 1723.01,0 307.12,-1353.41 1411.11,-1354.06l1481.75 11.01c1817.79,-35.46 3810.5,-11.01 5644.36,-11.01l5187.31 0.98z" />
   <path class="fil3" d="M-3822.78 18134.7l10997.04 -3.96c-1.65,122.77 -71.17,2740.31 9.63,2912.33l-10618.61 15.82c-576.78,0.43 -413.46,15.99 -418.91,-246.96l-0.56 -2575.26 31.41 -101.97zm5265.85 3272.15l-42.36 -169.74 5822.07 1.78c208.06,-22.05 139.03,-188.7 137.62,-426.82 -4.14,-701.53 63.49,-2468.44 -35.4,-2892.9l-4515.56 -0.03c-477.05,-0.64 -987.89,63.35 -1411.11,-35.25l-51.35 19.41c-39.37,10.42 -41.57,11.35 -87.39,19.88 -3.21,0.6 -146.73,20.3 -150.57,20.45 -120.02,4.7 -139.41,-30.54 -307.96,-22.66 -209.27,9.79 -459.21,24.81 -610.64,8.93l-3908.87 -12.26c-192.26,1.87 -180.93,24.5 -341.64,46.44 0,293.21 15.69,536.92 10.52,837.62 -2.76,160.24 -26.71,249.34 -17.82,421.09 25.84,498.9 -52.16,1616.29 32.94,2012.48l5362.23 2.11c104.3,168.64 -32.01,111 115.29,169.47z" />
   <path class="fil3" d="M-17087.23 25644.99l0 -2822.22c0,-108.35 -114.75,-128.08 172.05,-128.04 1555.24,0.19 11213.74,44.52 11576.42,-13.06l-0.96 2963.32c-126.01,-52.05 7,-6.63 -176.04,-4.87l-8396.68 -13.14c-1056.34,38.19 -2117.07,18.01 -3174.79,18.01zm5573.89 176.39l6350 0 1.13 -3035.22c4.96,-368.2 46.64,-295.61 -244.84,-281.81 -395.33,18.71 -837.46,0.92 -1237.95,0.92 -633.46,0 -4647.19,65.45 -4872.98,-35.27l-168.85 37.83c-50.61,2.19 -125.41,-1.75 -178.9,-2.22l-5413.65 -0.34 0 3318.15 5766.04 -2.04z" />
   <path class="fil3" d="M-22273.06 8958.61c78.31,41.44 124.94,63.82 204.45,113.05 85.31,52.83 113.23,74.01 225.42,104.76l-147.65 170.25c-87.56,-58.63 -158.69,-167.01 -285.7,-166.48 -90.87,0.39 -203.55,103.47 -266.11,166.66l-16.5 282.04c114.18,56.73 185.43,108.99 286.09,176.39 52.51,-45.64 8.84,-13.44 83.62,-57.49 147.44,-86.84 117.96,-33.75 198.6,-154.18 -186.86,-99.5 -225.49,52.26 -282.22,-141.11 92.23,-114.04 138.18,-69.49 455.52,-70.9l3.09 388.4c-172.75,40.25 -328.42,159.76 -458.61,246.95l-455.52 -281.88 -3.09 -529.51 458.61 -246.95zm-375.22 -93c89.18,-44.26 48.39,-38.52 162.61,-48.12 4.29,-251.55 68.64,-412.35 -281.28,-493.88l6.01 -223.84 452.6 223.84c-9.72,248.77 42.59,498.31 -60.27,578.43 -447.21,348.31 -522.27,83.99 -279.67,-36.43zm-718.39 22.45c314.56,-73.29 272.49,-123.46 246.94,-423.33 -92.38,-61.87 -146.23,-87.83 -250.37,-140.98l-6.21 -211.8c270.21,112.07 234.05,117.03 461.54,246.69l-28.57 564.7c-109.49,25.5 -102.18,45.04 -211.67,70.55 32.84,122.96 118.34,146.43 246.95,176.39 -31.68,198.97 -27.39,436.95 0,564.44 -81.64,43.21 -140.34,72.62 -229.99,122.61 -27.16,15.14 -41.45,22.94 -67.28,38.02l-43.92 26.99c-105.51,59.77 13.36,26.28 -129.12,59.25l11.7 -211.59c94.15,-45.17 272.59,-81.02 272.59,-211.66 0,-326.26 10.08,-238.49 -272.59,-388.06l0 -282.22zm1128.89 -493.89c0,-119.29 343.69,-255.45 458.61,-282.22 -38.86,94.07 -3.7,45.51 0,211.66 -88.09,23.52 -297.99,108.71 -297.99,211.67 0,260.09 -22.91,241.68 150.97,324.03 94.26,44.64 92.56,39.21 182.3,99.3 -44.94,93.65 -32.19,37.76 -35.28,176.39l-446.42 -247.27 -12.19 -493.56zm-1642.92 1964.75l2591.08 10.8 17.71 -2645.83c-698.25,0 -1396.51,0 -2094.76,0l70.54 -0.62c-748.67,19.73 -584.57,-232.1 -584.57,1270.62 0,455.01 0,910.02 0,1365.03z" />
   <path class="fil3" d="M43449.45 8570.56c-39.87,1019.64 -3.29,2111.9 -3.91,3139.72 -0.15,252.02 17.61,535.51 7.19,781.84 -8.59,202.98 -19.02,153.14 -177.46,138.77 -374.43,-33.97 -2928.31,3.47 -3494.73,6.6 -597.45,3.3 -537.5,68.86 -542.33,-181.59 -12.36,-639.97 -26.76,-3690.06 28.95,-3869.57 456.86,0 4061.2,34.88 4182.29,-15.77zm-4425.49 3951.11l15.77 317.5c471.93,0 4523.63,-28.01 4625.26,17.55l0 -4501.7 -4640.7 0 -0.33 4166.65z" />
   <path class="fil0" d="M-11517.98 22470c225.79,100.72 4239.52,35.27 4872.98,35.27 400.49,0 842.62,17.79 1237.95,-0.92 291.48,-13.8 249.8,-86.39 244.84,281.81l-1.13 3035.22 -6350 0c-125.77,302.13 309.39,211.7 599.73,211.67l5926.66 0 0.02 -3245.57c0.15,-99.48 8.38,-227.73 4.54,-322.08 -6.27,-154.41 7.2,-161.66 -141.72,-177.69l-6389.23 3.69c-2.61,151.53 24.92,87.12 -4.64,178.6z" />
   <path class="fil3" d="M-23953.02 7666.71c92.14,-31.11 2569.79,-73.02 2759.58,0l18.33 2813.19c-337.33,-57.6 -2235.89,-17.72 -2742.63,-17.72 -32.69,-56.29 -60.99,-53.52 -55.52,-128.01 35.23,-416.23 -6.79,-328.66 20.24,-740.56l-6.42 -740.74 6.42 -1186.16zm1261.27 3020.51c58.32,-36.83 170.05,-51.15 245.62,14.43l1306.02 -35.34c127.61,-1.16 70.48,56.94 141.96,-13.16 64.39,-63.16 46.3,-3066.8 30.85,-3141.41 -36.09,-174.29 -246.83,-105.35 -670.76,-105.35 -268.35,0.01 -542.3,14.52 -808.07,-14.42 -54.94,36.63 -11.31,27.83 -112.13,36.64 -11.03,0.96 -46.82,-0.06 -57.46,-1.03 -81.95,-7.49 -43.07,-5.11 -76.03,-21.19 -379.62,0 -1197.61,47.69 -1521.41,-35.1 34.58,135.27 77.67,1453.09 32.35,1690.41 -37.89,198.41 -154.56,92.27 -141.97,318.59 13.64,245.39 151.13,67.03 144.29,351.15 -3.87,161.11 -27.52,50.82 -17.98,201.8 49.84,788.75 -105.34,301.07 18.59,789.09 332.84,-85.11 1102.9,-35.11 1486.13,-35.11z" />
   <path class="fil0" d="M1398.33 17883.89c423.22,98.6 934.06,34.61 1411.11,35.25l4515.56 0.03c98.89,424.46 31.26,2191.37 35.4,2892.9 1.41,238.12 70.44,404.77 -137.62,426.82l-5822.07 -1.78 42.36 169.74 6058.32 9.47 28.63 -3666.9 -6131.69 -6.75 0 141.22z" />
   <path class="fil2" d="M39428.1 8747.14c491.35,46.94 3692.65,-23.65 3769.61,3.17 127.44,44.42 63.65,192.33 65.86,384.41l3.73 3342.04 -3351.15 4.84c-226.6,27.46 -295.16,-30.27 -488.05,-30.68 -73.61,-115.95 -43.62,-3073.46 -37.83,-3494.93l27.1 -184.39c1.82,-5.79 5.96,-16.95 10.73,-24.46zm4021.35 -176.58c-121.09,50.65 -3725.43,15.77 -4182.29,15.77 -55.71,179.51 -41.31,3229.6 -28.95,3869.57 4.83,250.45 -55.12,184.89 542.33,181.59 566.42,-3.13 3120.3,-40.57 3494.73,-6.6 158.44,14.37 168.87,64.21 177.46,-138.77 10.42,-246.33 -7.34,-529.82 -7.19,-781.84 0.62,-1027.82 -35.96,-2120.08 3.91,-3139.72z" />
   <path class="fil5" d="M-10490.09 14144.59c282.15,0 564.37,0.61 846.52,-0.04 135.4,-0.32 280.77,-11.07 410.33,12.95 182.11,33.76 179.78,88.68 365.74,93.01 159.31,-105.8 169.54,-206.31 493.17,-178.29 189.55,16.41 306.63,162.54 388.61,284.04l282.54 0c273.19,-404.86 441.09,-182.83 978.07,-256.41 172.88,-23.69 351.29,-25.61 574.83,-26.47 240.78,-0.92 365.62,58.26 593.34,31.42 436.4,-51.44 1952.62,-80.78 2435.31,-24.61l1364.16 20.39c97.98,3.35 194.43,9.48 297.73,9.27l2790.33 -3.14c182.7,-0.22 169.3,-27.92 243.81,72.69 -166.87,80.28 -1583.42,37.64 -1975.48,35.03 -408.57,-2.71 -286.81,-21.06 -529.21,141.36 -30.71,43.64 -43.07,67.36 -70.84,112.87 211.66,97.53 275.23,180.54 565.02,204.52 413.97,-0.24 904.21,24.74 1307.93,2.62 178.81,-9.79 115.6,-7.22 216.93,-100.09 133.95,-122.74 48.04,-62.08 266.55,-86.64 199.36,-22.4 393.14,-27.61 642.27,-27.61 26.68,-47.28 19.31,-38.91 35.68,-105.35 6.24,-232.52 112.11,-248.5 350.85,-248.62 823.18,-0.43 2766.11,39.37 3424.2,2.12 212.52,-12.02 296.72,-103.5 458.21,34.46l70.71 0.35c109.52,-51.79 283.67,-48.11 415.33,-78.34 8.2,-1.88 20.96,-6.24 27.46,-7.92l51.42 -19.36 -17356.61 0.29c23.19,86.4 -0.36,33.21 35.09,105.5z" />
   <path class="fil6" d="M-16769.73 22999.38l11112.72 -0.22 -5.5 2310.13 -11107.75 -16.55 0.53 -2293.36zm-88.9 740.62l5.28 1657.53 11125.57 0c105.9,0 52.67,-3.03 141.11,-34.76l0.01 -1905c0.12,-164.81 66.38,-529.16 -105.84,-529.16l-11041.95 0c-189.52,0 -124.18,403.1 -124.18,811.39z" />
   <path class="fil3" d="M-7703.18 14356.26c64,87.47 99.85,57.31 176.23,105.45l3880.56 -0.21c245.14,-363.09 461.72,-246.5 1305.28,-246.5l1166.92 -2.75c174.36,8.98 170.72,34.04 243.9,143.54 242.4,-162.42 120.64,-144.07 529.21,-141.36 392.06,2.61 1808.61,45.25 1975.48,-35.03 -74.51,-100.61 -61.11,-72.91 -243.81,-72.69l-2790.33 3.14c-103.3,0.21 -199.75,-5.92 -297.73,-9.27l-1364.16 -20.39c-482.69,-56.17 -1998.91,-26.83 -2435.31,24.61 -227.72,26.84 -352.56,-32.34 -593.34,-31.42 -223.54,0.86 -401.95,2.78 -574.83,26.47 -536.98,73.58 -704.88,-148.45 -978.07,256.41z" />
   <path class="fil3" d="M-12042.5 15379.17l-218.69 -311.68c-199.58,-140.16 -3312.53,60.74 -3674.93,-63.25 -320.85,-109.77 -212.08,-381.29 -230.21,-542.17 -20.89,-185.34 -16.71,-43.82 -84.38,-201.89 -90.87,-212.23 -34.76,-2831.66 -34.76,-3184.9 0,-860.22 -45.62,-3657.7 0.04,-4270.58 31.42,-421.59 402.29,-379.49 678.59,-370.21 324.27,10.89 703.04,23.87 1055.48,10.27 602.64,-23.27 1267.36,-10.38 1995.46,-10.38 -151.8,-142.55 -142.56,-55.33 -156.88,-227.43 -384.75,32.02 199.14,134.59 -881.99,137.21 -355.3,0.86 -495.73,52.36 -740.79,-313.6 -281.18,0 -435.06,-11.18 -552.17,-189.6 -162.82,-248.06 24.17,-422.56 89.07,-771.09 37.29,-200.26 67.77,-406.33 252.22,-484.87 99.32,-42.3 213.99,-45.64 355.86,-36.11 -0.38,-317.23 14.3,-340.78 246.76,-455 7.32,-3.6 16.22,-8.25 23.65,-11.76 156.71,-74.13 317.35,-75.73 439.1,-31.33 378.93,138.19 159.5,459.93 699.46,381.3 298.88,-43.53 -39.12,-260.19 809.66,-200.71 134.04,-501.97 1021.19,-249.97 1093.61,-70.55 189.66,-15.78 119.84,-70.56 388.06,-70.56 -99.15,-137.29 -203.11,6.45 -337.16,-22.9 -20.3,-4.44 -121.29,-66.23 -186.17,-88.29 -364,-123.76 -787.64,-207.51 -993.62,181.75 -196.22,-31.24 -388.19,-22.59 -567.79,67.66l-126.83 85.24c-326.51,214.97 -465.65,-106.98 -568.61,-194.94 -277.24,-236.84 -642.32,-178.96 -855.69,4.5 -91.1,78.34 -135.2,155.81 -138.85,319.76 -699.16,68.43 -480.47,476.71 -696.1,995.05 -73.17,175.89 -124.48,302.78 75.55,507.72 51.2,52.46 73.33,65.54 149.03,97.67 173.03,73.46 305.02,57.39 357.47,71.32 87.74,23.3 197.95,169.83 229.51,242.87 -377.15,0 -1651.69,-49.37 -1882.04,23.19 -401.13,126.36 -340.89,634.65 -340.69,1024.78l9.62 917.31c12.69,113.4 -17.14,189.55 -20.24,387.02 -6.61,421.79 30.46,1426.15 4.09,1765.94 -43.52,560.67 12.55,2571.02 6.53,3351.53 -4.42,572.96 92.46,342.61 116.84,603.5 11.39,121.93 -27.38,270.01 62.3,442.46 40.03,76.99 49.99,82.65 119.1,127.51 312.9,203.11 1352.87,99.89 1844.3,99.89 636.25,0 1308.45,20.83 1940.28,-3.88 183.65,274.26 109.96,209.74 246.95,282.23z" />
   <path class="fil2" d="M41015.28 10324.81l-846.68 8.72c65.23,98.02 575.82,443.2 705.57,530.08 -102.59,193.88 -128.73,388.79 -204.73,568.57l-77.49 242.82 683.02 -445.87c64.2,-49.29 24.17,-18.78 57.81,-48.02 335.05,224.36 656.8,506.23 705.56,458.61l5.92 -79.83c-26,-212.27 -247.63,-538.94 -206.16,-691.86 50.19,-185.02 572.36,-323.77 619.7,-529.71l-807.42 -1.87c-114.5,-240.42 -157.11,-669.96 -352.88,-813.39 -8.51,102.32 -233.03,728.69 -282.22,801.75z" />
   <path class="fil5" d="M39428.1 12450.92c7.81,-116.91 -0.43,-182.48 52.98,-246.93l-15.72 240.96c249.43,-82.33 3250.83,-62.56 3736.97,-29.29 0,-624.45 22.55,-1178.97 22.74,-1798.99l-22.86 -1378.39c-2.04,-208.94 26.4,-224.64 29.43,-414.64l-772.27 -1c-146.02,49.64 -36.35,-25.2 -138.63,94l602.97 -10.03c215.64,13.18 100.11,-14.19 150.9,51.83 15.15,18.78 123.84,3025.42 -35.28,3364.78 -448.18,-77.93 -3024.92,32.01 -3359.62,-12.8 -167.06,-22.37 -126.59,-53.67 -124.21,-388.12l-21.56 -1270.35c0.06,-565.64 21.74,-1136.65 21.74,-1693.34 597.63,-98.68 1922.74,-78.24 2623.59,-41.97 -55.14,-64.26 -30.63,-110.47 -317.46,-102.59l-2363.3 3.63 -39.93 210.96c6.84,-62.94 -27.3,-139.34 -30.48,-281.5 -4.77,7.51 -8.91,18.67 -10.73,24.46l-27.1 184.39c-5.79,421.47 -35.78,3378.98 37.83,3494.93z" />
   <path class="fil7" d="M2033.25 14356.11c-16.37,66.44 -9,58.07 -35.68,105.35 -249.13,0 -442.91,5.21 -642.27,27.61 -218.51,24.56 -132.6,-36.1 -266.55,86.64 -101.33,92.87 -38.12,90.3 -216.93,100.09 -403.72,22.12 -893.96,-2.86 -1307.93,-2.62 141.78,91.06 4374.98,9.85 4837.96,3.64 154.39,-2.07 216.4,-7.5 185.46,-115.8 -72.41,-253.51 -86.53,51.84 -155.09,-204.91 98.08,-47.06 68.31,-35.28 211.67,-35.28l610.49 -95.08c5.8,-1.83 16.97,-5.97 24.51,-10.75l-2540.01 0c-500.03,-0.3 -422.65,-48.1 -705.63,141.11z" />
   <path class="fil0" d="M-15887.78 14250.28c-2.78,131.23 -26.91,228.48 6.45,353.25l3591.88 70.08c-98.58,-128.24 -126.95,-110.07 -189.68,-269.86 -38.27,-97.49 2.36,-59.27 -55,-120.5 -100.54,-107.32 -403.67,-68.37 -601.98,-68.25l-954.47 2.31c-190.57,0.54 -199.85,-1.6 -288.14,-82.16l-337.01 0c-57.74,52.69 -25.97,47.37 -121.5,72.71 -167.88,44.54 -860.34,-48.85 -1050.55,42.42z" />
   <path class="fil3" d="M-13982.78 18377.78c-361.89,0 -2612.42,-53.09 -2767.61,51.26l11102.97 -0.04 -4.04 2312.27 -11137.78 -15.65c0,-394.56 0,-789.12 0,-1183.68 0,-170.23 60.84,-996.17 -54.61,-1128.89l3.57 2363.61c345.83,55.06 1029.29,15.77 1411.11,15.77 1194.54,0 9577.82,47.78 9832.87,-25.4l0 -2344.34 -8386.48 -44.91z" />
   <path class="fil1" d="M-10772.5 14497.22c-21.42,79.44 -35.33,90.96 -45.91,184.52 219.48,42.32 923.25,-8.13 1280.63,-8.13 458.73,0 917.48,0.29 1376.21,-0.07 602.19,-0.48 302.62,10.45 634.62,-211.83 -76.38,-48.14 -112.23,-17.98 -176.23,-105.45l-282.54 0c-7.63,4.83 -19.34,8.1 -25.22,9.95l-204.87 42.33c-213.52,32.65 -525.23,30.02 -651.69,-158.03 -185.96,-4.33 -183.63,-59.25 -365.74,-93.01 -129.56,-24.02 -274.93,-13.27 -410.33,-12.95 -282.15,0.65 -564.37,0.04 -846.52,0.04 -7.59,5.71 -21.63,1.15 -25.51,12.73 -21.7,64.89 7.8,-10.3 -48.76,24.87l-79.14 92.77c-1.68,3.81 -3.28,14.95 -5.01,18.58 -1.62,3.42 -4.65,13.84 -6.5,16.94 -1.73,2.89 -7.14,11.68 -9.17,14.2 -110.16,136.83 14.73,-92.06 -75.08,54.49 -34.9,56.95 -7.84,26.33 -15.22,52.23 -14.95,52.46 10.12,23.03 -18.02,65.82z" />
   <path class="fil3" d="M-3571.98 23493.03c-0.23,-157.33 -60.29,-503.5 93.16,-503.5l10354.84 0 0 2267.41c0,144.46 -208.35,104.52 -361.77,102.55 -2211.33,-28.47 -4592.17,2.9 -6809.25,3.28 -163.86,0.03 -3180.81,-41.32 -3280.84,0l3.86 -1869.74zm-41.4 1908.89l10306.81 -0.61c180.59,1.18 210.04,35.16 235.77,-110.74l2.21 -2189.55c-7.03,-172.21 -29.2,-165.31 -202.03,-166.51l-10330.86 3.73 -11.9 2463.68z" />
   <path class="fil3" d="M-2729.17 20741.39c-1046.35,0 -842.79,134.02 -842.79,-740.84 0,-521.23 16.37,-1069.59 -3.88,-1587.5l6385.28 -0.11c270,-1.35 3971.74,-22.8 4046.23,17.44 102.31,55.28 52.77,6.5 39.97,136.18 -58.21,589.91 4.34,1489.64 -23.49,2170.95l-9601.32 3.88zm-881.94 51.04l10406.94 0c93.71,0 52.88,-2.29 131.48,-25.4l0 -2383.49 -131.34 -11.57 -10407.08 1.93 0 2418.53z" />
   <path class="fil5" d="M-8161.57 14673.54c7.5,4.74 20.12,0.62 24.41,10.66 21.99,51.5 3959.88,26.8 4316.9,26.82 322.62,0.02 220.71,-82.6 421.38,-213.99l-50.37 -20.69c-8.05,-2.13 -18.41,-5.93 -27.66,-7.83l-169.48 -7.01 -3880.56 0.21c-332,222.28 -32.43,211.35 -634.62,211.83z" />
   <path class="fil3" d="M33254.17 5889.45l-14.42 599.72 1002.2 0c0,-164.5 35.28,-202.73 35.28,-458.61 0,-108.8 -17.57,-79.57 -17.44,-141.11 0.84,-391.24 166.21,-390.08 -441.13,-388.11 -188.13,0.62 -376.35,0.05 -564.49,0.05 -55.64,238.84 0,144.23 0,388.06z" />
   <path class="fil7" d="M-23880.7 10358.92c0,-455.01 0,-910.02 0,-1365.03 0,-1502.72 -164.1,-1250.89 584.57,-1270.62l-70.54 0.62c698.25,0 1396.51,0 2094.76,0l-17.71 2645.83 -2591.08 -10.8zm-78.74 -1506.05l6.42 740.74c-27.03,411.9 14.99,324.33 -20.24,740.56 -5.47,74.49 22.83,71.72 55.52,128.01 506.74,0 2405.3,-39.88 2742.63,17.72l-18.33 -2813.19c-189.79,-73.02 -2667.44,-31.11 -2759.58,0l-6.42 1186.16z" />
   <path class="fil6" d="M-3646.39 14461.5l169.48 7.01c9.25,1.9 19.61,5.7 27.66,7.83l50.37 20.69 2397.75 -28.37c27.77,-45.51 40.13,-69.23 70.84,-112.87 -73.18,-109.5 -69.54,-134.56 -243.9,-143.54l-1166.92 2.75c-843.56,0 -1060.14,-116.59 -1305.28,246.5z" />
   <path class="fil7" d="M3691.39 13932.78l0 70.55c323.49,-26.92 684.51,0 1023.05,0 139.05,0 161.02,-25 246.95,-25 94.79,0 301.21,63.45 462.92,-6.89 168.33,-73.23 -40.04,-34.1 151.22,-84.49 130.23,-34.32 171.1,77.87 197.25,-236.39 -157.99,36.8 -113.3,70.14 -246.95,105.83 -57.18,-157.98 7.16,17.58 -56.05,-85.06 -33.73,-54.77 -29.49,-15.35 -49.78,-91.33 -255.12,122.41 -434.63,-35.28 -811.39,-35.28 -120.67,0 -62.11,98.97 -430.91,204.1 -189.48,54.01 -310.35,142.96 -486.31,183.96z" />
   <path class="fil3" d="M-14378.72 14135.15c88.29,80.56 97.57,82.7 288.14,82.16l954.47 -2.31c198.31,-0.12 501.44,-39.07 601.98,68.25 57.36,61.23 16.73,23.01 55,120.5 62.73,159.79 91.1,141.62 189.68,269.86 119.17,79.8 120.91,109.57 206.76,216.58 156.93,195.61 441.38,599.57 604.63,665.37 -28.12,-132.8 -33.99,-56.27 4.44,-109.29l178.99 -165.81c64.97,-93.67 29.68,13.75 63.52,-112.96 -218.45,-104.82 -44.97,13.52 -352.78,176.39 -28.9,-108.21 -238.21,-335.08 -322.37,-453.75l-95.12 -116.54c-27.51,-31.5 -37.29,-40.72 -65.66,-75.45 -51.35,-62.87 -72.73,-95.54 -123.95,-158.31l-83.17 -96.25c-5.29,-5.12 -13.55,-12.1 -18.85,-16.94l-86.38 -88.56c-1.7,-3.15 13.1,-3.01 -31.13,-73.41 -75.21,-119.71 -85.48,-39.52 -125.87,-190.79 -103.86,-23.21 -1500.79,-53.82 -1787.57,38.2l-54.76 23.06z" />
   <path class="fil2" d="M-22731.67 9205.56l3.09 529.51 455.52 281.88c130.19,-87.19 285.86,-206.7 458.61,-246.95l-3.09 -388.4c-317.34,1.41 -363.29,-43.14 -455.52,70.9 56.73,193.37 95.36,41.61 282.22,141.11 -80.64,120.43 -51.16,67.34 -198.6,154.18 -74.78,44.05 -31.11,11.85 -83.62,57.49 -100.66,-67.4 -171.91,-119.66 -286.09,-176.39l16.5 -282.04c62.56,-63.19 175.24,-166.27 266.11,-166.66 127.01,-0.53 198.14,107.85 285.7,166.48l147.65 -170.25c-112.19,-30.75 -140.11,-51.93 -225.42,-104.76 -79.51,-49.23 -126.14,-71.61 -204.45,-113.05l-458.61 246.95z" />
   <path class="fil2" d="M-23370.1 8323.75c104.14,53.15 157.99,79.11 250.37,140.98 25.55,299.87 67.62,350.04 -246.94,423.33l0 282.22c282.67,149.57 272.59,61.8 272.59,388.06 0,130.64 -178.44,166.49 -272.59,211.66l-11.7 211.59c142.48,-32.97 23.61,0.52 129.12,-59.25l43.92 -26.99c25.83,-15.08 40.12,-22.88 67.28,-38.02 89.65,-49.99 148.35,-79.4 229.99,-122.61 -27.39,-127.49 -31.68,-365.47 0,-564.44 -128.61,-29.96 -214.11,-53.43 -246.95,-176.39 109.49,-25.51 102.18,-45.05 211.67,-70.55l28.57 -564.7c-227.49,-129.66 -191.33,-134.62 -461.54,-246.69l6.21 211.8z" />
   <path class="fil0" d="M11523.06 21517.5l360.48 380.44c-65.17,222.82 -237.29,246.97 -360.48,430.95 68.61,102.46 71.37,47.34 105.83,176.38 224.97,-14.63 633.28,-476.17 670.28,-635 -160.77,-147.84 -447.42,-462.45 -599.73,-564.44 -87.98,58.92 -118.51,125.24 -176.38,211.67z" />
   <path class="fil3" d="M10852.78 19224.44c78.3,116.93 249.13,268.81 352.78,388.06l-395.86 415.62 212.87 190.98c162.04,-111.09 203.82,-221.73 390.58,-399.01l215.74 -242.87 -591.68 -572.53c-128.83,88.97 -117.45,93.17 -184.43,219.75z" />
   <path class="fil3" d="M2033.25 14356.11c282.98,-189.21 205.6,-141.41 705.63,-141.11l2540.01 0c242.17,0 656.74,21.57 882.22,-35.02l105.4 -35.91c-161.49,-137.96 -245.69,-46.48 -458.21,-34.46 -658.09,37.25 -2601.02,-2.55 -3424.2,-2.12 -238.74,0.12 -344.61,16.1 -350.85,248.62z" />
   <path class="fil0" d="M10155.24 21490.24c95.42,146.45 330.77,266.08 380.04,450.59l-395.85 415.62 192.2 176.08c99.57,-64.02 520.51,-479.46 626.98,-591.7 -97.94,-146.26 -488.04,-536.59 -635,-635l-168.37 184.41z" />
   <path class="fil3" d="M11515.04 19181.15c45.76,149.39 280.49,318.67 396.07,396.07 -69.64,104 -307.49,357.12 -423.33,388.06 32.46,121.56 120.39,185.82 211.66,246.94l288.59 -275.86c121.1,-114.82 147.43,-244.87 311.14,-288.58 -33.78,-126.5 -30.65,-77.18 -112.35,-169.88l-311.1 -323.9c-67.93,-80.13 -88.24,-82.27 -176.28,-141.22l-184.4 168.37z" />
   <path class="fil0" d="M10852.78 21517.5l360.79 380.03c-63.8,216.96 -235.52,170.37 -254.96,391.64 -194.49,18.18 -64.37,-38.81 -110.27,79.43 33.02,21.93 73.61,46.8 104.87,71.89l111.23 100.06c75.56,-112.82 57.94,-24.7 70.56,-176.39 158.08,-13.15 313.08,-154.54 317.5,-352.77l176.18 -33.96c-117.42,-229.68 -392.26,-532.82 -599.51,-671.6 -87.86,58.83 -145.59,96.31 -176.39,211.67z" />
   <path class="fil3" d="M10153.82 19196.05l389.25 408.73c-120.4,137.28 -311.43,304.99 -395.85,431.05l184.41 168.37c32.74,-19.27 28.84,-16.19 73.17,-51.89 5.44,-4.38 14.06,-11.02 19.59,-15.7l534.22 -559.39 -591.68 -572.53 -213.11 191.36z" />
   <path class="fil3" d="M11875.83 24163.33c-20.67,248.42 -189.5,153.64 -381.46,451.73l205.07 183.27 599.73 -599.72c-79.31,-118.43 -475.01,-531.82 -607.74,-572.47l-168.37 184.41c71.91,107.39 243.62,313.27 352.77,352.78z" />
   <path class="fil3" d="M11032.82 24018.56c80.05,75.06 108.98,84.84 172.74,180.05 -112.62,129.55 -303.65,297.27 -381.47,416.45l213.12 191.35 591.68 -572.53 -592.84 -628.4 -183.27 205.07c39.33,58.74 43.54,59.15 94.27,117.39 2.64,3.02 46.5,51.98 50.13,55.71l35.64 34.91z" />
   <path class="fil3" d="M10570.56 24233.88c-121.64,81.46 -337.88,258.32 -416.74,381.18l213.11 191.35 600.26 -581.11 -635.56 -618.4 -192.28 176.17 431.21 450.81z" />
   <path class="fil3" d="M2315.55 4019.73c43.73,35.94 1.76,18.68 77.56,38.85l635.21 -0.89c129.02,-50.58 11.7,-73.24 310.29,-73.24 135.91,0 270.07,105.74 358.8,170.37 359.19,261.63 156.83,298.97 252.95,456.77 28.27,46.41 163.1,95.23 103.43,343.95 -23.87,99.52 -72.96,150.81 -81.69,182.07l79.25 395.16c16.16,82.69 15.09,58.39 21.53,79.95 10.65,35.69 48.04,94.66 17.1,223.68 -19.98,83.3 -34.99,103.88 -70.62,171.2l-63.32 141c-29.78,87.13 -47.46,118.52 -126.05,160.83 -118.08,63.58 -1173.24,61.8 -1365.75,28.89 -34.41,-5.89 -114.89,-38.58 -159.4,-42.03 -90.77,-7.04 -131.04,51.77 -342.06,51.77l0 70.56c80.81,0 146.34,16.5 190.18,19.42l1398.81 -1.6c477.81,-1.16 598.23,-421.48 598.23,-829.21 0,-118.52 -29.68,-16.39 -64.45,-183.05 -121.01,-580.16 44.94,-197.57 44.94,-557.79 0,-160.53 -106.53,-248.75 -132.34,-307.05 -61.86,-139.71 -1.16,-212.93 -120.25,-338.07 -71.05,-74.64 -454.48,-311.25 -574.57,-311.25 -160.72,0 -76.3,67.5 -457.3,77.77 -172.03,4.64 -398.31,-10.72 -530.48,31.94z" />
   <path class="fil3" d="M33254.17 4866.57l-36.55 154.63c-56.52,412.62 33.2,339.08 495.16,339.08 0,-496.99 69.54,-462.83 -105.6,-491.96 -73.64,-12.25 -267.73,-2.02 -353.01,-1.75z" />
   <path class="fil3" d="M34418.34 6101.12l0 388.05c203.4,0 330.6,-15.62 528.99,35.1 -129.76,-507.51 177.05,-528.99 -423.16,-528.99 -81.29,0 -105.83,24.55 -105.83,105.84z" />
   <path class="fil2" d="M-22766.95 8323.61c349.92,81.53 285.57,242.33 281.28,493.88 -114.22,9.6 -73.43,3.86 -162.61,48.12 -242.6,120.42 -167.54,384.74 279.67,36.43 102.86,-80.12 50.55,-329.66 60.27,-578.43l-452.6 -223.84 -6.01 223.84z" />
   <path class="fil2" d="M-22237.78 8394.17l12.19 493.56 446.42 247.27c3.09,-138.63 -9.66,-82.74 35.28,-176.39 -89.74,-60.09 -88.04,-54.66 -182.3,-99.3 -173.88,-82.35 -150.97,-63.94 -150.97,-324.03 0,-102.96 209.9,-188.15 297.99,-211.67 -3.7,-166.15 -38.86,-117.59 0,-211.66 -114.92,26.77 -458.61,162.93 -458.61,282.22z" />
   <path class="fil3" d="M-8867.5 14250.51c126.46,188.05 438.17,190.68 651.69,158.03l204.87 -42.33c5.88,-1.85 17.59,-5.12 25.22,-9.95 -81.98,-121.5 -199.06,-267.63 -388.61,-284.04 -323.63,-28.02 -333.86,72.49 -493.17,178.29z" />
   <path class="fil1" d="M16179.72 13791.67c101.2,0 270.04,-211.35 317.5,-282.22 -192.67,-16.04 -96.22,-35.28 -423.33,-35.28 -199.54,0 -206.12,317.5 105.83,317.5z" />
   <path class="fil4" d="M36076.39 10263.89l68.7 -38.29c2.43,-133.97 24.21,-408.63 -28.2,-531.37 -20.55,-48.11 -23.32,-40.62 -40.5,-65.34 -180.78,132.46 -134.92,479.77 0,635z" />
   <path class="fil3" d="M-10818.41 14681.74c10.58,-93.56 24.49,-105.08 45.91,-184.52 -283.87,23.62 1.66,44.38 -179.94,170.71 -144.79,100.73 -47.36,6.2 -208.47,217 -77.52,101.44 -93.4,66.86 -105.48,212.01 229.21,-5.1 160.08,-80.39 337.67,-301.89 75.53,-94.21 50.07,-0.64 110.31,-113.31z" />
   <path class="fil4" d="M36005.84 11816.11l35.28 35.28 101.58 -75.67 4.25 -347.66 -70.56 -35.28c-96.93,71.02 -93.6,62.9 -86.26,191.79 8.88,156.06 -11.64,102.41 15.71,231.54z" />
   <path class="fil1" d="M32090 15837.78c154.4,-41.23 205.57,-175.18 246.95,-352.78 -112.67,30.08 -70.37,15.65 -151,95.95 -62.69,62.44 -85.85,83.23 -131.22,150.99 24.76,93.38 -2.82,29.01 35.27,105.84z" />
  </g>
 </g>
</g><g id="text"><text x="242.00" y="215.12" font-family="RocknRoll One, Microsoft YaHei, Noto Sans SC, Noto Sans CJK SC, SimHei, Arial, sans-serif" font-size="84.48" font-weight="800" fill="#424241" textLength="387.00" lengthAdjust="spacing">心有所信</text>
  <text x="666.00" y="215.12" font-family="RocknRoll One, Microsoft YaHei, Noto Sans SC, Noto Sans CJK SC, SimHei, Arial, sans-serif" font-size="84.48" font-weight="800" fill="#cf2b2f" textLength="390.00" lengthAdjust="spacing">方能行远</text>
  <text x="1362.58" y="327.09" font-family="Microsoft YaHei, Noto Sans SC, Noto Sans CJK SC, SimHei, Arial, sans-serif" font-size="50.88" font-weight="800" fill="#cf292c" textLength="381.94" lengthAdjust="spacing">初心砥砺信仰</text>
  <text x="753.55" y="406.50" font-family="Microsoft YaHei, Noto Sans SC, Noto Sans CJK SC, SimHei, Arial, sans-serif" font-size="55.68" font-weight="800" fill="#424141" textLength="245.68" lengthAdjust="spacing">信念坚定</text>
  <text x="307.61" y="406.69" font-family="Microsoft YaHei, Noto Sans SC, Noto Sans CJK SC, SimHei, Arial, sans-serif" font-size="54.72" font-weight="800" fill="#424141" textLength="249.81" lengthAdjust="spacing">无限忠诚</text>
  <text x="1362.58" y="443.96" font-family="Microsoft YaHei, Noto Sans SC, Noto Sans CJK SC, SimHei, Arial, sans-serif" font-size="50.88" font-weight="800" fill="#cd292d" textLength="379.87" lengthAdjust="spacing">理论坚定信念</text>
  <text x="754.58" y="547.55" font-family="Microsoft YaHei, Noto Sans SC, Noto Sans CJK SC, SimHei, Arial, sans-serif" font-size="54.72" font-weight="800" fill="#424241" textLength="242.58" lengthAdjust="spacing">爱党爱国</text>
  <text x="310.71" y="546.03" font-family="Microsoft YaHei, Noto Sans SC, Noto Sans CJK SC, SimHei, Arial, sans-serif" font-size="51.84" font-weight="800" fill="#414141" textLength="241.55" lengthAdjust="spacing">胸怀全局</text>
  <text x="1363.61" y="559.30" font-family="Microsoft YaHei, Noto Sans SC, Noto Sans CJK SC, SimHei, Arial, sans-serif" font-size="48.00" font-weight="800" fill="#cf2a2e" textLength="376.77" lengthAdjust="spacing">实践增强信心</text>
</g></svg>