<?xml version='1.0' encoding='utf-8'?>
<svg xmlns="http://www.w3.org/2000/svg" width="1672" height="941" viewBox="0 0 1672 941"><rect width="100%" height="100%" fill="#ffffff" /><defs>
  <style type="text/css">
   
    .fil3 {fill:#9B592D}
    .fil1 {fill:#A67350}
    .fil0 {fill:#E2C19E}
    .fil2 {fill:#FCFCFC}
   
  </style>
 </defs>
 <g id="graph" transform="matrix(0.03176166 0 0 0.03176166 520.90006609 -5.39141617)"><g id="图层_x0020_1">
  <metadata id="CorelCorpID_0Corel-Layer" />
  <g id="_2309186437520">
   <path class="fil0" d="M13957.22 26015.41c28.86,-79.71 7.22,-28.52 57.26,-83.85 13.43,-14.86 76.45,-68.65 93.85,-82.54 53.54,-42.76 125.08,-99.14 181.39,-136.1 359.74,-236.15 714.19,-224.71 1077.78,-14.17l284.16 209.99c58.64,58.67 42.8,2.14 64.18,101.4 -454.26,0 -651.16,-637.79 -1320.36,-191.46 -282.95,188.71 -132.07,196.73 -438.26,196.73zm-776.11 -5.27l-141.15 4.22c85.17,-125.97 1172.88,-932.79 1693.37,-932.79 683.1,0 948.87,209.51 1426.72,530.18 233.16,156.47 557.66,271.26 654.67,403.66 -314.48,-14.09 -344.01,-17.98 -614.41,-196.97 -1185.8,-784.93 -1396.83,-787.27 -2302.68,-250.68 -428.2,253.65 -461.42,432.85 -716.52,442.38zm-705.55 5.27l-206.38 -6.35c31.05,-143.17 184.35,-236.15 285.75,-337.61 332.25,-332.43 698.1,-592.71 1131.31,-808.96 240.1,-119.85 694.4,-278.81 975.78,-302.85 1344.62,-114.86 1522.9,542.7 2728.43,1091.71 1005.11,457.73 1501.46,-691.81 3092.24,12.2 267.11,118.22 722.89,243.48 847.59,351.86 -224.21,0 -338.03,20.36 -515.73,-48.72 -270.94,-105.32 -722.68,-323.03 -963.45,-377.53 -757.94,-171.57 -1032.37,282.74 -2048.58,279.12 -321.72,-1.15 -561,-98.84 -783,-234.05l-903.44 -578.23c-668.35,-419.26 -1187.92,-513.44 -1942.95,-235.79 -511.84,188.23 -1456.94,740.44 -1697.57,1195.2zm5432.77 -705.55c-378.97,0 -1019.99,-542.89 -1274.94,-735.89 -1174.78,-889.29 -2614.86,-778.99 -3679.36,50.2 -197.47,153.81 -331.16,309.2 -504.42,483.36 -128.48,129.14 -391.09,338 -552.6,435.17 -385.81,232.12 -1036.88,476.03 -1502,473.55l-12841.95 -0.84c-638.42,0 -1373.6,18.1 -1903.38,15.54 -344.53,-1.67 -2157.85,-78.01 -2374.57,81.02 -176.89,129.81 -244,479.73 0.13,653.48 161.04,114.61 1182.41,61.41 1420.32,61.35 448.19,-0.11 966.21,-36.01 635,458.61 -443.53,53.62 -9384.11,16.62 -10548.06,16.62 -339.26,0 -813.82,-77.8 -979.59,133.09 -203.19,258.51 -82.84,680.34 309.31,680.34l18697.23 0c543.86,0 543.86,-813.43 0,-813.43 -605.19,0 -3929.01,55.41 -4339.17,-51.89 -71.18,-305.52 -87.81,-421.14 529.17,-423.34l36688.88 40.55c553.48,0 537.47,-749.41 128.6,-839.66 -200.69,-44.3 -12282.33,-12.28 -13569.43,-12.28 -48.88,0 -925.52,-563.7 -1219.15,-685.85 -404.31,-168.19 -916.82,-426.41 -1461.96,-426.41 -517.62,0 -902.86,406.71 -1658.06,406.71z" />
   <path class="fil1" d="M-10704.37 13985.61c159,12.85 174.68,98.63 285.4,158.06l579.52 304.64c2.96,1.14 12.16,4.54 15.05,5.96 76,37.44 94.38,97.54 181.27,124.98l49.7 11.09c3.38,0.95 13.05,3.42 16.49,4.52l145.22 85.75c3.62,2.79 11.67,9.86 15.11,12.41l69.07 39.29c226.1,129.94 139.33,151.68 590.52,338.17 4.17,1.72 14.48,4.91 18.51,6.74l147.94 82.81c3.48,1.27 13.52,3.88 17.17,5.27l311.32 225.78c6.74,3.93 15.96,8.65 22.72,12.57 6.74,3.9 15.83,8.8 22.54,12.73 6.68,3.91 15.59,9.09 22.23,13.05l556.9 328.33c63.81,32.71 106.78,33.96 137.42,44.28l146.52 99.05c270.28,181.7 252.08,187.91 488.81,69.55l1431.55 -858.11c4.07,-1.82 14.36,-4.98 18.58,-6.69l458.27 -248.32c189.11,-53.62 216.96,-104.87 304.85,-159.33 39.54,-24.5 28.01,-21.22 52.38,-42.84 102.95,-91.36 122.39,-60.35 218.51,-127.24l223.02 -121.99c3.49,-0.99 13.46,-3.34 17,-4.45l555.48 -324.74c6.26,-3.29 24.93,-10.6 30.99,-13.6l97.73 -102.21c2.43,-6.13 9.6,-17.66 12.22,-25.52 44.87,-134.41 18.74,-303.88 18.59,-443.79l6.71 -3563.06 -1587.15 -933.24c-6.54,-4.07 -15.62,-9.07 -22.21,-13.09l-66.48 -39.52c-57.15,-34.99 -11.41,-10.3 -64.86,-41.03 -6.77,-3.89 -15.76,-8.85 -22.64,-12.64 -6.93,-3.81 -16.21,-8.29 -23.21,-12.02l-400.5 -234.27c-34.58,-18.9 -34.84,-16.73 -71.18,-34.64 -71.82,-35.41 -57.09,-26.92 -115.26,-61.62l-270.14 -157.35c-47.42,-29.98 -11.98,-11.23 -63.15,-38.04 -19.24,-10.07 -49.88,-22.37 -69.53,-31.65l-82.99 -46.76c-35.5,-25.26 3.96,-0.7 -48.68,-37.55l-706.01 -423.16 -635.32 352.39c-674.27,403.32 -1382.98,749.24 -2041.17,1169.12l-136.94 76.4c-88.06,53.81 -125.43,111.27 -217.99,138.31l-36.9 9.68c-154.85,57.35 -332.87,192.99 -467.54,289.61l-117.84 75.34c-1.43,-4.66 -10.39,3.14 -17.49,5.73l-0.13 4056.86z" />
   <path class="fil0" d="M9317.18 9945.37l0 4075.6 3314.93 1924.93c41.89,25.65 196.07,124.06 217.05,129.52 113.43,29.49 1533.94,-863.23 1755.17,-984 315.28,-172.12 577.64,-346.42 893.01,-518.1l899.32 -517.07 0 -4127.5 -2644.68 -1523.36c-110.78,-67.04 -818.2,-504.56 -881.51,-500.8l-3553.29 2040.78z" />
   <path class="fil1" d="M26099.41 9999.31c-36.89,-92.16 -3.51,-15.41 -49.36,-64.57l-56.82 -51.34c-119.49,-88.41 -127.73,-50.2 -222.87,-123.31 -142.35,-109.38 -354.88,-171.56 -406.14,-211.56l-983.48 -624.01c-133.72,-71.58 -123.14,-59.78 -245.74,-142.35 -237.23,-159.77 -600.69,-312.9 -779.75,-439.26l-71.45 -50.36c-6.42,-3.7 -16.34,-8.66 -23.05,-12.23l-287.94 -168.05c-120.75,-92.01 -33.63,9.4 -160.01,-57.74 -100.29,-53.28 -115.72,-104.55 -212.61,-171.8l-510 310.63c-4.89,2.32 -14.29,7.21 -19.29,9.84l-266.17 153.92c-6.75,3.88 -15.71,8.93 -22.5,12.78l-315.54 178.54c-113.52,52.51 -154.71,89.09 -248.61,139.23l-1120.13 643.77c-6.62,3.97 -15.47,9.24 -22.12,13.17l-45.16 25.39c-109.98,64.48 -187.57,178 -311.26,226.21 -7.17,2.79 -26.64,8.53 -33.07,10.94 -2.9,1.09 -12.13,4.34 -14.88,5.43l-84.73 36.58c-3.15,1.17 -12.81,4.25 -16.14,5.48l-35.17 12.42c-4.52,1.81 -14.39,5.69 -19.18,7.73l-338.6 202.04c-63.71,31.54 14.3,-75.07 -85.76,68.48 -37.26,53.46 -54.57,51.01 -54.57,124.55 0,573.93 43.72,1083.24 19.62,1633.03l15.66 1824.19c0,195.33 -32.5,249.73 -37.79,458.61l32.19 11.76c2.3,1.24 12.08,6.1 14.45,7.6 2.26,1.44 10.71,7.17 12.84,8.8l1013.49 587.61c79.38,31 34.83,5.44 112.35,64.31l810.7 489.6c4.35,1.94 14.49,5.8 18.9,7.62 4.4,1.82 14.85,4.95 19.25,6.68 88.64,35.03 -7.78,-30.88 99.95,49.34l638.67 391.85c232.45,128.64 145.63,52.26 295.28,176.23 123.81,102.56 396.62,279.91 567.96,279.91l863.82 -511.91c53.02,-35.84 52.9,-37.85 104.59,-71.84 87.42,-57.5 150.69,-94.87 246.37,-141.7 119.17,-58.33 39.39,-13.92 135.41,-76.24l333.47 -207.16c1.76,-1.21 9.13,-5.87 10.73,-7.12l47.3 -49.53c2.08,-1.61 10.3,-7.23 12.55,-8.71 2.34,-1.54 11.26,-6.4 13.74,-7.8l792.54 -454.71c4.57,-3.23 13.36,-10.33 18.08,-13.62l322.42 -169.76c7.82,-5.86 30.16,-23.51 37.77,-28.35l352.02 -187c6.09,-4.09 15.47,-10.13 21.19,-14l62.32 -44.02c162.95,-134.03 40.95,-3548.31 54.26,-4074.22z" />
   <path class="fil1" d="M-9819.91 2943.75l0 1234.73c0,345.57 -110.78,248.39 541.05,624.27 48.25,27.82 28.31,18.28 78.18,34.24l525.2 313.58c6.65,3.9 15.06,9.7 21.68,13.62l308.86 185.04c6.66,3.95 15.75,8.9 22.41,12.87l131.83 79.83c47.59,26.95 40.73,20.28 91.16,49.95 146.28,86.08 289.75,195.08 454.99,258.38 3.55,1.36 13.12,4.64 16.49,5.87 315.46,115.85 284.42,32.36 666.93,-200.48l1235.19 -724.4c51.01,-16.98 -10.59,20.83 86.86,-32.63l173.82 -110.68c105.77,-63.18 210.3,-107.39 300.31,-199.11 8.23,-8.39 72.09,-70.97 72.09,-169.24l0 -2328.34c0,-218.73 -262.22,-309.21 -433.1,-413.46l-1229.8 -704.95c-3.46,-1.99 -11.69,-7.5 -15.16,-9.63l-419.22 -256.8c-4.72,-2.05 -14.81,-5.1 -19.41,-6.95l-72.21 -27.94c-132.55,-74.24 -195.11,-122.23 -336.51,-48.1l-119.66 82.38c-3.51,2.65 -11.23,9.25 -14.6,11.73l-1602.34 921.65c-6.67,3.94 -15.69,8.98 -22.33,12.95l-43.91 26.65c-6.53,3.97 -15.03,9.73 -21.58,13.69 -9.02,5.47 -34.9,21.18 -44,26.56 -547.53,323.97 -333.22,265.07 -333.22,1324.72z" />
   <path class="fil0" d="M-1005.83 1814.86l0 2681.11c151.63,32.97 415.35,221.88 593.84,328.66l1159.92 674.52c200.23,121.25 398.26,215.78 579.85,337.38 135.29,-31.52 192.53,-87.87 306.64,-151.97l2075.63 -1223.86 1.29 -2610.57c-175.18,-127.56 -360.17,-242.41 -568.97,-368.19 -212.11,-127.79 -393.2,-221.81 -604.02,-348.48l-891.54 -519.6c-95.46,-54.97 -190.97,-129.71 -319.03,-174.83 -152.02,109.87 -2208.91,1344.82 -2333.61,1375.83z" />
   <path class="fil1" d="M7106.7 2308.75l14.56 1739.31c-41.34,536.08 18.6,326.41 439.2,633.28 99.04,72.26 67.74,36.19 160,90.36l43.49 28.65c83.55,54.26 -42.55,17.84 180.62,79.33l57.54 24.95c2.79,2.02 10.33,8.75 13.16,11.12 246.94,206.15 661.93,371.71 881.44,513.23 207.87,134.02 183.06,154.84 618.37,-118.77l984.28 -604.73c2.61,-1.27 11.56,-5.24 14.14,-6.45l532.71 -281.78c106.78,-82.85 -1.52,14.45 35.09,-27.11l-8.79 -2178.32c-32.18,-141.65 -147.05,-166.94 -147.84,-167.3l-1140.86 -677.62c-9.02,-5.46 -34.67,-21.38 -43.84,-26.71l-538.05 -308.62c-5.85,-4.39 -14.51,-10.93 -20.06,-15.23 -59.71,-46.21 -26.43,-20.83 -57.78,-48.06 -68.99,18.47 -49.43,17.99 -76.08,29.64 -25.11,10.97 -54.31,24.18 -72.24,33.56l-537.67 309c-69.75,41.92 -72.16,46.23 -131.71,79.96 -66.93,37.9 -76.96,42.07 -134.65,77.01l-558.08 324.09c-160.47,76.95 -106.83,99.8 -255.06,152.17l-226.72 147.45c-1.62,3.49 -25.17,151.48 -25.17,187.59z" />
   <path class="fil0" d="M14269.45 4425.42c138.4,30.09 344.94,181.45 487.05,259.05l1458.5 834.56c673.34,-356.29 1288.17,-729.26 1958.93,-1110.23l0.54 -1959.92c4.01,-337.56 6.91,-302.6 -219.37,-433.82 -215.65,-125.05 -1610.62,-959.15 -1709.74,-965.26 -98.47,-6.08 -1096.45,581.37 -1293.94,700.93 -837.39,506.95 -681.97,148.47 -681.97,1334.13 0,446.86 0,893.71 0,1340.56z" />
   <path class="fil1" d="M21436.2 2167.64l42.21 2243 84.44 48.14c58.65,40.88 -20.32,-5.6 59.52,43.32l118.01 59c3.58,2.36 12.32,8.21 16.07,10.91l260.26 140.8c3.03,1.15 12.26,4.99 15.22,6.35l103.15 70.84c2.77,1.87 11.22,7.59 13.97,9.32 2.66,1.67 11.27,6.83 13.9,8.36l447.5 277.83c78.3,49.06 89.71,42.64 163.29,83.64l194.99 122.52c53.34,32.07 46.18,30.84 86.93,54.18 353.73,202.53 256.34,205.85 593.5,22.59 22.08,-12 47.04,-23.63 69.34,-36.48l786 -473.71c3.75,-2.48 12.05,-8.33 15.82,-10.5 3.65,-2.1 12.5,-6.72 16.26,-8.55l768.14 -443.08c1.87,-0.94 9.77,-3.58 14.37,-5.98l-0.23 -2222.5c-6.61,-2.38 -14.58,-10.34 -15.78,-6.15l-307.99 -204.22c-64.9,-36.92 -4.2,-7.68 -63.06,-36.25l-795.52 -446.63c-146.05,-99.29 -656.94,-455.07 -820.15,-410.33 -206.2,56.53 -915.98,529.45 -1177.66,677.3 -55.25,31.22 -86.33,39.11 -141.31,70.36 -56.95,32.37 -5.61,5.2 -64.99,40.85l-496.2 315.07z" />
   <path class="fil0" d="M28261.34 4408.8l1930.56 1087.83c60.89,6.39 371.01,-186.23 467.11,-244.42l1466.27 -862.07 0 -2257.78c-147.18,-39.29 -492.2,-274.51 -658.18,-364.87l-976.7 -575.54c-165.5,-91.01 -224.3,-170.61 -351.13,-132.16 -52.94,16.05 -118.98,66.01 -159.33,91.19l-1489.92 873.85c-140.52,78.51 -226.23,59.52 -231.62,282.32 -16.69,688.89 2.94,1408.91 2.94,2101.65z" />
   <path class="fil0" d="M9159.44 9858.2c529.28,-354.42 1289.13,-738.66 1849.85,-1078.22 168.02,-101.74 310.21,-170.29 472.1,-268.73 158.8,-96.57 313.08,-185.5 466.82,-274.01l915.4 -530.99 3668.89 2116.67c-32.12,1286.32 72.03,3143.58 0,4339.16l-3633.61 2116.67 -951.36 -530.31c-73.57,-41.21 -159.18,-97.67 -241.01,-147.04 -84.11,-50.75 -140.88,-73.54 -230,-122.78 -89.99,-49.71 -155.8,-93.7 -242.11,-145.95l-2069.41 -1211.14 -5.56 -4263.33zm2361.79 -1765.72c-748.48,430.89 -1682.7,942.67 -2389.86,1384.86 -370.29,231.54 -308.14,48.58 -308.08,733.63 0.05,571.63 29.79,3850.95 -16.62,4127.5l3022.76 1739.74c1247.73,750.19 945.69,648.77 1538.95,317.25 304.39,-170.1 3379.73,-1986.28 3522.17,-2021.71l0 -4727.22c-454.69,-220.99 -3866.98,-2285.62 -4026.94,-2328.33l-1342.38 774.28z" />
   <path class="fil1" d="M-10361.86 9474.62c2.65,-1.27 12.22,-4.22 14.87,-5.28 2.61,-1.04 12.33,-3.42 14.91,-4.34l319.69 -162.51c4.71,-2.33 14.47,-6.65 19.34,-9.24 5.18,-2.76 14.44,-8.29 19.79,-11.36 58.42,-33.54 53.91,-36.89 133.82,-79.35l298.07 -181.92c4.32,-2.29 13.81,-6.9 18.15,-8.93l75.27 -26.46c52.19,-22.58 33.04,-15.61 61.78,-31.94l67.12 -41.32c6.66,-4.23 15.79,-9.9 22.26,-14.13l918.09 -526.41c423.16,-271.6 926.88,-491.48 1345.73,-771.1 213.89,186.03 487.17,298.49 721.53,442.62l1316.28 765.11c30.8,18.23 82.31,53.06 108.96,67.43 58.08,31.31 86.97,36.46 143.5,68.16 58.78,32.95 52.05,36.89 105.68,70.73 45.89,28.95 82.77,45.32 136.39,76.91l168.49 84.77c4.21,1.68 14.22,4.85 18.23,6.58l123.13 69.65c2.64,1.3 11.73,4.79 14.36,6.05l505.26 307.1c6.76,3.93 15.91,8.69 22.75,12.54 111.06,62.47 223.97,193.01 354.89,139.02 69.8,839.33 35.27,3039.18 35.27,3880.64 0,378.45 62.88,468.09 -163.49,612.72l-354.11 210.35c-59.5,32.78 -120.67,47.81 -171.07,78.28 -146.25,88.42 -172.24,177.18 -352.98,219.31 -187.82,43.78 -151.5,91.95 -313.56,170.11 -258.59,124.72 -542.08,336.42 -742.93,435.85l-1464 814.61c-6.23,4.32 -14.52,10.42 -20.68,14.86l-102.24 77.41c-172.67,107.68 -461.82,-180.82 -750.2,-307.06l-126.24 -53.25c-3.05,-1.73 -12.11,-6.96 -15.16,-8.87l-336.17 -208.12c-6.16,-4.44 -14.01,-11.15 -20.06,-15.69l-227.33 -128.72c-6.55,-3.59 -15.31,-9.67 -21.52,-13.25 -33.99,-19.57 20.13,2.75 -57.35,-35.85l-245.66 -141.92c-107.63,-47.7 7.11,64.81 -211.7,-115.32 -114.7,-94.42 -21.58,21.58 -179.52,-70.67l-391.09 -247.88c-4.11,-1.71 -13.62,-5.31 -17.46,-7.29 -3.78,-1.95 -12.39,-7.25 -15.98,-9.53l-137.61 -94.61c-4.2,-1.92 -14.18,-5.3 -18.32,-7.2 -4.06,-1.86 -13.64,-5.9 -17.65,-7.8 -4,-1.91 -13.16,-6.89 -17.15,-8.84l-128.88 -55.53c-44.92,-19.8 -34.89,-17.44 -62.37,-36.49 -87.62,-60.75 37.2,32.27 -42.32,-32.21 -217.41,-176.27 -452.53,-281.92 -690.97,-420.62 -6.9,-4.02 -16.26,-8.43 -23.17,-12.46 -137.32,-80.19 -159.97,-120.56 -169.47,-250.91 -46.04,-631.8 10.47,-2003.48 -4.08,-2742.34l27.6 -1164.13c0,-0.75 -57.34,-119.63 -70.56,-176.38l551.84 -383.58zm6558.69 -375.2c-53.53,-33.23 -54.36,-38.56 -109.48,-68.74 -105.29,-57.65 -151.61,-79.23 -252.34,-135.52l-2162.88 -1224.21c-2.96,-1.06 -12.3,-3.8 -15.34,-4.84l-150.16 -107.16c-17.85,-20.73 25.36,-0.68 -38.86,-35.79 -61.32,-33.53 -35.5,-9.53 -57.07,-16.34 -143.02,-45.09 -217.19,-143.21 -354.44,-211.33 -166.68,-82.71 -252.71,11.08 -387.53,114.22l-149.2 103.93c-6.79,3.05 -24.47,9.79 -31.11,11.95l-87.93 18.79c-104.53,30.58 -83.83,42.38 -144.75,84l-309.76 191.35c-165.81,58.13 -340.16,174.49 -498.02,272.56l-2244.34 1283.43c-88.45,55.72 -325.56,140.16 -373.23,207.16 -66.93,94.06 -26.14,3282.13 -26.14,3626.7 0,980.63 -119.03,1004.92 243.79,1235.57l1416.13 808.57c99.39,56.85 148.77,86.25 241.84,146.72l1976.53 1127.41c356.47,189.26 223.49,165.7 524.5,-16.86 6.12,-3.71 22.06,-12.21 27.95,-15.1l1165.91 -652.93c52.24,-30.1 87.28,-52.95 133.44,-78.22 70.02,-38.33 106.91,-47.69 164.64,-82.31l258.32 -164.53c24.52,-13.92 46.23,-24.88 67.8,-36.29l1004.19 -593.46c2.82,-1.78 11.39,-6.71 14.18,-8.26l28.68 -12.49c2.67,-1.26 11.88,-4.58 14.59,-5.86l540.96 -283.94c0.19,-0.1 61.77,-38.75 63.73,-40.02 85.03,-54.77 349.89,-145.07 386.35,-249.86l1.19 -4660.99 -882.14 -527.31z" />
   <path class="fil1" d="M18825.47 9858.11c122.3,-32.64 75.19,-43.06 123.29,-69.11l68.74 -31.44c4.95,-2.22 14.87,-6.19 20.1,-8.56l1676.19 -963.5c35.91,-19.3 36.35,-17.16 72.32,-35.48l1026.69 -596.58c79.91,-52.04 28.78,-27.6 132.15,-79.49 174.73,-87.72 544.33,-366.53 686.79,-356.15l777 449.98c128.44,81.42 285.32,116.26 406.04,209 2.93,2.25 10.82,9.04 13.72,11.33 5.74,4.54 21.78,18.05 27.57,22.53 2.94,2.27 11.19,8.67 14.17,10.89l91.02 57.99c86.4,51.77 155.93,98.87 250.75,154.93l649.23 375.55c109.5,63.36 237.31,86.41 329.79,159.88l160.83 124.71c47.64,33.27 24.57,22.38 54.99,39.53l69.89 26.52c3,1.05 12.55,3.32 15.44,4.39l91.03 52.27c18,13.77 54.93,45.56 55.08,45.68 79.11,61.12 45.87,35.29 130.13,84.47l132.32 79.89c25.27,15.24 42.31,25.05 67.7,40.09l125.24 64.71c156.54,58.49 210.85,201.85 210.85,443.56l-14.26 1578.65c1.01,35.2 7.49,92.93 3.58,138.95 -24.25,285.17 -3.75,375.41 10.85,645.83 20.8,385.14 -16.81,826.6 -17.61,1199.62 -1.06,495.28 77.15,360.16 -488.02,694.09 -121.82,71.98 -214,107.88 -320.75,210.08l-635.2 353.3c-0.5,0.41 -52.47,40.99 -52.83,41.26 -3.73,2.76 -12.47,8.43 -16.04,11.01l-204.85 122.72c-2.48,1.15 -11.17,5.46 -13.67,6.61l-59.32 25.6c-31.67,13.31 10.54,-8.47 -57.88,23.81l-89.27 48.65c-5.8,3.72 -14.64,10.35 -20.1,14.04l-34.85 26.28c-3.77,2.57 -11.86,8.71 -15.52,11.06l-1157.66 660.83c-69.52,39.47 -75.73,33.55 -142.39,68.82 -288.52,152.66 -310.53,280.67 -646.96,66.56 -85.72,-54.55 -24.3,-20.09 -114.81,-63.41l-100.23 -44.06c-3.55,-1.87 -12.24,-6.63 -15.66,-8.62l-1211.57 -702.74c-4.85,-3.07 -13.66,-9.28 -18.86,-12.5l-265.96 -141.48c-4.14,-2.03 -13.72,-6.11 -17.86,-8.45l-321.95 -191.74c-2.94,-1.21 -11.96,-4.8 -14.75,-5.98 -2.65,-1.12 -11.48,-4.5 -14.05,-5.66l-299.96 -174.23c-115.27,-29.96 74.89,23.33 -32.19,-7.41l-127.87 -62.43c-120.72,-87.21 -161.47,-31.65 -174.48,-179.81 -172.83,-14.39 -358.02,-185.48 -534.98,-276.89 -152.28,-78.65 -163.23,-51.4 -187.77,-259.35 -29.36,-248.83 19.7,-793.9 19.7,-1086.63l-32.45 -675.59c-9.62,-154.27 34.41,-129.09 34.88,-312.14 0.45,-172.68 -30.87,-153.42 -40.4,-317.36 -31.93,-549.53 86.16,-1233.47 -35.09,-1728.88zm7781 211.75c0,-214.96 36.41,-398.53 -108.8,-475.35l-2202.05 -1290.53c-59.46,-36.77 -60.06,-47.59 -126.93,-84.73l-1300.8 -745.1c-110.16,-64.74 -171.01,-91.08 -267.61,-155.87l-724.37 414.79c-69.5,32.2 -62.18,40.02 -124.63,75.06 -59.02,33.12 -86.01,37.67 -142.14,71.17 -79.4,47.39 -163.03,112.69 -258.64,164.7 -59.54,32.4 -90.09,40.09 -142.25,69.42 -71.96,40.47 -61.59,46.31 -127.89,83.78l-2102.13 1213.04c-101.97,61.64 -168.8,94.07 -271.05,155.61 -71.78,43.2 -148.96,62.35 -164.09,151.23l0.33 4621.31 977.64 522.54c43.51,26.6 28.74,20.17 44.36,31.33 595.32,425.43 1265.35,734.69 1881.32,1128.9l1106.12 622.22c85.03,21.48 129.23,-4.36 214.12,-54.96l330.13 -200.92c11.91,-6.48 70.23,-35.65 70.26,-35.66l187.55 -126.16c45.55,-29.79 27.13,-16.73 50.63,-29.14l181.53 -93.53c45.34,-24.7 92.22,-52.45 137.43,-75.88l1714.2 -1002.67c126.05,-61.72 166.81,-134.44 259.87,-168.18 120.61,-43.73 705.23,-443.91 889.28,-480.19 68.65,-1180.2 18.61,-3054.21 18.61,-4306.23z" />
   <path class="fil0" d="M-15464.44 21217.64c391.04,0 474,-602.57 37.91,-670.46 35.39,-1691.5 2.64,-3419.53 2.64,-5115.1l0 -12699.99c0,-337.27 -42.33,-981.99 27.68,-1236.95 192.18,-699.93 1158.41,-868.93 1496.01,-80.15 110.86,259.02 53.26,1926.41 53.26,2340.15 0,140.8 18.21,479.49 -0.67,597.2 -33.85,210.94 -189.1,101.44 -189.1,390.58 0,519.54 658.93,413.4 658.93,35.28 0,-190.03 -64.63,-312.11 -216.94,-352.78l5.31 -2434.18c1.05,-554.54 -122.38,-1009.17 -568.08,-1236.41 -563.81,-287.47 -1082.86,-55.53 -1332.56,364.15 -223.48,375.63 -191.33,627.51 -191.33,1189.77l0.02 17921.17c0.93,610.89 -3.25,279.74 -81.13,622.45 -39.74,174.88 101.91,365.27 298.05,365.27z" />
   <path class="fil2" d="M26099.41 9999.31c-13.31,525.91 108.69,3940.19 -54.26,4074.22l-62.32 44.02c-5.72,3.87 -15.1,9.91 -21.19,14l-352.02 187c-7.61,4.84 -29.95,22.49 -37.77,28.35l-322.42 169.76c-4.72,3.29 -13.51,10.39 -18.08,13.62l-792.54 454.71c-2.48,1.4 -11.4,6.26 -13.74,7.8 -2.25,1.48 -10.47,7.1 -12.55,8.71l-47.3 49.53c-1.6,1.25 -8.97,5.91 -10.73,7.12l-333.47 207.16c-96.02,62.32 -16.24,17.91 -135.41,76.24 -95.68,46.83 -158.95,84.2 -246.37,141.7 -51.69,33.99 -51.57,36 -104.59,71.84l-863.82 511.91c-171.34,0 -444.15,-177.35 -567.96,-279.91 -149.65,-123.97 -62.83,-47.59 -295.28,-176.23l-638.67 -391.85c-107.73,-80.22 -11.31,-14.31 -99.95,-49.34 -4.4,-1.73 -14.85,-4.86 -19.25,-6.68 -4.41,-1.82 -14.55,-5.68 -18.9,-7.62l-810.7 -489.6c-77.52,-58.87 -32.97,-33.31 -112.35,-64.31l-1013.49 -587.61c-2.13,-1.63 -10.58,-7.36 -12.84,-8.8 -2.37,-1.5 -12.15,-6.36 -14.45,-7.6l-32.19 -11.76c5.29,-208.88 37.79,-263.28 37.79,-458.61l-15.66 -1824.19c24.1,-549.79 -19.62,-1059.1 -19.62,-1633.03 0,-73.54 17.31,-71.09 54.57,-124.55 100.06,-143.55 22.05,-36.94 85.76,-68.48l338.6 -202.04c4.79,-2.04 14.66,-5.92 19.18,-7.73l35.17 -12.42c3.33,-1.23 12.99,-4.31 16.14,-5.48l84.73 -36.58c2.75,-1.09 11.98,-4.34 14.88,-5.43 6.43,-2.41 25.9,-8.15 33.07,-10.94 123.69,-48.21 201.28,-161.73 311.26,-226.21l45.16 -25.39c6.65,-3.93 15.5,-9.2 22.12,-13.17l1120.13 -643.77c93.9,-50.14 135.09,-86.72 248.61,-139.23l315.54 -178.54c6.79,-3.85 15.75,-8.9 22.5,-12.78l266.17 -153.92c5,-2.63 14.4,-7.52 19.29,-9.84l510 -310.63c96.89,67.25 112.32,118.52 212.61,171.8 126.38,67.14 39.26,-34.27 160.01,57.74l287.94 168.05c6.71,3.57 16.63,8.53 23.05,12.23l71.45 50.36c179.06,126.36 542.52,279.49 779.75,439.26 122.6,82.57 112.02,70.77 245.74,142.35l983.48 624.01c51.26,40 263.79,102.18 406.14,211.56 95.14,73.11 103.38,34.9 222.87,123.31l56.82 51.34c45.85,49.16 12.47,-27.59 49.36,64.57zm-7273.94 -141.2c121.25,495.41 3.16,1179.35 35.09,1728.88 9.53,163.94 40.85,144.68 40.4,317.36 -0.47,183.05 -44.5,157.87 -34.88,312.14l32.45 675.59c0,292.73 -49.06,837.8 -19.7,1086.63 24.54,207.95 35.49,180.7 187.77,259.35 176.96,91.41 362.15,262.5 534.98,276.89 13.01,148.16 53.76,92.6 174.48,179.81l127.87 62.43c107.08,30.74 -83.08,-22.55 32.19,7.41l299.96 174.23c2.57,1.16 11.4,4.54 14.05,5.66 2.79,1.18 11.81,4.77 14.75,5.98l321.95 191.74c4.14,2.34 13.72,6.42 17.86,8.45l265.96 141.48c5.2,3.22 14.01,9.43 18.86,12.5l1211.57 702.74c3.42,1.99 12.11,6.75 15.66,8.62l100.23 44.06c90.51,43.32 29.09,8.86 114.81,63.41 336.43,214.11 358.44,86.1 646.96,-66.56 66.66,-35.27 72.87,-29.35 142.39,-68.82l1157.66 -660.83c3.66,-2.35 11.75,-8.49 15.52,-11.06l34.85 -26.28c5.46,-3.69 14.3,-10.32 20.1,-14.04l89.27 -48.65c68.42,-32.28 26.21,-10.5 57.88,-23.81l59.32 -25.6c2.5,-1.15 11.19,-5.46 13.67,-6.61l204.85 -122.72c3.57,-2.58 12.31,-8.25 16.04,-11.01 0.36,-0.27 52.33,-40.85 52.83,-41.26l635.2 -353.3c106.75,-102.2 198.93,-138.1 320.75,-210.08 565.17,-333.93 486.96,-198.81 488.02,-694.09 0.8,-373.02 38.41,-814.48 17.61,-1199.62 -14.6,-270.42 -35.1,-360.66 -10.85,-645.83 3.91,-46.02 -2.57,-103.75 -3.58,-138.95l14.26 -1578.65c0,-241.71 -54.31,-385.07 -210.85,-443.56l-125.24 -64.71c-25.39,-15.04 -42.43,-24.85 -67.7,-40.09l-132.32 -79.89c-84.26,-49.18 -51.02,-23.35 -130.13,-84.47 -0.15,-0.12 -37.08,-31.91 -55.08,-45.68l-91.03 -52.27c-2.89,-1.07 -12.44,-3.34 -15.44,-4.39l-69.89 -26.52c-30.42,-17.15 -7.35,-6.26 -54.99,-39.53l-160.83 -124.71c-92.48,-73.47 -220.29,-96.52 -329.79,-159.88l-649.23 -375.55c-94.82,-56.06 -164.35,-103.16 -250.75,-154.93l-91.02 -57.99c-2.98,-2.22 -11.23,-8.62 -14.17,-10.89 -5.79,-4.48 -21.83,-17.99 -27.57,-22.53 -2.9,-2.29 -10.79,-9.08 -13.72,-11.33 -120.72,-92.74 -277.6,-127.58 -406.04,-209l-777 -449.98c-142.46,-10.38 -512.06,268.43 -686.79,356.15 -103.37,51.89 -52.24,27.45 -132.15,79.49l-1026.69 596.58c-35.97,18.32 -36.41,16.18 -72.32,35.48l-1676.19 963.5c-5.23,2.37 -15.15,6.34 -20.1,8.56l-68.74 31.44c-48.1,26.05 -0.99,36.47 -123.29,69.11z" />
   <path class="fil2" d="M-10704.24 9928.75c7.1,-2.59 16.06,-10.39 17.49,-5.73l117.84 -75.34c134.67,-96.62 312.69,-232.26 467.54,-289.61l36.9 -9.68c92.56,-27.04 129.93,-84.5 217.99,-138.31l136.94 -76.4c658.19,-419.88 1366.9,-765.8 2041.17,-1169.12l635.32 -352.39 706.01 423.16c52.64,36.85 13.18,12.29 48.68,37.55l82.99 46.76c19.65,9.28 50.29,21.58 69.53,31.65 51.17,26.81 15.73,8.06 63.15,38.04l270.14 157.35c58.17,34.7 43.44,26.21 115.26,61.62 36.34,17.91 36.6,15.74 71.18,34.64l400.5 234.27c7,3.73 16.28,8.21 23.21,12.02 6.88,3.79 15.87,8.75 22.64,12.64 53.45,30.73 7.71,6.04 64.86,41.03l66.48 39.52c6.59,4.02 15.67,9.02 22.21,13.09l1587.15 933.24 -6.71 3563.06c0.15,139.91 26.28,309.38 -18.59,443.79 -2.62,7.86 -9.79,19.39 -12.22,25.52l-97.73 102.21c-6.06,3 -24.73,10.31 -30.99,13.6l-555.48 324.74c-3.54,1.11 -13.51,3.46 -17,4.45l-223.02 121.99c-96.12,66.89 -115.56,35.88 -218.51,127.24 -24.37,21.62 -12.84,18.34 -52.38,42.84 -87.89,54.46 -115.74,105.71 -304.85,159.33l-458.27 248.32c-4.22,1.71 -14.51,4.87 -18.58,6.69l-1431.55 858.11c-236.73,118.36 -218.53,112.15 -488.81,-69.55l-146.52 -99.05c-30.64,-10.32 -73.61,-11.57 -137.42,-44.28l-556.9 -328.33c-6.64,-3.96 -15.55,-9.14 -22.23,-13.05 -6.71,-3.93 -15.8,-8.83 -22.54,-12.73 -6.76,-3.92 -15.98,-8.64 -22.72,-12.57l-311.32 -225.78c-3.65,-1.39 -13.69,-4 -17.17,-5.27l-147.94 -82.81c-4.03,-1.83 -14.34,-5.02 -18.51,-6.74 -451.19,-186.49 -364.42,-208.23 -590.52,-338.17l-69.07 -39.29c-3.44,-2.55 -11.49,-9.62 -15.11,-12.41l-145.22 -85.75c-3.44,-1.1 -13.11,-3.57 -16.49,-4.52l-49.7 -11.09c-86.89,-27.44 -105.27,-87.54 -181.27,-124.98 -2.89,-1.42 -12.09,-4.82 -15.05,-5.96l-579.52 -304.64c-110.72,-59.43 -126.4,-145.21 -285.4,-158.06l0.13 -4056.86zm-209.46 -70.55c13.22,56.75 70.56,175.63 70.56,176.38l-27.6 1164.13c14.55,738.86 -41.96,2110.54 4.08,2742.34 9.5,130.35 32.15,170.72 169.47,250.91 6.91,4.03 16.27,8.44 23.17,12.46 238.44,138.7 473.56,244.35 690.97,420.62 79.52,64.48 -45.3,-28.54 42.32,32.21 27.48,19.05 17.45,16.69 62.37,36.49l128.88 55.53c3.99,1.95 13.15,6.93 17.15,8.84 4.01,1.9 13.59,5.94 17.65,7.8 4.14,1.9 14.12,5.28 18.32,7.2l137.61 94.61c3.59,2.28 12.2,7.58 15.98,9.53 3.84,1.98 13.35,5.58 17.46,7.29l391.09 247.88c157.94,92.25 64.82,-23.75 179.52,70.67 218.81,180.13 104.07,67.62 211.7,115.32l245.66 141.92c77.48,38.6 23.36,16.28 57.35,35.85 6.21,3.58 14.97,9.66 21.52,13.25l227.33 128.72c6.05,4.54 13.9,11.25 20.06,15.69l336.17 208.12c3.05,1.91 12.11,7.14 15.16,8.87l126.24 53.25c288.38,126.24 577.53,414.74 750.2,307.06l102.24 -77.41c6.16,-4.44 14.45,-10.54 20.68,-14.86l1464 -814.61c200.85,-99.43 484.34,-311.13 742.93,-435.85 162.06,-78.16 125.74,-126.33 313.56,-170.11 180.74,-42.13 206.73,-130.89 352.98,-219.31 50.4,-30.47 111.57,-45.5 171.07,-78.28l354.11 -210.35c226.37,-144.63 163.49,-234.27 163.49,-612.72 0,-841.46 34.53,-3041.31 -35.27,-3880.64 -130.92,53.99 -243.83,-76.55 -354.89,-139.02 -6.84,-3.85 -15.99,-8.61 -22.75,-12.54l-505.26 -307.1c-2.63,-1.26 -11.72,-4.75 -14.36,-6.05l-123.13 -69.65c-4.01,-1.73 -14.02,-4.9 -18.23,-6.58l-168.49 -84.77c-53.62,-31.59 -90.5,-47.96 -136.39,-76.91 -53.63,-33.84 -46.9,-37.78 -105.68,-70.73 -56.53,-31.7 -85.42,-36.85 -143.5,-68.16 -26.65,-14.37 -78.16,-49.2 -108.96,-67.43l-1316.28 -765.11c-234.36,-144.13 -507.64,-256.59 -721.53,-442.62 -418.85,279.62 -922.57,499.5 -1345.73,771.1l-918.09 526.41c-6.47,4.23 -15.6,9.9 -22.26,14.13l-67.12 41.32c-28.74,16.33 -9.59,9.36 -61.78,31.94l-75.27 26.46c-4.34,2.03 -13.83,6.64 -18.15,8.93l-298.07 181.92c-79.91,42.46 -75.4,45.81 -133.82,79.35 -5.35,3.07 -14.61,8.6 -19.79,11.36 -4.87,2.59 -14.63,6.91 -19.34,9.24l-319.69 162.51c-2.58,0.92 -12.3,3.3 -14.91,4.34 -2.65,1.06 -12.22,4.01 -14.87,5.28l-551.84 383.58z" />
   <path class="fil2" d="M12870.47 7904.59c63.31,-3.76 770.73,433.76 881.51,500.8l2644.68 1523.36 0 4127.5 -899.32 517.07c-315.37,171.68 -577.73,345.98 -893.01,518.1 -221.23,120.77 -1641.74,1013.49 -1755.17,984 -20.98,-5.46 -175.16,-103.87 -217.05,-129.52l-3314.93 -1924.93 0 -4075.6 3553.29 -2040.78zm-3711.03 1953.61l5.56 4263.33 2069.41 1211.14c86.31,52.25 152.12,96.24 242.11,145.95 89.12,49.24 145.89,72.03 230,122.78 81.83,49.37 167.44,105.83 241.01,147.04l951.36 530.31 3633.61 -2116.67c72.03,-1195.58 -32.12,-3052.84 0,-4339.16l-3668.89 -2116.67 -915.4 530.99c-153.74,88.51 -308.02,177.44 -466.82,274.01 -161.89,98.44 -304.08,166.99 -472.1,268.73 -560.72,339.56 -1320.57,723.8 -1849.85,1078.22z" />
   <path class="fil0" d="M6760.56 28595.96c429.12,0 413.45,-716.1 0,-716.1l-2363.62 0c-343.73,0 -443.16,548.62 -149.75,684.04 142.06,65.56 2233.75,32.06 2513.37,32.06z" />
   <path class="fil3" d="M5243.61 14655.97c-147.05,12.24 -164.68,75.21 -286.36,136.97l-671.46 386.88c-41.79,27.95 -85.07,57.34 -128.18,83.48l-1174.99 715.41c-132.85,138.89 -349.5,124.84 -530.69,23.52 -50.71,-28.35 -87.63,-49.39 -136.61,-76.02 -99.96,-54.35 -184.56,-102.33 -293.09,-165.52l-259.82 -163.52c-76.06,-46.21 -187.25,-116.8 -273.86,-139.37 -161.12,-42 46.66,52.01 -139.69,-17.54 -141.28,-52.73 -22.22,-135.85 -164.93,-168.92 -165.2,-38.28 28.56,77.87 -173.65,-15.65 -15.05,-42.54 38.27,-21.17 -1.36,-80.62 -69.81,-104.73 -31.85,-28.32 -147.43,-86.69l-1363.7 -789.64c-430.74,-214.42 -426.25,-193.36 -425.86,-771.65l-0.3 -3317.43c1.49,-200.97 63.18,-246.29 -72.18,-351.46l268.05 -81.93c34.19,-14 69.12,-25.21 102.09,-41.31 63,-30.77 112.09,-68.28 178.21,-104.52 120.98,-66.32 78.31,-7.21 157.2,-125.02 -281.87,65.67 -178.65,-15.37 -446.94,152.75 -20.55,12.88 -74.75,43.24 -89.86,51.28 -150.5,80.07 -226.67,88.95 -246.99,287.07 -59.62,581.37 7.68,3400.55 7.68,4130.29 62.45,33.04 119.22,55.12 185.66,96.55 58.98,36.78 52.55,37.6 84.25,56.87l212.99 104.72c71.65,39.81 62.63,44.07 106.31,72.89 142.39,93.95 47.9,62.35 222.18,21.74 65.99,159.75 -86.75,63.9 271.67,257.47l1312.34 770.72c71,41.19 129.93,59.88 209.25,106.58l1023.08 599.73c115.61,64.31 -39.25,10.02 111.71,64.67l2051.63 -1193.93c78.91,-52.63 435.17,-223.34 456.54,-305.81l67.11 -123.04z" />
   <path class="fil3" d="M5243.61 14655.97c228.62,75.8 -122.78,-5.24 105.83,70.56 56.98,-38.15 60.52,-51.31 120.99,-90.68 55.2,-35.93 80.82,-43.99 136.69,-74.98 119.48,-66.3 169.92,-96.01 298.66,-161.36l129.16 -78.2c83.78,-87.86 -75.3,-8.97 26.84,-92.2 1.47,-1.2 9.35,-5.73 11.44,-6.59 2.73,-1.11 13.34,-2.71 16.85,-3.44 4.34,-0.9 16.16,-0.42 21.29,-1.02l225.86 -91.25 2.15 -4303.89c-146.84,-38.64 6.49,4.77 -104.2,-40.84l-221.8 -74.79c-65.8,-11.49 -58.97,-7.66 -134.76,-25.48 -103.9,-251.52 54.2,-51.77 -362.02,-308.26l-2691.73 -1578.22c-78.55,-49.82 -71.22,-91.5 -161.32,-98.13l-935.37 515.28c-26.75,15.2 -38.56,20.83 -68.13,37.71l-129.86 81.71c-6.03,4.3 -14.25,10.63 -20.21,15.01l-79.89 61.29c-6.32,4.18 -14.76,10.08 -21.32,14.03l-528.45 282.94c-6.35,4.11 -14.89,9.93 -21.19,14.09 -90.07,59.42 -101.89,79.34 -189.89,127.54l-340.63 189.61c-166.93,105.05 -511.87,348.01 -694.15,363.17l0 70.56c21.99,-5.12 478.75,-26.81 530.88,-231.66 0.57,-2.21 -86.55,-62.58 111.5,-99.36 111.83,-20.76 55.57,32.82 194.84,-28.89l381.26 -223.16c103.97,-67.77 34.03,-30.03 86.79,-157.76 122.53,28.54 157.04,21.13 269.97,-46.36l169.3 -102.54c3.12,-2.74 9.72,-10.35 12.5,-13.16l219.66 -118.58c91.67,-37.58 30.64,-14.62 68.98,-37.15l988.2 -599.43 1776.37 1081.13c6.59,3.99 15.51,9.18 22.15,13.13 6.63,3.95 15.51,9.18 22.19,13.08l1257.61 717.95c93.82,47.08 126.23,81.11 220.19,132.58l229.27 123.51 4.12 4160.66 -593.5 365.24c-20.72,10.69 -50.47,24.1 -70.54,35.29 -6.8,3.79 -15.44,9.25 -22.14,13.14l-43.32 27.23c-110.18,64.57 -161.15,62.42 -227.12,160.94z" />
   <path class="fil3" d="M28523.63 9861.51l-102.5 -3.97c46.69,221.09 -0.02,3741.63 -0.02,4304.54l1126.25 637.64c6.44,4.1 15.29,9.45 21.8,13.48l1226.94 713.34c57.74,37.39 48.03,29.06 110.06,66.33l783.8 450.92c8.71,5.77 33.29,22.77 41.98,28.57l63.6 42.24c47.79,27.82 80.86,35.54 119.18,57.2 159.98,90.41 60.24,-15.94 104.72,106.95l176.39 0c37.92,-93.95 253.02,-192.44 347.17,-252.55l2232.24 -1295.54c96.65,-48.21 21.68,-5.78 112.68,-64.39 62.38,-40.17 147.92,-80 166.7,-135.34 0.67,-1.97 0.03,-10.92 0.61,-12.91l86.21 -108.99c-226.43,42.6 -410.03,196.31 -598.4,301.09l-736.92 427.26c-4.09,2.46 -343.53,169.41 -347.48,257.36 -7.15,158.85 54.25,-95.68 7.19,37.34 -176.74,81.74 -20.56,-70.77 -365.99,127.69l-761.38 455.34c-101.58,68.98 -218.22,100.12 -325.24,61.46l-1249.82 -732.03c-107.7,-57.37 -115.12,-44.04 -225.62,-18.29 -79.54,-192.53 123.94,-52.03 -137.4,-177.68l-786.86 -450.28c-36.49,-20.81 -65.91,-39.2 -111.17,-65.22 -38.02,-21.86 -34.65,-18.67 -67.13,-38.71 -32.4,-19.99 -62.43,-41.28 -63.73,-42.1l-809.27 -460.73c24.55,-1256.72 -5.34,-2517.55 2.14,-3774.9 2.34,-393.13 -76.6,-352.97 -40.73,-455.12z" />
   <path class="fil0" d="M29156.67 27491.81c205.44,350.66 598.07,631.33 816.66,957.77 -45.61,170.84 -295.13,372.72 -414.95,502.27 -80.84,87.39 -373.75,399.59 -396.44,490.78l740.84 0c75.11,-123.04 96.06,-156.89 202.62,-261.26l437.74 -479.48c63.3,-77.89 146.04,-158.74 171.03,-252.31l-290.35 -344.65c-230.93,-233.31 -472.35,-591.55 -661.06,-613.94 -146.1,-17.34 -443.54,0.82 -606.09,0.82z" />
   <path class="fil0" d="M30567.78 27491.81c240.02,350.76 609.76,631.38 851.94,993.05l-851.94 957.77c183.09,0 469.53,15.09 641.37,-4.27 177.15,-19.96 528.26,-465.02 648.79,-621.11 101.52,-131.47 216.06,-203.14 302.61,-332.39 -202.83,-302.9 -682.69,-724.47 -846.66,-993.05l-746.11 0z" />
   <path class="fil0" d="M28148.41 27981.45c92.84,96.14 113.84,150.63 210.8,247.81 106.49,106.73 122.89,135.95 203.01,255.6l-645.74 730.2c-223.89,262.62 -161.86,277.89 -175.82,223.73 -1.12,-4.35 -4.64,12.11 -8.49,17.22 190.78,0 458.97,10.8 618.83,-13.41 144.58,-21.9 108.03,-18.5 204.27,-118.17l747.78 -839.57 -450.06 -537.72c-527.13,-598.16 -317.39,-455.33 -1142.71,-455.33l438.13 489.64z" />
   <path class="fil0" d="M26299.17 27491.81l49.55 100.62c3.34,4.81 50.02,55.97 50.91,56.89 208,215.17 606.92,619.65 751.48,835.54 -65.81,98.28 -134.91,148.08 -221.19,237.42 -92.61,95.91 -114.4,151.94 -210.3,248.31l-420.45 472.04c500.52,0 688.08,84.75 858.3,-140.24 216.82,-286.59 579.15,-620.86 734.47,-852.81l-463.86 -488.64c-471,-589.98 -396.94,-469.13 -1128.91,-469.13z" />
   <path class="fil2" d="M12475.56 26015.41c240.63,-454.76 1185.73,-1006.97 1697.57,-1195.2 755.03,-277.65 1274.6,-183.47 1942.95,235.79l903.44 578.23c222,135.21 461.28,232.9 783,234.05 1016.21,3.62 1290.64,-450.69 2048.58,-279.12 240.77,54.5 692.51,272.21 963.45,377.53 177.7,69.08 291.52,48.72 515.73,48.72 -124.7,-108.38 -580.48,-233.64 -847.59,-351.86 -1590.78,-704.01 -2087.13,445.53 -3092.24,-12.2 -1205.53,-549.01 -1383.81,-1206.57 -2728.43,-1091.71 -281.38,24.04 -735.68,183 -975.78,302.85 -433.21,216.25 -799.06,476.53 -1131.31,808.96 -101.4,101.46 -254.7,194.44 -285.75,337.61l206.38 6.35z" />
   <path class="fil1" d="M356.11 20232.57c4.02,2.02 12.31,7.79 16.42,10.05 109.11,60.03 241.72,84.38 335.9,163.86l319.58 198.76c94.3,34.94 127.53,103.12 232.95,123.53l73.45 -131.9c-128.51,-98.36 -45.74,-18.25 -113.88,-51.02 -135.09,-64.97 -47.88,-73.23 -151.01,-118.03l-272.43 -94.07c-244.35,-87.36 -162.8,-169.01 -427.83,-272.2l-51.99 -25.55c-10.67,-5.41 -39.21,-21.72 -53.52,-28.16l-193.68 -118.04c-2.32,-1.1 -11.85,-4.13 -14.33,-5.12l-298.8 -172.65c-4.07,-1.43 -14.59,-3.49 -18.51,-4.73l-117.3 -46.57c-3,-1.2 -12.31,-4.72 -15.52,-5.92 -0.06,-0.03 -37.32,-11.76 -55.47,-18.68 -57.08,-21.75 -83.79,-34.49 -141.01,-62.84 -301.75,-149.46 -16.55,-81.32 -220.96,-201.04 -172.79,-101.21 -293.53,-67 -451.13,-201.24 -3.07,-2.61 -10.76,-8.87 -13.71,-11.44 -166.32,-145.04 -155,-79.11 -277.17,-173.78l-442.44 -245.58c-97.52,-57.36 -171.38,-120.68 -325.79,-163.47l-62.43 2.13c-3.27,0.85 -13.01,5.21 -16.31,6.28 -3.35,1.08 -13.01,5.75 -16.37,6.92 -92.38,32.24 -92.13,15.79 -135.51,120.93 -234.97,-11.42 -166.58,24.83 -301.78,99.62l-201.51 110.58c-190.74,80.07 -335.85,206.69 -505.13,273.41l-335.55 183.28c-67.59,41.01 -54.09,50.04 -148.83,98.12 -128.77,65.36 -225.09,60.33 -307.63,166.92 -89.84,116.02 90.39,-12.81 -90.54,103.08 -38.01,24.34 -124.39,63.59 -168.09,82.17 -48.61,20.65 -68.89,25.47 -82.5,30.43l-46.92 17.78c-2.58,1.11 -11.27,5.2 -13.77,6.32l-40.55 20.25c-240.55,95.35 -290.47,166.37 -512.15,266.15l-435.04 235.34c-86.12,71.86 44.1,-36.8 -40.63,34.25l-264.76 153.43c-36.35,51.41 -32.67,6.86 -8.29,69.71 47.77,123.13 163.25,15.87 216.71,-34.52 62.41,-58.81 -42.99,1.27 42.86,-25.39 80.42,-24.98 -14.93,53.85 153.43,-39.71l336.02 -194.75c76.42,-66.99 58.54,-92.89 170.16,-116.22 158.36,-33.1 269.27,-167.39 418.74,-229.05l83.5 -23.53c107.05,-50.87 146.62,-137.07 386.21,-228.44 8.81,-3.36 19.01,-5.35 27.57,-9.07 8.27,-3.59 17.94,-7.06 25.76,-11.11l497.87 -291.49c380.79,-145.19 123.44,-82.76 298.77,-178.97 162.68,-89.27 -27.65,16.77 105.31,-26.43l327.27 -193.91c4.87,-1.78 15.49,-3.57 20.33,-5.19 116.6,-39.16 183.13,-162.93 343.97,-205.61l64.41 -10.96c4.72,-1.42 15.11,-3.33 19.61,-5.15 131.79,-53.12 22.68,-105.77 212.11,-121.51 51.17,191.73 -17.82,45.67 86.33,95.45l37.24 12.08c4.57,1.92 14.46,5.27 19.19,7.39 0.62,0.28 59.6,31.98 61.96,33.25 11.75,6.29 43.52,23.44 67.8,36.57 121.17,65.58 72.86,73.79 210.82,143.69l252.86 105.29c3.81,1.72 13.1,5.46 16.85,7.27l1554.79 869.16c76.73,31.25 165.26,127.54 337.25,201.58 3.94,1.69 12.88,6.07 16.77,8.01z" />
   <path class="fil0" d="M-8780.32 25521.52c0,92.42 103.85,229.15 171.12,270.83 141.85,87.9 1045.83,63.35 1175.9,34.48 427.22,-94.84 385.28,-712.02 -93.64,-712.02 -649.89,0 -1253.38,-127.61 -1253.38,406.71z" />
   <path class="fil0" d="M-11541.52 23164.98c130.86,-198.49 252.82,-380.14 380.97,-571.51 -621.55,-928.18 -379.03,-850.22 -1098.89,-816.66l534.44 816.66c-61.46,91.78 -505.53,730.89 -512.54,830.05 541.33,0 468.65,86.36 696.02,-258.54z" />
   <path class="fil0" d="M-12183.61 22593.47c-579.76,-865.79 -378.26,-899.27 -1058.33,-811.39 116.77,261.32 71.18,159.73 246.94,423.33 51.8,77.69 230.73,317.77 231.72,387.8 2.2,155.5 -422.21,569.32 -478.64,810.21 605.62,11.52 468.29,90.79 790.52,-372.18 99.78,-143.37 189.85,-290.48 267.79,-437.77z" />
   <path class="fil0" d="M-13206.66 22593.47c-85.34,-161.27 -183.93,-310.04 -282.58,-458.25 -283.36,-425.71 -113.61,-393.93 -775.76,-353.14l253.98 416.3c295.33,442.72 293.57,330.22 -13.78,811.68 -132.28,207.21 -203.59,232.17 -240.04,396.33 319.57,19.4 486.67,70.97 609.14,-97.49l449.04 -715.43z" />
   <path class="fil3" d="M34771.11 9364.31c-32.42,-80.13 -70.44,-51.52 -148.83,-97.33l-272.29 -187.11c-29.4,-16.17 -50.35,-24.29 -91.41,-49.7l-554.67 -327.3c-283.53,-150.38 -261.44,-95.04 -443.99,-261.62 -5.41,-4.94 -13.02,-12.04 -18.68,-16.7l-643.42 -379.46c-234.33,-123.47 -592.31,-468.44 -719.49,-56.62 -286.4,-66.72 -109.61,10.58 -467.41,168.21l-296.58 161.42c-41.94,24.77 -56.52,34.87 -86.15,54.95l-536.98 309.69c-6.55,3.96 -15.07,9.7 -21.62,13.66l-309.42 184.47c-6.7,3.88 -15.53,9.17 -22.12,13.16 -6.54,3.96 -15.09,9.68 -21.55,13.72l-989.83 562.39c9.79,8.7 34.26,37.65 41.31,48.2l29.24 57.63c469.38,-248.36 327.29,-210.17 352.78,-282.22 169.37,-78.33 34.96,5.06 166.46,-20.02 16.97,-3.23 72.33,-23.49 93.68,-34.52l230.06 -130.88c6.28,-4.02 15.83,-9.75 21.48,-13.87 90.97,-66.36 30.76,-56.01 52.76,-118.21l701.7 -321.36c238.68,-152.12 498.18,-267.35 725.09,-438.98l324.69 -169.21c29.27,-17.78 85.4,-50.11 110.02,-66.45l114.06 -97.61 1227.04 748.52c124.64,72.64 997.85,595.77 1097.45,612.03 140.13,22.86 163.85,108.55 356.62,121.12z" />
   <path class="fil3" d="M34771.11 9364.31l-68.79 40.57c98.1,127.62 265.22,207.52 421.57,171.09 49.79,161.25 -4.64,130.61 226.47,210.11 55.98,19.25 20.87,-7.44 90.9,38.51l149.6 167.3c45.13,97.24 32.29,156.29 12.21,273.67 -74.13,433.41 9.82,3133.56 -20.57,3861.25 -207.53,17.26 -262.15,150.63 -317.5,246.94 225.62,-60.25 -16.15,-78.8 210.98,-122.52 158.06,-30.43 57.78,37.98 247.63,-89.15l14.79 -4198.05c-67.2,-259.67 44.05,62.13 -135.62,-94.52l-423.62 -275.11c-105.46,-93.9 -262.82,-196.26 -408.05,-230.09z" />
   <path class="fil3" d="M5599.7 19944.32c156.66,-30.84 480.5,-232.99 615.75,-330.39l336.13 -157.46c6.76,-3.84 15.62,-9.06 22.3,-12.99 6.64,-3.91 15.32,-9.41 21.89,-13.39l252.92 -135.15c26.9,-14.93 46.23,-28.66 65.17,-40.66 8.87,-5.62 33.49,-22.59 42.45,-28.11l298.13 -160.48c35.83,88.76 7.32,37.82 86.62,89.77l1181.87 652.59c53.09,31.11 54.84,38.61 106.1,70.34 21.22,13.14 52.84,31.28 67.68,37.76l154.47 56.75c6.6,3.93 14.76,10.21 20.94,14.58l1364.59 787.91c130.37,74.1 310.93,219.57 439.68,160.03 -72.33,-270.89 -132.72,47.97 -270.17,-136.91 -44.57,-59.94 43.55,-56.7 -32.25,-88.35 -91.79,-38.32 -40.63,-13.33 -156.19,13.59 -60.79,-147.15 25.51,6.03 -35.28,-141.11 -142.39,2.78 -102.42,-1.52 -211.67,-32.45l-12.14 -52.86c-29.3,-60.65 -463.76,-269.14 -643.65,-388.72 -141.92,-94.35 -59.2,-56.09 -212.61,-75.45 -175.22,-22.11 -7.25,17.47 -137.12,-79.39 -42.69,-31.84 -83.69,-15.1 -160.1,-66.8 -107.96,-73.07 66.76,-28.2 -300.11,-237.45l-367.02 -197.47c-93.58,-56.68 -56.11,-53.35 -173.4,-108.82 -138.79,-65.63 -231.85,-115.2 -361.86,-202.58l-348.38 -216.07c-120.45,28.07 -152.33,70.92 -262.45,125.61 -88.76,44.08 -36.92,11.06 -115.07,61.31 -62.19,39.99 -26.13,24.69 -105.29,71.1 -91.87,53.88 -157.29,89.76 -248.91,139.14 -18.88,10.18 -51.17,25.69 -69.52,36.35l-152.08 97.63c-137.64,73.66 -131.49,18.91 -219.31,91.38 -271.18,223.8 -129.95,53.86 -422.4,257.18 -208.58,145.01 -0.66,-28.71 -59.71,140.04z" />
   <path class="fil2" d="M13181.11 26010.14c255.1,-9.53 288.32,-188.73 716.52,-442.38 905.85,-536.59 1116.88,-534.25 2302.68,250.68 270.4,178.99 299.93,182.88 614.41,196.97 -97.01,-132.4 -421.51,-247.19 -654.67,-403.66 -477.85,-320.67 -743.62,-530.18 -1426.72,-530.18 -520.49,0 -1608.2,806.82 -1693.37,932.79l141.15 -4.22z" />
   <path class="fil0" d="M28879.72 20265.14c-38.65,150.2 -69.81,149.89 246.95,317.5 -29.93,128.44 -106.84,193.58 -141.12,317.5 271.65,6.05 428.54,52.44 811.39,35.28 -69.27,-289.39 -286.11,-489.99 -352.77,-776.12l-70.56 0c-36.81,157.99 -70.15,113.3 -105.83,246.95 -224.64,-18.69 -200.3,-125.49 -388.06,-141.11z" />
   <path class="fil1" d="M19954.36 20229.95c-131.96,89.23 -40.65,70.95 -105.66,211.66 -292.03,-97.94 -247.74,-133.76 -321,-131.03 -179.57,6.68 -61.3,195.69 137.89,243.41l-23.87 152.19c-1.88,4.95 -6.24,14.45 -8.56,19.41l-108.68 181.18 747.46 37.59c4.76,-12.11 11.63,-33.26 15.53,-59.93 28.19,-192.79 -116.93,-172.72 -191.36,-410.98l-7.67 -30.35c-0.85,-2.32 -3.51,-11.62 -4.5,-13.75 -0.92,-1.97 -4.44,-10.31 -5.55,-12.11 -47.52,-76.28 -71.08,39.93 -124.03,-187.29z" />
   <path class="fil2" d="M13957.22 26015.41c306.19,0 155.31,-8.02 438.26,-196.73 669.2,-446.33 866.1,191.46 1320.36,191.46 -21.38,-99.26 -5.54,-42.73 -64.18,-101.4l-284.16 -209.99c-363.59,-210.54 -718.04,-221.98 -1077.78,14.17 -56.31,36.96 -127.85,93.34 -181.39,136.1 -17.4,13.89 -80.42,67.68 -93.85,82.54 -50.04,55.33 -28.4,4.14 -57.26,83.85z" />
   <path class="fil1" d="M5599.7 19944.32c-122.99,20.88 -68.52,33.97 -158.78,47.74 -128.17,19.55 34.01,-47.1 -148.99,1.26l-118.87 159.36c-91.39,40.82 -88.21,9.72 -218.3,0 -8.27,17.77 -36.17,78.4 -50.36,93.37 -97.33,102.7 -92.18,-42.05 -161.31,153.57 -190.41,-51.72 -135.36,-10.53 -281.55,69.04l-639.1 348.15c-96.9,73.18 -44.96,-72.74 -67.12,125.23 109.46,47.04 39.58,49.6 151.17,2.1 88.93,-37.86 -21.35,8.49 66.87,-41.33l1417.17 -806.34c146.73,-81.41 121.65,17.89 209.17,-152.15z" />
   <path class="fil0" d="M23976.11 19841.8c-21.61,-92.77 -32.08,-103.67 -70.56,-176.38 -120.31,32.12 -340.73,184.57 -460.54,247.97l78.5 152.26 452.6 -223.85z" />
   <path class="fil0" d="M24258.33 19665.42c0.08,0 322.63,-195.72 352.78,-211.67 -21.61,-92.77 -32.08,-103.67 -70.56,-176.39 -127.78,85.57 -341.57,170.64 -423.33,282.22l67.31 73.81c51.23,38.51 -63.22,32.03 73.8,32.03z" />
   <path class="fil0" d="M25422.5 18995.14c87.31,-23.32 329.78,-162.17 425.26,-212.7l-72.48 -140.08c-133.76,0 -112.81,4.76 -259.87,92.91 -187.17,112.18 -129.64,106.44 -92.91,259.87z" />
   <path class="fil0" d="M24787.5 19206.8c0,168.19 140.49,78.77 210.69,35.95 91.13,-55.58 148.77,-89.32 247.92,-141.78 -23.59,-44.59 -48.48,-141.11 -105.83,-141.11 -20.41,0 -352.78,117.17 -352.78,246.94z" />
   <path class="fil0" d="M27715.55 19735.97c203.1,54.23 374.18,351.49 458.62,35.28 -177.68,-47.44 -232.05,-195.75 -423.34,-211.67 -19.18,80.14 -27.36,81.32 -35.28,176.39z" />
   <path class="fil0" d="M26993.38 19065.69c-69.37,-74.89 -282.11,-199.67 -371.44,-246.94 -42.63,63.67 -70.55,62.02 -70.55,141.11 0,64.16 284.65,210.9 352.78,246.94 33.67,-51.14 60.67,-83.06 89.21,-141.11z" />
   <path class="fil0" d="M22318.05 20723.75c526.65,-122.7 575.8,-571.81 -72.48,-140.08l72.48 140.08z" />
   <path class="fil0" d="M26410.28 18677.64c-156.36,-41.75 -219.94,-162.4 -388.06,-176.39 -22.65,94.6 -35.28,66.5 -35.28,141.11 0,53.54 282.48,195.29 352.78,211.67 38.48,-72.72 48.94,-83.62 70.56,-176.39z" />
   <path class="fil0" d="M27503.89 19559.58c34.92,-130.79 35.63,-45.59 70.55,-176.39 -145.02,-33.78 -254.78,-141.14 -388.05,-211.66 -38.48,72.72 -48.94,83.61 -70.56,176.39l388.06 211.66z" />
   <path class="fil0" d="M22953.05 20406.25c106.07,-71.03 209.42,-142.99 352.78,-176.39 -7.92,-95.25 -16.54,-95.97 -35.28,-176.39 -122.81,10.22 -287.07,100.99 -339.45,154.43 -73.51,74.99 -106.41,13.63 21.95,198.35z" />
   <path class="fil3" d="M17928.83 19325.09c-143.42,-124.07 -162.46,-108.91 -232.16,22.83 104.35,155.83 78.48,57.16 225.01,164.67 146.91,107.8 -26.24,97.12 125.34,75.32 251.56,-36.19 -118.09,-262.73 -118.19,-262.82z" />
   <path class="fil0" d="M28668.05 20265.14c18.74,-80.42 27.36,-81.14 35.28,-176.39 -133.87,-31.19 -215.6,-108.16 -311.49,-170.95l-111.84 135.67c102.69,68.77 234.41,198.88 388.05,211.67z" />
   <path class="fil3" d="M16073.89 19030.42c89.02,0 47.77,48.58 143.43,3.78 216.83,-101.55 252.71,-134.03 279.9,-250.73 -282.06,-46.31 -178.46,40.45 -423.33,105.83l0 141.12z" />
   <path class="fil3" d="M17321.29 19158.84c287.87,193.61 338.94,-51.37 41.19,-182.3 -129.82,-57.08 15.47,-51.96 -124.42,-51.96 -57.36,0 -82.25,96.52 -105.84,141.11 66.51,17.76 127.16,51.52 189.07,93.15z" />
   <path class="fil3" d="M18289.3 19655.61c-4.8,-8.27 -18.76,6.65 -28.19,9.81l0 70.55c127.57,34.06 149.37,88.42 241.58,148.01 129.95,83.99 151.13,60.86 252.31,-6.9l-352.78 -261.01c-125.52,0 -91.77,75.92 -112.92,39.54z" />
   <path class="fil3" d="M15135.46 19510.23c-103.73,-26.92 -64.95,-36.56 -162.48,5.64l-174.44 109.55c-204.72,135.23 125.33,-119.96 -46.03,27.52 -32.25,27.75 -94.99,-9.49 -43.52,105.19l80.89 41.14c77.99,-3.56 207.95,-109.55 271.01,-162.03 88.13,-73.34 37.18,64.71 74.57,-127.01z" />
   <path class="fil3" d="M16673.61 18607.08c-16.82,66.33 -8.59,58.33 -35.28,105.84 38.05,59.82 2.37,34.1 63.73,78.75l253.77 132.91c31.21,-83.64 -21.13,-46.24 70.56,-70.55 -23.81,-89.17 15.18,-44.11 -81.25,-130.55l-39.27 -31.39c-72.81,-54.49 -19.8,-54.49 -232.26,-85.01z" />
   <path class="fil3" d="M13357.5 20617.92c-27.87,-104.37 -14.36,-57.19 -70.56,-141.12 -101.46,27.1 -84.77,37.82 -190.51,91.72l-70.02 35.8c-6.53,3.54 -16.37,9.85 -22.21,13.07 -54.6,30.14 40.99,-4.38 -70.03,35.8 27.86,104.37 14.35,57.19 70.55,141.11l352.78 -176.38z" />
   <path class="fil1" d="M28523.63 9861.51c185.15,53.56 122.04,61.65 408.48,-124.13 91.16,-59.13 42.54,-9.33 95.35,-97.48 -232.92,-33.94 -142.53,-30.77 -394.44,109.8 -113.13,63.12 -48,-7.47 -109.39,111.81z" />
   <path class="fil3" d="M15932.78 19153.8c-2.91,-4.21 -45.15,-59.04 -53.2,-68.65l-52.64 -54.73c-74.88,50.14 -66.49,61.4 -146.36,100.57 -66.34,32.54 -108.48,42.66 -177.96,77.41l42.1 174.79 388.06 -229.39z" />
   <path class="fil3" d="M19125.1 20071.1c-80.93,-43.15 -228.99,-165.55 -228.99,17.65 0,77.28 118.09,94.76 127.67,99.2 107.65,49.8 100.94,67.05 119.27,112.47l105.84 0c16,-66.85 8.57,-58.3 35.28,-105.84 -78.35,-116.99 -52.37,-66.58 -159.07,-123.48z" />
   <path class="fil3" d="M13569.17 20476.8c88.48,-46.81 265.04,-152.96 352.77,-176.38 -32.01,-119.92 -9.83,-71.74 -105.83,-141.12 -82.47,55.23 -214.49,148.89 -317.5,176.39 28.99,57.07 48.85,104.31 70.56,141.11z" />
   <path class="fil3" d="M14516.01 19947.64c-80.76,-100.43 -23.34,-27.69 -129.79,-100.17 -19.17,48.9 28.92,105.85 -294.07,136.88l41.46 192.5 382.4 -229.21z" />
  </g>
 </g>
</g><g id="text"><text x="139.00" y="173.00" font-family="Ma Shan Zheng, KaiTi, DFKai-SB, STKaiti, Microsoft YaHei, serif" font-size="141.04" font-weight="800" fill="#855237" writing-mode="vertical-rl" textLength="357.00" lengthAdjust="spacing">未拉</text>
  <text x="461.00" y="357.52" font-family="Zhi Mang Xing, KaiTi, DFKai-SB, STKaiti, Microsoft YaHei, serif" font-size="125.12" font-weight="800" fill="#955f40" textLength="130.00" lengthAdjust="spacing">捕</text>
  <text x="691.00" y="357.52" font-family="Zhi Mang Xing, KaiTi, DFKai-SB, STKaiti, Microsoft YaHei, serif" font-size="125.12" font-weight="800" fill="#935c3e" textLength="130.00" lengthAdjust="spacing">诉</text>
  <text x="920.00" y="357.52" font-family="Zhi Mang Xing, KaiTi, DFKai-SB, STKaiti, Microsoft YaHei, serif" font-size="125.12" font-weight="800" fill="#935b3c" textLength="131.00" lengthAdjust="spacing">监</text>
  <text x="1150.00" y="357.52" font-family="Zhi Mang Xing, KaiTi, DFKai-SB, STKaiti, Microsoft YaHei, serif" font-size="125.12" font-weight="800" fill="#945d3f" textLength="130.00" lengthAdjust="spacing">防</text>
  <text x="1380.00" y="357.52" font-family="Zhi Mang Xing, KaiTi, DFKai-SB, STKaiti, Microsoft YaHei, serif" font-size="125.12" font-weight="800" fill="#925a3b" textLength="130.00" lengthAdjust="spacing">教</text>
  <text x="285.00" y="280.00" font-family="Microsoft YaHei, SimHei, Noto Sans CJK SC, sans-serif" font-size="55.76" font-weight="800" fill="#875135" writing-mode="vertical-rl" textLength="260.00" lengthAdjust="spacing">工作模式</text>
  <text x="1157.00" y="531.54" font-family="Microsoft JhengHei, SimHei, Microsoft YaHei, Noto Sans CJK SC, sans-serif" font-size="43.24" font-weight="800" fill="#9b603e" textLength="169.00" lengthAdjust="spacing">审查逮捕</text>
  <text x="404.00" y="529.62" font-family="Microsoft JhengHei, SimHei, Microsoft YaHei, Noto Sans CJK SC, sans-serif" font-size="37.72" font-weight="800" fill="#9a5f3d" textLength="166.00" lengthAdjust="spacing">审查逮捕</text>
  <text x="660.00" y="529.62" font-family="Microsoft JhengHei, SimHei, Microsoft YaHei, Noto Sans CJK SC, sans-serif" font-size="37.72" font-weight="800" fill="#9a5f3d" textLength="166.00" lengthAdjust="spacing">审查逮捕</text>
  <text x="911.00" y="529.62" font-family="Microsoft JhengHei, SimHei, Microsoft YaHei, Noto Sans CJK SC, sans-serif" font-size="37.72" font-weight="800" fill="#9a603e" textLength="165.00" lengthAdjust="spacing">审查逮捕</text>
  <text x="1423.00" y="530.62" font-family="Microsoft JhengHei, SimHei, Microsoft YaHei, Noto Sans CJK SC, sans-serif" font-size="37.72" font-weight="800" fill="#9a5f3d" textLength="165.00" lengthAdjust="spacing">审查逮捕</text>
  <text x="673.00" y="593.32" font-family="Microsoft JhengHei, Microsoft YaHei, Noto Sans SC, Noto Sans CJK SC, SimHei, Arial, sans-serif" font-size="23.92" font-weight="800" fill="#626262" textLength="169.00" lengthAdjust="spacing">依法审慎决定是否</text>
  <text x="409.00" y="594.32" font-family="Microsoft JhengHei, Microsoft YaHei, Noto Sans SC, Noto Sans CJK SC, SimHei, Arial, sans-serif" font-size="23.92" font-weight="800" fill="#585858" textLength="169.00" lengthAdjust="spacing">依法审慎决定是否</text>
  <text x="1174.00" y="594.32" font-family="Microsoft JhengHei, Microsoft YaHei, Noto Sans SC, Noto Sans CJK SC, SimHei, Arial, sans-serif" font-size="23.92" font-weight="800" fill="#5f5f5f" textLength="167.00" lengthAdjust="spacing">依法审慎决定是否</text>
  <text x="926.00" y="594.50" font-family="Microsoft JhengHei, Microsoft YaHei, Noto Sans SC, Noto Sans CJK SC, SimHei, Arial, sans-serif" font-size="23.00" font-weight="800" fill="#646564" textLength="166.00" lengthAdjust="spacing">依法审慎决定是否</text>
  <text x="1438.00" y="594.50" font-family="Microsoft JhengHei, Microsoft YaHei, Noto Sans SC, Noto Sans CJK SC, SimHei, Arial, sans-serif" font-size="23.00" font-weight="800" fill="#616363" textLength="166.00" lengthAdjust="spacing">依法审慎决定是否</text>
  <text x="368.00" y="627.14" font-family="Microsoft JhengHei, Microsoft YaHei, Noto Sans SC, Noto Sans CJK SC, SimHei, Arial, sans-serif" font-size="24.84" font-weight="800" fill="#5d5d5c" textLength="209.00" lengthAdjust="spacing">对涉罪未成年人批淮逮</text>
  <text x="635.00" y="628.14" font-family="Microsoft JhengHei, Microsoft YaHei, Noto Sans SC, Noto Sans CJK SC, SimHei, Arial, sans-serif" font-size="24.84" font-weight="800" fill="#5b5a5b" textLength="207.00" lengthAdjust="spacing">对涉罪未成年人批淮逮</text>
  <text x="886.00" y="627.68" font-family="Microsoft JhengHei, Microsoft YaHei, Noto Sans SC, Noto Sans CJK SC, SimHei, Arial, sans-serif" font-size="22.08" font-weight="800" fill="#5e5e5e" textLength="206.00" lengthAdjust="spacing">对涉罪未成年人批淮逮</text>
  <text x="1134.00" y="627.68" font-family="Microsoft JhengHei, Microsoft YaHei, Noto Sans SC, Noto Sans CJK SC, SimHei, Arial, sans-serif" font-size="22.08" font-weight="800" fill="#5e5d5e" textLength="206.00" lengthAdjust="spacing">对涉罪未成年人批淮逮</text>
  <text x="1398.00" y="628.68" font-family="Microsoft JhengHei, Microsoft YaHei, Noto Sans SC, Noto Sans CJK SC, SimHei, Arial, sans-serif" font-size="22.08" font-weight="800" fill="#656566" textLength="206.00" lengthAdjust="spacing">对涉罪未成年人批淮逮</text>
  <text x="368.00" y="660.32" font-family="Microsoft JhengHei, Microsoft YaHei, Noto Sans SC, Noto Sans CJK SC, SimHei, Arial, sans-serif" font-size="23.92" font-weight="800" fill="#5a5a5a" textLength="203.00" lengthAdjust="spacing">捕，坚持“少捕慎押”</text>
  <text x="1133.00" y="662.32" font-family="Microsoft JhengHei, Microsoft YaHei, Noto Sans SC, Noto Sans CJK SC, SimHei, Arial, sans-serif" font-size="23.92" font-weight="800" fill="#5e605f" textLength="202.00" lengthAdjust="spacing">捕，坚持“少捕慎押”</text>
  <text x="635.00" y="660.86" font-family="Microsoft JhengHei, Microsoft YaHei, Noto Sans SC, Noto Sans CJK SC, SimHei, Arial, sans-serif" font-size="21.16" font-weight="800" fill="#5b5c5c" textLength="200.00" lengthAdjust="spacing">捕，坚持“少捕慎押”</text>
  <text x="885.00" y="660.86" font-family="Microsoft JhengHei, Microsoft YaHei, Noto Sans SC, Noto Sans CJK SC, SimHei, Arial, sans-serif" font-size="21.16" font-weight="800" fill="#5c5c5c" textLength="201.00" lengthAdjust="spacing">捕，坚持“少捕慎押”</text>
  <text x="1396.00" y="663.32" font-family="Microsoft JhengHei, Microsoft YaHei, Noto Sans SC, Noto Sans CJK SC, SimHei, Arial, sans-serif" font-size="23.92" font-weight="800" fill="#5a595a" textLength="203.00" lengthAdjust="spacing">捕，坚持“少捕慎押”</text>
  <text x="1130.00" y="698.24" font-family="DengXian, Microsoft YaHei, Noto Sans SC, Noto Sans CJK SC, SimHei, Arial, sans-serif" font-size="29.44" font-weight="800" fill="#707272" textLength="61.00" lengthAdjust="spacing">原则。</text>
  <text x="367.00" y="696.78" font-family="DengXian, Microsoft YaHei, Noto Sans SC, Noto Sans CJK SC, SimHei, Arial, sans-serif" font-size="26.68" font-weight="800" fill="#555455" textLength="59.00" lengthAdjust="spacing">原则。</text>
  <text x="632.00" y="696.78" font-family="DengXian, Microsoft YaHei, Noto Sans SC, Noto Sans CJK SC, SimHei, Arial, sans-serif" font-size="26.68" font-weight="800" fill="#605f60" textLength="60.00" lengthAdjust="spacing">原则。</text>
  <text x="885.00" y="696.14" font-family="Microsoft JhengHei, Microsoft YaHei, Noto Sans SC, Noto Sans CJK SC, SimHei, Arial, sans-serif" font-size="24.84" font-weight="800" fill="#636565" textLength="57.00" lengthAdjust="spacing">原则。</text>
  <text x="1395.00" y="697.78" font-family="DengXian, Microsoft YaHei, Noto Sans SC, Noto Sans CJK SC, SimHei, Arial, sans-serif" font-size="26.68" font-weight="800" fill="#6e6e6e" textLength="59.00" lengthAdjust="spacing">原则。</text>
</g></svg>